<?xml version="1.0" encoding="utf-8"?>
<!-- Generator: Adobe Illustrator 22.1.0, SVG Export Plug-In . SVG Version: 6.00 Build 0)  -->
<svg version="1.1" xmlns="http://www.w3.org/2000/svg" xmlns:xlink="http://www.w3.org/1999/xlink" x="0px" y="0px"
	 viewBox="0 0 810 768" style="enable-background:new 0 0 810 768;" xml:space="preserve">
<style type="text/css">
	.st0{display:none;}
	.st1{display:inline;}
	.st2{fill:#29ABE2;}
	.st3{opacity:0.49;}
	.st4{opacity:0.8;}
	.st5{opacity:0.4;}
	.st6{fill:#0071BC;}
	.st7{opacity:0.6;}
</style>
<g id="Layer_1" class="st0">
	<g class="st1">
		<polygon class="st2" points="284.2,195 289,194.6 277.7,177.8 273,178.2 		"/>
		<polygon class="st2" points="300.5,193.8 305.3,193.5 295.5,176.7 290.6,176.9 		"/>
		<polygon class="st2" points="317,193.1 322,193 313.6,176.1 308.7,176.2 		"/>
		<polygon class="st2" points="333.8,192.9 338.8,192.9 331.9,176 327,176 		"/>
		<polygon class="st2" points="350.9,193.3 355.9,193.5 350.5,176.6 345.5,176.4 		"/>
		<polygon class="st2" points="368.1,194.1 373.1,194.5 369.3,177.7 364.2,177.3 		"/>
		<polygon class="st2" points="385.4,195.5 390.5,196 388.2,179.4 383.1,178.9 		"/>
		<polygon class="st2" points="402.8,197.5 407.9,198.1 407.1,181.6 402,180.9 		"/>
		<polygon class="st2" points="420.2,199.9 425.3,200.7 426.1,184.4 420.9,183.6 		"/>
		<polygon class="st2" points="437.6,202.8 442.7,203.7 445,187.7 439.9,186.8 		"/>
		<polygon class="st2" points="454.9,206.2 460,207.3 463.8,191.6 458.7,190.5 		"/>
		<polygon class="st2" points="472.1,210.1 477.1,211.4 482.5,196 477.5,194.7 		"/>
		<polygon class="st2" points="489.1,214.5 494.1,215.9 501,200.9 496,199.5 		"/>
		<polygon class="st2" points="505.9,219.3 510.9,220.8 519.2,206.3 514.3,204.8 		"/>
		<polygon class="st2" points="522.5,224.6 527.3,226.3 537.2,212.2 532.4,210.6 		"/>
		<polygon class="st2" points="538.8,230.4 543.5,232.1 554.8,218.6 550.1,216.8 		"/>
		<polygon class="st2" points="554.7,236.5 559.3,238.4 572,225.4 567.4,223.5 		"/>
		<polygon class="st2" points="570.2,243.1 574.7,245.1 588.8,232.6 584.3,230.6 		"/>
		<polygon class="st2" points="585.3,250 589.7,252.1 605.1,240.3 600.7,238.2 		"/>
		<polygon class="st2" points="599.9,257.3 604.2,259.5 620.9,248.3 616.6,246.1 		"/>
		<polygon class="st2" points="614,265 618.1,267.3 636.1,256.8 632,254.5 		"/>
		<polygon class="st2" points="627.6,272.9 631.5,275.3 650.7,265.5 646.8,263.1 		"/>
		<polygon class="st2" points="640.5,281.2 644.3,283.7 664.6,274.6 660.9,272.2 		"/>
		<polygon class="st2" points="652.9,289.8 656.4,292.3 677.8,284 674.3,281.5 		"/>
		<polygon class="st2" points="664.6,298.6 667.9,301.2 690.3,293.7 687,291.1 		"/>
		<polygon class="st2" points="675.5,307.6 678.7,310.3 702.1,303.6 699,300.9 		"/>
		<polygon class="st2" points="685.8,316.9 688.7,319.6 713,313.8 710.1,311 		"/>
		<polygon class="st2" points="695.3,326.3 698,329.1 723.2,324.1 720.5,321.3 		"/>
		<polygon class="st2" points="704,335.9 706.5,338.8 732.4,334.6 730,331.7 		"/>
		<polygon class="st2" points="712,345.6 714.2,348.5 740.8,345.2 738.6,342.3 		"/>
		<polygon class="st2" points="719.1,355.5 721.1,358.4 748.3,355.9 746.4,353 		"/>
		<polygon class="st2" points="725.4,365.4 727.1,368.3 754.9,366.7 753.2,363.8 		"/>
		<polygon class="st2" points="730.8,375.3 732.2,378.3 760.5,377.6 759.1,374.6 		"/>
		<polygon class="st2" points="735.3,385.3 736.5,388.2 765.2,388.4 764,385.5 		"/>
		<polygon class="st2" points="739,395.3 739.9,398.2 768.9,399.3 768,396.3 		"/>
		<polygon class="st2" points="741.7,405.2 742.4,408.1 771.6,410.1 771,407.2 		"/>
		<polygon class="st2" points="743.6,415.1 744,418 773.4,420.8 773,417.9 		"/>
		<polygon class="st2" points="744.5,424.9 744.6,427.8 774.2,431.5 774,428.6 		"/>
		<polygon class="st2" points="744.5,434.6 744.4,437.4 773.9,442 774.1,439.1 		"/>
		<polygon class="st2" points="743.7,444.1 743.3,446.9 772.7,452.3 773.1,449.5 		"/>
		<polygon class="st2" points="741.9,453.5 741.2,456.2 770.5,462.5 771.1,459.7 		"/>
		<polygon class="st2" points="739.2,462.7 738.3,465.3 767.3,472.4 768.2,469.7 		"/>
		<polygon class="st2" points="735.6,471.6 734.4,474.2 763.1,482.1 764.3,479.5 		"/>
		<polygon class="st2" points="731.1,480.4 729.7,482.9 758,491.5 759.4,489 		"/>
		<polygon class="st2" points="725.8,488.8 724.1,491.3 751.9,500.6 753.6,498.2 		"/>
		<polygon class="st2" points="719.6,497 717.6,499.3 744.9,509.4 746.8,507.1 		"/>
		<polygon class="st2" points="712.5,504.8 710.3,507.1 737,517.9 739.2,515.6 		"/>
		<polygon class="st2" points="704.6,512.4 702.2,514.5 728.1,526 730.6,523.8 		"/>
		<polygon class="st2" points="696,519.5 693.3,521.6 718.5,533.7 721.1,531.6 		"/>
		<polygon class="st2" points="686.5,526.3 683.6,528.3 707.9,541 710.8,539 		"/>
		<polygon class="st2" points="676.3,532.7 673.2,534.6 696.6,547.8 699.7,546 		"/>
		<polygon class="st2" points="665.4,538.7 662,540.4 684.5,554.2 687.8,552.5 		"/>
		<polygon class="st2" points="653.7,544.3 650.2,545.9 671.6,560.2 675.2,558.6 		"/>
		<polygon class="st2" points="641.5,549.5 637.7,550.9 658.1,565.6 661.8,564.2 		"/>
		<polygon class="st2" points="628.5,554.1 624.6,555.4 643.8,570.6 647.7,569.3 		"/>
		<polygon class="st2" points="615,558.3 611,559.5 628.9,575 633,573.9 		"/>
		<polygon class="st2" points="601,562.1 596.7,563.1 613.5,579 617.7,577.9 		"/>
		<polygon class="st2" points="586.4,565.3 582,566.2 597.4,582.3 601.8,581.5 		"/>
		<polygon class="st2" points="571.3,568.1 566.8,568.8 580.9,585.2 585.4,584.4 		"/>
		<polygon class="st2" points="555.8,570.3 551.2,570.9 563.9,587.5 568.5,586.9 		"/>
		<polygon class="st2" points="539.9,572 535.2,572.4 546.5,589.2 551.2,588.8 		"/>
		<polygon class="st2" points="523.7,573.2 518.9,573.5 528.7,590.3 533.5,590.1 		"/>
		<polygon class="st2" points="507.1,573.9 502.2,574 510.6,590.9 515.5,590.8 		"/>
		<polygon class="st2" points="490.3,574.1 485.4,574.1 492.2,591 497.2,591 		"/>
		<polygon class="st2" points="473.3,573.7 468.3,573.5 473.7,590.4 478.7,590.6 		"/>
		<polygon class="st2" points="456.1,572.9 451,572.5 454.9,589.3 460,589.7 		"/>
		<polygon class="st2" points="438.8,571.5 433.7,571 436,587.6 441.1,588.1 		"/>
		<polygon class="st2" points="421.4,569.5 416.3,568.9 417.1,585.4 422.2,586 		"/>
		<polygon class="st2" points="404,567.1 398.9,566.3 398.1,582.6 403.2,583.4 		"/>
		<polygon class="st2" points="386.6,564.2 381.5,563.3 379.2,579.3 384.3,580.2 		"/>
		<polygon class="st2" points="369.3,560.8 364.2,559.7 360.4,575.4 365.5,576.5 		"/>
		<polygon class="st2" points="352.1,556.9 347.1,555.7 341.7,571 346.7,572.2 		"/>
		<polygon class="st2" points="335.1,552.5 330.1,551.1 323.2,566.1 328.2,567.5 		"/>
		<polygon class="st2" points="318.2,547.6 313.3,546.2 304.9,560.7 309.9,562.2 		"/>
		<polygon class="st2" points="301.7,542.4 296.8,540.7 287,554.8 291.8,556.4 		"/>
		<polygon class="st2" points="285.4,536.6 280.7,534.9 269.4,548.4 274.1,550.2 		"/>
		<polygon class="st2" points="269.5,530.5 264.9,528.6 252.2,541.6 256.8,543.5 		"/>
		<polygon class="st2" points="254,523.9 249.5,521.9 235.4,534.4 239.9,536.4 		"/>
		<polygon class="st2" points="238.9,517 234.5,514.9 219.1,526.7 223.4,528.8 		"/>
		<polygon class="st2" points="224.3,509.7 220,507.5 203.3,518.7 207.5,520.9 		"/>
		<polygon class="st2" points="210.2,502 206.1,499.7 188.1,510.2 192.2,512.5 		"/>
		<polygon class="st2" points="196.6,494.1 192.7,491.7 173.5,501.5 177.4,503.9 		"/>
		<polygon class="st2" points="183.6,485.8 179.9,483.3 159.6,492.4 163.3,494.8 		"/>
		<polygon class="st2" points="171.3,477.2 167.8,474.7 146.4,483 149.9,485.5 		"/>
		<polygon class="st2" points="159.6,468.4 156.3,465.8 133.9,473.3 137.2,475.9 		"/>
		<polygon class="st2" points="148.6,459.4 145.5,456.7 122.1,463.4 125.2,466.1 		"/>
		<polygon class="st2" points="138.4,450.1 135.5,447.4 111.2,453.2 114.1,456 		"/>
		<polygon class="st2" points="128.9,440.7 126.2,437.9 101,442.9 103.7,445.7 		"/>
		<polygon class="st2" points="120.1,431.1 117.7,428.2 91.8,432.4 94.2,435.3 		"/>
		<polygon class="st2" points="112.2,421.4 110,418.5 83.4,421.8 85.6,424.7 		"/>
		<polygon class="st2" points="105.1,411.5 103.1,408.6 75.9,411.1 77.8,414 		"/>
		<polygon class="st2" points="98.8,401.6 97.1,398.7 69.3,400.3 71,403.2 		"/>
		<polygon class="st2" points="93.4,391.7 92,388.7 63.7,389.4 65.1,392.4 		"/>
		<polygon class="st2" points="88.9,381.7 87.7,378.8 59,378.6 60.2,381.5 		"/>
		<polygon class="st2" points="85.2,371.7 84.3,368.8 55.3,367.7 56.2,370.6 		"/>
		<polygon class="st2" points="82.5,361.8 81.8,358.9 52.5,356.9 53.2,359.8 		"/>
		<polygon class="st2" points="80.6,351.9 80.2,349 50.8,346.2 51.2,349.1 		"/>
		<polygon class="st2" points="79.7,342.1 79.5,339.2 50,335.5 50.2,338.4 		"/>
		<polygon class="st2" points="79.6,332.4 79.8,329.6 50.3,325 50.1,327.9 		"/>
		<polygon class="st2" points="80.5,322.9 80.9,320.1 51.5,314.7 51.1,317.5 		"/>
		<polygon class="st2" points="82.3,313.5 83,310.8 53.7,304.5 53,307.3 		"/>
		<polygon class="st2" points="85,304.3 85.9,301.7 56.9,294.6 56,297.3 		"/>
		<polygon class="st2" points="88.6,295.4 89.8,292.8 61.1,284.9 59.9,287.5 		"/>
		<polygon class="st2" points="93.1,286.6 94.5,284.1 66.2,275.5 64.8,278 		"/>
		<polygon class="st2" points="98.4,278.2 100.1,275.7 72.3,266.4 70.6,268.8 		"/>
		<polygon class="st2" points="104.6,270 106.6,267.7 79.3,257.6 77.4,259.9 		"/>
		<polygon class="st2" points="111.7,262.2 113.9,259.9 87.2,249.1 85,251.4 		"/>
		<polygon class="st2" points="119.5,254.6 122,252.5 96.1,241 93.6,243.2 		"/>
		<polygon class="st2" points="128.2,247.5 130.9,245.4 105.7,233.3 103.1,235.4 		"/>
		<polygon class="st2" points="137.7,240.7 140.6,238.7 116.3,226 113.4,228 		"/>
		<polygon class="st2" points="147.9,234.3 151,232.4 127.6,219.2 124.5,221 		"/>
		<polygon class="st2" points="158.8,228.3 162.1,226.6 139.7,212.8 136.4,214.5 		"/>
		<polygon class="st2" points="170.4,222.7 174,221.1 152.6,206.8 149,208.4 		"/>
		<polygon class="st2" points="182.7,217.6 186.4,216.1 166.1,201.4 162.4,202.8 		"/>
		<polygon class="st2" points="195.6,212.9 199.5,211.6 180.4,196.4 176.5,197.7 		"/>
		<polygon class="st2" points="209.2,208.7 213.2,207.5 195.3,192 191.2,193.1 		"/>
		<polygon class="st2" points="223.2,204.9 227.4,203.9 210.7,188 206.5,189.1 		"/>
		<polygon class="st2" points="237.8,201.7 242.2,200.8 226.8,184.7 222.4,185.5 		"/>
		<polygon class="st2" points="252.9,198.9 257.4,198.2 243.3,181.8 238.8,182.6 		"/>
		<polygon class="st2" points="268.4,196.7 273,196.1 260.3,179.5 255.6,180.1 		"/>
	</g>
</g>
<g id="Layer_2" class="st3">
	<g>
		<g class="st4">
			<g class="st5">
				<path class="st6" d="M695.4,292.6l-0.2,0.1l-93.3,43.9L574.1,280l0.1-0.1l46.6-51l0.1,0.1L695.4,292.6z M602.1,336.1l92.7-43.6
					l-74-63.2l-46.3,50.7L602.1,336.1z"/>
				<path class="st6" d="M621.1,229l-46.9,51.3l-0.1-0.3l-25.1-65.6l0.3,0.1L621.1,229z M574.4,279.7l46.1-50.5L549.6,215
					L574.4,279.7z"/>
				<path class="st6" d="M639.3,195.7L639.3,195.7l-18.4,33.6l-0.1,0l-71.6-14.4l0-0.1l1-32.2l0.1,0l55-36.6l0.1,0.1L639.3,195.7z
					 M620.7,228.9l18.2-33.2l-33.8-49.3l-54.6,36.3l-0.9,32L620.7,228.9z"/>
				<path class="st6" d="M574.6,280.2l-58.7,2.7l-8.8-40l0.1-0.1l42.3-28.4L574.6,280.2z M516.1,282.5l58-2.6L549.2,215l-41.8,28
					L516.1,282.5z"/>
				<path class="st6" d="M602.4,336.8l-87-54.3l59-2.7l0.1,0.1L602.4,336.8z M516.5,282.8l85.1,53.1l-27.4-55.7L516.5,282.8z"/>
				<path class="st6" d="M516.2,282.9l-68.6-8.1l59.8-32.1L516.2,282.9z M448.7,274.6l67.1,7.9l-8.6-39.3L448.7,274.6z"/>
				<path class="st6" d="M549.5,214.8l-42.2,28.3l-0.1-0.1l-33.7-17.5l0-0.1l13.5-52.9l63.5,9.8L549.5,214.8z M507.2,242.8
					l41.9-28.1l0.9-31.9l-62.9-9.7l-13.4,52.5L507.2,242.8z"/>
				<path class="st6" d="M515.1,331L515.1,331l-36.3,19.3l-0.1-0.2l-30.9-75.6l68.3,8L515.1,331z M479,349.8l35.7-19l1-48l-67.4-7.9
					L479,349.8z"/>
				<path class="st6" d="M602.7,336.5l-87.9-5.5l1-48.7l0.3,0.2L602.7,336.5z M515.1,330.8l86.2,5.4L516.1,283L515.1,330.8z"/>
				<path class="st6" d="M602.2,336.2l-28.8,85.1L478.6,350l36.3-19.3l0.1,0L602.2,336.2z M573.2,420.7l28.6-84.2l-86.8-5.4
					l-35.7,19L573.2,420.7z"/>
				<path class="st6" d="M507.6,243l-0.3,0.1l-59.3,31.8l-65.1-74l0.6,0.2l90.1,24.3l0,0L507.6,243z M448.2,274.5l58.7-31.5
					l-33.3-17.2L384,201.6L448.2,274.5z"/>
				<path class="st6" d="M487.3,172.8l-13.5,53l-0.2,0l-90.4-24.4l0.3-0.2l68.6-52.4l0.1,0.1L487.3,172.8z M473.5,225.4l13.4-52.5
					L452,149.2l-68.2,52L473.5,225.4z"/>
				<path class="st6" d="M605.7,146l-0.5,0.3l-54.9,36.5l-0.1,0L487,173l-35.5-24.2l0.5,0L605.7,146z M550.2,182.4l54.3-36.1
					l-152,2.8l34.6,23.6L550.2,182.4z"/>
				<path class="st6" d="M754.4,219.9l-0.1,0.1l-59.2,72.8l-74.6-63.7l0.1-0.1l18.3-33.5l0,0l35.9-19.9l0.1,0.1L754.4,219.9z
					 M695.1,292.3l58.8-72.4l-79-44l-35.7,19.8L621,229.1L695.1,292.3z"/>
				<path class="st6" d="M778.2,283.2l-0.2,0l-83.3,9.6l59.5-73.2l0.1,0.3L778.2,283.2z M695.5,292.3l82.2-9.4l-23.6-62.7
					L695.5,292.3z"/>
				<path class="st6" d="M778.5,216.9l-24.3,3.2l-0.1,0l-79.4-44.2l16.3-34.8l0.1,0l81.7-18l0,0.2L778.5,216.9z M754.2,219.7
					l23.9-3.1l-5.7-93.2l-81.2,17.9l-16.1,34.4L754.2,219.7z"/>
				<path class="st6" d="M605.5,146.3l-0.4,0l-153.4,2.8l0.1-0.2l22.3-59.2l0.1,0l68-12.3l0.1,0.1L605.5,146.3z M452.3,148.8
					l152.5-2.8l-62.7-68.2L474.4,90L452.3,148.8z"/>
				<path class="st6" d="M635.9,139.1l-30.9,7.2l-0.1-0.1l-63.3-68.9l86.3,12.1l0,0.1L635.9,139.1z M605.2,146l30.3-7.1l-7.8-49.1
					l-85.1-12L605.2,146z"/>
				<path class="st6" d="M672.1,84.7l-0.2,0.3l-36.3,54.5l-7.9-50l0.2,0L672.1,84.7z M635.8,138.5l35.6-53.5l-43.3,4.7L635.8,138.5z
					"/>
				<path class="st6" d="M672,85l-44.5,4.9l31-42.4L672,85z M628.3,89.5l43.2-4.7l-13.1-36.5L628.3,89.5z"/>
				<path class="st6" d="M479.2,350.1L479.2,350.1l-62.9,52.6l-70.8-32.4l0-0.1l32-91.4l0.1,0l70.6-4.3l0,0.1L479.2,350.1z
					 M416.2,402.3l62.6-52.3L448,274.9l-70.2,4.2l-31.9,91L416.2,402.3z"/>
				<path class="st6" d="M377.9,278.9l0,0.1l-32,91.4l-64.5-1.6l0-0.2l33.5-140.1l0.2,0.2L377.9,278.9z M345.5,370.1l31.9-91
					L315,229.1l-33.3,139.4L345.5,370.1z"/>
				<path class="st6" d="M315.2,228.5l-0.1,0.3l-33.5,140.4l-42.6-106.6l0.1-0.1L315.2,228.5z M281.4,368.1l33.2-138.9l-75.3,33.7
					L281.4,368.1z"/>
				<path class="st6" d="M416.5,402.5l-21,25.5l-0.1,0l-54.8,5l-0.1-0.1l-41.4-44.2l46.6-18.7l0.1,0L416.5,402.5z M395.3,427.6
					l20.6-25.1l-70.2-32.2l-46,18.5l41,43.8L395.3,427.6z"/>
				<path class="st6" d="M414,445.9l-30,32l-52.9-6.2l0-0.2l9.3-38.8l55-5l0.1,0.1L414,445.9z M383.9,477.5l29.6-31.6L395.3,428
					l-54.5,5l-9.2,38.4L383.9,477.5z"/>
				<path class="st6" d="M437.9,480.7l-0.4,0l-54-2.8l30.2-32.2L437.9,480.7z M384.3,477.5l52.9,2.8l-23.5-34.2L384.3,477.5z"/>
				<path class="st6" d="M502.6,477.5L502.6,477.5l-22.8,42l-0.2-0.2l-42.1-38.8l0,0l-24-34.9l76.5,2.3L502.6,477.5z M479.7,519
					l22.5-41.5l-12.5-29.2l-75.6-2.3l23.6,34.4L479.7,519z"/>
				<path class="st6" d="M480,519.3l-43.1,43.9l-52-20.1l0-0.1l-1-65.5l0.2,0l53.7,2.8l0,0L480,519.3z M436.8,562.8l42.7-43.5
					l-42-38.6l-53.4-2.8l1,65L436.8,562.8z"/>
				<path class="st6" d="M658.5,383.1L658.5,383.1l-19.6,27.7l-0.1,0l-65.8,10.4l0.1-0.3l28.8-84.8l0.2,0.1l47.2,21.8L658.5,383.1z
					 M638.7,410.5l19.5-27.4l-9.2-24.8l-46.9-21.7l-28.5,84.2L638.7,410.5z"/>
				<path class="st6" d="M684.6,368.2l-8.6,17.1l-17.8-2.1l-9.3-25.2l20.4-4.3L684.6,368.2z M675.8,385l8.4-16.7L669.2,354
					l-19.8,4.2l9.1,24.7L675.8,385z"/>
				<path class="st6" d="M448.5,274.9l-70.9,4.3l-0.1,0l-63-50.3l0.3-0.1l68.7-27.6l0.1,0.1L448.5,274.9z M377.7,278.8l70-4.2
					l-64.3-73.1l-68.2,27.4L377.7,278.8z"/>
			</g>
			<g>
				<path class="st6" d="M413.5,447.7c-1.1-0.1-1.9-1-1.7-2c0.1-1,1.1-1.7,2.2-1.6c1.1,0.1,1.9,1,1.7,2
					C415.6,447.1,414.6,447.8,413.5,447.7z"/>
				<path class="st6" d="M437.3,482.3c-1.1-0.1-1.9-1-1.7-2c0.1-1,1.1-1.7,2.2-1.6c1.1,0.1,1.9,1,1.7,2
					C439.4,481.7,438.4,482.4,437.3,482.3z"/>
				<path class="st6" d="M383.7,479.5c-1.1-0.1-1.9-1-1.7-2c0.1-1,1.1-1.7,2.2-1.6c1.1,0.1,1.9,1,1.7,2
					C385.8,478.9,384.8,479.6,383.7,479.5z"/>
				<path class="st6" d="M394.8,429.5c-1.1-0.1-1.9-1-1.7-2c0.1-1,1.1-1.7,2.2-1.6c1.1,0.1,1.9,1,1.7,2
					C396.9,429,395.9,429.7,394.8,429.5z"/>
				<path class="st6" d="M331.1,473.3c-1.1-0.1-1.9-1-1.7-2c0.1-1,1.1-1.7,2.2-1.6c1.1,0.1,1.9,1,1.7,2
					C333.2,472.7,332.2,473.4,331.1,473.3z"/>
				<path class="st6" d="M299.1,390.6c-1.1-0.1-1.9-1-1.7-2c0.1-1,1.1-1.7,2.2-1.6c1.1,0.1,1.9,1,1.7,2
					C301.2,390,300.2,390.7,299.1,390.6z"/>
				<path class="st6" d="M639.5,412.5c-1.1-0.1-1.9-1-1.7-2c0.1-1,1.1-1.7,2.2-1.6c1.1,0.1,1.9,1,1.7,2
					C641.5,411.9,640.5,412.6,639.5,412.5z"/>
				<path class="st6" d="M684.2,370.1c-1.1-0.1-1.9-1-1.7-2c0.1-1,1.1-1.7,2.2-1.6c1.1,0.1,1.8,1,1.7,2
					C686.2,369.5,685.2,370.2,684.2,370.1z"/>
				<path class="st6" d="M777.8,284.8c-1.1-0.1-1.9-1-1.7-2c0.1-1,1.1-1.7,2.2-1.6c1.1,0.1,1.9,1,1.7,2
					C779.8,284.2,778.9,284.9,777.8,284.8z"/>
				<path class="st6" d="M771.6,125c-1.1-0.1-1.9-1-1.7-2c0.1-1,1.1-1.7,2.2-1.6c1.1,0.1,1.9,1,1.7,2
					C773.7,124.4,772.7,125.1,771.6,125z"/>
				<path class="st6" d="M238.9,264.5c-1.1-0.1-1.9-1-1.7-2c0.1-1,1.1-1.7,2.2-1.6c1.1,0.1,1.9,1,1.7,2
					C241,263.9,240,264.6,238.9,264.5z"/>
				<path class="st6" d="M385.1,544.9c-1.1-0.1-1.9-1-1.7-2c0.1-1,1.1-1.7,2.2-1.6c1.1,0.1,1.9,1,1.7,2
					C387.2,544.3,386.2,545,385.1,544.9z"/>
				<path class="st6" d="M436.7,564.8c-1.1-0.1-1.9-1-1.7-2c0.1-1,1.1-1.7,2.2-1.6c1.1,0.1,1.9,1,1.7,2
					C438.8,564.2,437.8,564.9,436.7,564.8z"/>
				<path class="st6" d="M415.9,404.3c-1.1-0.1-1.9-1-1.7-2c0.1-1,1.1-1.7,2.2-1.6c1.1,0.1,1.9,1,1.7,2
					C418,403.7,417,404.4,415.9,404.3z"/>
				<path class="st6" d="M478.7,351.9c-1.1-0.1-1.9-1-1.7-2c0.1-1,1.1-1.7,2.2-1.6c1.1,0.1,1.9,1,1.7,2
					C480.8,351.3,479.8,352,478.7,351.9z"/>
				<path class="st6" d="M447.9,276.5c-1.1-0.1-1.9-1-1.7-2c0.1-1,1.1-1.7,2.2-1.6c1.1,0.1,1.9,1,1.7,2
					C450,275.9,449,276.6,447.9,276.5z"/>
				<path class="st6" d="M473.4,227.4c-1.1-0.1-1.9-1-1.7-2c0.1-1,1.1-1.7,2.2-1.6c1.1,0.1,1.9,1,1.7,2
					C475.5,226.8,474.5,227.5,473.4,227.4z"/>
				<path class="st6" d="M515.7,284.5c-1.1-0.1-1.9-1-1.7-2c0.1-1,1.1-1.7,2.2-1.6c1.1,0.1,1.9,1,1.7,2
					C517.8,283.9,516.8,284.6,515.7,284.5z"/>
				<path class="st6" d="M507,244.8c-1.1-0.1-1.9-1-1.7-2c0.1-1,1.1-1.7,2.2-1.6c1.1,0.1,1.9,1,1.7,2
					C509.1,244.2,508.1,244.9,507,244.8z"/>
				<path class="st6" d="M549.1,216.5c-1.1-0.1-1.9-1-1.7-2c0.1-1,1.1-1.7,2.2-1.6c1.1,0.1,1.9,1,1.7,2
					C551.2,216,550.2,216.7,549.1,216.5z"/>
				<path class="st6" d="M550,184.4c-1.1-0.1-1.9-1-1.7-2c0.1-1,1.1-1.7,2.2-1.6c1.1,0.1,1.9,1,1.7,2
					C552.1,183.8,551.1,184.5,550,184.4z"/>
				<path class="st6" d="M604.9,147.9c-1.1-0.1-1.9-1-1.7-2c0.1-1,1.1-1.7,2.2-1.6c1.1,0.1,1.9,1,1.7,2
					C606.9,147.4,606,148.1,604.9,147.9z"/>
				<path class="st6" d="M541.9,79.4c-1.1-0.1-1.9-1-1.7-2c0.1-1,1.1-1.7,2.2-1.6c1.1,0.1,1.9,1,1.7,2C544,78.8,543,79.5,541.9,79.4
					z"/>
				<path class="st6" d="M486.8,174.6c-1.1-0.1-1.9-1-1.7-2c0.1-1,1.1-1.7,2.2-1.6c1.1,0.1,1.9,1,1.7,2
					C488.9,174.1,487.9,174.8,486.8,174.6z"/>
				<path class="st6" d="M451.8,150.7c-1.1-0.1-1.9-1-1.7-2c0.1-1,1.1-1.7,2.2-1.6c1.1,0.1,1.9,1,1.7,2
					C453.9,150.2,452.9,150.9,451.8,150.7z"/>
				<path class="st6" d="M383.3,203c-1.1-0.1-1.9-1-1.7-2c0.1-1,1.1-1.7,2.2-1.6c1.1,0.1,1.9,1,1.7,2
					C385.3,202.5,384.3,203.2,383.3,203z"/>
				<path class="st6" d="M377.4,280.8c-1.1-0.1-1.9-1-1.7-2c0.1-1,1.1-1.7,2.2-1.6c1.1,0.1,1.9,1,1.7,2
					C379.5,280.2,378.5,280.9,377.4,280.8z"/>
				<path class="st6" d="M314.7,230.6c-1.1-0.1-1.9-1-1.7-2c0.1-1,1.1-1.7,2.2-1.6c1.1,0.1,1.9,1,1.7,2
					C316.7,230,315.7,230.8,314.7,230.6z"/>
				<path class="st6" d="M281.2,370.4c-1.1-0.1-1.9-1-1.7-2c0.1-1,1.1-1.7,2.2-1.6c1.1,0.1,1.9,1,1.7,2
					C283.3,369.9,282.3,370.6,281.2,370.4z"/>
				<path class="st6" d="M345.4,372c-1.1-0.1-1.9-1-1.7-2c0.1-1,1.1-1.7,2.2-1.6c1.1,0.1,1.9,1,1.7,2
					C347.5,371.4,346.5,372.1,345.4,372z"/>
				<path class="st6" d="M479.5,521.1c-1.1-0.1-1.9-1-1.7-2c0.1-1,1.1-1.7,2.2-1.6c1.1,0.1,1.9,1,1.7,2
					C481.6,520.5,480.6,521.2,479.5,521.1z"/>
				<path class="st6" d="M635.5,140.8c-1.1-0.1-1.9-1-1.7-2c0.1-1,1.1-1.7,2.2-1.6c1.1,0.1,1.9,1,1.7,2
					C637.6,140.2,636.6,140.9,635.5,140.8z"/>
				<path class="st6" d="M627.6,91.5c-1.1-0.1-1.9-1-1.7-2c0.1-1,1.1-1.7,2.2-1.6c1.1,0.1,1.9,1,1.7,2
					C629.7,90.9,628.7,91.6,627.6,91.5z"/>
				<path class="st6" d="M671.5,86.4c-1.1-0.1-1.9-1-1.7-2c0.1-1,1.1-1.7,2.2-1.6c1.1,0.1,1.9,1,1.7,2
					C673.6,85.9,672.6,86.6,671.5,86.4z"/>
				<path class="st6" d="M674.7,177.6c-1.1-0.1-1.9-1-1.7-2c0.1-1,1.1-1.7,2.2-1.6c1.1,0.1,1.9,1,1.7,2
					C676.7,177,675.7,177.7,674.7,177.6z"/>
				<path class="st6" d="M638.8,197.6c-1.1-0.1-1.9-1-1.7-2c0.1-1,1.1-1.7,2.2-1.6c1.1,0.1,1.9,1,1.7,2
					C640.9,197,639.9,197.7,638.8,197.6z"/>
				<path class="st6" d="M753.9,221.7c-1.1-0.1-1.9-1-1.7-2c0.1-1,1.1-1.7,2.2-1.6c1.1,0.1,1.9,1,1.7,2
					C756,221.1,755,221.8,753.9,221.7z"/>
				<path class="st6" d="M694.9,294.4c-1.1-0.1-1.9-1-1.7-2c0.1-1,1.1-1.7,2.2-1.6c1.1,0.1,1.9,1,1.7,2
					C697,293.8,696,294.5,694.9,294.4z"/>
				<path class="st6" d="M620.5,230.9c-1.1-0.1-1.9-1-1.7-2c0.1-1,1.1-1.7,2.2-1.6c1.1,0.1,1.9,1,1.7,2
					C622.6,230.3,621.6,231,620.5,230.9z"/>
				<path class="st6" d="M601.8,338.1c-1.1-0.1-1.9-1-1.7-2c0.1-1,1.1-1.7,2.2-1.6c1.1,0.1,1.9,1,1.7,2
					C603.8,337.6,602.8,338.3,601.8,338.1z"/>
				<path class="st6" d="M574.1,281.8c-1.1-0.1-1.9-1-1.7-2c0.1-1,1.1-1.7,2.2-1.6c1.1,0.1,1.9,1,1.7,2
					C576.1,281.3,575.1,282,574.1,281.8z"/>
				<path class="st6" d="M514.7,332.7c-1.1-0.1-1.9-1-1.7-2c0.1-1,1.1-1.7,2.2-1.6c1.1,0.1,1.9,1,1.7,2
					C516.8,332.1,515.8,332.8,514.7,332.7z"/>
				<path class="st6" d="M573.1,422.8c-1.1-0.1-1.9-1-1.7-2c0.1-1,1.1-1.7,2.2-1.6c1.1,0.1,1.9,1,1.7,2
					C575.1,422.2,574.1,422.9,573.1,422.8z"/>
				<path class="st6" d="M658.1,384.9c-1.1-0.1-1.9-1-1.7-2c0.1-1,1.1-1.7,2.2-1.6c1.1,0.1,1.9,1,1.7,2
					C660.2,384.3,659.2,385,658.1,384.9z"/>
				<path class="st6" d="M648.9,360c-1.1-0.1-1.9-1-1.7-2c0.1-1,1.1-1.7,2.2-1.6c1.1,0.1,1.9,1,1.7,2C651,359.5,650,360.2,648.9,360
					z"/>
				<path class="st6" d="M658,49.6c-1.1-0.1-1.9-1-1.7-2c0.1-1,1.1-1.7,2.2-1.6c1.1,0.1,1.9,1,1.7,2C660.1,49,659.1,49.7,658,49.6z"
					/>
			</g>
		</g>
		<g class="st4">
			<g class="st5">
				<path class="st6" d="M356.2,210.5l0,0.2l-18.9,94.1l-66.1-14.5l0-0.1l-15.9-64.8l0.2,0L356.2,210.5z M337,304.4l18.8-93.5
					l-100.1,14.8l15.8,64.4L337,304.4z"/>
				<path class="st6" d="M255.6,225.2l16,65.2l-0.3-0.1l-72.3-22l0.2-0.2L255.6,225.2z M271,289.9l-15.7-64.1l-55.7,42.4L271,289.9z
					"/>
				<path class="st6" d="M237.7,191.7L237.7,191.7l18,33.8l-0.1,0.1l-56.3,42.9l-0.1-0.1L171.8,248l0-0.1l1.8-62l0.2,0L237.7,191.7z
					 M255.2,225.5L237.5,192l-63.5-5.7l-1.8,61.6l27.2,20.2L255.2,225.5z"/>
				<path class="st6" d="M271.6,290.1l-33.6,44L197.9,316l0-0.1l1.2-47.8L271.6,290.1z M237.9,333.7l33.1-43.4l-71.5-21.7l-1.2,47.3
					L237.9,333.7z"/>
				<path class="st6" d="M337.8,304.6l-100.3,29.6l33.7-44.2l0.1,0L337.8,304.6z M238.4,333.6l98.1-29l-65.1-14.3L238.4,333.6z"/>
				<path class="st6" d="M238.2,333.8l-48.9,44.6l8.7-62.8L238.2,333.8z M189.8,377.5l47.8-43.6l-39.4-17.8L189.8,377.5z"/>
				<path class="st6" d="M199.5,268.2l-1.2,47.8l-0.1,0l-35.8,13.7l-0.1-0.1l-37.7-42l47.3-39.9L199.5,268.2z M197.9,315.8l1.2-47.4
					L172,248.2l-46.8,39.4l37.4,41.7L197.9,315.8z"/>
				<path class="st6" d="M279.4,364L279.4,364l-5.4,38l-0.2-0.1L189.2,378l48.7-44.4L279.4,364z M273.7,401.5l5.3-37.4l-41.1-30
					l-48,43.8L273.7,401.5z"/>
				<path class="st6" d="M337.7,304.2l-58.5,60.1l-41.7-30.5l0.3-0.1L337.7,304.2z M279.2,363.9l57.4-58.9l-98.2,29L279.2,363.9z"/>
				<path class="st6" d="M337.1,304.3l56.3,72.8L273.6,402l5.4-38l0,0L337.1,304.3z M392.8,376.9l-55.7-72l-57.7,59.3l-5.3,37.4
					L392.8,376.9z"/>
				<path class="st6" d="M198.3,315.6l0,0.3l-8.6,62.2l-104,1.7l0.5-0.3l76.2-50.2l0,0L198.3,315.6z M189.4,377.8l8.5-61.6
					l-35.4,13.5l-75.7,49.8L189.4,377.8z"/>
				<path class="st6" d="M124.9,287.4l37.8,42.1l-0.2,0.1L86.1,380l0-0.3l-3.6-81.5l0.1,0L124.9,287.4z M162.2,329.5l-37.4-41.7
					l-41.9,10.6l3.6,81L162.2,329.5z"/>
				<path class="st6" d="M174,185.6l0,0.5l-1.8,61.9l-0.1,0L125,287.8l-42.7,10.8l0.3-0.4L174,185.6z M171.8,247.9l1.8-61.2
					L83.2,298l41.6-10.5L171.8,247.9z"/>
				<path class="st6" d="M329.1,123.4l0.1,0.2l27.1,87.2l-100.8,14.9l-0.1-0.1l-17.9-33.7l0,0l4.6-38.1l0.1,0L329.1,123.4z
					 M355.7,210.5l-26.9-86.7L242.4,154l-4.6,37.8l17.8,33.5L355.7,210.5z"/>
				<path class="st6" d="M398.6,145l-0.1,0.2l-42.6,65.9l-27.2-87.7l0.3,0.1L398.6,145z M356,210.2l42.1-65.1l-68.9-21.2L356,210.2z
					"/>
				<path class="st6" d="M341.2,104.3l-12.1,19.5l-0.1,0l-86.9,30.3l-20.3-33l0-0.1l34.3-69.9l0.2,0.1L341.2,104.3z M328.8,123.5
					l11.9-19.1l-84.4-52.8l-34.1,69.5l20,32.6L328.8,123.5z"/>
				<path class="st6" d="M174.2,186l-0.2,0.3L82.7,298.6l-0.1-0.2l-37.8-52.2l0-0.1l30.9-56.6l0.1,0L174.2,186z M82.7,298
					l90.7-111.7l-97.5,3.5l-30.7,56.3L82.7,298z"/>
				<path class="st6" d="M186.5,159.6l-12.6,26.7l-0.1,0l-98.5,3.6l63.3-54.9l0.1,0.1L186.5,159.6z M173.7,186l12.4-26.2l-47.4-24.4
					l-62.4,54.1L173.7,186z"/>
				<path class="st6" d="M161.3,100.3l0.1,0.3l25.2,59.5l-48.2-24.8l0.1-0.1L161.3,100.3z M186,159.3L161.3,101l-22.3,34.1
					L186,159.3z"/>
				<path class="st6" d="M161.6,100.5l-22.9,35.1l-17.9-48.3L161.6,100.5z M138.7,134.8l22.3-34.1l-39.8-12.8L138.7,134.8z"/>
				<path class="st6" d="M274,401.6l0,0.1l7.2,77.5l-71.4,31.3l-0.1-0.1L150,431.4l0.1-0.1l39.4-53.5l0.1,0L274,401.6z M280.9,479
					l-7.2-77.1l-84-23.7l-39.2,53.2L210,510L280.9,479z"/>
				<path class="st6" d="M150.3,431.2L150.3,431.2l59.9,79l-40.8,45.6l-0.1-0.2L68,445.9l0.3-0.1L150.3,431.2z M209.7,510.2
					l-59.6-78.6l-81.5,14.6l100.7,109.2L209.7,510.2z"/>
				<path class="st6" d="M68.2,445.7l0.2,0.3l101.4,110L51.3,521.5l0-0.1L68.2,445.7z M168.8,555.3L68.4,446.4l-16.7,74.9
					L168.8,555.3z"/>
				<path class="st6" d="M281.2,478.9l9.3,30.7l0,0.1l-29.1,42.6l-0.1,0l-63.7,2.9l12.2-45l0.1,0L281.2,478.9z M290.1,509.5
					l-9.2-30.2l-70.9,31L198,554.8l63.1-2.9L290.1,509.5z"/>
				<path class="st6" d="M317.4,507.2l9.5,41.2l-37.7,34.4l-0.1-0.1l-28-30.4l29.2-42.7l0.1,0L317.4,507.2z M326.5,548.2l-9.4-40.7
					l-26.7,2.2l-29,42.4l27.7,30.1L326.5,548.2z"/>
				<path class="st6" d="M362.2,511.2l-0.2,0.2l-35.5,37.2l-9.6-41.5L362.2,511.2z M326.8,547.9l34.7-36.5l-44.1-3.9L326.8,547.9z"
					/>
				<path class="st6" d="M399,462.6L399,462.6l22.6,42.1l-0.3,0l-59.5,6.7h0l-45-4l48.8-53.8L399,462.6z M421,504.5l-22.3-41.6
					l-33-8.8l-48.2,53.1l44.3,3.9L421,504.5z"/>
				<path class="st6" d="M421.5,504.4l11.8,57.9L384,587.6l-0.1-0.1l-57.5-39.3l0.1-0.1l35.3-37l0.1,0L421.5,504.4z M432.9,562.2
					l-11.7-57.4l-59.2,6.7l-35,36.8l57.1,39L432.9,562.2z"/>
				<path class="st6" d="M412.3,292.4L412.3,292.4l12,31.1l0,0.1l-31.2,53.8l-0.2-0.2l-56.1-72.6l0.2-0.1l47.8-20.7L412.3,292.4z
					 M423.9,323.4L412,292.6l-27.2-8.6l-47.5,20.6l55.7,72L423.9,323.4z"/>
				<path class="st6" d="M415.3,264.4l9.6,16.7l-12.7,11.6l-27.6-8.7l8.7-17.3L415.3,264.4z M424.4,281.1l-9.3-16.3l-21.6,2.2
					l-8.4,16.8l27,8.5L424.4,281.1z"/>
				<path class="st6" d="M189.9,377.8l-39.6,53.8l-0.1,0l-82.2,14.7l0.1-0.3l18-66.5l0.1,0L189.9,377.8z M150.1,431.3l39.1-53.1
					l-102.8,1.7l-17.9,66L150.1,431.3z"/>
			</g>
			<g>
				<path class="st6" d="M318.6,508.6c-0.8,0.7-2,0.7-2.8,0c-0.8-0.7-0.8-1.9,0-2.6c0.8-0.7,2-0.7,2.8,0
					C319.4,506.8,319.4,507.9,318.6,508.6z"/>
				<path class="st6" d="M363.3,512.6c-0.8,0.7-2,0.7-2.8,0c-0.8-0.7-0.8-1.9,0-2.6c0.8-0.7,2-0.7,2.8,0
					C364,510.7,364,511.9,363.3,512.6z"/>
				<path class="st6" d="M328.1,549.5c-0.8,0.7-2,0.7-2.8,0c-0.8-0.7-0.8-1.9,0-2.6c0.8-0.7,2-0.7,2.8,0
					C328.8,547.7,328.8,548.8,328.1,549.5z"/>
				<path class="st6" d="M291.4,511.1c-0.8,0.7-2,0.7-2.8,0c-0.8-0.7-0.8-1.9,0-2.6c0.8-0.7,2-0.7,2.8,0
					C292.2,509.2,292.2,510.4,291.4,511.1z"/>
				<path class="st6" d="M290.6,583.7c-0.8,0.7-2,0.7-2.8,0c-0.8-0.7-0.8-1.9,0-2.6c0.8-0.7,2-0.7,2.8,0
					C291.3,581.9,291.3,583,290.6,583.7z"/>
				<path class="st6" d="M199.2,556.3c-0.8,0.7-2,0.7-2.8,0c-0.8-0.7-0.8-1.9,0-2.6c0.8-0.7,2-0.7,2.8,0
					C200,554.4,200,555.6,199.2,556.3z"/>
				<path class="st6" d="M426.1,324.1c-0.8,0.7-2,0.7-2.8,0c-0.8-0.7-0.8-1.9,0-2.6c0.8-0.7,2-0.7,2.8,0
					C426.9,322.3,426.9,323.4,426.1,324.1z"/>
				<path class="st6" d="M416.6,266c-0.8,0.7-2,0.7-2.8,0c-0.8-0.7-0.8-1.9,0-2.6c0.8-0.7,2-0.7,2.8,0
					C417.4,264.1,417.4,265.2,416.6,266z"/>
				<path class="st6" d="M399.7,146.3c-0.8,0.7-2,0.7-2.8,0c-0.8-0.7-0.8-1.9,0-2.6c0.8-0.7,2-0.7,2.8,0
					C400.5,144.4,400.5,145.6,399.7,146.3z"/>
				<path class="st6" d="M257.1,53.1c-0.8,0.7-2,0.7-2.8,0c-0.8-0.7-0.8-1.8,0-2.6c0.8-0.7,2-0.7,2.8,0
					C257.9,51.2,257.9,52.4,257.1,53.1z"/>
				<path class="st6" d="M52.9,522.7c-0.8,0.7-2,0.7-2.8,0c-0.8-0.7-0.8-1.9,0-2.6c0.8-0.7,2-0.7,2.8,0
					C53.6,520.8,53.6,522,52.9,522.7z"/>
				<path class="st6" d="M385.8,588.5c-0.8,0.7-2,0.7-2.8,0c-0.8-0.7-0.8-1.9,0-2.6c0.8-0.7,2-0.7,2.8,0
					C386.6,586.6,386.6,587.8,385.8,588.5z"/>
				<path class="st6" d="M434.5,563.5c-0.8,0.7-2,0.7-2.8,0c-0.8-0.7-0.8-1.8,0-2.6c0.8-0.7,2-0.7,2.8,0
					C435.3,561.6,435.3,562.8,434.5,563.5z"/>
				<path class="st6" d="M282.5,480.4c-0.8,0.7-2,0.7-2.8,0c-0.8-0.7-0.8-1.9,0-2.6c0.8-0.7,2-0.7,2.8,0
					C283.2,478.5,283.2,479.7,282.5,480.4z"/>
				<path class="st6" d="M275.2,403c-0.8,0.7-2,0.7-2.8,0c-0.8-0.7-0.8-1.9,0-2.6c0.8-0.7,2-0.7,2.8,0
					C276,401.2,276,402.3,275.2,403z"/>
				<path class="st6" d="M191,379.3c-0.8,0.7-2,0.7-2.8,0c-0.8-0.7-0.8-1.8,0-2.6c0.8-0.7,2-0.7,2.8,0
					C191.7,377.4,191.7,378.5,191,379.3z"/>
				<path class="st6" d="M163.9,330.8c-0.8,0.7-2,0.7-2.8,0c-0.8-0.7-0.8-1.9,0-2.6c0.8-0.7,2-0.7,2.8,0
					C164.6,329,164.6,330.1,163.9,330.8z"/>
				<path class="st6" d="M239.3,335.2c-0.8,0.7-2,0.7-2.8,0c-0.8-0.7-0.8-1.9,0-2.6c0.8-0.7,2-0.7,2.8,0
					C240.1,333.3,240.1,334.5,239.3,335.2z"/>
				<path class="st6" d="M199.5,317.2c-0.8,0.7-2,0.7-2.8,0c-0.8-0.7-0.8-1.9,0-2.6c0.8-0.7,2-0.7,2.8,0
					C200.3,315.3,200.3,316.5,199.5,317.2z"/>
				<path class="st6" d="M200.7,269.6c-0.8,0.7-2,0.7-2.8,0c-0.8-0.7-0.8-1.9,0-2.6c0.8-0.7,2-0.7,2.8,0
					C201.5,267.7,201.5,268.9,200.7,269.6z"/>
				<path class="st6" d="M173.4,249.3c-0.8,0.7-2,0.7-2.8,0c-0.8-0.7-0.8-1.9,0-2.6c0.8-0.7,2-0.7,2.8,0
					C174.1,247.4,174.1,248.5,173.4,249.3z"/>
				<path class="st6" d="M175.2,187.4c-0.8,0.7-2,0.7-2.8,0c-0.8-0.7-0.8-1.8,0-2.6c0.8-0.7,2-0.7,2.8,0
					C176,185.6,176,186.7,175.2,187.4z"/>
				<path class="st6" d="M77.2,191c-0.8,0.7-2,0.7-2.8,0c-0.8-0.7-0.8-1.9,0-2.6c0.8-0.7,2-0.7,2.8,0C78,189.1,78,190.3,77.2,191z"
					/>
				<path class="st6" d="M126.3,288.9c-0.8,0.7-2,0.7-2.8,0c-0.8-0.7-0.8-1.9,0-2.6c0.8-0.7,2-0.7,2.8,0
					C127.1,287,127.1,288.2,126.3,288.9z"/>
				<path class="st6" d="M84.1,299.6c-0.8,0.7-2,0.7-2.8,0c-0.8-0.7-0.8-1.8,0-2.6c0.8-0.7,2-0.7,2.8,0
					C84.9,297.7,84.9,298.9,84.1,299.6z"/>
				<path class="st6" d="M87.7,381c-0.8,0.7-2,0.7-2.8,0c-0.8-0.7-0.8-1.9,0-2.6c0.8-0.7,2-0.7,2.8,0
					C88.4,379.1,88.4,380.3,87.7,381z"/>
				<path class="st6" d="M151.6,432.7c-0.8,0.7-2,0.7-2.8,0c-0.8-0.7-0.8-1.9,0-2.6c0.8-0.7,2-0.7,2.8,0
					C152.4,430.8,152.4,432,151.6,432.7z"/>
				<path class="st6" d="M69.7,447.3c-0.8,0.7-2,0.7-2.8,0c-0.8-0.7-0.8-1.9,0-2.6c0.8-0.7,2-0.7,2.8,0
					C70.5,445.5,70.5,446.6,69.7,447.3z"/>
				<path class="st6" d="M170.8,556.9c-0.8,0.7-2,0.7-2.8,0c-0.8-0.7-0.8-1.9,0-2.6c0.8-0.7,2-0.7,2.8,0
					C171.5,555,171.5,556.2,170.8,556.9z"/>
				<path class="st6" d="M211.3,511.5c-0.8,0.7-2,0.7-2.8,0c-0.8-0.7-0.8-1.9,0-2.6c0.8-0.7,2-0.7,2.8,0
					C212.1,509.7,212.1,510.8,211.3,511.5z"/>
				<path class="st6" d="M422.7,505.9c-0.8,0.7-2,0.7-2.8,0c-0.8-0.7-0.8-1.8,0-2.6c0.8-0.7,2-0.7,2.8,0
					C423.5,504,423.5,505.2,422.7,505.9z"/>
				<path class="st6" d="M187.7,161c-0.8,0.7-2,0.7-2.8,0c-0.8-0.7-0.8-1.9,0-2.6c0.8-0.7,2-0.7,2.8,0
					C188.5,159.1,188.5,160.3,187.7,161z"/>
				<path class="st6" d="M140.1,136.5c-0.8,0.7-2,0.7-2.8,0c-0.8-0.7-0.8-1.9,0-2.6c0.8-0.7,2-0.7,2.8,0
					C140.8,134.6,140.8,135.8,140.1,136.5z"/>
				<path class="st6" d="M162.5,101.7c-0.8,0.7-2,0.7-2.8,0c-0.8-0.7-0.8-1.9,0-2.6c0.8-0.7,2-0.7,2.8,0
					C163.3,99.9,163.3,101,162.5,101.7z"/>
				<path class="st6" d="M243.6,155.2c-0.8,0.7-2,0.7-2.8,0c-0.8-0.7-0.8-1.8,0-2.6c0.8-0.7,2-0.7,2.8,0
					C244.4,153.3,244.4,154.5,243.6,155.2z"/>
				<path class="st6" d="M239.1,193.2c-0.8,0.7-2,0.7-2.8,0c-0.8-0.7-0.8-1.8,0-2.6c0.8-0.7,2-0.7,2.8,0
					C239.9,191.4,239.9,192.5,239.1,193.2z"/>
				<path class="st6" d="M330.3,124.9c-0.8,0.7-2,0.7-2.8,0c-0.8-0.7-0.8-1.9,0-2.6c0.8-0.7,2-0.7,2.8,0
					C331.1,123.1,331.1,124.2,330.3,124.9z"/>
				<path class="st6" d="M357.4,211.9c-0.8,0.7-2,0.7-2.8,0c-0.8-0.7-0.8-1.8,0-2.6c0.8-0.7,2-0.7,2.8,0
					C358.1,210.1,358.1,211.2,357.4,211.9z"/>
				<path class="st6" d="M256.9,226.8c-0.8,0.7-2,0.7-2.8,0c-0.8-0.7-0.8-1.9,0-2.6c0.8-0.7,2-0.7,2.8,0
					C257.6,224.9,257.6,226.1,256.9,226.8z"/>
				<path class="st6" d="M338.5,305.9c-0.8,0.7-2,0.7-2.8,0c-0.8-0.7-0.8-1.9,0-2.6c0.8-0.7,2-0.7,2.8,0
					C339.3,304,339.3,305.2,338.5,305.9z"/>
				<path class="st6" d="M272.7,291.5c-0.8,0.7-2,0.7-2.8,0c-0.8-0.7-0.8-1.8,0-2.6c0.8-0.7,2-0.7,2.8,0
					C273.5,289.6,273.5,290.7,272.7,291.5z"/>
				<path class="st6" d="M280.6,365.4c-0.8,0.7-2,0.7-2.8,0c-0.8-0.7-0.8-1.9,0-2.6c0.8-0.7,2-0.7,2.8,0
					C281.4,363.5,281.4,364.7,280.6,365.4z"/>
				<path class="st6" d="M394.5,378.3c-0.8,0.7-2,0.7-2.8,0c-0.8-0.7-0.8-1.9,0-2.6c0.8-0.7,2-0.7,2.8,0
					C395.3,376.4,395.3,377.6,394.5,378.3z"/>
				<path class="st6" d="M413.5,293.8c-0.8,0.7-2,0.7-2.8,0c-0.8-0.7-0.8-1.9,0-2.6c0.8-0.7,2-0.7,2.8,0
					C414.3,291.9,414.3,293.1,413.5,293.8z"/>
				<path class="st6" d="M386.3,285.3c-0.8,0.7-2,0.7-2.8,0c-0.8-0.7-0.8-1.8,0-2.6c0.8-0.7,2-0.7,2.8,0
					C387.1,283.4,387.1,284.5,386.3,285.3z"/>
				<path class="st6" d="M122.2,89c-0.8,0.7-2,0.7-2.8,0c-0.8-0.7-0.8-1.9,0-2.6c0.8-0.7,2-0.7,2.8,0C123,87.2,123,88.3,122.2,89z"
					/>
			</g>
		</g>
		<g>
			<g class="st5">
				<path class="st6" d="M460.1,642l-0.3,0l-103.3-17.2l15.9-60.3l0.1,0l71.1-14.5l0,0.2L460.1,642z M357.1,624.5l102.6,17.1
					l-16.2-91.2l-70.6,14.4L357.1,624.5z"/>
				<path class="st6" d="M443.9,550.3l-71.5,14.5l0.1-0.3l24.1-65.9l0.2,0.2L443.9,550.3z M372.9,564.4l70.3-14.3l-46.6-50.7
					L372.9,564.4z"/>
				<path class="st6" d="M480.7,534L480.7,534l-37.1,16.4l-0.1-0.1l-47-51.3l0.1-0.1l22.4-25l0.1,0l68,1.7l0,0.2L480.7,534z
					 M443.6,550l36.7-16.2l6.3-57.9l-67.6-1.7l-22.2,24.8L443.6,550z"/>
				<path class="st6" d="M372.8,564.9l-48.3-30.6l19.9-36.5l0.1,0l52.5,1.1L372.8,564.9z M324.9,534.2l47.6,30.2l23.8-65.2
					l-51.9-1.1L324.9,534.2z"/>
				<path class="st6" d="M356.9,625.2l-32.5-91.4l48.5,30.7l0,0.1L356.9,625.2z M325,534.7l31.8,89.4l15.6-59.3L325,534.7z"/>
				<path class="st6" d="M324.7,534.5l-48.9-44.6l68.9,7.9L324.7,534.5z M276.8,490.4l47.8,43.6l19.5-35.9L276.8,490.4z"/>
				<path class="st6" d="M396.7,499.2l-52.4-1.1l0-0.1l-15-32.6l0.1-0.1l46.1-34.3l43.7,43.1L396.7,499.2z M344.5,497.8l52,1.1
					l22.2-24.8l-43.3-42.7l-45.8,34.1L344.5,497.8z"/>
				<path class="st6" d="M291.6,572L291.6,572l-41.6-4.9l0.1-0.2l26.2-77.1l48.7,44.4L291.6,572z M250.5,566.8l41,4.8l33-37.4
					l-48-43.8L250.5,566.8z"/>
				<path class="st6" d="M357.2,625.2l-65.9-53.3l33.4-38l0.1,0.3L357.2,625.2z M291.8,571.8l64.7,52.3l-31.8-89.5L291.8,571.8z"/>
				<path class="st6" d="M357.1,624.7l-79.9,51.3L250,566.8l41.7,4.9l0,0L357.1,624.7z M277.5,675.4l79-50.7L291.5,572l-41-4.8
					L277.5,675.4z"/>
				<path class="st6" d="M344.7,498.2l-0.3,0l-68.3-7.8l-1.9-94.8l0.3,0.4l55,69.5l0,0L344.7,498.2z M276.5,490l67.6,7.7l-14.8-32.2
					l-54.7-69L276.5,490z"/>
				<path class="st6" d="M375.7,431.3l-46.2,34.4l-0.1-0.1l-55.2-69.7l0.3,0l89.5-3.3l0,0.1L375.7,431.3z M329.5,465.2l45.8-34.1
					l-11.7-38.2l-88.8,3.2L329.5,465.2z"/>
				<path class="st6" d="M487.4,476l-0.6,0l-67.9-1.7l-0.1-0.1l-43.5-42.9l-11.9-38.9l0.4,0.3L487.4,476z M419,474l67.2,1.7
					L364,393.2l11.6,37.9L419,474z"/>
				<path class="st6" d="M555.6,617.3l-0.2,0L459.8,642l-16.4-91.9l0.1-0.1l37-16.3l0.1,0l41.8,4.2l0,0.1L555.6,617.3z M460,641.6
					l95.1-24.5l-33.1-78.8l-41.5-4.2l-36.7,16.2L460,641.6z"/>
				<path class="st6" d="M532,680.7l-0.2-0.1l-72.3-38.8l96.2-24.8l-0.1,0.3L532,680.7z M460.4,641.9l71.4,38.3l23.3-62.8
					L460.4,641.9z"/>
				<path class="st6" d="M576.6,628.3l-21.4-11l0-0.1L522,538.1l36.2-18.5l0.1,0l76.7,31.2l-0.1,0.2L576.6,628.3z M555.5,617.1
					l21,10.8l58-76.9l-76.3-31.1l-35.8,18.3L555.5,617.1z"/>
				<path class="st6" d="M487,476.1l-0.3-0.2l-123.3-83.2l0.2-0.1l57.3-34.4l0.1,0l62.1,28.2l0,0.1L487,476.1z M364,392.8
					l122.6,82.7l-3.9-88.9l-61.8-28L364,392.8z"/>
				<path class="st6" d="M515.9,487.4l-29.3-11.5l0-0.1l-3.9-89.7l60.2,57.7l-0.1,0.1L515.9,487.4z M487,475.7l28.8,11.3l26.7-43.2
					l-59.4-56.9L487,475.7z"/>
				<path class="st6" d="M581,464.4l-0.3,0.1l-65.3,23l27.2-44l0.2,0.1L581,464.4z M516.2,486.9l64-22.5L542.8,444L516.2,486.9z"/>
				<path class="st6" d="M580.7,464.6l-38.5-20.9l52.9-16.3L580.7,464.6z M543.1,443.8l37.4,20.3l14.1-36.2L543.1,443.8z"/>
				<path class="st6" d="M250.4,567.1l-0.1,0l-85,6.6L131,508.7l0.1-0.1l86.6-54.5l0.1,0.1l58.7,35.9l0,0.1L250.4,567.1z
					 M165.5,573.4l84.6-6.6l26-76.6l-58.4-35.7l-86.3,54.3L165.5,573.4z"/>
				<path class="st6" d="M217.9,454.4L217.9,454.4l-86.7,54.5l-50-37.2l0.2-0.1l120.4-92.3l0.1,0.3L217.9,454.4z M131.2,508.5
					l86.3-54.3l-16-74.3L81.7,471.7L131.2,508.5z"/>
				<path class="st6" d="M202,379.6l-0.3,0.2L81.1,472.2l37.7-108.1l0.2,0L202,379.6z M81.8,471.3l119.4-91.5l-82.1-15.3L81.8,471.3
					z"/>
				<path class="st6" d="M165.6,573.7l-33.7,8.5l-0.1,0l-46.8-26.6l0-0.1l-3.2-58l49.4,11.1l0,0.1L165.6,573.7z M132,581.8l33.1-8.4
					l-34-64.6l-48.8-11l3.1,57.5L132,581.8z"/>
				<path class="st6" d="M134.6,606.6l-45.2,8.6l-37.7-34.4l0.2-0.1l33.4-25.5l46.9,26.6l0,0.1L134.6,606.6z M89.5,614.9l44.7-8.5
					l-2.4-24.3l-46.5-26.4l-33.1,25.3L89.5,614.9z"/>
				<path class="st6" d="M130.2,647.5l-0.3-0.2L89.1,615l45.5-8.7L130.2,647.5z M89.9,615.2l40,31.7l4.3-40.2L89.9,615.2z"/>
				<path class="st6" d="M183.5,681L183.5,681l-46.2,20.6l0-0.2l-7.3-54.2v0l4.4-41l59,44.4L183.5,681z M137.5,701.1l45.6-20.3
					l9.6-30.1l-58.3-43.9l-4.3,40.4L137.5,701.1z"/>
				<path class="st6" d="M137.6,701.5L74,712.3l-27.7-44.9l0.1-0.1l43.1-52.4l0.1,0.1l40.6,32.1l0,0.1L137.6,701.5z M74.2,711.9
					l63-10.6l-7.3-54l-40.4-31.9l-42.8,52L74.2,711.9z"/>
				<path class="st6" d="M370.2,693.1L370.2,693.1l-34.1,11l-0.1,0l-59-28.4l0.2-0.2l79.6-51.1l0.1,0.2l22.7,43.6L370.2,693.1z
					 M336.2,703.8l33.8-10.9l9.4-24.7l-22.6-43.3l-79,50.7L336.2,703.8z"/>
				<path class="st6" d="M400.9,695.9l-18.3,8.7l-12.7-11.6l9.5-25.2l19,7.9L400.9,695.9z M382.6,704.2l17.9-8.5l-2.4-19.7
					l-18.5-7.7l-9.3,24.6L382.6,704.2z"/>
				<path class="st6" d="M276.5,490.5l-59-36.1l0-0.1l-16.1-74.9l0.3,0.1l72.9,16.4l0,0.1L276.5,490.5z M217.9,454.2l58.3,35.7
					l-1.9-93.7l-72.4-16.3L217.9,454.2z"/>
			</g>
			<g>
				<path class="st6" d="M133,607.8c-0.8-0.7-0.8-1.9,0-2.6c0.8-0.7,2-0.7,2.8,0c0.8,0.7,0.8,1.9,0,2.6
					C135,608.5,133.8,608.5,133,607.8z"/>
				<path class="st6" d="M128.6,648.5c-0.8-0.7-0.8-1.9,0-2.6c0.8-0.7,2-0.7,2.8,0c0.8,0.7,0.8,1.9,0,2.6
					C130.7,649.2,129.4,649.2,128.6,648.5z"/>
				<path class="st6" d="M88.1,616.4c-0.8-0.7-0.8-1.9,0-2.6c0.8-0.7,2-0.7,2.8,0c0.8,0.7,0.8,1.9,0,2.6
					C90.1,617.1,88.8,617.1,88.1,616.4z"/>
				<path class="st6" d="M130.3,583c-0.8-0.7-0.8-1.9,0-2.6c0.8-0.7,2-0.7,2.8,0c0.8,0.7,0.8,1.9,0,2.6
					C132.3,583.7,131.1,583.7,130.3,583z"/>
				<path class="st6" d="M50.6,582.2c-0.8-0.7-0.8-1.9,0-2.6c0.8-0.7,2-0.7,2.8,0c0.8,0.7,0.8,1.9,0,2.6
					C52.6,582.9,51.3,582.9,50.6,582.2z"/>
				<path class="st6" d="M80.7,498.9c-0.8-0.7-0.8-1.9,0-2.6c0.8-0.7,2-0.7,2.8,0c0.8,0.7,0.8,1.9,0,2.6
					C82.7,499.6,81.5,499.6,80.7,498.9z"/>
				<path class="st6" d="M335.4,705.8c-0.8-0.7-0.8-1.9,0-2.6c0.8-0.7,2-0.7,2.8,0c0.8,0.7,0.8,1.8,0,2.6
					C337.5,706.5,336.2,706.5,335.4,705.8z"/>
				<path class="st6" d="M399.2,697.1c-0.8-0.7-0.8-1.9,0-2.6c0.8-0.7,2-0.7,2.8,0c0.8,0.7,0.8,1.9,0,2.6
					C401.3,697.8,400,697.8,399.2,697.1z"/>
				<path class="st6" d="M530.5,681.7c-0.8-0.7-0.8-1.9,0-2.6c0.8-0.7,2-0.7,2.8,0c0.8,0.7,0.8,1.9,0,2.6
					C532.6,682.4,531.3,682.4,530.5,681.7z"/>
				<path class="st6" d="M632.8,551.7c-0.8-0.7-0.8-1.8,0-2.6c0.8-0.7,2-0.7,2.8,0c0.8,0.7,0.8,1.9,0,2.6
					C634.8,552.4,633.6,552.4,632.8,551.7z"/>
				<path class="st6" d="M117.5,365.6c-0.8-0.7-0.8-1.9,0-2.6c0.8-0.7,2-0.7,2.8,0c0.8,0.7,0.8,1.8,0,2.6
					C119.6,366.3,118.3,366.3,117.5,365.6z"/>
				<path class="st6" d="M45.3,669c-0.8-0.7-0.8-1.9,0-2.6c0.8-0.7,2-0.7,2.8,0c0.8,0.7,0.8,1.9,0,2.6
					C47.4,669.7,46.1,669.7,45.3,669z"/>
				<path class="st6" d="M72.8,713.4c-0.8-0.7-0.8-1.9,0-2.6c0.8-0.7,2-0.7,2.8,0c0.8,0.7,0.8,1.8,0,2.6
					C74.8,714.1,73.6,714.2,72.8,713.4z"/>
				<path class="st6" d="M164,574.8c-0.8-0.7-0.8-1.9,0-2.6c0.8-0.7,2-0.7,2.8,0c0.8,0.7,0.8,1.9,0,2.6
					C166,575.5,164.7,575.5,164,574.8z"/>
				<path class="st6" d="M248.8,568.3c-0.8-0.7-0.8-1.9,0-2.6c0.8-0.7,2-0.7,2.8,0c0.8,0.7,0.8,1.9,0,2.6
					C250.9,569,249.6,569,248.8,568.3z"/>
				<path class="st6" d="M274.9,491.4c-0.8-0.7-0.8-1.8,0-2.6c0.8-0.7,2-0.7,2.8,0c0.8,0.7,0.8,1.9,0,2.6
					C276.9,492.2,275.7,492.2,274.9,491.4z"/>
				<path class="st6" d="M328,466.7c-0.8-0.7-0.8-1.9,0-2.6c0.8-0.7,2-0.7,2.8,0c0.8,0.7,0.8,1.9,0,2.6
					C330.1,467.5,328.8,467.5,328,466.7z"/>
				<path class="st6" d="M323.3,535.5c-0.8-0.7-0.8-1.8,0-2.6c0.8-0.7,2-0.7,2.8,0c0.8,0.7,0.8,1.9,0,2.6
					C325.3,536.2,324.1,536.2,323.3,535.5z"/>
				<path class="st6" d="M343,499.2c-0.8-0.7-0.8-1.9,0-2.6c0.8-0.7,2-0.7,2.8,0c0.8,0.7,0.8,1.9,0,2.6C345,500,343.8,500,343,499.2
					z"/>
				<path class="st6" d="M395.2,500.3c-0.8-0.7-0.8-1.9,0-2.6c0.8-0.7,2-0.7,2.8,0c0.8,0.7,0.8,1.9,0,2.6
					C397.3,501,396,501,395.2,500.3z"/>
				<path class="st6" d="M417.6,475.4c-0.8-0.7-0.8-1.8,0-2.6c0.8-0.7,2-0.7,2.8,0c0.8,0.7,0.8,1.9,0,2.6
					C419.6,476.1,418.3,476.1,417.6,475.4z"/>
				<path class="st6" d="M485.4,477.1c-0.8-0.7-0.8-1.8,0-2.6c0.8-0.7,2-0.7,2.8,0c0.8,0.7,0.8,1.9,0,2.6
					C487.4,477.8,486.2,477.8,485.4,477.1z"/>
				<path class="st6" d="M481.5,387.8c-0.8-0.7-0.8-1.9,0-2.6c0.8-0.7,2-0.7,2.8,0c0.8,0.7,0.8,1.9,0,2.6
					C483.5,388.5,482.3,388.5,481.5,387.8z"/>
				<path class="st6" d="M374.1,432.5c-0.8-0.7-0.8-1.9,0-2.6c0.8-0.7,2-0.7,2.8,0c0.8,0.7,0.8,1.9,0,2.6
					C376.1,433.2,374.8,433.2,374.1,432.5z"/>
				<path class="st6" d="M362.3,394.1c-0.8-0.7-0.8-1.9,0-2.6c0.8-0.7,2-0.7,2.8,0c0.8,0.7,0.8,1.9,0,2.6
					C364.4,394.8,363.1,394.8,362.3,394.1z"/>
				<path class="st6" d="M273,397.3c-0.8-0.7-0.8-1.9,0-2.6c0.8-0.7,2-0.7,2.8,0c0.8,0.7,0.8,1.9,0,2.6C275,398,273.8,398,273,397.3
					z"/>
				<path class="st6" d="M216.3,455.6c-0.8-0.7-0.8-1.9,0-2.6c0.8-0.7,2-0.7,2.8,0c0.8,0.7,0.8,1.9,0,2.6
					C218.3,456.3,217.1,456.3,216.3,455.6z"/>
				<path class="st6" d="M200.2,380.9c-0.8-0.7-0.8-1.8,0-2.6c0.8-0.7,2-0.7,2.8,0c0.8,0.7,0.8,1.9,0,2.6
					C202.2,381.6,201,381.6,200.2,380.9z"/>
				<path class="st6" d="M80,473c-0.8-0.7-0.8-1.9,0-2.6c0.8-0.7,2-0.7,2.8,0c0.8,0.7,0.8,1.9,0,2.6C82.1,473.7,80.8,473.7,80,473z"
					/>
				<path class="st6" d="M129.8,510c-0.8-0.7-0.8-1.9,0-2.6c0.8-0.7,2-0.7,2.8,0c0.8,0.7,0.8,1.9,0,2.6
					C131.8,510.7,130.6,510.7,129.8,510z"/>
				<path class="st6" d="M136,702.7c-0.8-0.7-0.8-1.9,0-2.6c0.8-0.7,2-0.7,2.8,0c0.8,0.7,0.8,1.9,0,2.6
					C138,703.4,136.8,703.4,136,702.7z"/>
				<path class="st6" d="M514.4,488.5c-0.8-0.7-0.8-1.9,0-2.6c0.8-0.7,2-0.7,2.8,0c0.8,0.7,0.8,1.9,0,2.6
					C516.4,489.2,515.2,489.2,514.4,488.5z"/>
				<path class="st6" d="M541.3,445.1c-0.8-0.7-0.8-1.8,0-2.6c0.8-0.7,2-0.7,2.8,0c0.8,0.7,0.8,1.9,0,2.6
					C543.3,445.8,542.1,445.8,541.3,445.1z"/>
				<path class="st6" d="M579.4,465.5c-0.8-0.7-0.8-1.9,0-2.6c0.8-0.7,2-0.7,2.8,0c0.8,0.7,0.8,1.9,0,2.6
					C581.4,466.2,580.2,466.2,579.4,465.5z"/>
				<path class="st6" d="M520.8,539.4c-0.8-0.7-0.8-1.9,0-2.6c0.8-0.7,2-0.7,2.8,0c0.8,0.7,0.8,1.9,0,2.6
					C522.8,540.1,521.6,540.1,520.8,539.4z"/>
				<path class="st6" d="M479,535.3c-0.8-0.7-0.8-1.9,0-2.6c0.8-0.7,2-0.7,2.8,0c0.8,0.7,0.8,1.8,0,2.6
					C481.1,536,479.8,536,479,535.3z"/>
				<path class="st6" d="M554,618.5c-0.8-0.7-0.8-1.9,0-2.6c0.8-0.7,2-0.7,2.8,0c0.8,0.7,0.8,1.9,0,2.6
					C556,619.2,554.7,619.2,554,618.5z"/>
				<path class="st6" d="M458.5,643.1c-0.8-0.7-0.8-1.8,0-2.6c0.8-0.7,2-0.7,2.8,0c0.8,0.7,0.8,1.8,0,2.6
					C460.5,643.8,459.3,643.8,458.5,643.1z"/>
				<path class="st6" d="M442.2,551.5c-0.8-0.7-0.8-1.9,0-2.6c0.8-0.7,2-0.7,2.8,0c0.8,0.7,0.8,1.9,0,2.6
					C444.2,552.2,443,552.2,442.2,551.5z"/>
				<path class="st6" d="M355.4,625.9c-0.8-0.7-0.8-1.9,0-2.6c0.8-0.7,2-0.7,2.8,0c0.8,0.7,0.8,1.9,0,2.6
					C357.5,626.6,356.2,626.6,355.4,625.9z"/>
				<path class="st6" d="M371.3,565.9c-0.8-0.7-0.8-1.8,0-2.6c0.8-0.7,2-0.7,2.8,0c0.8,0.7,0.8,1.9,0,2.6
					C373.3,566.6,372,566.6,371.3,565.9z"/>
				<path class="st6" d="M290.2,573.1c-0.8-0.7-0.8-1.9,0-2.6c0.8-0.7,2-0.7,2.8,0c0.8,0.7,0.8,1.9,0,2.6
					C292.2,573.8,290.9,573.8,290.2,573.1z"/>
				<path class="st6" d="M276,676.9c-0.8-0.7-0.8-1.9,0-2.6c0.8-0.7,2-0.7,2.8,0c0.8,0.7,0.8,1.9,0,2.6
					C278,677.6,276.8,677.6,276,676.9z"/>
				<path class="st6" d="M368.7,694.3c-0.8-0.7-0.8-1.9,0-2.6c0.8-0.7,2-0.7,2.8,0c0.8,0.7,0.8,1.9,0,2.6
					C370.7,695,369.5,695,368.7,694.3z"/>
				<path class="st6" d="M378.1,669.5c-0.8-0.7-0.8-1.9,0-2.6c0.8-0.7,2-0.7,2.8,0c0.8,0.7,0.8,1.9,0,2.6
					C380.1,670.2,378.8,670.2,378.1,669.5z"/>
				<path class="st6" d="M593.4,428.8c-0.8-0.7-0.8-1.8,0-2.6c0.8-0.7,2-0.7,2.8,0c0.8,0.7,0.8,1.9,0,2.6
					C595.4,429.5,594.2,429.5,593.4,428.8z"/>
			</g>
		</g>
		<g class="st7">
			<g class="st5">
				<path class="st6" d="M699.7,343l0,0.2l-18.9,94.1l-66.1-14.5l0-0.1l-15.9-64.8l0.2,0L699.7,343z M680.4,436.9l18.8-93.5
					l-100.1,14.8l15.8,64.4L680.4,436.9z"/>
				<path class="st6" d="M599,357.7l16,65.2l-0.3-0.1l-72.3-22l0.2-0.2L599,357.7z M614.5,422.4l-15.7-64.1l-55.7,42.4L614.5,422.4z
					"/>
				<path class="st6" d="M581.2,324.2L581.2,324.2l18,33.8l-0.1,0.1L542.8,401l-0.1-0.1l-27.4-20.4l0-0.1l1.8-62l0.2,0L581.2,324.2z
					 M598.7,358l-17.8-33.4l-63.5-5.7l-1.8,61.6l27.2,20.2L598.7,358z"/>
				<path class="st6" d="M615,422.6l-33.6,44l-40.1-18.1l0-0.1l1.2-47.8L615,422.6z M581.3,466.2l33.1-43.4L543,401.1l-1.2,47.3
					L581.3,466.2z"/>
				<path class="st6" d="M681.2,437.1L581,466.7l33.7-44.2l0.1,0L681.2,437.1z M581.9,466.1l98.1-29l-65.1-14.3L581.9,466.1z"/>
				<path class="st6" d="M581.7,466.4l-48.9,44.6l8.7-62.8L581.7,466.4z M533.3,510l47.8-43.6l-39.4-17.8L533.3,510z"/>
				<path class="st6" d="M543,400.8l-1.2,47.8l-0.1,0l-35.8,13.7l-0.1-0.1l-37.7-42l47.3-39.9L543,400.8z M541.4,448.3l1.2-47.4
					l-27.2-20.2l-46.8,39.4l37.4,41.7L541.4,448.3z"/>
				<path class="st6" d="M622.9,496.5L622.9,496.5l-5.4,38l-0.2-0.1l-84.6-23.9l48.7-44.4L622.9,496.5z M617.2,534.1l5.3-37.4
					l-41.1-30l-48,43.8L617.2,534.1z"/>
				<path class="st6" d="M681.2,436.8l-58.5,60.1L581,466.3l0.3-0.1L681.2,436.8z M622.6,496.4l57.4-58.9l-98.2,29L622.6,496.4z"/>
				<path class="st6" d="M680.6,436.8l56.3,72.8l-119.8,24.9l5.4-38l0,0L680.6,436.8z M736.2,509.4l-55.7-72l-57.7,59.3l-5.3,37.4
					L736.2,509.4z"/>
				<path class="st6" d="M541.8,448.2l0,0.3l-8.6,62.2l-104,1.7l0.5-0.3l76.2-50.2l0,0L541.8,448.2z M532.9,510.3l8.5-61.6
					L506,462.2l-75.7,49.8L532.9,510.3z"/>
				<path class="st6" d="M468.4,420l37.8,42.1l-0.2,0.1l-76.5,50.3l0-0.3l-3.6-81.5l0.1,0L468.4,420z M505.7,462l-37.4-41.7
					L426.4,431l3.5,81L505.7,462z"/>
				<path class="st6" d="M517.5,318.1l0,0.5l-1.8,61.9l-0.1,0l-47.1,39.7l-42.7,10.8l0.3-0.4L517.5,318.1z M515.3,380.4l1.8-61.2
					l-90.4,111.4l41.6-10.5L515.3,380.4z"/>
				<path class="st6" d="M672.5,256l0.1,0.2l27.1,87.2l-100.8,14.9l-0.1-0.1l-17.9-33.7l0,0l4.6-38.1l0.1,0L672.5,256z M699.2,343
					l-26.9-86.7l-86.5,30.1l-4.6,37.8l17.8,33.5L699.2,343z"/>
				<path class="st6" d="M742.1,277.5l-0.1,0.2l-42.6,65.9l-27.2-87.7l0.3,0.1L742.1,277.5z M699.5,342.8l42.1-65.1l-68.9-21.2
					L699.5,342.8z"/>
				<path class="st6" d="M684.7,236.8l-12.1,19.5l-0.1,0l-86.9,30.3l-20.3-33l0-0.1l34.3-70l0.2,0.1L684.7,236.8z M672.3,256
					l11.9-19.1l-84.4-52.8l-34.1,69.5l20,32.6L672.3,256z"/>
				<path class="st6" d="M517.6,318.5l-0.2,0.3l-91.3,112.4l-0.1-0.2l-37.8-52.2l0-0.1l30.9-56.6l0.1,0L517.6,318.5z M426.2,430.5
					l90.7-111.7l-97.5,3.5l-30.7,56.3L426.2,430.5z"/>
				<path class="st6" d="M530,292.2l-12.6,26.7l-0.1,0l-98.5,3.6l63.3-54.9l0.1,0.1L530,292.2z M517.1,318.5l12.4-26.2l-47.4-24.4
					L419.8,322L517.1,318.5z"/>
				<path class="st6" d="M504.8,232.8l0.1,0.3l25.2,59.5l-48.2-24.8l0.1-0.1L504.8,232.8z M529.4,291.9l-24.7-58.3l-22.3,34.1
					L529.4,291.9z"/>
				<path class="st6" d="M505,233.1l-22.9,35.1l-17.9-48.3L505,233.1z M482.2,267.3l22.3-34.1l-39.8-12.8L482.2,267.3z"/>
				<path class="st6" d="M617.5,534.2l0,0.1l7.2,77.5L553.3,643l-0.1-0.1l-59.8-78.9l0.1-0.1l39.4-53.5l0.1,0L617.5,534.2z
					 M624.3,611.5l-7.2-77.1l-84-23.7l-39.2,53.2l59.5,78.6L624.3,611.5z"/>
				<path class="st6" d="M493.8,563.7L493.8,563.7l59.9,79l-40.8,45.6l-0.1-0.2L411.4,578.5l0.3-0.1L493.8,563.7z M553.2,642.8
					l-59.6-78.6l-81.5,14.6l100.7,109.2L553.2,642.8z"/>
				<path class="st6" d="M411.7,578.2l0.2,0.3l101.4,110L394.7,654l0-0.1L411.7,578.2z M512.3,687.8L411.9,578.9l-16.7,74.9
					L512.3,687.8z"/>
				<path class="st6" d="M624.6,611.4l9.3,30.7l0,0.1l-29.1,42.6l-0.1,0l-63.7,2.9l12.2-45l0.1,0L624.6,611.4z M633.6,642l-9.2-30.2
					l-70.9,31l-12.1,44.5l63.1-2.9L633.6,642z"/>
				<path class="st6" d="M660.8,639.7l9.5,41.2l-37.7,34.4l-0.1-0.1l-28-30.4l29.2-42.7l0.1,0L660.8,639.7z M669.9,680.7l-9.4-40.7
					l-26.7,2.2l-29,42.4l27.7,30.1L669.9,680.7z"/>
				<path class="st6" d="M705.7,643.7l-0.2,0.2L670,681.1l-9.6-41.5L705.7,643.7z M670.2,680.4l34.7-36.5l-44.1-3.9L670.2,680.4z"/>
				<path class="st6" d="M742.5,595.1L742.5,595.1l22.6,42.1l-0.3,0l-59.5,6.7h0l-45-4l48.8-53.8L742.5,595.1z M764.5,637
					l-22.3-41.6l-33-8.8l-48.2,53.1l44.3,3.9L764.5,637z"/>
				<path class="st6" d="M764.9,636.9l11.8,57.9l-49.3,25.3l-0.1-0.1l-57.5-39.3l0.1-0.1l35.3-37l0.1,0L764.9,636.9z M776.3,694.7
					l-11.7-57.4l-59.2,6.7l-35,36.8l57.1,39L776.3,694.7z"/>
				<path class="st6" d="M755.7,424.9L755.7,424.9l12,31.1l0,0.1l-31.2,53.8l-0.2-0.2L680.3,437l0.2-0.1l47.8-20.7L755.7,424.9z
					 M767.4,455.9l-11.9-30.8l-27.2-8.6l-47.5,20.6l55.7,72L767.4,455.9z"/>
				<path class="st6" d="M758.7,397l9.6,16.7l-12.7,11.6l-27.6-8.7l8.7-17.3L758.7,397z M767.9,413.6l-9.3-16.3l-21.6,2.2l-8.4,16.8
					l27,8.5L767.9,413.6z"/>
				<path class="st6" d="M533.4,510.3l-39.6,53.8l-0.1,0l-82.2,14.7l0.1-0.3l18-66.5l0.1,0L533.4,510.3z M493.6,563.8l39.1-53.1
					l-102.8,1.7l-17.9,66L493.6,563.8z"/>
			</g>
			<g>
				<path class="st6" d="M662.1,641.1c-0.8,0.7-2,0.7-2.8,0c-0.8-0.7-0.8-1.9,0-2.6c0.8-0.7,2-0.7,2.8,0
					C662.9,639.3,662.9,640.4,662.1,641.1z"/>
				<path class="st6" d="M706.7,645.1c-0.8,0.7-2,0.7-2.8,0c-0.8-0.7-0.8-1.8,0-2.6c0.8-0.7,2-0.7,2.8,0
					C707.5,643.2,707.5,644.4,706.7,645.1z"/>
				<path class="st6" d="M671.5,682.1c-0.8,0.7-2,0.7-2.8,0c-0.8-0.7-0.8-1.9,0-2.6c0.8-0.7,2-0.7,2.8,0
					C672.3,680.2,672.3,681.4,671.5,682.1z"/>
				<path class="st6" d="M634.9,643.6c-0.8,0.7-2,0.7-2.8,0c-0.8-0.7-0.8-1.9,0-2.6c0.8-0.7,2-0.7,2.8,0
					C635.7,641.7,635.7,642.9,634.9,643.6z"/>
				<path class="st6" d="M634,716.2c-0.8,0.7-2,0.7-2.8,0c-0.8-0.7-0.8-1.9,0-2.6c0.8-0.7,2-0.7,2.8,0
					C634.8,714.4,634.8,715.5,634,716.2z"/>
				<path class="st6" d="M542.7,688.8c-0.8,0.7-2,0.7-2.8,0c-0.8-0.7-0.8-1.9,0-2.6c0.8-0.7,2-0.7,2.8,0
					C543.4,686.9,543.4,688.1,542.7,688.8z"/>
				<path class="st6" d="M769.6,456.6c-0.8,0.7-2,0.7-2.8,0c-0.8-0.7-0.8-1.9,0-2.6c0.8-0.7,2-0.7,2.8,0
					C770.4,454.8,770.4,455.9,769.6,456.6z"/>
				<path class="st6" d="M760.1,398.5c-0.8,0.7-2,0.7-2.8,0c-0.8-0.7-0.8-1.9,0-2.6c0.8-0.7,2-0.7,2.8,0
					C760.9,396.6,760.9,397.8,760.1,398.5z"/>
				<path class="st6" d="M743.2,278.8c-0.8,0.7-2,0.7-2.8,0c-0.8-0.7-0.8-1.9,0-2.6c0.8-0.7,2-0.7,2.8,0
					C743.9,276.9,743.9,278.1,743.2,278.8z"/>
				<path class="st6" d="M600.6,185.6c-0.8,0.7-2,0.7-2.8,0c-0.8-0.7-0.8-1.8,0-2.6c0.8-0.7,2-0.7,2.8,0
					C601.4,183.7,601.4,184.9,600.6,185.6z"/>
				<path class="st6" d="M396.3,655.2c-0.8,0.7-2,0.7-2.8,0c-0.8-0.7-0.8-1.9,0-2.6c0.8-0.7,2-0.7,2.8,0
					C397.1,653.4,397.1,654.5,396.3,655.2z"/>
				<path class="st6" d="M729.3,721c-0.8,0.7-2,0.7-2.8,0c-0.8-0.7-0.8-1.9,0-2.6c0.8-0.7,2-0.7,2.8,0
					C730,719.2,730,720.3,729.3,721z"/>
				<path class="st6" d="M778,696c-0.8,0.7-2,0.7-2.8,0c-0.8-0.7-0.8-1.8,0-2.6c0.8-0.7,2-0.7,2.8,0
					C778.8,694.1,778.8,695.3,778,696z"/>
				<path class="st6" d="M625.9,612.9c-0.8,0.7-2,0.7-2.8,0c-0.8-0.7-0.8-1.9,0-2.6c0.8-0.7,2-0.7,2.8,0
					C626.7,611,626.7,612.2,625.9,612.9z"/>
				<path class="st6" d="M618.7,535.6c-0.8,0.7-2,0.7-2.8,0c-0.8-0.7-0.8-1.9,0-2.6c0.8-0.7,2-0.7,2.8,0
					C619.5,533.7,619.5,534.8,618.7,535.6z"/>
				<path class="st6" d="M534.4,511.8c-0.8,0.7-2,0.7-2.8,0c-0.8-0.7-0.8-1.9,0-2.6c0.8-0.7,2-0.7,2.8,0
					C535.2,509.9,535.2,511.1,534.4,511.8z"/>
				<path class="st6" d="M507.3,463.3c-0.8,0.7-2,0.7-2.8,0c-0.8-0.7-0.8-1.9,0-2.6c0.8-0.7,2-0.7,2.8,0
					C508.1,461.5,508.1,462.6,507.3,463.3z"/>
				<path class="st6" d="M582.8,467.7c-0.8,0.7-2,0.7-2.8,0c-0.8-0.7-0.8-1.9,0-2.6c0.8-0.7,2-0.7,2.8,0
					C583.6,465.8,583.6,467,582.8,467.7z"/>
				<path class="st6" d="M543,449.7c-0.8,0.7-2,0.7-2.8,0c-0.8-0.7-0.8-1.9,0-2.6c0.8-0.7,2-0.7,2.8,0
					C543.8,447.9,543.8,449,543,449.7z"/>
				<path class="st6" d="M544.2,402.1c-0.8,0.7-2,0.7-2.8,0c-0.8-0.7-0.8-1.9,0-2.6c0.8-0.7,2-0.7,2.8,0
					C545,400.3,545,401.4,544.2,402.1z"/>
				<path class="st6" d="M516.8,381.8c-0.8,0.7-2,0.7-2.8,0c-0.8-0.7-0.8-1.9,0-2.6c0.8-0.7,2-0.7,2.8,0
					C517.6,379.9,517.6,381.1,516.8,381.8z"/>
				<path class="st6" d="M518.7,319.9c-0.8,0.7-2,0.7-2.8,0c-0.8-0.7-0.8-1.8,0-2.6c0.8-0.7,2-0.7,2.8,0
					C519.5,318.1,519.4,319.2,518.7,319.9z"/>
				<path class="st6" d="M420.7,323.5c-0.8,0.7-2,0.7-2.8,0c-0.8-0.7-0.8-1.9,0-2.6c0.8-0.7,2-0.7,2.8,0
					C421.5,321.7,421.5,322.8,420.7,323.5z"/>
				<path class="st6" d="M469.8,421.4c-0.8,0.7-2,0.7-2.8,0c-0.8-0.7-0.8-1.9,0-2.6c0.8-0.7,2-0.7,2.8,0
					C470.5,419.6,470.5,420.7,469.8,421.4z"/>
				<path class="st6" d="M427.6,432.1c-0.8,0.7-2,0.7-2.8,0c-0.8-0.7-0.8-1.8,0-2.6c0.8-0.7,2-0.7,2.8,0
					C428.4,430.3,428.4,431.4,427.6,432.1z"/>
				<path class="st6" d="M431.2,513.5c-0.8,0.7-2,0.7-2.8,0c-0.8-0.7-0.8-1.9,0-2.6c0.8-0.7,2-0.7,2.8,0
					C431.9,511.7,431.9,512.8,431.2,513.5z"/>
				<path class="st6" d="M495.1,565.2c-0.8,0.7-2,0.7-2.8,0c-0.8-0.7-0.8-1.9,0-2.6c0.8-0.7,2-0.7,2.8,0
					C495.9,563.4,495.9,564.5,495.1,565.2z"/>
				<path class="st6" d="M413.2,579.9c-0.8,0.7-2,0.7-2.8,0c-0.8-0.7-0.8-1.9,0-2.6c0.8-0.7,2-0.7,2.8,0
					C414,578,414,579.1,413.2,579.9z"/>
				<path class="st6" d="M514.2,689.4c-0.8,0.7-2,0.7-2.8,0c-0.8-0.7-0.8-1.9,0-2.6c0.8-0.7,2-0.7,2.8,0
					C515,687.5,515,688.7,514.2,689.4z"/>
				<path class="st6" d="M554.8,644c-0.8,0.7-2,0.7-2.8,0c-0.8-0.7-0.8-1.9,0-2.6c0.8-0.7,2-0.7,2.8,0
					C555.6,642.2,555.6,643.3,554.8,644z"/>
				<path class="st6" d="M766.2,638.4c-0.8,0.7-2,0.7-2.8,0c-0.8-0.7-0.8-1.8,0-2.6c0.8-0.7,2-0.7,2.8,0
					C767,636.5,767,637.7,766.2,638.4z"/>
				<path class="st6" d="M531.2,293.5c-0.8,0.7-2,0.7-2.8,0c-0.8-0.7-0.8-1.9,0-2.6c0.8-0.7,2-0.7,2.8,0
					C532,291.7,532,292.8,531.2,293.5z"/>
				<path class="st6" d="M483.5,269c-0.8,0.7-2,0.7-2.8,0c-0.8-0.7-0.8-1.9,0-2.6c0.8-0.7,2-0.7,2.8,0
					C484.3,267.2,484.3,268.3,483.5,269z"/>
				<path class="st6" d="M506,234.3c-0.8,0.7-2,0.7-2.8,0c-0.8-0.7-0.8-1.9,0-2.6c0.8-0.7,2-0.7,2.8,0
					C506.8,232.4,506.8,233.5,506,234.3z"/>
				<path class="st6" d="M587.1,287.7c-0.8,0.7-2,0.7-2.8,0c-0.8-0.7-0.8-1.8,0-2.6c0.8-0.7,2-0.7,2.8,0
					C587.8,285.8,587.8,287,587.1,287.7z"/>
				<path class="st6" d="M582.6,325.8c-0.8,0.7-2,0.7-2.8,0c-0.8-0.7-0.8-1.8,0-2.6c0.8-0.7,2-0.7,2.8,0
					C583.3,323.9,583.3,325,582.6,325.8z"/>
				<path class="st6" d="M673.8,257.5c-0.8,0.7-2,0.7-2.8,0c-0.8-0.7-0.8-1.9,0-2.6c0.8-0.7,2-0.7,2.8,0
					C674.6,255.6,674.6,256.7,673.8,257.5z"/>
				<path class="st6" d="M700.8,344.5c-0.8,0.7-2,0.7-2.8,0c-0.8-0.7-0.8-1.8,0-2.6c0.8-0.7,2-0.7,2.8,0
					C701.6,342.6,701.6,343.7,700.8,344.5z"/>
				<path class="st6" d="M600.3,359.3c-0.8,0.7-2,0.7-2.8,0c-0.8-0.7-0.8-1.9,0-2.6c0.8-0.7,2-0.7,2.8,0
					C601.1,357.5,601.1,358.6,600.3,359.3z"/>
				<path class="st6" d="M682,438.4c-0.8,0.7-2,0.7-2.8,0c-0.8-0.7-0.8-1.8,0-2.6c0.8-0.7,2-0.7,2.8,0
					C682.8,436.5,682.8,437.7,682,438.4z"/>
				<path class="st6" d="M616.2,424c-0.8,0.7-2,0.7-2.8,0c-0.8-0.7-0.8-1.9,0-2.6c0.8-0.7,2-0.7,2.8,0
					C616.9,422.1,616.9,423.3,616.2,424z"/>
				<path class="st6" d="M624.1,497.9c-0.8,0.7-2,0.7-2.8,0c-0.8-0.7-0.8-1.9,0-2.6c0.8-0.7,2-0.7,2.8,0
					C624.8,496,624.9,497.2,624.1,497.9z"/>
				<path class="st6" d="M738,510.8c-0.8,0.7-2,0.7-2.8,0c-0.8-0.7-0.8-1.9,0-2.6c0.8-0.7,2-0.7,2.8,0
					C738.7,508.9,738.7,510.1,738,510.8z"/>
				<path class="st6" d="M757,426.3c-0.8,0.7-2,0.7-2.8,0c-0.8-0.7-0.8-1.9,0-2.6c0.8-0.7,2-0.7,2.8,0
					C757.8,424.4,757.8,425.6,757,426.3z"/>
				<path class="st6" d="M729.8,417.8c-0.8,0.7-2,0.7-2.8,0c-0.8-0.7-0.8-1.8,0-2.6c0.8-0.7,2-0.7,2.8,0
					C730.6,415.9,730.6,417.1,729.8,417.8z"/>
				<path class="st6" d="M465.7,221.5c-0.8,0.7-2,0.7-2.8,0c-0.8-0.7-0.8-1.9,0-2.6c0.8-0.7,2-0.7,2.8,0
					C466.5,219.7,466.5,220.8,465.7,221.5z"/>
			</g>
		</g>
	</g>
</g>
</svg>
