<?xml version="1.0" encoding="utf-8"?>
<!-- Generator: Adobe Illustrator 22.1.0, SVG Export Plug-In . SVG Version: 6.00 Build 0)  -->
<svg version="1.1" xmlns="http://www.w3.org/2000/svg" xmlns:xlink="http://www.w3.org/1999/xlink" x="0px" y="0px"
	 viewBox="0 0 212 253" style="enable-background:new 0 0 212 253;" xml:space="preserve">
<style type="text/css">
	.st0{fill:#E5F6FF;}
	.st1{opacity:0.3;fill:url(#SVGID_1_);enable-background:new    ;}
	.st2{opacity:0.5;fill:url(#SVGID_2_);enable-background:new    ;}
	.st3{fill:url(#SVGID_3_);}
	.st4{fill:url(#SVGID_4_);}
	.st5{fill:url(#SVGID_5_);}
	.st6{fill:url(#SVGID_6_);}
	.st7{opacity:0.3;fill:url(#SVGID_7_);enable-background:new    ;}
	.st8{opacity:0.3;fill:url(#SVGID_8_);enable-background:new    ;}
	.st9{fill:url(#SVGID_9_);}
	.st10{fill:url(#SVGID_10_);}
	.st11{opacity:0.3;fill:url(#SVGID_11_);enable-background:new    ;}
	.st12{fill:#FFFFFF;}
	.st13{fill:url(#SVGID_12_);}
	.st14{fill:url(#SVGID_13_);}
	.st15{opacity:0.3;fill:url(#SVGID_14_);enable-background:new    ;}
	.st16{fill:url(#SVGID_15_);}
	.st17{fill:url(#SVGID_16_);}
	.st18{fill:url(#SVGID_17_);}
	.st19{fill:url(#SVGID_18_);}
	.st20{fill:url(#SVGID_19_);}
	.st21{fill:url(#SVGID_20_);}
	.st22{fill:url(#SVGID_21_);}
	.st23{fill:#DFE3FB;}
	.st24{fill:url(#SVGID_22_);}
	.st25{opacity:0.3;fill:url(#SVGID_23_);enable-background:new    ;}
	.st26{fill:url(#SVGID_24_);}
	.st27{opacity:0.5;fill:url(#SVGID_25_);enable-background:new    ;}
	.st28{fill:url(#SVGID_26_);}
	.st29{opacity:0.5;fill:url(#SVGID_27_);enable-background:new    ;}
	.st30{fill:url(#SVGID_28_);}
	.st31{fill:url(#SVGID_29_);}
	.st32{fill:#2F95CD;}
	.st33{fill:url(#SVGID_30_);}
	.st34{fill:url(#SVGID_31_);}
	.st35{opacity:0.5;fill:url(#SVGID_32_);enable-background:new    ;}
	.st36{opacity:0.5;fill:url(#SVGID_33_);enable-background:new    ;}
	.st37{fill:url(#SVGID_34_);}
	.st38{opacity:0.2;fill:url(#SVGID_35_);enable-background:new    ;}
	.st39{opacity:0.72;fill:url(#SVGID_36_);enable-background:new    ;}
	.st40{opacity:0.72;fill:url(#SVGID_37_);enable-background:new    ;}
	.st41{fill:url(#SVGID_38_);}
	.st42{fill:url(#SVGID_39_);}
	.st43{fill:url(#SVGID_40_);}
	.st44{fill:url(#SVGID_41_);}
	.st45{opacity:0.5;fill:url(#SVGID_42_);enable-background:new    ;}
	.st46{opacity:0.72;fill:url(#SVGID_43_);enable-background:new    ;}
	.st47{opacity:0.8;}
	.st48{fill:url(#SVGID_44_);}
</style>
<g id="Layer_1">
	<g>
		<path class="st0" d="M30.1,196.2c10.6,22.3,112.9,19,138.7,1.7S137.4,35.4,68.1,38.4C17.5,40.6,2.9,139.1,30.1,196.2z"/>
		<path class="st0" d="M181.2,185.9c-4.4-0.7-7.1-24-1.9-28.5c5.2-4.5,15.8,5.8,15.8,13.6S188.8,187.2,181.2,185.9z"/>
		<path class="st0" d="M57.1,32.1c1.1,3.3-9.5,10.3-13.3,7.6c-3.7-2.7-1.5-11,1.8-12.7C49,25.3,55.6,27.3,57.1,32.1z"/>
	</g>
	
		<linearGradient id="SVGID_1_" gradientUnits="userSpaceOnUse" x1="175.6375" y1="6.8" x2="175.6375" y2="6.8" gradientTransform="matrix(1 0 0 -1 0 254)">
		<stop  offset="0" style="stop-color:#9D68C2"/>
		<stop  offset="1" style="stop-color:#CCEDFF"/>
	</linearGradient>
	<path class="st1" d="M175.6,247.2C175.7,247.2,175.7,247.2,175.6,247.2C175.7,247.2,175.6,247.2,175.6,247.2z"/>
	
		<radialGradient id="SVGID_2_" cx="96" cy="-768.7632" r="40.7778" gradientTransform="matrix(1 0 0 -0.2225 0 64.581)" gradientUnits="userSpaceOnUse">
		<stop  offset="0" style="stop-color:#BE9DEA"/>
		<stop  offset="0.3883" style="stop-color:#E0BFF5"/>
		<stop  offset="1" style="stop-color:#FFFFFF"/>
	</radialGradient>
	<ellipse class="st2" cx="96" cy="235.6" rx="40.8" ry="9.1"/>
	<g>
		
			<linearGradient id="SVGID_3_" gradientUnits="userSpaceOnUse" x1="68.2123" y1="63.848" x2="76.0284" y2="126.0808" gradientTransform="matrix(1 0 0 -1 0 254)">
			<stop  offset="0" style="stop-color:#CBC1F7"/>
			<stop  offset="1" style="stop-color:#E8DCF7"/>
		</linearGradient>
		<path class="st3" d="M81.7,191.8c-0.6,0-1.1-0.1-1.8-0.2c-10.4-1.7-25.4-11.7-21.6-30.9c0.1-0.8,0.3-1.5,0.6-2.3
			c0.1-0.4,0.2-0.7,0.2-0.8s0-0.1,0-0.1c4.4-14.8,18.2-29.5,18.2-29.5c2.6,2.9,2.2,8.2,1,13l0,0c-0.6,2.4-1.3,4.6-2,6.4
			c-0.9,2.3-1.6,3.9-1.6,3.9c-3.1,7.5-2.4,16.9-2.4,16.9l9.1,23L81.7,191.8z"/>
		
			<linearGradient id="SVGID_4_" gradientUnits="userSpaceOnUse" x1="78.5871" y1="112.6222" x2="72.5032" y2="113.163" gradientTransform="matrix(1 0 0 -1 0 254)">
			<stop  offset="0" style="stop-color:#8879EA"/>
			<stop  offset="1" style="stop-color:#9E8CEF"/>
		</linearGradient>
		<path class="st4" d="M77.4,128.1c0,0-7.2,12.2-5,25.9c0,0,3.6-5.9,5.5-12.6C79.8,134.8,79.6,129.8,77.4,128.1z"/>
		
			<linearGradient id="SVGID_5_" gradientUnits="userSpaceOnUse" x1="124.3793" y1="63.2104" x2="132.3346" y2="126.5513" gradientTransform="matrix(1 0 0 -1 0 254)">
			<stop  offset="0" style="stop-color:#CBC1F7"/>
			<stop  offset="1" style="stop-color:#E8DCF7"/>
		</linearGradient>
		<path class="st5" d="M116.5,189.8l7.4-22.7c0,0,1.6-6.3,0.8-12.6c-0.2-1.8-0.6-3.6-1.3-5.2c0,0-2.3-4.8-3.6-10.3l0,0
			c-1.2-4.8-1.6-10.1,1-13c0,0,13.6,14.5,18.1,29.1c0.4,1.2,0.7,2.4,0.9,3.6C143.9,179,126.9,189.1,116.5,189.8z"/>
		
			<linearGradient id="SVGID_6_" gradientUnits="userSpaceOnUse" x1="299.9203" y1="114.1509" x2="293.9843" y2="114.6787" gradientTransform="matrix(-1 0 0 -1 419.6561 254)">
			<stop  offset="0" style="stop-color:#8879EA"/>
			<stop  offset="1" style="stop-color:#9E8CEF"/>
		</linearGradient>
		<path class="st6" d="M120.9,126.1c0,0,7.6,12.9,4.4,26.9c0,0-3.1-6.9-5-13.5C118.5,132.8,118.7,127.9,120.9,126.1z"/>
		
			<linearGradient id="SVGID_7_" gradientUnits="userSpaceOnUse" x1="128.4629" y1="64.1553" x2="128.4629" y2="102.0553" gradientTransform="matrix(1 0 0 -1 0 254)">
			<stop  offset="0" style="stop-color:#9D68C2"/>
			<stop  offset="1" style="stop-color:#CCEDFF"/>
		</linearGradient>
		<path class="st7" d="M116.5,189.8l7.4-22.7c0,0,1.6-6.3,0.8-12.6l1.1-2.6c0,0,0.5,15.6,5.3,19.7c6,5.1,9.5-6.8,7.8-16.5
			c0.4,1.2,0.7,2.4,0.9,3.6C143.9,179,126.9,189.1,116.5,189.8z"/>
		
			<linearGradient id="SVGID_8_" gradientUnits="userSpaceOnUse" x1="69.6486" y1="62.4" x2="69.6486" y2="107.4982" gradientTransform="matrix(1 0 0 -1 0 254)">
			<stop  offset="0" style="stop-color:#9D68C2"/>
			<stop  offset="1" style="stop-color:#CCEDFF"/>
		</linearGradient>
		<path class="st8" d="M81.5,191.2l-1.5,0.4c-10.4-1.7-25.4-11.7-21.6-30.9c0.1-0.8,0.3-1.5,0.6-2.3c-0.4,2-1,12,2.6,15.8
			c4.6,4.9,9.7-12.2,10.8-24.4c0.3-3.9,2-4,4-2.4c-0.9,2.3-1.6,3.9-1.6,3.9c-3.1,7.5-2.4,16.9-2.4,16.9L81.5,191.2z"/>
		
			<linearGradient id="SVGID_9_" gradientUnits="userSpaceOnUse" x1="49.0803" y1="-146.8301" x2="54.726" y2="-101.8797" gradientTransform="matrix(0.998 -6.270000e-02 -6.270000e-02 -0.998 57.1233 79.2554)">
			<stop  offset="0" style="stop-color:#CBC1F7"/>
			<stop  offset="1" style="stop-color:#E8DCF7"/>
		</linearGradient>
		<path class="st9" d="M128.6,186.7c0,0.6-0.1,1.3-0.1,2c-0.8,10.6-2.7,26.2-5.5,32.1c-0.7,1.4-1.4,2.2-2.1,2.3
			c-0.2,0-0.4,0-0.6-0.1c-0.7-0.2-1.5-0.7-2.3-1.5l0,0c-5.1-5-11.5-21-12-25.8c-0.1-0.6,0-1,0.1-1.2c2.5-3.9,21.4-17.7,22.6-16.2
			C128.8,178.6,128.8,182,128.6,186.7z"/>
		
			<linearGradient id="SVGID_10_" gradientUnits="userSpaceOnUse" x1="53.2512" y1="-119.5912" x2="53.2512" y2="-102.8891" gradientTransform="matrix(0.998 -6.270000e-02 -6.270000e-02 -0.998 57.1233 79.2554)">
			<stop  offset="0" style="stop-color:#BE9DEA"/>
			<stop  offset="1" style="stop-color:#9E8CEF"/>
		</linearGradient>
		<path class="st10" d="M105.9,195.7c-0.5,1.5,20.1-3.2,22.7-17.5c0,0-1.2-0.6-3.1,0C120.1,179.8,109.4,185.1,105.9,195.7z"/>
		
			<linearGradient id="SVGID_11_" gradientUnits="userSpaceOnUse" x1="53.2733" y1="-145.7558" x2="53.2733" y2="-103.1109" gradientTransform="matrix(0.998 -6.270000e-02 -6.270000e-02 -0.998 57.1233 79.2554)">
			<stop  offset="0" style="stop-color:#9D68C2"/>
			<stop  offset="1" style="stop-color:#CCEDFF"/>
		</linearGradient>
		<path class="st11" d="M128.6,186.7c0,0-11.2,4.1-13.5,9.7c-2.3,5.6-0.5,18.3,2.8,25.2c-5.1-5-11.5-21-12-25.8
			c-0.1-0.6,0-1,0.1-1.2c2.5-3.9,21.4-17.7,22.6-16.2C128.8,178.6,128.8,182,128.6,186.7z"/>
		<path class="st12" d="M116.8,213c0.9,0.2,1.7,3.5,0.3,3.9C115.7,217.3,114.8,212.5,116.8,213z"/>
		
			<linearGradient id="SVGID_12_" gradientUnits="userSpaceOnUse" x1="107.7124" y1="-150.5139" x2="113.358" y2="-105.5635" gradientTransform="matrix(-0.998 -6.270000e-02 6.270000e-02 -0.998 199.9225 79.2554)">
			<stop  offset="0" style="stop-color:#CBC1F7"/>
			<stop  offset="1" style="stop-color:#E8DCF7"/>
		</linearGradient>
		<path class="st13" d="M69.7,186.7c0,0.6,0.1,1.3,0.1,2c0.8,10.6,2.7,26.2,5.5,32.1c0.7,1.4,1.4,2.2,2.1,2.3c0.2,0,0.4,0,0.6-0.1
			c0.7-0.2,1.5-0.7,2.3-1.5l0,0c5.1-5,11.5-21,12-25.8c0.1-0.6,0-1-0.1-1.2c-2.5-3.9-21.4-17.7-22.6-16.2
			C69.5,178.6,69.5,182,69.7,186.7z"/>
		
			<linearGradient id="SVGID_13_" gradientUnits="userSpaceOnUse" x1="111.8833" y1="-123.2748" x2="111.8833" y2="-106.5726" gradientTransform="matrix(-0.998 -6.270000e-02 6.270000e-02 -0.998 199.9225 79.2554)">
			<stop  offset="0" style="stop-color:#BE9DEA"/>
			<stop  offset="1" style="stop-color:#9E8CEF"/>
		</linearGradient>
		<path class="st14" d="M92.4,195.7c0.5,1.5-20.1-3.2-22.7-17.5c0,0,0.8-0.6,2.7,0C77.9,179.9,88.9,185.2,92.4,195.7z"/>
		
			<linearGradient id="SVGID_14_" gradientUnits="userSpaceOnUse" x1="111.9054" y1="-149.4393" x2="111.9054" y2="-106.7943" gradientTransform="matrix(-0.998 -6.270000e-02 6.270000e-02 -0.998 199.9225 79.2554)">
			<stop  offset="0" style="stop-color:#9D68C2"/>
			<stop  offset="1" style="stop-color:#CCEDFF"/>
		</linearGradient>
		<path class="st15" d="M69.7,186.7c0,0,11.2,4.1,13.5,9.7c2.3,5.6,0.5,18.3-2.8,25.2c5.1-5,11.5-21,12-25.8c0.1-0.6,0-1-0.1-1.2
			c-2.5-3.9-21.4-17.7-22.6-16.2C69.5,178.6,69.5,182,69.7,186.7z"/>
		<path class="st12" d="M82.5,206.7c-0.9,0.2-2.8,9.8-1.4,10.2C82.6,217.3,84.5,206.2,82.5,206.7z"/>
		<g>
			
				<linearGradient id="SVGID_15_" gradientUnits="userSpaceOnUse" x1="-1841.1355" y1="172.8077" x2="-1841.1355" y2="207.5077" gradientTransform="matrix(-1 0 0 -1 -1776.5355 254)">
				<stop  offset="0" style="stop-color:#B9ACF4"/>
				<stop  offset="1" style="stop-color:#E1D1F5"/>
			</linearGradient>
			<path class="st16" d="M74.5,52.9c0,0-6.3-5.4-13.9-6.3c0,0-2.3,1.1-5.1,9.6c-2.7,8.4,2.3,25.1,2.3,25.1L74.5,52.9z"/>
			
				<linearGradient id="SVGID_16_" gradientUnits="userSpaceOnUse" x1="62.2052" y1="185.9" x2="62.2052" y2="207.4755" gradientTransform="matrix(1 0 0 -1 0 254)">
				<stop  offset="0" style="stop-color:#BE9DEA"/>
				<stop  offset="1" style="stop-color:#9E8CEF"/>
			</linearGradient>
			<path class="st17" d="M57.7,50.7c0,0,1.2-2.9,3-4.2c0,0,6.3,5.8,6,19.7l-1.8,1.9L57.7,50.7z"/>
			
				<linearGradient id="SVGID_17_" gradientUnits="userSpaceOnUse" x1="136.2198" y1="172.8" x2="136.2198" y2="207.4752" gradientTransform="matrix(1 0 0 -1 0 254)">
				<stop  offset="0" style="stop-color:#B9ACF4"/>
				<stop  offset="1" style="stop-color:#E1D1F5"/>
			</linearGradient>
			<path class="st18" d="M126.3,52.9c0,0,6.3-5.4,13.9-6.3c0,0,2.3,1.1,5.1,9.6s-2.3,25-2.3,25L126.3,52.9z"/>
			
				<linearGradient id="SVGID_18_" gradientUnits="userSpaceOnUse" x1="138.7" y1="188.6354" x2="138.7" y2="207.4855" gradientTransform="matrix(1 0 0 -1 0 254)">
				<stop  offset="0" style="stop-color:#BE9DEA"/>
				<stop  offset="1" style="stop-color:#9E8CEF"/>
			</linearGradient>
			<path class="st19" d="M140.2,46.5c0,0-6.2,6.6-6.2,17.3l2.4,1.5l7-14.4C143.4,50.9,141.1,46.4,140.2,46.5z"/>
			
				<linearGradient id="SVGID_19_" gradientUnits="userSpaceOnUse" x1="143.423" y1="171.1486" x2="143.423" y2="205.2486" gradientTransform="matrix(1 0 0 -1 0 254)">
				<stop  offset="0" style="stop-color:#45FFCD"/>
				<stop  offset="1" style="stop-color:#22E0FF"/>
			</linearGradient>
			<path class="st20" d="M136.2,64.6c0,0-1.6-9.1,4.4-15.9c0,0,6.8,3.2,9.6,15.1s-4.5,19-4.5,19L136.2,64.6z"/>
			
				<linearGradient id="SVGID_20_" gradientUnits="userSpaceOnUse" x1="-1833.9125" y1="171.1486" x2="-1833.9125" y2="205.2486" gradientTransform="matrix(-1 0 0 -1 -1776.5355 254)">
				<stop  offset="0" style="stop-color:#45FFCD"/>
				<stop  offset="1" style="stop-color:#22E0FF"/>
			</linearGradient>
			<path class="st21" d="M64.6,64.6c0,0,1.6-9.1-4.4-15.9c0,0-6.8,3.2-9.6,15.1s4.5,19,4.5,19L64.6,64.6z"/>
			
				<linearGradient id="SVGID_21_" gradientUnits="userSpaceOnUse" x1="96.6427" y1="123.6621" x2="107.666" y2="211.43" gradientTransform="matrix(1 0 0 -1 0 254)">
				<stop  offset="0" style="stop-color:#CBC1F7"/>
				<stop  offset="1" style="stop-color:#E8DCF7"/>
			</linearGradient>
			<path class="st22" d="M144.5,115.1c-14,19.6-79.6,18.1-88.1,2.3c-5.6-10.3-5-25.9,0.4-40.2c7-18.8,22.3-35.4,42.5-35.4
				c23.8,0,42.1,23.7,47.6,45.3C149.7,98.1,149.2,108.6,144.5,115.1z"/>
			<path class="st23" d="M61.3,97c3.1,13.3,60.8,14.8,74.9,2.7c14.2-12.1-6.2-55-37.5-53.1C70.2,48.3,56.2,75.2,61.3,97z"/>
			
				<linearGradient id="SVGID_22_" gradientUnits="userSpaceOnUse" x1="100.2341" y1="147.66" x2="100.2341" y2="209.0612" gradientTransform="matrix(1 0 0 -1 0 254)">
				<stop  offset="0" style="stop-color:#0665BD"/>
				<stop  offset="1" style="stop-color:#1A1F77"/>
			</linearGradient>
			<path class="st24" d="M61,95.4c3.1,13.3,60.8,14.8,74.9,2.7c14.2-12.1-6.2-55-37.5-53.1C69.9,46.7,55.9,73.5,61,95.4z"/>
			
				<linearGradient id="SVGID_23_" gradientUnits="userSpaceOnUse" x1="100.5425" y1="124.4733" x2="100.5425" y2="176.8" gradientTransform="matrix(1 0 0 -1 0 254)">
				<stop  offset="0" style="stop-color:#9D68C2"/>
				<stop  offset="1" style="stop-color:#CCEDFF"/>
			</linearGradient>
			<path class="st25" d="M144.5,115.1c-14,19.6-79.6,18.1-88.1,2.3c-5.6-10.3-5-25.9,0.4-40.2l0,0c-0.2,0.8-5.7,20.9-0.1,29.7
				c5.7,9,28.4,7.8,52.8,6.7c24.4-1,32.4-4.6,36.5-11.5c3.2-5.4,0-17.3-1.5-22.2l2.4,7.1C149.7,98.1,149.2,108.6,144.5,115.1z"/>
			
				<linearGradient id="SVGID_24_" gradientUnits="userSpaceOnUse" x1="65.2677" y1="131.2804" x2="133.4543" y2="131.2804" gradientTransform="matrix(1 0 0 -1 0 254)">
				<stop  offset="0" style="stop-color:#8879EA"/>
				<stop  offset="1" style="stop-color:#9E8CEF"/>
			</linearGradient>
			<path class="st26" d="M126.3,125.6c-7.5,2.3-19.2,3.9-26.9,3.9c-13.6,0-23.5-1.6-29-3.8l0,0c-3.6-1.4-5.4-3.2-5.1-4.9
				c0.2-1.1,2.8-2,7.1-2.8c12.4-2.2,38-2.9,51.8-0.8c1.2,0.2,2.3,0.4,3.3,0.6c0.2,0,0.4,0.1,0.6,0.1h0.1c2.4,0.6,4.1,1.3,4.8,2.2
				c0.2,0.2,0.3,0.4,0.4,0.7C133.9,122.5,130.9,124.2,126.3,125.6z"/>
			
				<linearGradient id="SVGID_25_" gradientUnits="userSpaceOnUse" x1="99.361" y1="128.2" x2="99.361" y2="138.0273" gradientTransform="matrix(1 0 0 -1 0 254)">
				<stop  offset="0" style="stop-color:#8DA4E5"/>
				<stop  offset="1" style="stop-color:#755CBB"/>
			</linearGradient>
			<path class="st27" d="M126.3,125.6c-3-1.3-22.2-9.3-37.7-5.8c-16.9,3.8-18.2,6-18.2,6l0,0c-3.6-1.4-5.4-3.2-5.1-4.9
				c0.2-1.1,2.8-2,7.1-2.8c12.4-2.2,38-2.9,51.8-0.8c1.4,0.3,2.8,0.5,3.9,0.8h0.1c2.4,0.6,4.1,1.3,4.8,2.2c0.2,0.2,0.3,0.4,0.4,0.7
				C133.9,122.5,130.9,124.2,126.3,125.6z"/>
			
				<linearGradient id="SVGID_26_" gradientUnits="userSpaceOnUse" x1="99.1322" y1="129.5889" x2="100.4118" y2="139.7771" gradientTransform="matrix(1 0 0 -1 0 254)">
				<stop  offset="0" style="stop-color:#5E36CC"/>
				<stop  offset="1" style="stop-color:#6C4A96"/>
			</linearGradient>
			<path class="st28" d="M127.5,117.8c-3.2,3.1-18.7,5.7-27.5,5.7c-15.8,0-25.4-2.5-27.6-5.5C85.8,115.6,114.9,115,127.5,117.8z"/>
			
				<linearGradient id="SVGID_27_" gradientUnits="userSpaceOnUse" x1="64.4648" y1="136.5665" x2="64.4648" y2="150.3543" gradientTransform="matrix(1 0 0 -1 0 254)">
				<stop  offset="0" style="stop-color:#8DA4E5"/>
				<stop  offset="1" style="stop-color:#755CBB"/>
			</linearGradient>
			<path class="st29" d="M56.4,117.4c0,0,2.8-3.2,8.2-5.8C70,109,75,107,75.8,104.9c0.8-2.1-14.9-0.9-14.9-0.9l-7.8,3.4
				C53.1,107.4,54.3,113.7,56.4,117.4z"/>
			
				<linearGradient id="SVGID_28_" gradientUnits="userSpaceOnUse" x1="120.1995" y1="175.3177" x2="120.1995" y2="193.2446" gradientTransform="matrix(1 0 0 -1 0 254)">
				<stop  offset="0" style="stop-color:#45FFCD"/>
				<stop  offset="1" style="stop-color:#22E0FF"/>
			</linearGradient>
			<path class="st30" d="M111.7,75.6c2.1,3.7,14.7,4.5,17.3,0c1.6-2.7-4.2-15.7-11.5-14.8C110.2,61.6,110.7,73.8,111.7,75.6z"/>
			
				<linearGradient id="SVGID_29_" gradientUnits="userSpaceOnUse" x1="-1754.6671" y1="175.2645" x2="-1754.6671" y2="193.2659" gradientTransform="matrix(-1 0 0 -1 -1674.0396 254)">
				<stop  offset="0" style="stop-color:#45FFCD"/>
				<stop  offset="1" style="stop-color:#22E0FF"/>
			</linearGradient>
			<path class="st31" d="M89.1,75.5c-2.1,3.7-16.7,4.7-17.3,0.8c-0.9-6.3,3.7-16.3,11-15.5C90.1,61.6,90.1,73.7,89.1,75.5z"/>
			<path class="st32" d="M90.6,82.7c0,0,2.7,0.7,10.3,0.7s11.5-1.1,11.5-1.1s-3.3,4.5-11.5,4.5C92.7,86.8,90.6,82.7,90.6,82.7z"/>
			
				<linearGradient id="SVGID_30_" gradientUnits="userSpaceOnUse" x1="45.7046" y1="145.5851" x2="50.7575" y2="185.8165" gradientTransform="matrix(1 0 0 -1 0 254)">
				<stop  offset="0" style="stop-color:#BE9DEA"/>
				<stop  offset="1" style="stop-color:#9E8CEF"/>
			</linearGradient>
			<path class="st33" d="M50,68.1c0,0,4,2.6,1.4,8.6c0,0-18.9,10.3-17.8,21.5c0.9,9.4,27,4.8,27,4.8l0.9,3.1c0,0-22.2,4.3-29.8-0.9
				c0,0-2.6-6.2,3.9-17.3C42.1,76.8,50,68.1,50,68.1z"/>
			
				<linearGradient id="SVGID_31_" gradientUnits="userSpaceOnUse" x1="102.1915" y1="362.1039" x2="102.1915" y2="373.4445" gradientTransform="matrix(0.9734 0.2292 0.2292 -0.9734 -117.1296 437.6987)">
				<stop  offset="0" style="stop-color:#DD1A8F"/>
				<stop  offset="1" style="stop-color:#FE117E"/>
			</linearGradient>
			<path class="st34" d="M57.3,102.2c-2.4,2.7,2.7,5.6,6.8,6.1c4.7,0.5,12.9-1.3,12.4-6C76.1,97.6,62.9,95.9,57.3,102.2z"/>
			
				<linearGradient id="SVGID_32_" gradientUnits="userSpaceOnUse" x1="70.4641" y1="194.6447" x2="133.3036" y2="194.6447" gradientTransform="matrix(1 0 0 -1 0 254)">
				<stop  offset="0" style="stop-color:#000000"/>
				<stop  offset="1" style="stop-color:#6A9BFF"/>
			</linearGradient>
			<path class="st35" d="M70.5,61.7c-0.7,4.3,8.9,4.1,22,3.7c15.7-0.5,31.5,13,40.7,3.3c1.5-1.6-13.5-22.6-31.7-22.2
				C83.3,47,71.1,57.9,70.5,61.7z"/>
			
				<linearGradient id="SVGID_33_" gradientUnits="userSpaceOnUse" x1="79.3346" y1="153.2543" x2="123.984" y2="153.2543" gradientTransform="matrix(1 0 0 -1 0 254)">
				<stop  offset="0" style="stop-color:#000000"/>
				<stop  offset="1" style="stop-color:#6A9BFF"/>
			</linearGradient>
			<path class="st36" d="M79.4,99.3c-0.8,3.1,5.7,6.3,21.8,5.5c19.5-1,23.6-5,22.6-6.2c-0.6-0.7-6.4,3-22.4-0.5
				C90.9,95.8,80.3,96,79.4,99.3z"/>
			<path class="st12" d="M110.5,44.6c-1.4,0.3,10.2,6.5,10.7,5.7C121.6,49.6,114.3,43.7,110.5,44.6z"/>
			<path class="st12" d="M132.7,49.2c-1.2,0.6-1.1,1.9,1.3,1.6c2.4-0.3,3.7-2.2,3.4-2.6C137.2,47.8,134,48.5,132.7,49.2z"/>
			
				<linearGradient id="SVGID_34_" gradientUnits="userSpaceOnUse" x1="66.1518" y1="150.8292" x2="66.1518" y2="155.6442" gradientTransform="matrix(1 0 0 -1 0 254)">
				<stop  offset="0" style="stop-color:#D93DE3"/>
				<stop  offset="1" style="stop-color:#FF6DBA"/>
			</linearGradient>
			<path class="st37" d="M57.7,102.7c-0.1,0.8,16.5,1,16.9-2C74.9,97.8,58.7,96.8,57.7,102.7z"/>
			
				<linearGradient id="SVGID_35_" gradientUnits="userSpaceOnUse" x1="79.7148" y1="223.7674" x2="79.7148" y2="246.5519" gradientTransform="matrix(0.9977 6.840000e-02 6.840000e-02 -0.9977 -30.5311 311.4047)">
				<stop  offset="0" style="stop-color:#000000"/>
				<stop  offset="1" style="stop-color:#00E3FF"/>
			</linearGradient>
			<path class="st38" d="M61.7,91c0,0-0.7-4.5,0.1-10.6s2.4-10,3.4-9.5c1,0.6,0.8,6.5,1.4,12.4c0.4,4.6,1.3,8.9,1.3,8.9
				S63.8,96.2,61.7,91z"/>
			
				<linearGradient id="SVGID_36_" gradientUnits="userSpaceOnUse" x1="137.9616" y1="196.6552" x2="146.8259" y2="196.6552" gradientTransform="matrix(1 0 0 -1 0 254)">
				<stop  offset="0" style="stop-color:#000000"/>
				<stop  offset="1" style="stop-color:#D4E2FF"/>
			</linearGradient>
			<path class="st39" d="M145.7,54.2c0,0-2.2-2.7-5.2-2s-3.2,10.2-1.4,10.4c1.8,0.2,2.6-5.2,3.9-6.1c1.4-0.9,3.8-0.5,3.8-0.5
				L145.7,54.2z"/>
			
				<linearGradient id="SVGID_37_" gradientUnits="userSpaceOnUse" x1="52.9283" y1="198.1268" x2="62.6922" y2="198.1268" gradientTransform="matrix(1 0 0 -1 0 254)">
				<stop  offset="0" style="stop-color:#D4E2FF"/>
				<stop  offset="1" style="stop-color:#000000"/>
			</linearGradient>
			<path class="st40" d="M52.9,57.4c0,0,1.2-1.3,3.8-0.9c2.6,0.4,4.1,5.8,5.4,5.2c1.3-0.5,0.4-9.2-3.2-11.7
				C59,50,54.4,53.9,52.9,57.4z"/>
			
				<linearGradient id="SVGID_38_" gradientUnits="userSpaceOnUse" x1="48.9779" y1="188.3379" x2="48.9779" y2="199.596" gradientTransform="matrix(0.9999 1.650000e-02 1.650000e-02 -0.9999 -7.0778 268.7433)">
				<stop  offset="0" style="stop-color:#CBC1F7"/>
				<stop  offset="1" style="stop-color:#E8DCF7"/>
			</linearGradient>
			<path class="st41" d="M49.4,70c0,0-9.2,10.3-8.6,11.1C41.3,81.9,49.9,71.1,49.4,70z"/>
		</g>
		<g>
			
				<linearGradient id="SVGID_39_" gradientUnits="userSpaceOnUse" x1="95.4068" y1="59.6286" x2="104.9775" y2="135.8311" gradientTransform="matrix(1 0 0 -1 0 254)">
				<stop  offset="0" style="stop-color:#CBC1F7"/>
				<stop  offset="1" style="stop-color:#E8DCF7"/>
			</linearGradient>
			<path class="st42" d="M125.8,175.8c-1.9,11.2-12,18.7-26.4,18.7c-12.6,0-23.2-4.7-26-15c-2.8-10.3-1.7-29.4,2-41.2
				c0.6-1.8,1.2-3.5,2-5.1l0,0c0.7-1.5,1.5-2.9,2.4-4.2l0,0c4.6-6.9,11.3-11.4,18.9-11.4c7.9,0,13.9,3.2,18.1,8.1
				c1.9,2.2,3.4,4.8,4.5,7.5c1.2,3.1,2.3,6.5,3.1,9.9v0.1C127,154,127.5,165.8,125.8,175.8z"/>
			
				<linearGradient id="SVGID_40_" gradientUnits="userSpaceOnUse" x1="98.692" y1="60.7" x2="98.692" y2="109.0114" gradientTransform="matrix(1 0 0 -1 0 254)">
				<stop  offset="0" style="stop-color:#BE9DEA"/>
				<stop  offset="1" style="stop-color:#9E8CEF"/>
			</linearGradient>
			<path class="st43" d="M73.9,169.1c2.1-15.1,14.3-25.3,27.7-24c14.5,1.4,22.3,15.2,22.1,27.1c-0.2,11.9-8.9,21.1-24.4,21.1
				S71.9,183.3,73.9,169.1z"/>
			
				<radialGradient id="SVGID_41_" cx="99.6774" cy="66.9428" r="36.8712" gradientTransform="matrix(1 0 0 -1 0 254)" gradientUnits="userSpaceOnUse">
				<stop  offset="0" style="stop-color:#45FFCD"/>
				<stop  offset="1" style="stop-color:#22E0FF"/>
			</radialGradient>
			<path class="st44" d="M74.1,170.4c2.1-15.1,14.3-25.3,27.7-24.1c14.5,1.4,22.3,15.2,22.1,27.1c-0.2,11.9-8.9,21.1-24.4,21.1
				C83.9,194.6,72.1,184.5,74.1,170.4z"/>
			
				<linearGradient id="SVGID_42_" gradientUnits="userSpaceOnUse" x1="98.2643" y1="121.4326" x2="98.2643" y2="136.4" gradientTransform="matrix(1 0 0 -1 0 254)">
				<stop  offset="0" style="stop-color:#8DA4E5"/>
				<stop  offset="1" style="stop-color:#755CBB"/>
			</linearGradient>
			<path class="st45" d="M116.8,125.7c-3.1,4.8-20,7.6-29.8,6.7c-8.5-0.8-7.2-3.1-7.2-3.4l0,0c4.6-6.9,11.3-11.4,18.9-11.4
				C106.6,117.6,112.6,120.8,116.8,125.7z"/>
			<path class="st12" d="M110.7,134c-0.8,0.3-0.8,6.6,0,7.6s2.1,0.7,2.6-0.8C113.8,139.4,111.9,133.6,110.7,134z"/>
			<path class="st12" d="M112.2,143.3c-0.7,0.2-0.7,1.7-0.4,2.3c0.3,0.6,1.4,0.4,1.6-0.2C113.6,144.7,112.9,143.2,112.2,143.3z"/>
			
				<linearGradient id="SVGID_43_" gradientUnits="userSpaceOnUse" x1="79.1528" y1="95.7851" x2="121.1844" y2="95.7851" gradientTransform="matrix(1 0 0 -1 0 254)">
				<stop  offset="0" style="stop-color:#000000"/>
				<stop  offset="1" style="stop-color:#D4E2FF"/>
			</linearGradient>
			<path class="st46" d="M79.2,160.8c2.6,4.1,13.1,1.9,24.9,3.1s13.9,5,16.4,4.2s-1.4-18.6-19.2-19.8
				C83.6,147.1,78.6,159.8,79.2,160.8z"/>
		</g>
		<path class="st12" d="M64.6,150.7c-1.3-0.4-3.4,5.6-3.3,6.3c0.1,0.8,2.6-1.6,3.1-2.6C65.2,153.2,65.9,151.1,64.6,150.7z"/>
		<path class="st12" d="M127.8,147.3c-0.7,0-0.8,3.3-0.6,4.7c0.2,1.4,1.3,2.6,1.7,2.7C129.3,154.7,129.3,147.3,127.8,147.3z"/>
		<g class="st47">
			<path class="st32" d="M36.5,18.8c-2.3,2.1-1.6,90.1,2.4,92.4s121,2.3,124.7-2.1c3.7-4.4,0.7-87.2-1.7-90.8
				C159.6,14.7,40.6,15.2,36.5,18.8z"/>
			
				<radialGradient id="SVGID_44_" cx="102.4357" cy="158.123" r="94.2352" gradientTransform="matrix(1 0 0 -1 0 254)" gradientUnits="userSpaceOnUse">
				<stop  offset="0" style="stop-color:#45FFCD"/>
				<stop  offset="1" style="stop-color:#22E0FF"/>
			</radialGradient>
			<path class="st48" d="M36.5,16.9c-2.3,2.1-1.6,90.1,2.4,92.4s121,2.3,124.7-2.1c3.7-4.4,0.7-87.2-1.7-90.8
				C159.6,12.9,40.6,13.4,36.5,16.9z"/>
		</g>
		<g>
			<g>
				
					<rect x="36.6" y="23.4" transform="matrix(1 -7.799526e-03 7.799526e-03 1 -0.1814 0.7823)" class="st12" width="127.2" height="0.5"/>
			</g>
			<g>
				
					<rect x="36.6" y="32.8" transform="matrix(1 -7.799526e-03 7.799526e-03 1 -0.2547 0.7825)" class="st12" width="127.2" height="0.5"/>
			</g>
			<g>
				
					<rect x="36.6" y="42.1" transform="matrix(1 -7.799526e-03 7.799526e-03 1 -0.3273 0.7828)" class="st12" width="127.2" height="0.5"/>
			</g>
			<g>
				
					<rect x="36.6" y="51.4" transform="matrix(1 -7.799526e-03 7.799526e-03 1 -0.3998 0.7831)" class="st12" width="127.2" height="0.5"/>
			</g>
			<g>
				
					<rect x="36.6" y="60.7" transform="matrix(1 -7.799526e-03 7.799526e-03 1 -0.4723 0.7834)" class="st12" width="127.2" height="0.5"/>
			</g>
			<g>
				
					<rect x="36.6" y="70.1" transform="matrix(1 -7.799526e-03 7.799526e-03 1 -0.5457 0.7837)" class="st12" width="127.2" height="0.5"/>
			</g>
			<g>
				
					<rect x="36.6" y="79.4" transform="matrix(1 -7.799526e-03 7.799526e-03 1 -0.6182 0.784)" class="st12" width="127.2" height="0.5"/>
			</g>
			<g>
				
					<rect x="36.6" y="88.7" transform="matrix(1 -7.799526e-03 7.799526e-03 1 -0.6907 0.7842)" class="st12" width="127.2" height="0.5"/>
			</g>
			<g>
				
					<rect x="36.6" y="98" transform="matrix(1 -7.799526e-03 7.799526e-03 1 -0.7633 0.7845)" class="st12" width="127.2" height="0.5"/>
			</g>
		</g>
	</g>
</g>
<g id="Layer_2">
	<g>
		<path class="st12" d="M87.9,48.7l-21.3-8.9v-4.5l21.3-8.9v5.9l-13.1,5.3l13.1,5.3V48.7z"/>
		<path class="st12" d="M106.9,19.4L96.3,56.6h-6.8l10.7-37.2H106.9z"/>
		<path class="st12" d="M108.7,26.4l21.3,8.9v4.5l-21.3,8.9v-5.9l13.1-5.3l-13.1-5.3V26.4z"/>
	</g>
</g>
</svg>
