<?xml version="1.0" encoding="utf-8"?>
<!-- Generator: Adobe Illustrator 22.1.0, SVG Export Plug-In . SVG Version: 6.00 Build 0)  -->
<svg version="1.1" id="Layer_1" xmlns="http://www.w3.org/2000/svg" xmlns:xlink="http://www.w3.org/1999/xlink" x="0px" y="0px"
	 viewBox="0 0 2852.9 2291.5" style="enable-background:new 0 0 2852.9 2291.5;" xml:space="preserve">
<style type="text/css">
	.st0{fill:url(#SVGID_1_);}
	.st1{fill:url(#SVGID_2_);}
	.st2{fill:url(#SVGID_3_);}
	.st3{fill:#231F1F;}
</style>
<g transform="matrix(.569 0 0 .569 199.451 -82.735)">
	
		<linearGradient id="SVGID_1_" gradientUnits="userSpaceOnUse" x1="-12558.7539" y1="-8093.7881" x2="-11718.0508" y2="-8590.5459" gradientTransform="matrix(0.1187 0 0 0.1187 3374.072 3501.1729)">
		<stop  offset="0" style="stop-color:#909CA9"/>
		<stop  offset="1" style="stop-color:#EDEDEE"/>
	</linearGradient>
	<path class="st0" d="M2915.3,1488l-485.2,158.4L2008,1832.7l-118.1,31.2c-30.1,28.6-61.6,57.6-95.7,86.9
		c-37.4,32.3-72.2,61.6-99,82.9c-29.7,23.5-73.7,67.5-96.1,95.3c-33.4,41.8-59.8,86.2-71.1,120.3c-20.2,61.6-10.3,123.9,28.6,181.5
		c49.9,73.3,149.3,148.1,265.1,199.1c59,26,158.4,59.4,233.2,78.1c124.3,31.5,364.9,65.6,497.3,70.8c26.8,1.1,62.7,1.1,64.2,0
		c2.9-1.8,23.5-41.1,47.3-89.8c81.4-166.1,140.1-322,172-455.1c19.1-80.7,34.1-188.1,44-315.4c2.6-35.6,3.7-154.8,1.5-195.1
		c-3.3-66-9.2-119.5-18.3-172c-1.5-7.7-1.8-14.7-1.1-15c1.5-1.1,5.9-2.6,65.6-19.8L2915.3,1488L2915.3,1488L2915.3,1488L2915.3,1488
		z M2804.5,1552.9c4.4,0,16.1,112.6,19.1,183.7c0.7,15,0.4,24.9-0.4,24.9c-2.9,0-62-34.8-104.1-61.2
		c-36.7-23.1-106.3-69.3-117.3-78.1c-3.7-2.6-3.3-2.9,26.8-13.2C2679.5,1591.8,2800.5,1552.9,2804.5,1552.9z M2557.4,1634.3
		c3.3,0,11.7,4.8,31.9,17.2c75.5,47.3,178.2,104.5,222.2,123.6c13.6,5.9,15,3.7-16.1,24.9c-66.7,45.5-150,90.2-251.9,135.3
		c-18,8.1-33,14.3-33.4,14.3c-0.7,0,1.5-9.2,4.4-20.2c24.6-91.3,38.5-183.7,39.2-257.8c0.4-36.7,0.4-36.7,3.7-37.8
		C2556.6,1634.3,2557,1634.3,2557.4,1634.3L2557.4,1634.3z M2506.4,1653.7c2.2,2.2,0.7,84.3-2.2,106.7
		c-6.6,53.5-16.9,103.4-33.7,159.5c-4,13.6-7.7,24.9-8.4,25.7c-1.5,1.8-51.7-47.3-68.2-66.4c-28.6-33-51-66-67.5-98.3
		c-8.4-16.5-21.6-48.8-20.5-49.9C2311.7,1727.1,2504.9,1652.3,2506.4,1653.7L2506.4,1653.7z M2266.5,1748c0.4,0,0.7,0,1.1,0.4
		c0.7,0.7,3.3,6.6,5.5,13.2c11.7,31.9,38.1,78.8,60.9,108.9c24.9,33,57.6,68.2,84.7,91.3c8.8,7.3,16.9,14.3,18,15.4
		c2.2,2.2,2.9,1.8-56.8,24.6c-69.3,26.4-144.8,52.8-231.4,80.7c-20.7,6.7-41.3,13.4-62,20.2c-3.3,1.1-2.2-0.7,7.3-15.8
		c42.9-67.1,108.2-198.8,144.9-291.9c6.2-16.1,12.5-32.3,13.6-35.9c1.5-5.1,3.3-7,8.1-9.5C2262.9,1748.7,2265.5,1748,2266.5,1748
		L2266.5,1748z M2193.2,1778.4c1.1,0.7-17.6,40-35.9,75.9c-35.6,69.3-74.4,137.5-126.5,220.4c-8.8,14.3-17.2,27.5-18.3,29
		c-1.8,2.6-2.6,1.8-8.4-9.5c-12.5-24.6-22.7-56.1-28.2-85.1c-5.5-28.6-4.4-78.5,1.8-109.3c4.8-22.7,4.4-22.4,15.4-27.9
		C2039.9,1848.1,2191.7,1777,2193.2,1778.4L2193.2,1778.4z M2825.8,1804.1v15.4c0,81.8-8.8,194-21.6,275.8c-2.2,14.3-4,26-4.4,26.4
		c0,0-10.6-2.9-23.1-6.6c-55-17.2-114.8-42.5-168.7-72.2c-35.6-19.4-87.3-51.3-85.8-52.8c0.4-0.4,15.8-8.4,33.7-18
		c71.9-37.4,140.8-77.7,200.6-117.7c22.4-15,56.1-39.2,63.4-45.8L2825.8,1804.1L2825.8,1804.1z M1916.3,1912.6
		c1.5,0,1.1,2.9-1.1,16.1c-1.5,9.5-3.3,27.1-4,39.2c-2.9,53.5,5.9,93.2,32.3,147.4c7.3,15,13.2,27.5,12.8,27.9
		c-2.6,2.2-245.3,73.3-321.6,94.2c-22.7,6.2-42.5,11.7-44,12.1c-2.6,0.7-2.9,0.4-1.8-5.9c8.4-53.9,49.5-124.3,106.7-183.7
		c38.1-39.6,68.6-62.7,120.7-92.4c37.4-21.3,95-53.2,99.4-54.6C1915.6,1912.6,1916,1912.6,1916.3,1912.6L1916.3,1912.6z
		 M2488.4,2015c0.4-0.4,9.2,4.4,19.8,10.6c78.5,45.5,187.8,87.6,280.9,109.3l8.4,1.8l-11.7,6.6c-48.8,27.1-209,93.9-372.9,155.1
		c-23.8,8.8-47.3,17.6-51.7,19.4c-4.4,1.8-8.4,2.9-8.4,2.6c0-0.4,6.6-13.2,15-29c45.8-85.8,92-190.3,115.5-262.9
		C2486.2,2021.6,2488,2015.3,2488.4,2015L2488.4,2015z M2430.1,2034c0.4,0.4-2.6,8.1-6.2,16.9c-31.9,77.4-73.7,161.7-127.3,256.3
		c-13.6,24.2-24.9,43.6-25.3,43.6c-0.4,0-11.4-6.6-24.6-14.7c-77.7-47.7-146.7-106.3-191.8-163.2l-6.6-8.1l33.4-9.2
		c119.6-32.6,221.1-67.8,322-111.1C2418,2038.8,2429.7,2034,2430.1,2034z M2792.4,2160.5C2792.4,2160.5,2792.8,2160.9,2792.4,2160.5
		c0.4,8.4-18.3,84-33.7,138.6c-12.8,45.8-23.8,81.8-44,145.2c-8.8,27.9-16.5,51-16.9,51c-0.4,0-2.6-0.4-4.8-1.1
		c-108.9-19.8-206.5-47.3-298.1-84c-25.7-10.3-62.3-26.8-64.5-28.6c-0.7-0.7,21.3-11,49.1-23.1c166.9-73,339.9-155.9,399.3-191.4
		C2785.8,2162.7,2791.3,2160.5,2792.4,2160.5L2792.4,2160.5z M1955.9,2189.1c0.7,0.7-45.8,67.8-111.1,159.2
		c-22.7,31.9-49.1,69.3-59,83.2c-9.9,13.9-24.9,35.9-33.4,49.1l-15.4,23.8l-16.5-13.9c-19.4-16.1-53.2-50.6-68.2-69.7
		c-31.5-39.2-52.8-80.7-61.2-118.4c-4-17.6-4-26.4-0.4-27.5c5.5-1.5,103.4-24.6,195.1-45.8c51-11.7,110-25.7,131.3-30.8
		C1938.3,2193.2,1955.6,2189.1,1955.9,2189.1L1955.9,2189.1z M2002.9,2207.1l11.7,13.2c52.8,59,106.7,102.7,172,140.8
		c11.7,6.6,20.5,12.5,19.8,12.8c-2.6,1.8-226.6,81.4-330.4,117.3c-58.3,20.5-106.3,37-106.7,37c-0.4,0-3.7-2.2-7.3-4.8l-6.6-4.8
		l10.6-15.4c34.5-49.9,77.7-104.5,172-218.2L2002.9,2207.1L2002.9,2207.1z M2295.5,2416.5c0.4-0.4,16.5,5.5,36.3,12.8
		c47.7,18,85.4,29.3,136.1,42.2c62.3,15.8,152.6,31.2,205.7,35.6c8.1,0.7,12.5,1.5,11,2.6c-2.6,1.5-56.5,19.4-96.1,31.9
		c-63.1,19.8-255.6,76.6-412.6,121.7c-29,8.4-53.9,15.4-55.4,15.8c-3.7,0.7-15.8-2.6-15.8-4c0-0.7,8.8-12.1,19.4-24.6
		c52.8-63.1,105.2-133.5,148.9-200.2C2285.3,2431.9,2295.5,2416.9,2295.5,2416.5L2295.5,2416.5z M2231,2418.3
		c0.4,0.4-25.7,42.2-71.1,114c-19.4,30.4-41.1,64.9-48.8,77c-7.3,11.7-18.3,30.1-24.6,40.3l-10.6,18.7l-5.5-1.5
		c-13.2-3.7-106-36.3-130.6-46.2c-30.4-12.1-62-26.8-85.4-39.2c-29.3-15.8-66-39.2-63.1-40c0.7-0.4,51-13.9,111.5-30.4
		c160.6-43.6,249.7-68.9,308-87.3C2221.4,2420.5,2230.6,2418,2231,2418.3L2231,2418.3z M2687.5,2525.4h0.4
		c1.5,3.7-57.9,168.7-79.6,220.8c-4.8,11.7-6.6,14.7-9.2,14.3c-6.2-0.4-92.4-12.5-144.9-20.2c-91.3-13.9-244.6-40.7-283.1-49.5
		l-8.8-1.8l54.6-12.5c117.4-26.4,173.8-40.7,231-58.3c72.2-22,143.8-49.5,216-83.2C2675.4,2529.8,2685,2525.8,2687.5,2525.4
		L2687.5,2525.4z"/>
	
		<linearGradient id="SVGID_2_" gradientUnits="userSpaceOnUse" x1="-12525.5898" y1="-24548.0781" x2="-11849.1396" y2="-24548.0781" gradientTransform="matrix(0.1187 0 0 0.1187 3374.072 3501.1729)">
		<stop  offset="0" style="stop-color:#939FAB"/>
		<stop  offset="1" style="stop-color:#DCDEE1"/>
	</linearGradient>
	<path class="st1" d="M2415.1,357c-8.1-1.1-138.3,45.8-222.2,79.9c-113.3,46.2-201.3,90.2-255.6,128.3
		c-20.2,14.3-45.5,39.6-49.5,49.5c-1.5,3.7-2.2,8.1-2.2,12.5l49.1,46.6l117,37.4l278.3,49.9l318.3,54.6l3.3-27.5
		c-1.1,0-1.8-0.4-2.9-0.4l-41.8-6.6l-8.4-15c-43.3-76.3-90.9-170.9-118.8-234.7c-21.6-49.5-42.2-106.7-53.5-147.8
		C2419.8,358.9,2419.1,357.4,2415.1,357L2415.1,357L2415.1,357L2415.1,357z M2409.2,375.7h0.4c0.4,0.4,1.8,10.6,3.3,22.7
		c6.2,51.3,17.6,100.8,35.6,154.4c13.6,40.3,13.6,38.1-2.2,33.4c-37.4-10.3-205-39.2-326.4-56.1c-19.4-2.6-35.9-5.1-35.9-5.5
		c-1.5-1.5,87.6-48,126.9-66.4C2261.1,435.2,2398.9,377.6,2409.2,375.7L2409.2,375.7z M2055.7,540l14.3,4.8
		c77.7,26.4,273.2,63.8,381,72.6c12.1,1.1,22.4,2.2,22.7,2.2c0.4,0.4-9.9,5.9-23.1,12.1c-52.1,26-109.3,57.9-148.9,82.5
		c-11.7,7.3-22.4,13.2-23.8,13.2c-1.5,0-9.2-1.5-17.2-2.6l-14.7-2.2l-36.7-35.9c-64.5-62.7-115.2-111.1-134.6-129.4L2055.7,540z
		 M2041,551.4l51.7,64.5c28.2,35.6,56.8,70.4,63.1,78.1c6.2,7.7,11.4,13.9,11,14.3c-1.5,1.1-74.8-13.2-113.7-22
		c-40-9.2-56.5-13.6-81-21.3l-20.2-6.6v-5.1c0.4-24.6,31.5-61.2,84.3-98.6L2041,551.4L2041,551.4z M2480.3,639.4
		c1.5,0,3.3,3.3,7.7,13.2c12.5,27.5,51.3,101.6,60.9,115.9c2.9,4.8,8.1,5.1-43.6-3.3C2381,745,2341,738.4,2341,737.7
		c0-0.4,3.7-2.9,8.4-5.5c38.5-21.3,77.4-48.4,111.8-77.4c8.4-7,16.1-13.6,17.6-14.7C2479.2,639.4,2480,639,2480.3,639.4
		L2480.3,639.4z"/>
	
		<radialGradient id="SVGID_3_" cx="-14073.9932" cy="-5899.0728" r="898.12" gradientTransform="matrix(-0.114 -1.712736e-02 3.463960e-02 -0.228 1198.7101 -353.1947)" gradientUnits="userSpaceOnUse">
		<stop  offset="0" style="stop-color:#EE352C"/>
		<stop  offset="1" style="stop-color:#A91D22"/>
	</radialGradient>
	<path class="st2" d="M1890.3,609.7c0,0-8.1,12.8-0.4,31.9c4.8,11.7,18.7,26,34.5,40.7c0,0,163.2,159.2,183,181.9
		c90.2,104.1,129.4,206.8,133.1,348.4c2.2,90.9-15,170.9-57.9,263.7c-76.3,166.5-237.3,350.2-485.5,554.1l36.3-12.1
		c23.5-17.6,55.4-36.3,130.2-77.4c172.7-94.6,367.1-181.5,605.4-271c343.2-129.1,907.6-280.2,1228.9-329.3l33.4-5.1l-5.1-8.1
		c-29.3-45.5-49.5-73.7-73.7-103.8c-70.4-87.3-155.8-158.1-260.4-216.7c-143.8-80.3-329.7-143-565.1-189.6
		c-44.4-8.8-141.9-25.7-221.1-37.8c-168-26-276.5-44-396.1-64.5c-42.9-7.3-107.1-18.3-149.6-27.5c-22-4.8-64.2-14.7-97.2-26
		C1936.5,651.1,1898.4,640.9,1890.3,609.7L1890.3,609.7z M1984.9,701.4c0.4-0.4,6.2,1.8,13.9,4.4c13.9,4.8,31.9,10.3,53.2,16.1
		c16.1,4.4,32.2,8.7,48.4,12.8c22,5.5,40.3,10.6,40.7,10.6c2.6,2.6,39.6,121,52.1,166.5c4.8,17.2,8.4,31.9,8.1,31.9
		c-0.4,0.4-4.4-5.9-9.2-14.3c-42.9-75.5-110.7-152.2-189.2-213.8C1992.6,708.4,1984.9,701.8,1984.9,701.4L1984.9,701.4z
		 M2165.3,751.3c1.8,0,9.9,1.1,19.8,3.3c62.3,13.9,174.2,35.2,245.7,47.3c12.1,1.8,21.6,4,21.6,4.8c0,0.7-4.4,3.3-9.9,6.2
		c-12.1,6.2-60.9,35.2-77,46.2c-40.7,27.1-77.4,56.5-103.8,82.9c-10.6,10.6-19.8,19.4-19.8,19.4s-2.2-6.2-4-13.9
		c-13.2-51-40.7-126.5-65.6-179.7c-4-8.4-7.3-16.1-7.3-16.9C2165,751.6,2165,751.3,2165.3,751.3L2165.3,751.3z M2482.9,811.8
		c2.2,0.7,5.9,13.2,13.2,40.7c13.6,53.2,19.8,112.6,17.6,168c-0.7,15.4-1.5,29.7-2.2,31.5l-1.1,3.7l-19.1-6.2
		c-39.2-12.5-103-31.2-157.7-46.6c-31.2-8.4-56.5-16.1-56.5-16.9c0-2.2,45.5-47.7,64.9-64.9C2379.1,888.4,2479.6,810.7,2482.9,811.8
		L2482.9,811.8z M2508.2,815.4c1.1-1.1,151.8,24.9,220.4,38.1c51,9.9,125.1,25.3,129.4,27.1c2.2,0.7-5.5,5.1-30.1,16.1
		c-96.8,43.6-168.7,82.9-240.2,130.6c-18.7,12.5-34.5,22.7-34.8,22.7c-0.4,0-0.7-10.6-0.7-23.5c0-69.7-13.9-140.1-39.6-199.5
		C2510,821.3,2507.8,815.8,2508.2,815.4z M2898,892.4c1.1,1.1-3.7,30.8-8.1,48.4c-13.2,54.6-48.8,135.7-92.4,212
		c-7.7,13.6-14.7,24.6-15.4,24.9c-0.7,0.4-10.6-5.1-22-11.7c-42.5-24.9-90.9-48.4-143.8-70.4c-14.7-6.2-27.5-11.4-27.9-12.1
		c-2.6-2.2,115.5-80.3,177.9-117.7C2815.9,935.7,2896.6,891,2898,892.4L2898,892.4z M2925.9,896.8c3.3,0,70,18.3,104.9,28.6
		c86.2,25.7,185.2,62,249.7,91.3l26.8,12.1l-18.7,4.4c-157.7,36.3-292.6,78.1-422.8,130.9c-10.6,4.4-20.2,8.1-20.9,8.1
		c-0.7,0,2.9-8.4,7.7-18.7c39.2-83.2,64.5-170.2,70.8-244.2C2923.7,902.3,2924.8,896.8,2925.9,896.8L2925.9,896.8z M2261.4,1049.4
		c1.1-1.1,52.1,11,79.6,18.7c41.8,11.7,130.5,41.4,130.5,43.6c0,0.4-9.9,8.8-21.6,19.1c-48,40-94.2,82.1-149.6,135.7
		c-16.5,15.8-30.4,28.6-31.2,28.6c-0.7,0-1.1-2.2-0.7-5.1c8.4-61.6,6.6-140.8-5.1-221.1C2262.1,1058.6,2261.1,1049.8,2261.4,1049.4z
		 M3332.6,1050.5c0.7,0.7-23.5,38.9-38.9,60.5c-22,31.5-54.3,73.3-127.3,165c-38.5,48.4-81.8,103-96.1,121.4
		c-14.7,18.3-26.8,33.7-27.1,33.7c-0.4,0-5.1-6.6-10.3-14.7c-41.1-61.6-90.2-115.5-148.5-163.9c-11-9.2-23.1-19.1-27.1-22
		c-4-2.9-7.3-5.9-7.3-6.2c0-1.1,62.3-27.9,109.6-46.9c82.9-33.7,195.8-74.1,280.5-100.1C3284.5,1063.3,3331.9,1049.8,3332.6,1050.5
		L3332.6,1050.5z M3360.8,1057.8c1.5-0.4,10.3,4,20.9,10.3c89.1,51,176.4,116.6,245.3,184.1c19.4,19.1,67.5,68.9,66.7,69.3
		c0,0-16.9,1.5-36.7,2.9c-154.4,11.7-352,44.4-542,90.2c-12.8,2.9-24.2,5.5-24.9,5.5c-0.7,0,13.6-14.3,31.5-31.5
		c111.5-107.4,162.5-175.3,222.6-296.3C3352.8,1074.3,3360.1,1058.9,3360.8,1057.8C3360.5,1057.8,3360.5,1057.8,3360.8,1057.8
		L3360.8,1057.8z M2544.2,1141.4c5.1,1.1,52.8,23.5,88.7,41.4c33,16.5,82.5,42.9,85.1,45.1c0.4,0.4-17.2,9.5-38.9,20.2
		c-68.9,34.5-128,67.1-189.6,104.5c-17.6,10.6-32.3,19.4-32.6,19.4c-1.5,0-1.1-1.5,8.8-19.4c33-60.1,59.4-132,74.4-202.1
		C2541.6,1145.1,2543.1,1141.4,2544.2,1141.4L2544.2,1141.4z M2496.5,1150.2c1.1,1.1-11.4,46.2-19.1,70.8
		c-15,46.6-40.3,104.9-64.9,148.9c-5.9,10.3-14.7,25.3-19.4,33.7l-9.2,14.7l-20.5-19.8c-23.8-23.1-43.3-37.4-68.2-50.2
		c-9.9-5.1-17.6-9.5-17.6-10.3c0-2.9,62.7-59.8,110.7-100.8C2422.8,1207.5,2495.4,1149.1,2496.5,1150.2L2496.5,1150.2z M2788,1270.2
		l18,11.7c41.1,26.8,89.5,62.3,126.5,93.5c20.9,17.2,61.2,53.5,69.3,62.3l4.4,4.8l-29.7,8.4c-168,46.6-297.8,88-449.2,143.8
		c-16.9,6.2-31.2,11.4-32.3,11.4c-2.2,0-4,1.8,33.7-33c96.8-89.1,182.6-187.4,246.4-283.1L2788,1270.2L2788,1270.2z M2711.4,1289.2
		c0.7,0.7-49.5,71.5-79.6,111.5c-35.9,47.7-99.7,127.6-143.8,179.7c-18.3,21.6-34.1,39.6-34.8,40c-1.1,0.4-1.5-5.1-1.5-13.6
		c0-44.4-11.4-91.7-31.2-132c-8.4-16.9-9.9-20.9-8.1-22.7c7-6.2,113.7-67.1,181.2-103.4C2639.1,1324.4,2710.3,1288.5,2711.4,1289.2
		L2711.4,1289.2z M2247.8,1402.9c1.1,0,9.5,4.4,19.1,9.5c23.5,12.8,44.4,27.1,63.1,42.5c0.7,0.7-8.8,8.4-21.3,17.6
		c-34.8,24.9-87.6,64.9-118.4,89.5c-32.3,25.7-33.4,26.4-29.7,20.9c24.2-37,36.3-57.9,49.1-84.7c11.4-23.8,22.7-52.1,30.8-76.6
		C2243.4,1411,2247.1,1402.9,2247.8,1402.9L2247.8,1402.9z M2371.4,1499.7c1.8-0.4,4,2.9,13.9,17.6c20.9,31.2,37,73,41.1,106.7
		l0.7,7.3l-50.2,19.4c-89.9,34.8-172.7,69.3-228.8,95c-15.8,7.3-43.3,20.5-61.2,29.3c-18,9.2-32.6,16.1-32.6,15.8
		s11.4-8.8,25.3-19.1c109.7-79.6,204.6-166.9,275.8-254.1c7.7-9.2,14.7-17.6,15.4-18L2371.4,1499.7L2371.4,1499.7z M2314.6,1513.7
		c1.5,1.5-40.3,48.8-68.9,77.7c-70.8,72.2-140.8,128.7-227.7,183.7c-11,7-20.9,13.2-22,13.9c-2.6,1.5,0.7-2.2,38.9-43.6
		c24.2-26,42.5-48,63.4-75.2c13.9-18,16.5-20.5,36.7-34.8C2188.8,1596.5,2313.1,1512.2,2314.6,1513.7z"/>
</g>
<path class="st3" d="M612.9,1642.5c-3.8,0-7.7,0.4-11.5,0.4c-77.7,4.1-130.2,38.4-160.8,105.2c-26.2,60.4-23.4,139.4,0.3,200.2
	c27.5,59.4,71.9,90.8,146.1,102.6c15.7,2.6,26.2,11.2,56.6,46.7l37.4,43.8h67.8l-45.1-45.5c-24.9-24.9-45.1-46.6-45.1-48.6
	c0-1.9,9.5-6.1,21.1-9.6c38.1-11.5,69.7-40.9,91.8-86c17.9-36.2,20.5-47.4,23-92.4C801.2,1725.3,730.6,1641.5,612.9,1642.5
	L612.9,1642.5L612.9,1642.5z M672.4,1993c-33,16-80.9,19.2-112.2,7.7c-32.3-11.9-63.7-45.5-77.7-83.5
	c-15.7-41.6-13.4-118.3,4.5-152.8c28.8-55,66.9-80.3,122.5-80.3c82.5,0,129.4,50.5,135.6,145.5
	C749.8,1908.9,723.2,1968.4,672.4,1993L672.4,1993z M1844.3,1757c-28.5,0-50.2,11.5-64.9,34.2l-11.5,18v-46.7h-49.2v280.2h49.2
	v-89.6c0-81.9,1-91.5,12.5-113.9c15.8-30.7,42.9-46.1,69.1-38.7l17.6,5.1v-48.6L1844.3,1757L1844.3,1757L1844.3,1757z M1555,1754.5
	c-9.6,0-19.9,1.3-30.1,3.5c-65.9,17.2-103,80.3-100.8,145.2c0,54.3,10.6,81.5,36.8,110c53.7,44.1,102.3,47.6,167.9,23.9
	c11.2-4.8,23.4-10.3,23.4-10.3v-44.1l-23.4,12.1c-53.1,23.1-93,23.1-125.1-4.1c-20.4-20.8-29.4-45.7-33.6-74.2h198.6v-37.8
	C1668.8,1801.8,1622.4,1753.2,1555,1754.5L1555,1754.5L1555,1754.5z M1474.7,1877.3c0,0,7.3-48,34.5-66.9
	c13.1-9.2,28.1-13.7,42.8-13.7c14.7,0,29.4,4.8,41.6,14c24.9,19.2,29.1,66.2,29.1,66.2h-148.1L1474.7,1877.3L1474.7,1877.3
	L1474.7,1877.3z M287.4,1826.8c-53.4-32.3-77.1-55.7-74.2-83.2c8.3-76.1,102.3-65.6,154.4-36.8l0.4-51.2c0,0-28.8-12.5-70-13.1
	c-63.3-1-104.2,19.8-123.4,62c-28.2,62.3-3.2,109.4,86.9,161.8c50.6,29.4,73,55,73,82.9c0,57.6-69.4,77.7-141,41.5
	c-14.7-7.3-27.2-13.5-27.9-13.5c-2.6,16.3-1.2,55.4-1.2,55.4s22,9.2,55,15.6c81.8,16.3,156.3-22.1,163.4-84.4
	C388.7,1905.4,367.6,1874.7,287.4,1826.8L287.4,1826.8L287.4,1826.8z M2280.2,1753.8c-9.6,0-19.8,1.3-30.4,3.6
	c-65.8,17.2-102.9,80.3-100.4,145.2c0,54.3,10.5,81.2,36.7,109.6c53.7,44.1,102.3,47.7,168.2,24c11.1-4.8,23.3-10.2,23.3-10.2v-44.2
	l-23.3,12.2c-53.2,23-93.1,23-125-4.2c-20.5-20.8-29.4-45.4-33.6-74.2h198.2v-37.8c0-76.6-46.4-125.3-113.8-124L2280.2,1753.8
	L2280.2,1753.8z M2199.9,1876.6c0,0,7.4-48,34.6-67.2c13.1-9.3,28.1-13.8,42.8-13.8c14.7,0,29.4,4.8,41.6,14.1
	c24.9,19.2,29.1,66.5,29.1,66.5h-148L2199.9,1876.6L2199.9,1876.6z M1297.2,1827.4c-53.4-32.3-77-55.7-74.1-83.2
	c8.3-76.1,102.3-65.6,154.4-36.8l0.4-51.2c0,0-28.8-12.5-70-13.1c-63.3-1-104.2,19.8-123.4,62c-28.1,62.3-2.9,109.4,87,161.8
	c50.5,29.4,72.9,54.6,72.9,82.5c0,57.6-69.4,78-141,41.5c-14.7-7.3-27.1-13.4-27.9-13.4c-2.6,16.3-1.2,55.4-1.2,55.4
	s21.7,8.9,54.6,15.6c81.9,16.4,156.4-22,163.4-84.3C1398.2,1906.1,1377.1,1875.4,1297.2,1827.4L1297.2,1827.4L1297.2,1827.4z
	 M2569.6,1756.4c-28.5,0-50.5,11.5-64.9,34.3l-11.5,17.9v-46.6h-49.2V2042h49.2v-89.5c0-81.9,1-91.5,12.5-113.8
	c15.8-30.7,42.9-46.1,69.1-38.7l17.6,5.1v-48.7L2569.6,1756.4L2569.6,1756.4z M905.5,1825.8v-178.4h-49.7v395.2h208.8v-46.7H905.5
	L905.5,1825.8L905.5,1825.8z M2053.8,1881.4l-40.9,106.5l-39.4-107.1l-40-118.7h-50.8c32.9,93.4,68.8,188.3,104.9,280.4
	c15.7,0.4,31.4,0,47,0l55.3-138.8l56.3-141.6h-48.6C2097.6,1762.2,2076.1,1818.4,2053.8,1881.4L2053.8,1881.4L2053.8,1881.4z
	 M1019.9,1539.6c8,0,14.7-2.6,20.2-8.1c5.4-5.4,8.3-11.8,8.3-19.8c0-8-2.9-14.7-8.3-19.8c-5.5-5.1-11.8-7.7-19.8-7.7
	c-8.1,0-14.7,2.6-20.2,8c-5.5,5.4-8,12.1-8,19.8c0,8.1,2.6,14.7,8,19.8C1005.3,1537,1011.9,1539.6,1019.9,1539.6L1019.9,1539.6
	L1019.9,1539.6z M1002.3,1494.2c4.8-4.8,10.6-7,18-7c7,0,12.8,2.2,17.6,7c4.8,4.8,7.3,10.6,7.3,17.6c0,7-2.6,13.1-7.3,17.9
	c-4.8,4.8-10.6,7-17.6,7c-7.1,0-12.8-2.2-17.6-7c-4.8-4.8-7.3-10.9-7.3-17.9C995.4,1504.7,997.6,1498.9,1002.3,1494.2z
	 M1014.2,1514.3h3.2c2.3,0,4.5,2.2,6.4,6.4l3.9,8.7h6l-4.8-9.6c-1.9-3.8-3.8-6.1-6.1-6.7c2.8-0.7,5.1-1.6,6.7-3.5
	c1.6-1.6,2.2-3.9,2.2-6.4c0-2.9-0.9-5.1-2.9-6.7c-2.2-1.8-5.7-2.8-10.3-2.8h-10.2v35.8h5.1v-15L1014.2,1514.3L1014.2,1514.3z
	 M1014.2,1497.7h4.5c3.2,0,5.5,0.7,6.7,1.6c1.2,1,1.5,2.2,1.5,4.5c0,4.1-2.6,6.1-7.3,6.1h-5.5L1014.2,1497.7L1014.2,1497.7
	L1014.2,1497.7z M194,1511.1c0-12.5-0.4-21.7-0.7-27.2h0.3c1.3,6.4,2.9,11.3,4.1,14.4l47.7,106.5h8l47.7-107.4
	c1.3-2.9,2.6-7.3,4.1-13.5h0.4c-1,10.6-1.3,19.9-1.3,27.2v94h16.3v-139.7h-20.5l-43.8,97.2c-1.6,3.8-3.9,9.6-6.7,17.2H249
	c-1-3.8-3.2-9.5-6.4-16.6l-42.8-98.2H178v139.7h15.7v-93.7L194,1511.1L194,1511.1z M356.4,1511.4h14.1v87h-14.1V1511.4z
	 M363.4,1479.5c2.9,0,5.4-1,7.3-2.9c1.9-1.9,3.2-4.4,3.2-7.3c0-2.9-1-5.4-3.2-7.3c-2-1.9-4.5-2.9-7.4-2.9c-2.9,0-5.4,1-7.3,2.9
	c-1.9,1.9-3.2,4.5-3.2,7.3c0,3.2,1,5.4,3.2,7.3C358.3,1478.5,360.6,1479.5,363.4,1479.5L363.4,1479.5L363.4,1479.5z M470.9,1600.3
	V1585c-7.7,5.8-16,8.6-24.6,8.6c-10.3,0-18.6-3.5-24.7-10.3c-6-6.7-9.3-16-9.3-27.5c0-12.1,3.2-21.7,9.9-29
	c6.4-7,14.7-10.6,24.9-10.6c8.3,0,16.3,2.6,23.7,7.7v-16.3c-6.7-3.5-14.4-5.1-23-5.1c-16,0-28.5,5.1-37.8,15
	c-9.2,9.9-14,23.4-14,39.6c0,14.4,4.1,26.6,12.8,35.9c9,9.5,20.5,14.4,34.5,14.4C454.3,1607.1,463.2,1604.8,470.9,1600.3
	L470.9,1600.3z M511.2,1553.9c0-11.5,2.6-20.8,7.3-27.1c4.5-5.8,9.9-8.7,16.3-8.7c5.4,0,9.3,1,12.1,3.2v-16.7
	c-2.2-1-5.4-1.3-9.5-1.3c-5.8,0-10.9,1.9-15.4,5.5c-4.8,3.8-8.6,9.5-10.8,16.9h-0.4v-20.4h-16v99.7h16v-51.2H511.2z M603,1607.1
	c15,0,27.1-4.8,36.1-14.4c8.9-9.5,13.4-22.4,13.4-38.4c0-16.3-4.1-28.8-12.5-38.1c-8.3-9.3-19.8-13.8-34.8-13.8s-27.1,4.5-36.1,13.1
	c-9.6,9.5-14.7,23-14.7,40.3c0,15,4.1,27.5,12.8,36.8C576.1,1602.3,588,1607.1,603,1607.1L603,1607.1L603,1607.1z M580.2,1525.8
	c6.1-6.4,14.1-9.6,24-9.6c10.3,0,18,3.2,23.7,9.6c5.8,6.7,8.6,16.3,8.6,29.1c0,12.2-2.6,21.7-8,28.2c-5.4,6.7-13.4,10.3-24,10.3
	c-10.3,0-18.2-3.6-24.3-10.3c-6-6.7-8.9-16-8.9-28.2C570.7,1542.8,573.9,1532.9,580.2,1525.8L580.2,1525.8z M722.5,1598.4
	c6.1-5.4,9.3-12.1,9.3-20.5c0-7.3-2.6-13.4-7.3-18.2c-3.9-3.8-9.9-7.3-18.6-10.9c-7.7-3.2-12.5-6.1-15-8.3
	c-2.6-2.6-4.1-5.8-4.1-10.3c0-4.1,1.6-7.3,4.8-9.9c3.2-2.6,7.3-3.8,12.8-3.8c8.6,0,16,2.3,22.7,7.1v-16c-6.5-3.2-13.5-4.8-21.5-4.8
	c-10.3,0-18.9,2.8-25.3,8.3c-6.7,5.4-9.9,12.5-9.9,20.8c0,7.3,2.2,13.4,6.4,17.9c3.5,3.8,9.5,7.7,17.9,11.2c8,3.5,13.4,6.7,16.3,9.3
	c2.9,2.6,4.1,5.8,4.1,9.5c0,9.3-6.4,14.1-18.8,14.1c-9.6,0-18.2-3.2-25.9-9.5v17.2c7,4.2,15.3,6.1,24.6,6.1
	C706.8,1607.1,716.1,1604.2,722.5,1598.4L722.5,1598.4L722.5,1598.4z M798.7,1502.5c-15,0-27.1,4.5-36.1,13.1
	c-9.5,9.5-14.7,23-14.7,40.3c0,15,4.1,27.5,12.8,36.8c9,9.6,20.8,14.4,35.8,14.4c15.4,0,27.1-4.8,36.1-14.5
	c9-9.5,13.5-22.4,13.5-38.4c0-16.3-4.2-28.8-12.5-38.1C824.9,1506.9,813.4,1502.4,798.7,1502.5L798.7,1502.5L798.7,1502.5z
	 M829.7,1554.9c0,12.2-2.6,21.7-8,28.2c-5.4,6.7-13.4,10.3-24,10.3c-10.3,0-18.2-3.6-24.3-10.3c-6-6.7-8.9-16-8.9-28.2
	c0-12.8,3.2-22.7,9.6-29.4c6-6.4,14-9.6,24-9.6c9.9,0,17.9,3.2,23.6,9.6C826.8,1532.6,829.7,1542.1,829.7,1554.9L829.7,1554.9
	L829.7,1554.9z M872.9,1604.8h16v-86.4h23.4v-13.4h-23.4v-15.4c0-14,5.4-21,16.6-21c3.8,0,7.6,1,10.5,2.6v-14.4
	c-2.9-1.3-6.7-1.6-11.5-1.6c-8.6,0-15.7,2.6-21.4,8c-6.7,6.4-10.3,14.7-10.3,25.9v16.4h-16.9v13.4h16.9v86L872.9,1604.8z
	 M938.4,1577.6c0,19.5,8.6,29.4,26.2,29.4c6.4,0,11.2-1,15-3.3v-13.7c-2.9,2.2-6.4,3.2-10.3,3.2c-5.4,0-9.2-1.3-11.5-4.2
	c-2.3-2.9-3.6-7.7-3.6-14.4v-56.3h25.3V1505h-25.3v-29.4c-5.5,1.9-10.9,3.5-16,5.1v24.3h-17.2v13.4h17.2L938.4,1577.6L938.4,1577.6z
	 M2654.6,1761.5c-5.4-5.1-11.8-7.7-19.8-7.7c-8.1,0-14.7,2.6-20.2,8.1c-5.4,5.4-8,12.1-8,19.8c0,8,2.6,14.7,8,19.8
	c5.4,5.1,12.1,7.7,20.2,7.7c8,0,14.7-2.6,20.2-8c5.4-5.5,8.3-11.8,8.3-19.8C2662.9,1773.3,2660,1766.6,2654.6,1761.5L2654.6,1761.5z
	 M2652.1,1799.3c-4.8,4.8-10.6,7-17.6,7c-7,0-12.8-2.2-17.6-7c-4.8-4.8-7.3-10.9-7.3-18c0-7,2.2-12.8,7-17.6c4.8-4.8,10.5-7,17.9-7
	c7,0,12.8,2.2,17.6,7c4.8,4.8,7.3,10.6,7.3,17.6C2659.4,1788.7,2657.2,1794.4,2652.1,1799.3z M2637.7,1782.9
	c2.9-0.7,5.1-1.9,6.7-3.5c1.6-1.7,2.2-3.9,2.2-6.5c0-2.9-0.9-5.1-2.9-6.7c-2.2-1.8-5.8-2.8-10.3-2.8h-10.2v35.8h5.1v-15h3.2
	c2.2,0,4.4,2.2,6.4,6.4l3.8,8.6h6.1l-4.8-9.6C2641.5,1785.4,2639.6,1783.5,2637.7,1782.9L2637.7,1782.9L2637.7,1782.9z
	 M2634.2,1779.7h-5.5v-12.1h4.5c3.2,0,5.4,0.6,6.7,1.6c1.3,1,1.6,2.2,1.6,4.5C2641.5,1777.8,2638.9,1779.7,2634.2,1779.7
	L2634.2,1779.7L2634.2,1779.7z M1742,1500.9h4.5v-35.8h11.8v-4.5h-28.2v4.5h11.8L1742,1500.9L1742,1500.9z M1769.1,1474
	c0-3.5,0-6.3-0.3-8c0.3,1.9,1,3.2,1.2,4.1l13.8,30.7h2.2l13.8-31c0.4-1,0.7-2.2,1.3-3.8c-0.3,3.2-0.3,5.8-0.3,7.7v27.1h4.8v-40.3
	h-5.8l-12.5,27.8c-0.3,1-1.3,2.9-1.9,5.1h-0.4c-0.3-1.3-0.9-2.6-1.8-4.8l-12.5-28.2h-6.5v40.3h4.5V1474L1769.1,1474L1769.1,1474z"/>
</svg>
