<?xml version="1.0" encoding="utf-8"?>
<!-- Generator: Adobe Illustrator 22.1.0, SVG Export Plug-In . SVG Version: 6.00 Build 0)  -->
<svg version="1.1" id="Layer_1" xmlns="http://www.w3.org/2000/svg" xmlns:xlink="http://www.w3.org/1999/xlink" x="0px" y="0px"
	 viewBox="0 0 319 304.2" style="enable-background:new 0 0 319 304.2;" xml:space="preserve">
<style type="text/css">
	.st0{fill:url(#SVGID_1_);}
	.st1{fill:url(#SVGID_2_);}
	.st2{fill:#14559A;}
	.st3{fill:url(#SVGID_3_);}
	.st4{fill:#3092C4;}
	.st5{fill:#1969BC;}
	.st6{fill:url(#SVGID_4_);}
	.st7{fill:url(#SVGID_5_);}
	.st8{fill:url(#SVGID_6_);}
	.st9{fill:#2B74B1;}
	.st10{fill:#125A9E;}
	.st11{fill:url(#SVGID_7_);}
	.st12{fill:url(#SVGID_8_);}
	.st13{fill:#0D82CA;}
	.st14{fill:url(#SVGID_9_);}
	.st15{fill:#127BCA;}
	.st16{fill:url(#SVGID_10_);}
	.st17{fill:url(#SVGID_11_);}
	.st18{fill:#05A1E6;}
	.st19{fill:url(#SVGID_12_);}
	.st20{fill:url(#SVGID_13_);}
	.st21{fill:url(#SVGID_14_);}
	.st22{fill:#079AE1;}
	.st23{fill:#1E5CB3;}
	.st24{fill:#1D60B5;}
	.st25{fill:#175FAB;}
	.st26{fill:url(#SVGID_15_);}
	.st27{fill:#7DCBEC;}
	.st28{fill:#5EC5ED;}
	.st29{fill:url(#SVGID_16_);}
	.st30{fill:url(#SVGID_17_);}
	.st31{fill:url(#SVGID_18_);}
</style>
<g>
	<g transform="translate(26.734177, 116.658228)">
		<path d="M225.5,42.5c0-0.4-0.1-0.7-0.4-0.9c-0.3-0.2-0.7-0.3-1.4-0.3h-0.9v2.6h1.1C225,43.8,225.5,43.4,225.5,42.5L225.5,42.5z
			 M227,47.9h-1.3l-0.8-1.8c-0.4-0.9-0.9-1.3-1.3-1.3h-0.7v3.1h-1.1v-7.5h2.1c0.9,0,1.6,0.2,2.1,0.6c0.4,0.4,0.6,0.8,0.6,1.4
			c0,0.5-0.2,0.9-0.5,1.3c-0.3,0.4-0.8,0.6-1.4,0.7v0c0.4,0.1,0.8,0.6,1.2,1.4L227,47.9L227,47.9z M229.3,44.2
			c0-1.5-0.5-2.7-1.5-3.7c-1-1-2.2-1.5-3.7-1.5c-1.5,0-2.7,0.5-3.7,1.5c-1,1-1.5,2.2-1.5,3.7c0,1.5,0.5,2.7,1.5,3.7
			c1,1,2.2,1.5,3.7,1.5c1.4,0,2.7-0.5,3.7-1.5C228.8,46.9,229.3,45.7,229.3,44.2L229.3,44.2z M230,44.1c0,1.7-0.6,3-1.7,4.2
			c-1.1,1.1-2.5,1.7-4.2,1.7c-1.7,0-3.1-0.6-4.2-1.6c-1.1-1.1-1.7-2.5-1.7-4.2c0-1.6,0.6-3,1.7-4.2c1.1-1.1,2.5-1.7,4.2-1.7
			c1.6,0,3,0.5,4.2,1.6C229.4,41.1,230,42.5,230,44.1L230,44.1z"/>
		<path d="M70.1,65h-3.6V44.3c0-1.6,0.1-3.6,0.3-6h-0.1c-0.3,1.4-0.7,2.4-0.9,3L55.2,65h-1.8L42.9,41.4c-0.3-0.7-0.6-1.7-0.9-3.2
			h-0.1c0.1,1.2,0.2,3.2,0.2,6V65h-3.5V34.1h4.8l9.5,21.6c0.7,1.6,1.2,2.9,1.4,3.7h0.2c0.6-1.7,1.1-3,1.5-3.8l9.7-21.5h4.5L70.1,65
			L70.1,65z"/>
		<path d="M81.2,65h-3.5V42.9h3.5V65L81.2,65z M81.8,35c0,0.7-0.2,1.2-0.7,1.6c-0.4,0.4-1,0.7-1.6,0.7c-0.6,0-1.2-0.2-1.6-0.6
			c-0.4-0.4-0.7-1-0.7-1.7c0-0.6,0.2-1.2,0.7-1.6c0.4-0.4,1-0.7,1.6-0.7c0.6,0,1.2,0.2,1.6,0.7C81.6,33.8,81.8,34.4,81.8,35L81.8,35
			z"/>
		<path d="M103.3,64c-1.7,1-3.7,1.6-6,1.6c-3.2,0-5.7-1.1-7.7-3.1c-1.9-2-2.8-4.7-2.8-7.9c0-3.6,1-6.5,3.1-8.8
			c2.1-2.2,4.9-3.3,8.4-3.3c1.9,0,3.6,0.4,5.1,1.1v3.6c-1.6-1.2-3.4-1.7-5.3-1.7c-2.2,0-4.1,0.8-5.5,2.4c-1.5,1.6-2.2,3.7-2.2,6.4
			c0,2.6,0.7,4.6,2,6.1c1.4,1.5,3.2,2.2,5.5,2.2c1.9,0,3.7-0.6,5.4-1.9V64L103.3,64z"/>
		<path d="M120.1,46.5c-0.6-0.5-1.5-0.7-2.7-0.7c-1.4,0-2.6,0.6-3.6,1.9c-1.1,1.4-1.7,3.5-1.7,6V65h-3.5V42.9h3.5v4.6h0.1
			c0.5-1.6,1.3-2.9,2.4-3.7c1-0.8,2.1-1.2,3.4-1.2c0.9,0,1.6,0.1,2.1,0.3L120.1,46.5L120.1,46.5z"/>
		<path d="M139.8,54c0-2.8-0.6-5-1.9-6.5c-1.2-1.4-3-2.1-5.2-2.1c-2.2,0-4,0.7-5.3,2.2c-1.4,1.5-2.1,3.7-2.1,6.5
			c0,2.6,0.7,4.7,2,6.2c1.3,1.5,3.1,2.2,5.4,2.2c2.3,0,4.1-0.8,5.3-2.3C139.2,58.8,139.8,56.7,139.8,54 M143.4,53.9
			c0,3.5-1,6.3-3,8.5c-2,2.1-4.7,3.2-8,3.2c-3.3,0-6-1.1-7.9-3.2c-1.9-2-2.8-4.8-2.8-8.1c0-3.8,1.1-6.8,3.2-8.9c2-2,4.7-2.9,8-2.9
			c3.3,0,5.9,1,7.7,3.1C142.5,47.5,143.4,50.3,143.4,53.9"/>
		<path d="M161,59.1c0,1.8-0.7,3.3-2,4.5c-1.5,1.3-3.5,1.9-6.1,1.9c-2.1,0-3.9-0.4-5.5-1.3v-3.8c1.7,1.4,3.6,2.1,5.7,2.1
			c2.8,0,4.2-1,4.2-3.1c0-0.9-0.3-1.6-0.9-2.1c-0.6-0.6-1.8-1.2-3.6-2c-1.8-0.8-3.2-1.6-3.9-2.5c-0.9-1-1.4-2.4-1.4-4
			c0-1.8,0.7-3.4,2.2-4.6c1.5-1.2,3.3-1.8,5.6-1.8c1.8,0,3.3,0.3,4.7,1V47c-1.5-1.1-3.1-1.6-5-1.6c-1.2,0-2.1,0.3-2.8,0.9
			c-0.7,0.6-1.1,1.3-1.1,2.2c0,1,0.3,1.7,0.9,2.3c0.5,0.5,1.6,1.1,3.3,1.8c1.9,0.8,3.2,1.6,4.1,2.4C160.4,56.1,161,57.5,161,59.1"/>
		<path d="M182.6,54c0-2.8-0.6-5-1.9-6.5c-1.2-1.4-3-2.1-5.2-2.1c-2.2,0-4,0.7-5.3,2.2c-1.4,1.5-2.1,3.7-2.1,6.5
			c0,2.6,0.7,4.7,2,6.2c1.3,1.5,3.1,2.2,5.4,2.2c2.3,0,4.1-0.8,5.3-2.3C182,58.8,182.6,56.7,182.6,54 M186.2,53.9c0,3.5-1,6.3-3,8.5
			c-2,2.1-4.7,3.2-8,3.2c-3.3,0-6-1.1-7.9-3.2c-1.9-2-2.8-4.8-2.8-8.1c0-3.8,1.1-6.8,3.2-8.9c2-2,4.7-2.9,8-2.9c3.3,0,5.9,1,7.7,3.1
			C185.2,47.5,186.2,50.3,186.2,53.9"/>
		<path d="M201.8,35.4c-0.7-0.4-1.5-0.6-2.3-0.6c-2.5,0-3.7,1.6-3.7,4.7v3.4h5.2v3h-5.2V65h-3.5V45.9h-3.8v-3h3.8v-3.6
			c0-2.4,0.7-4.3,2.3-5.7c1.3-1.2,2.9-1.8,4.8-1.8c1.1,0,1.9,0.1,2.6,0.4V35.4L201.8,35.4z"/>
		<path d="M215.7,64.8c-0.8,0.5-1.9,0.7-3.3,0.7c-3.9,0-5.8-2.2-5.8-6.5V45.9h-3.8v-3h3.8v-5.4c1.1-0.4,2.3-0.7,3.5-1.1v6.5h5.6v3
			h-5.6v12.5c0,1.5,0.2,2.5,0.7,3.2c0.5,0.6,1.3,0.9,2.5,0.9c0.9,0,1.6-0.2,2.3-0.7V64.8L215.7,64.8z"/>
	</g>
	<g transform="translate(0.000000, 160.405063)">
		<path d="M51.4,107.4c0,1.7-0.6,3.2-1.9,4.5c-1.2,1.3-2.8,1.9-4.5,1.9c-1.7,0-3.2-0.6-4.4-1.9c-1.2-1.3-1.8-2.8-1.8-4.5
			c0-1.8,0.6-3.3,1.8-4.5c1.2-1.2,2.7-1.9,4.4-1.9c1.8,0,3.3,0.6,4.5,1.9C50.8,104.2,51.4,105.7,51.4,107.4"/>
		<path d="M130.5,112.5H119L77.2,47.9c-1-1.6-1.8-3.2-2.5-5.1h-0.3c0.3,1.7,0.5,5.4,0.5,11.1v58.6h-9.5V31.5h12.3L118.2,95
			c1.6,2.5,2.7,4.3,3.3,5.4h0.2c-0.4-2.3-0.6-6.3-0.6-11.9V31.5h9.4L130.5,112.5L130.5,112.5z"/>
		<path d="M191.4,112.5h-43V31.5h41.1v8.6H158v27h29.3v8.6H158v28.3h33.5V112.5L191.4,112.5z"/>
		<path d="M256.6,40.1h-23.3v72.5h-9.5V40.1h-23.4v-8.6h56.2V40.1L256.6,40.1z"/>
	</g>
	<g transform="translate(0.810127, 0.000000)">
		
			<linearGradient id="SVGID_1_" gradientUnits="userSpaceOnUse" x1="-504.163" y1="535.1689" x2="-504.163" y2="533.6776" gradientTransform="matrix(45.6076 0 0 -81.335 23142.9746 43560.6523)">
			<stop  offset="0" style="stop-color:#0994DC"/>
			<stop  offset="0.35" style="stop-color:#66CEF5"/>
			<stop  offset="0.35" style="stop-color:#66CEF5"/>
			<stop  offset="0.8462" style="stop-color:#127BCA"/>
			<stop  offset="0.8462" style="stop-color:#127BCA"/>
			<stop  offset="1" style="stop-color:#127BCA"/>
		</linearGradient>
		<path class="st0" d="M126.5,51.9c9.2,28,12.6,78,39.4,78l0,0c2,0,4.1-0.2,6.2-0.6l0,0c-24.4-5.7-27.2-55.1-42.1-80.7l0,0
			C128.8,49.6,127.7,50.7,126.5,51.9"/>
		
			<linearGradient id="SVGID_2_" gradientUnits="userSpaceOnUse" x1="-504.7369" y1="535.2487" x2="-504.7369" y2="533.7573" gradientTransform="matrix(47.8692 0 0 -83.4083 24315.2598 44673.7852)">
			<stop  offset="0" style="stop-color:#0E76BC"/>
			<stop  offset="0.36" style="stop-color:#36AEE8"/>
			<stop  offset="0.36" style="stop-color:#36AEE8"/>
			<stop  offset="0.8462" style="stop-color:#00ADEF"/>
			<stop  offset="0.8462" style="stop-color:#00ADEF"/>
			<stop  offset="1" style="stop-color:#00ADEF"/>
		</linearGradient>
		<path class="st1" d="M130,48.6c14.9,25.6,17.8,75.1,42.1,80.7l0,0c1.9-0.4,3.8-0.9,5.8-1.6l0,0C156,117,149.9,69,133.1,45.9l0,0
			C132,46.7,131,47.6,130,48.6"/>
		<path class="st2" d="M151.4,33.3c-2,0-4.1,0.2-6.2,0.6c-5.4,1-10.9,3.4-16.5,6.9c1.5,1.5,3,3.2,4.3,5.1
			c5.6-4.7,11.3-8.2,16.8-10.2c2.1-0.8,4.2-1.4,6.3-1.7C154.7,33.5,153.1,33.3,151.4,33.3"/>
		
			<linearGradient id="SVGID_3_" gradientUnits="userSpaceOnUse" x1="-504.1215" y1="533.9847" x2="-504.1215" y2="535.1561" gradientTransform="matrix(45.4522 0 0 -84.5 23092.377 45248.8164)">
			<stop  offset="0" style="stop-color:#1C63B7"/>
			<stop  offset="0.5" style="stop-color:#33BDF2"/>
			<stop  offset="1" style="stop-color:#33BDF2;stop-opacity:0.4196"/>
		</linearGradient>
		<path class="st3" d="M194.9,117.9c2.2-1.8,4.5-3.7,6.7-5.9C192.3,84.1,189,33.4,162,33.4c-1.9,0-3.9,0.2-5.8,0.5
			C180.8,40,183.9,93.5,194.9,117.9"/>
		<path class="st4" d="M156.2,33.9c-1.5-0.4-3.1-0.6-4.8-0.6l10.6,0C160.1,33.4,158.1,33.5,156.2,33.9"/>
		<path class="st5" d="M194.5,123.8c-1.1-1-2.1-2.1-3-3.3c-4.5,3.2-9.1,5.7-13.6,7.2c1.6,0.8,3.3,1.4,5.1,1.7
			c1.4,0.3,2.8,0.4,4.3,0.4c5,0,9-0.6,12.4-2.2C197.8,126.7,196.1,125.3,194.5,123.8"/>
		
			<linearGradient id="SVGID_4_" gradientUnits="userSpaceOnUse" x1="-504.0019" y1="535.364" x2="-504.0019" y2="533.8726" gradientTransform="matrix(45.0105 0 0 -86.5982 22857.8223 46378.5898)">
			<stop  offset="0" style="stop-color:#166AB8"/>
			<stop  offset="0.4" style="stop-color:#36AEE8"/>
			<stop  offset="0.4" style="stop-color:#36AEE8"/>
			<stop  offset="0.8462" style="stop-color:#0798DD"/>
			<stop  offset="0.8462" style="stop-color:#0798DD"/>
			<stop  offset="1" style="stop-color:#0798DD"/>
		</linearGradient>
		<path class="st6" d="M149.9,35.7c22,11.5,23.9,63.7,41.5,84.8l0,0c1.2-0.8,2.3-1.7,3.5-2.6l0,0c-11-24.4-14.1-77.9-38.7-84l0,0
			C154.1,34.3,152,34.9,149.9,35.7"/>
		
			<linearGradient id="SVGID_5_" gradientUnits="userSpaceOnUse" x1="-506.8159" y1="535.5435" x2="-506.8159" y2="534.052" gradientTransform="matrix(58.3509 0 0 -92.0822 29735.4062 49331.7305)">
			<stop  offset="0" style="stop-color:#124379"/>
			<stop  offset="0.39" style="stop-color:#1487CB"/>
			<stop  offset="0.39" style="stop-color:#1487CB"/>
			<stop  offset="0.7802" style="stop-color:#165197"/>
			<stop  offset="0.7802" style="stop-color:#165197"/>
			<stop  offset="1" style="stop-color:#165197"/>
		</linearGradient>
		<path class="st7" d="M133.1,45.9C149.9,69,156,117,177.9,127.7l0,0c4.5-1.6,9-4,13.6-7.2l0,0c-17.6-21.2-19.5-73.3-41.5-84.8l0,0
			C144.3,37.7,138.7,41.2,133.1,45.9"/>
		
			<linearGradient id="SVGID_6_" gradientUnits="userSpaceOnUse" x1="-488.2793" y1="529.2421" x2="-487.2793" y2="529.2421" gradientTransform="matrix(19.4176 0 0 -30.9219 9588.2949 16425.0117)">
			<stop  offset="0" style="stop-color:#33BDF2;stop-opacity:0.698"/>
			<stop  offset="1" style="stop-color:#1DACD8"/>
		</linearGradient>
		<path class="st8" d="M115.7,51.2c-2.6,6-5.3,13.8-8.6,24.1c6.5-9.2,13-17,19.4-23.4c-0.9-2.7-1.8-5.2-2.9-7.5
			C121,46.4,118.3,48.7,115.7,51.2"/>
		<path class="st9" d="M126,42.7c-0.8,0.6-1.6,1.1-2.3,1.7c1,2.2,2,4.8,2.9,7.5c1.2-1.1,2.3-2.3,3.5-3.3
			C128.7,46.4,127.4,44.4,126,42.7"/>
		<path class="st10" d="M128.8,40.8c-0.9,0.6-1.8,1.2-2.8,1.8c1.4,1.8,2.8,3.8,4,5.9c1-0.9,2.1-1.8,3.1-2.7
			C131.7,44,130.3,42.3,128.8,40.8"/>
		
			<linearGradient id="SVGID_7_" gradientUnits="userSpaceOnUse" x1="-509.3101" y1="534.5909" x2="-509.3101" y2="535.568" gradientTransform="matrix(79.1425 0 0 -98.6787 40560.9727 52877.3438)">
			<stop  offset="0" style="stop-color:#136AB4"/>
			<stop  offset="0.6" style="stop-color:#59CAF5;stop-opacity:0.549"/>
			<stop  offset="1" style="stop-color:#59CAF5;stop-opacity:0.2353"/>
		</linearGradient>
		<path class="st11" d="M278.9,31.2c-12.5,48-38.5,86.6-60.3,96.3h0c-0.4,0.2-0.8,0.3-1.2,0.5c-0.1,0-0.1,0-0.1,0.1
			c-0.1,0-0.2,0.1-0.3,0.1c-0.1,0-0.1,0-0.2,0.1c-0.2,0.1-0.4,0.1-0.5,0.2c-0.1,0-0.2,0.1-0.2,0.1c-0.1,0-0.2,0.1-0.3,0.1
			c-0.1,0-0.2,0.1-0.3,0.1c-0.1,0-0.2,0-0.2,0.1c-0.2,0-0.3,0.1-0.5,0.1c-0.1,0-0.1,0-0.2,0.1c-0.1,0-0.2,0.1-0.3,0.1
			c-0.1,0-0.1,0-0.2,0.1c-0.1,0-0.2,0.1-0.3,0.1c-0.1,0-0.3,0.1-0.4,0.1c1,0.4,2,0.5,3.1,0.5c20.7,0,41.5-37.1,76-98.7L278.9,31.2
			L278.9,31.2z"/>
		
			<linearGradient id="SVGID_8_" gradientUnits="userSpaceOnUse" x1="-509.1181" y1="535.0507" x2="-508.1181" y2="535.0507" gradientTransform="matrix(72.0226 0 0 -99.1613 36706.1758 53139.1953)">
			<stop  offset="0" style="stop-color:#05A1E6;stop-opacity:0.2471"/>
			<stop  offset="1" style="stop-color:#05A1E6"/>
		</linearGradient>
		<path class="st12" d="M102.6,35.3C102.6,35.3,102.6,35.2,102.6,35.3C102.6,35.2,102.7,35.2,102.6,35.3l0.1-0.1
			c0.1,0,0.2-0.1,0.3-0.1c0,0,0,0,0.1,0c0,0,0.1,0,0.1,0c0.1,0,0.2-0.1,0.4-0.1h0c0.3-0.1,0.5-0.2,0.8-0.3c0,0,0.1,0,0.1,0
			c0.1,0,0.2-0.1,0.3-0.1c0.1,0,0.1,0,0.2,0c0.1,0,0.2-0.1,0.3-0.1c0,0,0.1,0,0.1,0c0.4-0.1,0.8-0.2,1.1-0.3c0.1,0,0.1,0,0.2,0
			c0.1,0,0.2,0,0.3-0.1c0,0,0.1,0,0.2,0c0.1,0,0.2,0,0.3-0.1h0.1c0.2,0,0.5-0.1,0.7-0.1h0.1c0.1,0,0.2,0,0.3-0.1c0.1,0,0.1,0,0.2,0
			c0.1,0,0.2,0,0.3,0c0.1,0,0.1,0,0.2,0c0.2,0,0.5,0,0.7-0.1c-0.7-0.1-1.5-0.1-2.2-0.1c-23.3,0-55.4,43.2-69.8,99.2H41
			c4.6-8.2,8.8-16.1,12.6-23.4C63.7,69.5,84.3,42.4,102.6,35.3"/>
		<path class="st13" d="M115.7,51.2c2.6-2.5,5.3-4.8,7.9-6.8c-0.6-1.3-1.2-2.5-1.9-3.7C119.6,43.3,117.7,46.7,115.7,51.2"/>
		<path class="st13" d="M117.6,35.6c1.5,1.3,2.9,3,4.1,5.1c0.4-0.5,0.8-0.9,1.2-1.3c-1.7-1.6-3.6-2.9-5.6-3.9
			C117.4,35.5,117.5,35.5,117.6,35.6C117.6,35.6,117.6,35.6,117.6,35.6"/>
		
			<linearGradient id="SVGID_9_" gradientUnits="userSpaceOnUse" x1="-505.0158" y1="533.4041" x2="-505.0158" y2="534.7414" gradientTransform="matrix(49.0511 0 0 -73.8222 24849.6523 39504.1133)">
			<stop  offset="0" style="stop-color:#318ED5"/>
			<stop  offset="1" style="stop-color:#38A7E4"/>
		</linearGradient>
		<path class="st14" d="M53.5,109.1c21.2-40.9,31.3-66.8,49.1-73.8l0,0C84.3,42.4,63.7,69.5,53.5,109.1"/>
		<path class="st15" d="M122.9,39.4c-0.4,0.4-0.8,0.9-1.2,1.3c0.7,1.1,1.3,2.3,1.9,3.7c0.8-0.6,1.6-1.2,2.3-1.7
			C125,41.5,124,40.4,122.9,39.4"/>
		
			<linearGradient id="SVGID_10_" gradientUnits="userSpaceOnUse" x1="-504.162" y1="532.7021" x2="-504.162" y2="534.3819" gradientTransform="matrix(45.6036 0 0 -57.1283 23075.873 30559.7793)">
			<stop  offset="0" style="stop-color:#05A1E6"/>
			<stop  offset="1" style="stop-color:#05A1E6;stop-opacity:0.549"/>
		</linearGradient>
		<path class="st16" d="M63.2,132.3L63.2,132.3c-0.1,0-0.3,0-0.4,0h-0.1c-0.1,0-0.2,0-0.3,0h-0.1c-0.3,0-0.5,0-0.8,0.1h-0.1
			c21.5-0.6,31.3-11.4,36.2-27c3.7-11.8,6.7-21.8,9.4-30.2c-9,12.7-18,27.8-27.1,44.7C75.6,128.1,68.9,131.5,63.2,132.3"/>
		
			<linearGradient id="SVGID_11_" gradientUnits="userSpaceOnUse" x1="-505.7616" y1="533.9642" x2="-505.7616" y2="534.9642" gradientTransform="matrix(52.5191 0 0 -81.0936 26651.5918 43433.3555)">
			<stop  offset="0" style="stop-color:#1959A6"/>
			<stop  offset="0.5" style="stop-color:#05A1E6"/>
			<stop  offset="0.5" style="stop-color:#05A1E6"/>
			<stop  offset="0.9176" style="stop-color:#7EC5EA"/>
			<stop  offset="1" style="stop-color:#7EC5EA"/>
		</linearGradient>
		<path class="st17" d="M63.2,132.3L63.2,132.3c5.7-0.7,12.4-4.1,16.8-12.3l0,0c9.1-16.9,18.1-32,27.1-44.7l0,0
			c3.3-10.3,6-18.1,8.6-24.1l0,0C97.8,68.3,79.8,96.6,63.2,132.3"/>
		<path class="st18" d="M53.5,109.1c-3.8,7.3-8,15.1-12.6,23.4h8.1C50.1,124.3,51.7,116.5,53.5,109.1"/>
		
			<linearGradient id="SVGID_12_" gradientUnits="userSpaceOnUse" x1="-508.5891" y1="534.6008" x2="-508.8025" y2="535.489" gradientTransform="matrix(72.6768 0 0 -99.0047 37055.1953 53055.0898)">
			<stop  offset="0" style="stop-color:#165096"/>
			<stop  offset="1" style="stop-color:#0D82CA"/>
		</linearGradient>
		<path class="st19" d="M109.5,33.5c-0.1,0-0.1,0-0.2,0l0,0c-0.1,0-0.2,0-0.3,0l0,0c-0.1,0-0.1,0-0.2,0l0,0c-0.1,0-0.2,0-0.3,0.1
			l0,0c0,0-0.1,0-0.1,0l0,0c-0.2,0-0.5,0.1-0.7,0.1l0,0h-0.1l0,0c-0.1,0-0.2,0-0.3,0.1l0,0c-0.1,0-0.1,0-0.2,0l0,0
			c-0.1,0-0.2,0-0.3,0.1l0,0c-0.1,0-0.1,0-0.2,0l0,0c-0.4,0.1-0.8,0.2-1.1,0.3l0,0c0,0-0.1,0-0.1,0l0,0c-0.1,0-0.2,0.1-0.3,0.1l0,0
			c0,0-0.1,0-0.2,0l0,0c-0.1,0-0.2,0.1-0.3,0.1l0,0c0,0-0.1,0-0.1,0l0,0c-0.3,0.1-0.5,0.2-0.8,0.3l0,0l0,0l0,0
			c-0.1,0-0.2,0.1-0.4,0.1l0,0c0,0-0.1,0-0.2,0.1l0,0c-0.1,0-0.2,0.1-0.3,0.1l0,0c0,0-0.1,0-0.1,0.1l0,0
			c-17.8,7-27.8,32.9-49.1,73.8l0,0c-1.9,7.4-3.4,15.2-4.5,23.4l0,0h1.1c3.2,0,4.1,0,7.8,0l0,0h0.2h0.5h0.2H59h0.2h0.1h0.1h0.1H60
			h0.5h0.4h0.1h0.7l0,0c0.3,0,0.5,0,0.8-0.1l0,0h0l0,0c0.1,0,0.2,0,0.3,0l0,0h0.1l0,0c0.1,0,0.3,0,0.4,0l0,0
			c16.6-35.7,34.6-64,52.5-81.1l0,0c2-4.5,3.9-7.9,6-10.5l0,0c-1.2-2.1-2.6-3.9-4.1-5.1l0,0c0,0,0,0,0,0l0,0c-0.1,0-0.2-0.1-0.3-0.1
			l0,0c-0.1,0-0.2-0.1-0.2-0.1l0,0c-0.1,0-0.2-0.1-0.2-0.1l0,0c-0.1,0-0.2-0.1-0.3-0.1l0,0c-0.1,0-0.1-0.1-0.2-0.1l0,0
			c-0.2-0.1-0.3-0.1-0.5-0.2l0,0c-0.1,0-0.1,0-0.2-0.1l0,0c-0.1,0-0.2-0.1-0.4-0.1l0,0c-0.1,0-0.1,0-0.2-0.1l0,0
			c-0.2-0.1-0.3-0.1-0.5-0.2l0,0h0l0,0c-0.2-0.1-0.4-0.1-0.6-0.2l0,0c0,0-0.1,0-0.1,0l0,0c-0.2,0-0.3-0.1-0.5-0.1l0,0
			c0,0-0.1,0-0.1,0l0,0c-0.4-0.1-0.8-0.2-1.2-0.3l0,0c0,0-0.1,0-0.1,0l0,0c-0.2,0-0.3-0.1-0.5-0.1l0,0c0,0-0.1,0-0.1,0l0,0
			c-0.2,0-0.4-0.1-0.6-0.1l0,0h-0.1l0,0c-0.2,0-0.3,0-0.5-0.1l0,0C110,33.5,109.7,33.5,109.5,33.5"/>
		
			<linearGradient id="SVGID_13_" gradientUnits="userSpaceOnUse" x1="-499.4025" y1="532.8519" x2="-499.4025" y2="533.6548" gradientTransform="matrix(32.7663 0 0 -57.2261 16599.9746 30570.4336)">
			<stop  offset="0" style="stop-color:#05A1E6"/>
			<stop  offset="0.8736" style="stop-color:#0495D6"/>
			<stop  offset="1" style="stop-color:#0495D6"/>
		</linearGradient>
		<path class="st20" d="M230.3,57.8c-4.1,13.1-7.4,23.9-10.3,32.8l0,0c11.2-15.4,22.3-34.8,32.8-57.2l0,0
			C240.5,37.2,234,46,230.3,57.8"/>
		
			<linearGradient id="SVGID_14_" gradientUnits="userSpaceOnUse" x1="-506.9654" y1="535.5147" x2="-507.2754" y2="534.4147" gradientTransform="matrix(60.2691 0 0 -96.3231 30812.3672 51609.6133)">
			<stop  offset="0" style="stop-color:#38A7E4;stop-opacity:0.3294"/>
			<stop  offset="0.9615" style="stop-color:#0E88D3"/>
			<stop  offset="0.9615" style="stop-color:#0E88D3"/>
			<stop  offset="1" style="stop-color:#0E88D3"/>
		</linearGradient>
		<path class="st21" d="M220.4,126.7c-0.6,0.3-1.1,0.6-1.7,0.8c21.8-9.7,47.8-48.3,60.3-96.3h-2.5
			C247.8,82.3,238.6,116.5,220.4,126.7"/>
		<path class="st22" d="M206.1,122.4c4.7-5.8,8.6-15.6,13.9-31.9c-6.1,8.4-12.2,15.5-18.3,21.4c0,0,0,0,0,0.1
			C203,116,204.5,119.6,206.1,122.4"/>
		<path class="st5" d="M206.1,122.4c-1.6,2-3.3,3.5-5.2,4.6c-0.4,0.2-0.8,0.5-1.3,0.7c2,1.1,4.2,1.8,6.7,2.1l0,0
			c0.4,0,0.7,0.1,1.1,0.1h0.1c0.2,0,0.3,0,0.5,0h0.1h0.5h0.6h0.2h0.4c0.1,0,0.1,0,0.2,0c0.1,0,0.3,0,0.4,0h0h0.1c0.1,0,0.3,0,0.4,0
			h0c0,0,0.1,0,0.1,0c0.2,0,0.3,0,0.5-0.1h0.1c0.2,0,0.3-0.1,0.5-0.1h0h0c0.3-0.1,0.7-0.1,1-0.2
			C210.5,128.4,208.2,125.9,206.1,122.4"/>
		<path class="st23" d="M165.9,129.9c2,0,4.1-0.2,6.2-0.6c1.9-0.3,3.8-0.9,5.8-1.6c1.6,0.8,3.3,1.4,5.1,1.7c1.4,0.3,2.8,0.4,4.3,0.4
			H165.9L165.9,129.9z"/>
		<path class="st23" d="M187.2,129.9c5,0,9-0.6,12.4-2.2c2,1.1,4.2,1.8,6.7,2.1l0,0c0.4,0,0.7,0.1,1.1,0.1h0.1c0.2,0,0.3,0,0.5,0
			h0.1h0.5L187.2,129.9L187.2,129.9z"/>
		<path class="st24" d="M208.6,129.9h0.6h0.2h0.4c0.1,0,0.1,0,0.2,0c0.1,0,0.3,0,0.4,0h0h0.2c0.1,0,0.3,0,0.4,0h0c0,0,0.1,0,0.1,0
			c0.2,0,0.3,0,0.5-0.1c0,0,0.1,0,0.1,0c0.2,0,0.3,0,0.5-0.1h0h0c0.3-0.1,0.7-0.1,1-0.2l0,0c1,0.4,2,0.5,3.1,0.5L208.6,129.9
			L208.6,129.9z"/>
		<path class="st25" d="M201.7,112L201.7,112c-2.2,2.1-4.5,4.1-6.7,5.9c-1.2,0.9-2.3,1.8-3.5,2.6c1,1.2,2,2.3,3,3.3
			c1.6,1.6,3.3,2.9,5.2,3.9c0.4-0.2,0.9-0.4,1.3-0.7c1.9-1.1,3.6-2.6,5.2-4.6C204.5,119.5,203,116,201.7,112"/>
		
			<linearGradient id="SVGID_15_" gradientUnits="userSpaceOnUse" x1="-508.4276" y1="535.5254" x2="-508.4276" y2="534.5037" gradientTransform="matrix(70.2816 0 0 -98.1105 35974.3438 52571.5469)">
			<stop  offset="0" style="stop-color:#168CD4"/>
			<stop  offset="0.5" style="stop-color:#1C87CC"/>
			<stop  offset="1" style="stop-color:#154B8D"/>
		</linearGradient>
		<path class="st26" d="M268.4,31.2h-10.6h-1.1l0,0h-1l0,0h0c-0.7,0-1.4,0.1-2,0.1l0,0c-0.3,0.7-0.6,1.3-0.9,2l0,0
			c-10.5,22.4-21.6,41.8-32.8,57.2l0,0c-5.3,16.2-9.1,26.1-13.9,31.9l0,0c2,3.5,4.4,5.9,7.2,6.9l0,0c0.1,0,0.1,0,0.2,0l0,0h0l0,0
			c0,0,0.1,0,0.2,0l0,0c0.1,0,0.2-0.1,0.4-0.1l0,0c0.1,0,0.1,0,0.2-0.1l0,0c0.1,0,0.2-0.1,0.3-0.1l0,0c0.1,0,0.1,0,0.2-0.1l0,0
			c0.2-0.1,0.3-0.1,0.5-0.1l0,0c0.1,0,0.2-0.1,0.2-0.1l0,0c0.1,0,0.2-0.1,0.3-0.1l0,0c0.1,0,0.2,0,0.3-0.1l0,0
			c0.1,0,0.2-0.1,0.2-0.1l0,0c0.2-0.1,0.4-0.1,0.5-0.2l0,0c0,0,0.1,0,0.2-0.1l0,0c0.1,0,0.2-0.1,0.3-0.1l0,0c0,0,0.1,0,0.1-0.1l0,0
			c0.4-0.2,0.8-0.3,1.2-0.5l0,0h0l0,0c0.6-0.2,1.1-0.5,1.7-0.8l0,0c18.2-10.2,27.4-44.4,56-95.5l0,0L268.4,31.2L268.4,31.2z"/>
		<path class="st27" d="M110.2,33.4c0,0,0.1,0,0.1,0c0.1,0,0.2,0,0.3,0h0.1c0.2,0,0.4,0,0.6,0.1c0,0,0.1,0,0.1,0
			c0.2,0,0.3,0.1,0.5,0.1c0,0,0.1,0,0.1,0c0.4,0.1,0.8,0.2,1.2,0.3c0,0,0.1,0,0.1,0c0.2,0,0.3,0.1,0.5,0.1c0,0,0.1,0,0.1,0
			c0.2,0,0.4,0.1,0.6,0.2c0,0,0,0,0,0c0.2,0,0.3,0.1,0.5,0.2c0.1,0,0.1,0,0.2,0.1c0.1,0,0.2,0.1,0.4,0.1c0.1,0,0.1,0,0.2,0.1
			c0.2,0.1,0.3,0.1,0.5,0.2c0.1,0,0.2,0.1,0.2,0.1c0.1,0,0.2,0.1,0.3,0.1c0.1,0,0.2,0.1,0.2,0.1c0.1,0,0.2,0.1,0.2,0.1
			c2,1,3.9,2.3,5.6,3.9c0.6-0.7,1.3-1.3,2-1.8c-3.8-2.7-8.1-4.2-13-4.2C111.4,33.4,110.8,33.4,110.2,33.4"/>
		<path class="st28" d="M122.9,39.4c1.1,1,2.1,2.1,3,3.3c0.9-0.6,1.8-1.3,2.8-1.8c-1.2-1.2-2.5-2.3-3.8-3.2
			C124.2,38.1,123.6,38.7,122.9,39.4"/>
		
			<linearGradient id="SVGID_16_" gradientUnits="userSpaceOnUse" x1="-499.5759" y1="597.5513" x2="-498.8645" y2="599.8054" gradientTransform="matrix(32.4594 0 0 4.2491 16329.3701 -2510.2322)">
			<stop  offset="0" style="stop-color:#97D6EE"/>
			<stop  offset="0.7033" style="stop-color:#55C1EA"/>
			<stop  offset="1" style="stop-color:#55C1EA"/>
		</linearGradient>
		<path class="st29" d="M110.2,33.4c0.6,0,1.2-0.1,1.7-0.1c4.9,0,9.2,1.5,13,4.2c4-3.1,8.8-4.2,15.5-4.2H108
			C108.7,33.3,109.5,33.4,110.2,33.4"/>
		
			<linearGradient id="SVGID_17_" gradientUnits="userSpaceOnUse" x1="-495.8134" y1="572.9941" x2="-495.1247" y2="571.8897" gradientTransform="matrix(26.4722 0 0 7.484 13252.0488 -4247.9658)">
			<stop  offset="0" style="stop-color:#7ACCEC"/>
			<stop  offset="1" style="stop-color:#3FB7ED"/>
		</linearGradient>
		<path class="st30" d="M140.5,33.3c-6.7,0-11.5,1.1-15.5,4.2c1.3,0.9,2.6,2,3.8,3.2c5.6-3.5,11.1-5.9,16.5-6.9
			c2.1-0.4,4.1-0.6,6.2-0.6H140.5L140.5,33.3z"/>
		
			<linearGradient id="SVGID_18_" gradientUnits="userSpaceOnUse" x1="-505.6655" y1="534.8823" x2="-505.6655" y2="533.6663" gradientTransform="matrix(52.0449 0 0 -80.6355 26545.0098 43166.9727)">
			<stop  offset="0" style="stop-color:#1DA7E7"/>
			<stop  offset="1" style="stop-color:#37ABE7;stop-opacity:0"/>
		</linearGradient>
		<path class="st31" d="M220,90.6c2.9-8.9,6.2-19.7,10.3-32.8c3.7-11.8,10.2-20.6,22.5-24.5c0.3-0.7,0.6-1.3,0.9-2
			c-20,1.2-29.3,11.4-34,26.4c-8.2,26.3-13.2,43.3-18,54.2C207.8,106.1,213.9,98.9,220,90.6"/>
		<path d="M249.4,122.9h-2.3v7h-0.9v-7h-2.3v-0.8h5.5V122.9L249.4,122.9z"/>
		<path d="M258.6,129.9h-0.9v-5.3c0-0.4,0-0.9,0.1-1.5l0,0c-0.1,0.4-0.2,0.6-0.2,0.8l-2.7,6.1h-0.4l-2.7-6c-0.1-0.2-0.2-0.4-0.2-0.8
			h0c0,0.3,0,0.8,0,1.5v5.3h-0.9V122h1.2l2.4,5.5c0.2,0.4,0.3,0.7,0.4,0.9h0c0.2-0.4,0.3-0.8,0.4-1l2.5-5.5h1.2L258.6,129.9
			L258.6,129.9z"/>
	</g>
</g>
</svg>
