<?xml version="1.0" encoding="utf-8"?>
<!-- Generator: Adobe Illustrator 22.1.0, SVG Export Plug-In . SVG Version: 6.00 Build 0)  -->
<svg version="1.1" id="Layer_1" xmlns="http://www.w3.org/2000/svg" xmlns:xlink="http://www.w3.org/1999/xlink" x="0px" y="0px"
	 viewBox="0 0 326.4 334" style="enable-background:new 0 0 326.4 334;" xml:space="preserve">
<style type="text/css">
	.st0{fill:#A179DC;}
	.st1{fill:#280068;}
	.st2{fill:#390091;}
	.st3{fill:#FFFFFF;}
</style>
<g>
	<path class="st0" d="M289.6,111.5c0-4.8-1-9.1-3.1-12.8c-2.1-3.6-5.1-6.6-9.2-9c-34-19.6-68.1-39.2-102.1-58.8
		c-9.2-5.3-18.1-5.1-27.2,0.3c-13.5,8-81.3,46.8-101.6,58.5C38.1,94.5,34,101.9,34,111.4c0,39.5,0,78.9,0,118.4c0,4.7,1,8.9,3,12.5
		c2.1,3.7,5.2,6.8,9.4,9.3c20.2,11.7,88,50.5,101.6,58.5c9.1,5.4,18,5.6,27.2,0.3c34-19.6,68.1-39.2,102.1-58.8
		c4.2-2.4,7.3-5.5,9.4-9.3c2-3.6,3-7.8,3-12.5C289.6,229.8,289.6,150.9,289.6,111.5"/>
	<path class="st1" d="M162.2,170.2L37,242.3c2.1,3.7,5.2,6.8,9.4,9.3c20.2,11.7,88,50.5,101.6,58.5c9.1,5.4,18,5.6,27.2,0.3
		c34-19.6,68.1-39.2,102.1-58.8c4.2-2.4,7.3-5.5,9.4-9.3L162.2,170.2"/>
	<path class="st2" d="M289.6,111.5c0-4.8-1-9.1-3.1-12.8l-124.3,71.6l124.4,72.1c2-3.6,3-7.8,3-12.5
		C289.6,229.8,289.6,150.9,289.6,111.5"/>
	<path class="st3" d="M235.9,143.3v13.5h13.5v-13.5h6.7v13.5h13.5v6.7h-13.5V177h13.5v6.7h-13.5v13.5h-6.7v-13.5h-13.5v13.5h-6.7
		v-13.5h-13.5V177h13.5v-13.5h-13.5v-6.7h13.5v-13.5H235.9z M249.4,163.5h-13.5V177h13.5V163.5z"/>
	<path class="st3" d="M162.5,75.6c35.1,0,65.8,19.1,82.3,47.5l-0.2-0.3l-41.3,23.8c-8.1-13.8-23.1-23.1-40.2-23.3l-0.5,0
		c-26.1,0-47.3,21.2-47.3,47.3c0,8.5,2.3,16.6,6.2,23.5c8.2,14.2,23.5,23.8,41.1,23.8c17.7,0,33.1-9.7,41.2-24.1l-0.2,0.3l41.3,23.9
		c-16.3,28.1-46.5,47.2-81.3,47.5l-1.1,0c-35.3,0-66-19.2-82.4-47.7c-8-13.9-12.6-30.1-12.6-47.3C67.5,118.2,110,75.6,162.5,75.6z"
		/>
</g>
</svg>
