<?xml version="1.0" encoding="utf-8"?>
<!-- Generator: Adobe Illustrator 22.1.0, SVG Export Plug-In . SVG Version: 6.00 Build 0)  -->
<svg version="1.1" id="Layer_1" xmlns="http://www.w3.org/2000/svg" xmlns:xlink="http://www.w3.org/1999/xlink" x="0px" y="0px"
	 viewBox="0 0 2525.717 2777.426" enable-background="new 0 0 2525.717 2777.426" xml:space="preserve">
<g>
	<path d="M2098.397,202.502h137.153l-4.31,24.28h-25.71c-12.855,0-21.419-2.842-21.419-2.842v44.287
		c0,15.698-4.291,31.432-4.291,47.13c0,15.716-4.291,31.432-4.291,40.014h-34.275v-40.014c0-15.698,4.291-31.432,4.291-47.13
		c0-17.146,4.255-37.135,4.255-44.287h-17.128h-17.165c-8.564,0-17.128,2.842-17.128,2.842v-24.28H2098.397L2098.397,202.502z
		 M2252.66,202.502h47.13c0,8.564,4.291,17.146,4.291,21.419c0,7.152,8.564,19.989,12.855,35.705c0,4.291,4.291,15.716,4.291,24.28
		c4.255,15.716,12.855,31.432,12.855,31.432c0-8.564,8.564-19.989,12.855-35.705c4.255-11.425,12.855-28.571,17.128-39.996
		c4.291-12.874,12.855-28.571,12.855-37.135h51.439v48.56c0,17.146-4.291,39.996-4.291,55.712v48.578h-34.275V323.92v-40.014
		c0-12.855,4.291-24.28,4.291-32.862v-15.679l-47.13,120.006h-34.311c0-8.582-8.564-24.28-8.564-35.723
		c-4.291-19.989-12.855-35.723-12.855-39.996c0-8.564-8.564-24.28-12.855-39.996v39.996c0,11.425-4.291,27.141-4.291,39.996v35.723
		h-34.275c0-15.716,4.291-35.723,4.291-52.851c0-14.286,4.255-34.293,4.255-51.439
		C2248.369,235.364,2252.66,219.648,2252.66,202.502L2252.66,202.502z M604.112,2635.328h-91.435l-35.705-128.552H308.387
		l-35.705,128.552h-88.574l155.711-568.564h99.999L604.112,2635.328z M451.243,2413.911l-59.985-214.266l-55.73,214.266H451.243z
		 M932.681,2635.328h-77.15v-58.554c-12.855,25.71-30.002,42.875-45.718,50.009c-15.698,8.564-32.862,18.595-50.009,18.595
		c-31.432,0-62.846-21.456-85.714-57.161c-25.71-32.844-37.135-89.968-37.135-157.124c0-68.549,11.443-128.589,32.862-164.293
		c22.85-34.275,55.712-55.694,94.296-55.694c30.002,0,61.434,21.419,88.556,59.985v-204.308h80.01L932.681,2635.328
		L932.681,2635.328z M715.536,2421.081c0,42.838,5.722,81.404,12.855,98.569c12.874,25.71,31.432,42.839,52.87,42.839
		c19.989,0,35.705-12.855,48.56-28.553c12.855-21.456,22.85-57.161,22.85-99.999c0-45.736-7.134-84.283-19.989-105.739
		c-11.443-21.419-31.432-35.705-51.421-35.705c-17.146,0-32.862,14.285-47.148,31.45
		C721.239,2345.361,715.536,2378.205,715.536,2421.081L715.536,2421.081z M998.387,2421.081c0-32.881,4.273-68.586,17.146-101.43
		c14.286-34.275,32.862-59.985,55.712-77.15c24.28-18.559,54.282-31.414,82.871-31.414c44.287,0,85.714,21.419,112.854,59.985
		c30.002,42.838,45.718,99.999,45.718,160.002c0,60.003-15.716,114.285-45.718,152.869c-31.432,39.978-68.567,61.434-112.854,61.434
		c-27.141,0-54.282-10.031-79.992-25.71c-25.71-17.165-44.287-42.875-58.573-74.289c-12.855-32.881-17.146-75.719-17.146-118.594
		v-5.703L998.387,2421.081L998.387,2421.081z M1078.379,2431.075c0,42.875,4.291,75.719,17.146,97.138
		c14.286,21.419,35.723,34.275,55.73,34.275c18.558,0,39.996-12.855,52.851-34.275c14.286-21.419,22.85-54.263,22.85-97.138
		c0-42.875-8.564-78.58-22.85-99.999c-12.855-24.28-34.293-38.584-52.851-38.584c-20.007,0-39.996,14.285-51.439,35.705
		C1086.962,2352.477,1078.379,2388.2,1078.379,2431.075L1078.379,2431.075z M1375.535,2635.328v-568.564h79.974v204.308
		c22.886-38.584,55.73-59.985,87.144-59.985c37.135,0,68.585,21.419,92.866,55.694c24.28,35.705,38.584,90.005,38.584,160.002
		c0,68.586-14.286,128.589-38.584,161.433c-25.71,35.705-57.124,57.161-88.574,57.161c-17.128,0-35.705-10.031-51.439-18.595
		c-17.128-7.134-32.844-28.553-41.445-50.009v58.554L1375.535,2635.328L1375.535,2635.328z M1455.508,2421.081
		c0,42.838,7.17,81.404,14.286,98.569c12.855,25.71,34.311,42.839,57.161,42.839c19.989,0,35.705-12.855,47.13-28.553
		c12.855-17.165,19.989-57.161,19.989-99.999c0-45.736-7.134-84.283-19.989-105.739c-11.425-21.419-31.45-35.705-51.439-35.705
		c-18.558,0-34.275,14.285-47.13,31.45C1462.679,2345.361,1455.508,2378.205,1455.508,2421.081L1455.508,2421.081z
		 M1916.939,2506.794l80.01,12.855c-8.601,42.839-28.589,78.58-48.56,94.278c-22.85,17.165-54.3,31.45-87.144,31.45
		c-48.56,0-91.435-25.71-115.734-68.586c-19.989-35.705-28.59-85.713-28.59-142.838c0-67.155,11.425-124.279,37.135-162.863
		c25.71-38.584,62.864-59.985,102.86-59.985c44.269,0,80.01,21.419,104.309,59.985c27.122,42.838,42.839,107.133,42.839,188.574
		h-207.096c0,35.705,4.291,59.985,18.595,78.543c12.818,17.165,28.553,24.28,45.699,24.28c14.286,0,27.141-2.824,32.844-12.855
		C1901.223,2541.069,1909.824,2523.941,1916.939,2506.794L1916.939,2506.794z M1924.109,2392.491
		c0-29.983-11.425-57.124-20.026-72.858c-11.425-17.165-28.553-27.141-44.269-27.141c-18.595,0-35.705,14.285-44.269,31.45
		c-14.286,17.128-18.595,42.838-18.595,68.549L1924.109,2392.491L1924.109,2392.491z"/>
	<path fill="#CC2229" d="M169.822,145.359h685.709L169.822,1815.364V145.359z M1322.665,145.359h694.273v1648.548L1322.665,145.359z
		 M1096.956,783.921l378.578,1001.441h-234.291l-161.433-317.126H822.669L1096.956,783.921z"/>
</g>
</svg>
