<?xml version="1.0" encoding="utf-8"?>
<!-- Generator: Adobe Illustrator 22.1.0, SVG Export Plug-In . SVG Version: 6.00 Build 0)  -->
<svg version="1.1" id="Layer_1" xmlns="http://www.w3.org/2000/svg" xmlns:xlink="http://www.w3.org/1999/xlink" x="0px" y="0px"
	 viewBox="0 0 525 550" enable-background="new 0 0 525 550" xml:space="preserve">
<g>
	<path fill="#07B2F8" d="M454.926,197.781H345.046l-4.23,1.752l-20.408,20.408H291.43c-2.456-6.758-8.923-11.607-16.519-11.607
		c-9.699,0-17.589,7.89-17.589,17.589s7.89,17.589,17.589,17.589c7.596,0,14.064-4.849,16.519-11.607h31.456l4.23-1.752
		l20.408-20.408h107.402c3.304,0,5.982-2.678,5.982-5.982C460.908,200.459,458.23,197.781,454.926,197.781z M274.911,231.548
		c-3.102,0-5.625-2.524-5.625-5.625s2.524-5.625,5.625-5.625c3.102,0,5.625,2.524,5.625,5.625S278.012,231.548,274.911,231.548z"/>
	<path fill="#07B2F8" d="M233.881,162.261l14.076,14.076l4.23,1.752h45.374l4.23-1.752l13.549-13.549h34.982H451.84
		c3.304,0,5.982-2.678,5.982-5.982c0-3.304-2.678-5.982-5.982-5.982h-99.01l-28.843-29.341l-4.266-1.788H283.48
		c-2.456-6.758-8.923-11.607-16.519-11.607c-9.699,0-17.589,7.89-17.589,17.589s7.89,17.589,17.589,17.589
		c7.596,0,14.064-4.849,16.519-11.607h33.733l18.84,19.165h-23.19l-4.23,1.752l-13.549,13.549h-40.417l-14.076-14.076l-4.23-1.752
		h-35.186c-2.456-6.758-8.923-11.607-16.519-11.607c-9.699,0-17.589,7.89-17.589,17.589c0,9.699,7.89,17.589,17.589,17.589
		c7.596,0,14.064-4.849,16.519-11.607H233.881z M266.961,131.303c-3.102,0-5.625-2.524-5.625-5.625c0-3.102,2.524-5.625,5.625-5.625
		c3.102,0,5.625,2.524,5.625,5.625C272.586,128.779,270.062,131.303,266.961,131.303z M184.654,161.904
		c-3.102,0-5.625-2.524-5.625-5.625s2.524-5.625,5.625-5.625s5.625,2.524,5.625,5.625S187.756,161.904,184.654,161.904z"/>
	<path fill="#07B2F8" d="M366.15,148.543c7.596,0,14.064-4.849,16.519-11.607h60.312c3.304,0,5.982-2.678,5.982-5.982
		c0-3.304-2.678-5.982-5.982-5.982h-60.312c-2.456-6.758-8.923-11.607-16.519-11.607c-9.699,0-17.589,7.89-17.589,17.589
		S356.451,148.543,366.15,148.543z M366.15,125.328c3.102,0,5.625,2.524,5.625,5.625c0,3.102-2.524,5.625-5.625,5.625
		c-3.102,0-5.625-2.524-5.625-5.625C360.525,127.852,363.048,125.328,366.15,125.328z"/>
	<path fill="#07B2F8" d="M231.775,204.469h78.449l4.23-1.752l16.187-16.187h125.345c3.304,0,5.982-2.678,5.982-5.982
		c0-3.304-2.678-5.982-5.982-5.982H328.163l-4.23,1.752l-16.187,16.187h-75.971c-2.456-6.758-8.923-11.607-16.519-11.607
		c-9.699,0-17.589,7.89-17.589,17.589s7.89,17.589,17.589,17.589C222.852,216.076,229.319,211.227,231.775,204.469z
		 M215.255,204.112c-3.102,0-5.625-2.524-5.625-5.625s2.524-5.625,5.625-5.625s5.625,2.524,5.625,5.625
		S218.357,204.112,215.255,204.112z"/>
	<path fill="#07B2F8" d="M446.686,220.996h-88.178l-4.23,1.752l-27.794,27.794h-73.189c-2.456-6.758-8.923-11.607-16.519-11.607
		c-9.699,0-17.589,7.89-17.589,17.589c0,9.699,7.89,17.589,17.589,17.589c7.596,0,14.064-4.849,16.519-11.607h75.667l4.23-1.752
		l27.794-27.794h85.699c3.304,0,5.982-2.678,5.982-5.982S449.989,220.996,446.686,220.996z M236.776,262.149
		c-3.102,0-5.625-2.524-5.625-5.625c0-3.102,2.524-5.625,5.625-5.625s5.625,2.524,5.625,5.625
		C242.401,259.625,239.878,262.149,236.776,262.149z"/>
</g>
<path fill="#333333" d="M462.935,152.422C443.859,85.676,399.157,40.38,330.072,17.795c-47.386-15.493-91.235-9.629-130.329,17.432
	c-34.434,23.833-56.007,57.303-64.121,99.479c-3.277,17.034-4.719,34.677-6.112,51.737c-0.515,6.296-1.047,12.806-1.663,19.181
	c-0.801,8.283-1.063,16.732-1.318,24.904l-0.076,2.429c-0.527,16.601-5.973,30.632-16.188,41.701l-2.315,2.509h16.881l0.449-0.566
	c7.928-9.993,13.43-25.536,14.358-40.565c0.498-8.069,0.895-16.278,1.28-24.217c0.735-15.186,1.495-30.891,2.993-46.245
	c5.946-60.989,31.615-102.897,78.474-128.118c28.09-15.121,58.507-18.66,90.413-10.514c54.99,14.038,93.96,41.993,119.134,85.462
	c11.655,20.122,19.048,41.276,21.978,62.874c3.888,28.667-4.761,53.174-25.704,72.838c-8.965,8.417-12.578,17.596-11.343,29.052
	c3.919,17.662,7.725,36.223,7.511,52.101c0.314,3.199-0.27,8.256-2.165,9.416c-1.205,0.538-7.155-1.41-11.494-2.83
	c-4.704-1.54-10.037-3.283-14.142-3.833c-4.635-0.631-9.003,0.534-12.296,3.258c-3.074,2.541-4.895,6.234-5.127,10.402
	c-0.315,5.655,0.086,10.762,1.193,15.179c0.504,2.009,0.504,3.407,0.001,4.042c-0.48,0.608-1.73,0.911-3.693,0.872
	c-0.992-0.012-1.987-0.047-2.98-0.085c-2.251-0.078-4.577-0.161-6.889,0.006c-3.219,0.237-5.412,1.309-6.519,3.188
	c-1.117,1.894-0.985,4.367,0.39,7.345c0.309,0.668,0.666,1.319,1.023,1.97c0.573,1.043,1.115,2.03,1.407,3.036
	c0.836,2.881,0.807,5.012-0.086,6.333c-0.78,1.154-2.358,1.857-4.69,2.09c-10.852,1.086-17.493,7.079-20.9,18.866
	c-0.702,2.428-1.559,4.542-2.547,6.286c-3.496,6.162-6.845,9.482-10.541,10.447c-3.275,0.853-7.058-0.052-11.566-2.778
	c-10.593-6.403-21.936-13.184-36.779-21.986c-1.373-0.814-2.853-1.36-4.286-1.89l-0.719-0.266
	c-23.096-8.66-40.206-3.685-57.205,16.628l-2.055,2.457h16.708l0.446-0.509c7.952-9.033,18.018-12.048,28.356-8.489
	c9.408,3.242,18.518,8.048,27.327,12.693l3.979,2.094c3.312,1.733,6.538,3.848,9.658,5.892c3.304,2.166,6.719,4.404,10.308,6.249
	c4.925,2.527,9.576,3.79,13.94,3.79c7.923,0,14.899-4.163,20.838-12.465c1.738-2.432,3.67-5.284,4.579-8.367
	c2.766-9.367,6.574-15.439,16.997-16.758c7.741-0.981,12.573-8.163,12.023-17.873c-0.075-1.34-0.191-2.677-0.298-3.928l-0.03-0.361
	c0.917-0.286,1.82-0.573,2.711-0.855c2.796-0.886,5.437-1.723,8.115-2.455c3.883-1.061,8.237-3.949,6.932-11.663
	c-0.411-2.432-0.959-4.862-1.49-7.211c-0.413-1.832-0.827-3.662-1.179-5.503c-0.326-1.704-0.48-3.978,0.632-5.132
	c1.12-1.169,3.425-1.105,5.163-0.837c3.198,0.48,6.408,1.366,9.511,2.222c4.687,1.292,9.533,2.628,14.574,2.671
	c0.057,0,0.111,0,0.167,0c11.064,0,13.254-9.087,13.936-15.937c0.965-9.693,0.493-14.416-0.29-22.244
	c-0.156-1.564-0.326-3.262-0.5-5.156c-0.406-4.417-1.351-10.61-2.264-16.599c-0.982-6.434-1.997-13.088-2.382-17.725
	c-0.42-5.071,1.171-9.106,5.009-12.701C465.844,231.554,475.181,195.269,462.935,152.422z"/>
<g>
	<path fill="#07B2F8" d="M8,460.238h35.267v16.026H28.824v15.185h12.86v15.235h-12.86v33.635H8V460.238z"/>
	<path fill="#07B2F8" d="M48.312,460.238h14.74c9.827,0,16.479,0.379,19.958,1.138c3.479,0.758,6.315,2.696,8.508,5.812
		c2.193,3.116,3.289,8.087,3.289,14.913c0,6.232-0.775,10.42-2.325,12.564c-1.55,2.143-4.6,3.429-9.151,3.858
		c4.122,1.022,6.892,2.391,8.31,4.105c1.418,1.715,2.3,3.289,2.646,4.724c0.346,1.434,0.519,5.383,0.519,11.846v21.121h-19.34
		v-26.611c0-4.287-0.338-6.941-1.014-7.964c-0.676-1.022-2.448-1.533-5.317-1.533v36.108H48.312V460.238z M69.136,473.939v17.807
		c2.341,0,3.982-0.322,4.922-0.965c0.94-0.643,1.41-2.729,1.41-6.257v-4.402c0-2.539-0.453-4.204-1.36-4.996
		C73.2,474.335,71.543,473.939,69.136,473.939z"/>
	<path fill="#07B2F8" d="M138.866,460.238l11.908,80.08h-21.281l-1.117-14.394h-7.45l-1.251,14.394H98.146l10.622-80.08H138.866z
		 M127.83,511.729c-1.055-9.07-2.112-20.282-3.172-33.635c-2.123,15.333-3.454,26.545-3.996,33.635H127.83z"/>
	<path fill="#07B2F8" d="M200.806,460.238v80.08h-18.252l-10.832-36.405v36.405h-17.411v-80.08h17.411l11.673,36.058v-36.058
		H200.806z"/>
	<path fill="#07B2F8" d="M257.787,495.109h-20.824v-13.918c0-4.048-0.223-6.572-0.668-7.578c-0.445-1.002-1.426-1.504-2.943-1.504
		c-1.715,0-2.803,0.61-3.265,1.83c-0.462,1.22-0.692,3.858-0.692,7.914v37.196c0,3.891,0.231,6.43,0.692,7.617
		c0.462,1.187,1.5,1.781,3.116,1.781c1.55,0,2.564-0.594,3.042-1.785c0.478-1.189,0.717-3.984,0.717-8.38v-10.066h20.824v3.12
		c0,8.289-0.585,14.167-1.756,17.636c-1.171,3.467-3.759,6.504-7.766,9.114c-4.006,2.609-8.945,3.914-14.814,3.914
		c-6.1,0-11.129-1.105-15.086-3.314c-3.957-2.209-6.579-5.268-7.865-9.175c-1.286-3.908-1.929-9.785-1.929-17.633v-23.396
		c0-5.771,0.198-10.099,0.594-12.984c0.396-2.885,1.575-5.663,3.537-8.334c1.962-2.671,4.682-4.773,8.161-6.307
		c3.479-1.533,7.477-2.3,11.995-2.3c6.133,0,11.195,1.185,15.185,3.557c3.99,2.37,6.612,5.328,7.865,8.866
		c1.253,3.541,1.88,9.048,1.88,16.523V495.109z"/>
	<path fill="#07B2F8" d="M314.892,460.238l-11.945,36.157l13.083,43.923h-21.516l-8.433-34.327v34.327h-20.824v-80.08h20.824v31.112
		l9.274-31.112H314.892z"/>
	<path fill="#07B2F8" d="M365.369,507.129c0,8.046-0.19,13.742-0.569,17.089s-1.566,6.405-3.561,9.175
		c-1.995,2.77-4.691,4.897-8.087,6.381c-3.396,1.484-7.353,2.226-11.871,2.226c-4.287,0-8.137-0.701-11.55-2.102
		s-6.158-3.504-8.236-6.307c-2.077-2.803-3.314-5.853-3.71-9.151c-0.396-3.297-0.594-9.068-0.594-17.312v-13.701
		c0-8.046,0.19-13.742,0.569-17.089s1.566-6.405,3.561-9.175s4.691-4.897,8.087-6.381c3.396-1.484,7.353-2.226,11.871-2.226
		c4.287,0,8.137,0.701,11.55,2.102c3.413,1.401,6.158,3.504,8.236,6.307c2.077,2.803,3.314,5.853,3.71,9.151
		c0.396,3.298,0.594,9.068,0.594,17.312V507.129z M344.545,480.814c0-3.726-0.206-6.109-0.618-7.147
		c-0.412-1.039-1.261-1.558-2.547-1.558c-1.088,0-1.921,0.42-2.498,1.261c-0.577,0.841-0.866,3.322-0.866,7.444v37.394
		c0,4.65,0.19,7.518,0.569,8.607c0.379,1.088,1.261,1.632,2.646,1.632c1.418,0,2.325-0.627,2.72-1.88
		c0.396-1.253,0.594-4.237,0.594-8.953V480.814z"/>
	<path fill="#07B2F8" d="M373.135,460.238h15.581c10.057,0,16.859,0.462,20.403,1.385s6.241,2.44,8.087,4.551
		c1.847,2.11,3.001,4.46,3.462,7.048c0.462,2.589,0.692,7.675,0.692,15.259v28.045c0,7.189-0.338,11.995-1.014,14.418
		c-0.676,2.424-1.855,4.32-3.537,5.688s-3.759,2.325-6.232,2.869c-2.473,0.544-6.199,0.816-11.179,0.816h-26.265V460.238z
		 M393.958,473.939v52.678c3.001,0,4.847-0.602,5.54-1.805c0.692-1.204,1.039-4.476,1.039-9.818v-31.112
		c0-3.627-0.115-5.952-0.346-6.974c-0.231-1.022-0.758-1.772-1.583-2.251C397.784,474.178,396.234,473.939,393.958,473.939z"/>
	<path fill="#07B2F8" d="M429.126,460.238h34.723v16.026H449.95v15.185h13.009v15.235H449.95v17.609h15.284v16.026h-36.108V460.238z
		"/>
	<path fill="#07B2F8" d="M471.219,460.238h14.74c9.827,0,16.479,0.379,19.958,1.138c3.479,0.758,6.315,2.696,8.508,5.812
		c2.193,3.116,3.289,8.087,3.289,14.913c0,6.232-0.775,10.42-2.325,12.564c-1.55,2.143-4.6,3.429-9.151,3.858
		c4.122,1.022,6.892,2.391,8.31,4.105c1.418,1.715,2.3,3.289,2.646,4.724s0.519,5.383,0.519,11.846v21.121h-19.34v-26.611
		c0-4.287-0.338-6.941-1.014-7.964c-0.676-1.022-2.448-1.533-5.317-1.533v36.108h-20.824V460.238z M492.043,473.939v17.807
		c2.341,0,3.982-0.322,4.922-0.965s1.41-2.729,1.41-6.257v-4.402c0-2.539-0.453-4.204-1.36-4.996
		C496.107,474.335,494.45,473.939,492.043,473.939z"/>
</g>
<g>
</g>
<g>
</g>
<g>
</g>
<g>
</g>
<g>
</g>
<g>
</g>
<g>
</g>
<g>
</g>
<g>
</g>
<g>
</g>
<g>
</g>
<g>
</g>
<g>
</g>
<g>
</g>
<g>
</g>
</svg>
