<?xml version="1.0" encoding="utf-8"?>
<!-- Generator: Adobe Illustrator 22.1.0, SVG Export Plug-In . SVG Version: 6.00 Build 0)  -->
<svg version="1.1" id="Layer_1" xmlns="http://www.w3.org/2000/svg" xmlns:xlink="http://www.w3.org/1999/xlink" x="0px" y="0px"
	 viewBox="0 0 2079 2500" enable-background="new 0 0 2079 2500" xml:space="preserve">
<path fill="#FF3E00" d="M1867.677,410.368C1655.52,106.884,1236.467,16.929,933.516,209.875L401.485,548.846
	c-35.791,22.489-69.182,48.637-99.56,78.025c-30.417,29.388-57.67,61.863-81.341,96.892c-23.67,35.029-43.643,72.422-59.614,111.567
	c-15.932,39.164-27.761,79.874-35.296,121.477c-6.289,34.877-9.72,70.249-10.177,105.697c-0.496,35.487,1.982,70.935,7.356,105.964
	c5.374,35.067,13.646,69.639,24.7,103.334c11.054,33.695,24.89,66.399,41.356,97.807c-11.328,17.215-21.785,34.987-31.332,53.249
	c-9.567,18.258-18.182,37.011-25.843,56.146s-14.332,38.65-20.011,58.471s-10.33,39.908-13.989,60.186
	c-15.205,85.273-13.196,172.726,5.908,257.211c9.529,42.119,23.213,83.208,40.899,122.621
	c17.686,39.413,39.222,76.995,64.379,112.139c212.157,303.484,631.172,393.439,934.123,200.493l532.031-337.56
	c35.792-22.527,69.105-48.713,99.484-78.139c30.374-29.403,57.62-61.874,81.303-96.892c23.67-34.991,43.643-72.383,59.614-111.529
	c15.971-39.108,27.825-79.816,35.41-121.401c6.289-34.877,9.682-70.211,10.139-105.659s-2.02-70.897-7.433-105.926
	c-5.374-35.029-13.646-69.563-24.738-103.258c-11.092-33.657-24.928-66.361-41.395-97.769c11.321-17.191,21.803-34.991,31.37-53.249
	c9.529-18.258,18.182-37.011,25.843-56.146c7.661-19.135,14.37-38.65,20.087-58.471c5.679-19.783,10.406-39.87,14.103-60.148
	c7.547-42.538,10.825-85.724,9.834-128.91s-6.289-86.143-15.818-128.3c-9.529-42.119-23.213-83.208-40.899-122.621
	c-17.663-39.419-39.204-76.984-64.303-112.139"/>
<path fill="#FFFFFF" d="M881.525,2118.982c-41.639,10.817-84.686,15.213-127.652,13.036c-42.957-2.211-85.343-10.901-125.67-25.881
	c-40.329-14.956-78.142-35.971-112.139-62.321c-33.968-26.367-63.723-57.754-88.24-93.081
	c-15.132-21.155-28.092-43.72-38.688-67.428c-10.627-23.693-18.863-48.388-24.585-73.717c-5.679-25.348-8.881-51.191-9.453-77.148
	c-0.572-25.957,1.448-51.915,6.022-77.491c0.724-4.155,1.563-8.309,2.478-12.426c0.877-4.155,1.868-8.271,2.935-12.35
	c1.029-4.116,2.173-8.195,3.392-12.273c1.182-4.04,2.478-8.081,3.812-12.083l10.025-30.608l27.33,20.392
	c15.666,11.435,31.827,22.222,48.408,32.285c16.581,10.101,33.581,19.478,50.962,28.092c17.343,8.652,35.105,16.581,53.135,23.708
	c18.029,7.166,36.363,13.531,54.964,19.135l20.392,5.908l-1.83,20.392c-0.983,13.878,0.462,27.822,4.269,41.204
	c1.868,6.709,4.345,13.188,7.357,19.439c3.011,6.251,6.556,12.235,10.596,17.877c7.403,10.641,16.388,20.088,26.643,28.016
	c10.215,7.928,21.612,14.255,33.771,18.753c12.159,4.498,24.89,7.09,37.85,7.738c12.922,0.686,25.881-0.648,38.422-3.926
	c2.897-0.762,5.717-1.639,8.538-2.63c2.821-0.991,5.603-2.058,8.309-3.278c2.744-1.182,5.413-2.478,8.081-3.888
	c2.63-1.372,5.184-2.859,7.7-4.46l531.231-339.009c6.512-4.083,12.58-8.835,18.105-14.179c5.527-5.374,10.444-11.282,14.751-17.648
	c4.307-6.365,7.89-13.188,10.787-20.316c2.859-7.128,4.993-14.522,6.365-22.07c1.334-7.738,1.906-15.552,1.715-23.404
	c-0.191-7.814-1.182-15.59-2.935-23.251c-1.715-7.623-4.231-15.056-7.471-22.222c-3.202-7.128-7.166-13.912-11.74-20.278
	c-7.395-10.635-16.352-20.049-26.605-27.978c-10.253-7.928-21.65-14.256-33.771-18.753c-12.149-4.499-24.912-7.121-37.85-7.776
	c-12.96-0.648-25.919,0.686-38.46,3.926c-2.859,0.762-5.718,1.639-8.538,2.63c-2.821,0.991-5.565,2.058-8.309,3.24
	c-2.744,1.22-5.413,2.516-8.042,3.926c-2.63,1.372-5.222,2.897-7.738,4.498l-204,129.52c-8.309,5.26-16.848,10.215-25.538,14.865
	c-8.729,4.612-17.572,8.919-26.605,12.883c-9.034,3.964-18.22,7.585-27.52,10.825c-9.3,3.278-18.715,6.175-28.244,8.729
	c-41.585,10.749-84.543,15.094-127.424,12.883c-42.881-2.211-85.152-10.939-125.404-25.843
	c-40.251-14.942-77.986-35.944-111.91-62.244c-33.924-26.3-63.655-57.594-88.164-92.852c-15.056-21.155-27.978-43.758-38.536-67.466
	c-10.596-23.708-18.791-48.408-24.471-73.718c-5.679-25.347-8.805-51.19-9.339-77.148c-0.572-25.919,1.448-51.877,6.061-77.415
	c9.012-50.281,28.406-98.132,56.946-140.498c28.56-42.366,65.651-78.302,108.899-105.507l532.87-338.971
	c8.271-5.26,16.733-10.215,25.386-14.865c8.652-4.612,17.495-8.919,26.453-12.883c8.977-3.966,18.107-7.577,27.368-10.825
	c9.224-3.278,18.601-6.213,28.092-8.767c41.623-10.787,84.657-15.208,127.576-13.036c42.957,2.211,85.305,10.901,125.632,25.881
	c40.327,14.942,78.101,35.982,112.101,62.321c33.958,26.382,63.699,57.781,88.202,93.119c15.094,21.117,28.092,43.682,38.727,67.39
	c10.635,23.708,18.868,48.37,24.623,73.717c5.718,25.347,8.919,51.19,9.491,77.148c0.61,25.957-1.372,51.915-5.946,77.491
	c-0.8,4.193-1.639,8.386-2.592,12.54c-0.915,4.155-1.906,8.309-2.973,12.426c-1.029,4.155-2.173,8.271-3.354,12.35
	c-1.182,4.117-2.401,8.195-3.735,12.235l-10.177,30.608l-27.139-20.392c-15.704-11.549-31.904-22.374-48.522-32.552
	c-16.619-10.139-33.695-19.592-51.114-28.321c-34.874-17.397-71.149-31.83-108.442-43.148l-20.43-5.908l1.868-20.392
	c0.572-6.975,0.534-13.989-0.114-20.926c-0.61-6.937-1.868-13.836-3.697-20.583c-1.868-6.708-4.269-13.303-7.28-19.592
	c-2.973-6.327-6.518-12.35-10.558-18.067c-7.437-10.447-16.421-19.701-26.643-27.444c-10.207-7.778-21.545-13.948-33.619-18.296
	c-24.262-8.802-50.633-9.985-75.585-3.392c-2.897,0.762-5.756,1.639-8.538,2.592c-2.821,0.991-5.603,2.096-8.348,3.278
	c-2.706,1.182-5.413,2.516-8.043,3.888c-2.63,1.41-5.222,2.897-7.738,4.498L716.481,999.841c-6.48,4.079-12.54,8.843-18.029,14.179
	c-5.489,5.336-10.444,11.244-14.751,17.572c-4.271,6.364-7.885,13.146-10.787,20.24c-2.897,7.128-5.031,14.484-6.404,22.031
	c-1.334,7.738-1.906,15.59-1.715,23.442c0.457,15.717,3.992,31.193,10.406,45.549c3.234,7.147,7.153,13.964,11.702,20.354
	c7.357,10.52,16.276,19.897,26.453,27.749c10.156,7.889,21.454,14.187,33.504,18.677c24.232,9.009,50.627,10.457,75.7,4.155
	c2.859-0.8,5.717-1.677,8.538-2.668c2.783-0.991,5.565-2.096,8.309-3.278c2.732-1.188,5.415-2.485,8.043-3.888
	c2.63-1.372,5.222-2.859,7.738-4.46l204-129.291c8.347-5.336,16.848-10.368,25.576-15.018c8.691-4.688,17.572-8.995,26.643-12.998
	c9.042-3.966,18.235-7.577,27.558-10.825c9.339-3.278,18.792-6.175,28.359-8.691c41.623-10.825,84.619-15.247,127.576-13.112
	c42.957,2.173,85.305,10.863,125.632,25.805c40.289,14.942,78.101,35.944,112.063,62.321c34,26.339,63.731,57.708,88.24,93.043
	c15.094,21.155,28.054,43.72,38.688,67.428c10.634,23.694,18.882,48.389,24.623,73.717c5.718,25.309,8.919,51.152,9.529,77.11
	c0.61,25.995-1.41,51.953-5.946,77.491c-4.495,25.074-11.584,49.614-21.155,73.222c-9.562,23.614-21.571,46.162-35.83,67.276
	c-14.218,21.117-30.608,40.708-48.903,58.433c-18.296,17.724-38.383,33.505-59.957,47.074l-532.26,338.971
	c-8.348,5.298-16.886,10.292-25.576,14.942c-8.729,4.65-17.61,8.957-26.682,12.922c-9.034,4.002-18.22,7.623-27.558,10.901
	C900.508,2113.493,891.055,2116.428,881.525,2118.982"/>
</svg>
