<?xml version="1.0" encoding="utf-8"?>
<!-- Generator: Adobe Illustrator 22.1.0, SVG Export Plug-In . SVG Version: 6.00 Build 0)  -->
<svg version="1.1" id="Layer_1" xmlns="http://www.w3.org/2000/svg" xmlns:xlink="http://www.w3.org/1999/xlink" x="0px" y="0px"
	 viewBox="0 0 2440 2500" enable-background="new 0 0 2440 2500" xml:space="preserve">
<g>
	<path fill="#61DAFB" d="M2281.001,1250.223L2281.001,1250.223c0-145.342-182.014-283.082-461.072-368.499
		c64.398-284.424,35.777-510.711-90.336-583.158c-28.951-16.925-62.784-24.973-99.727-25.038v-0.453
		c-122.982,0-283.977,87.653-446.76,239.703c-162.784-151.156-323.778-237.914-446.76-237.914v0.447
		c-37.565,0-71.553,8.05-101.069,25.043c-125.665,72.448-153.839,298.287-88.994,581.817
		C268.12,968.036,87.001,1105.328,87.001,1250.224c0,145.343,182.013,283.082,461.071,368.499
		c-64.398,284.424-35.777,510.711,90.336,583.158c29.068,16.994,63.056,25.044,100.622,25.044
		c122.982,0,283.977-87.653,446.76-239.703c162.784,151.156,323.778,237.914,446.76,237.914c37.566,0,71.553-8.05,101.069-25.044
		c125.665-72.448,153.839-298.287,88.994-581.817C2099.882,1532.858,2281.001,1395.119,2281.001,1250.223z M1629.419,372.808v0.442
		c20.572,0,37.118,4.025,50.982,11.627c60.82,34.882,87.205,167.703,66.634,338.536c-4.919,42.037-12.969,86.311-22.807,131.479
		c-87.653-21.466-183.355-38.013-283.977-48.746c-60.373-82.733-122.982-157.864-186.038-223.604
		C1399.77,447.255,1536.408,373.044,1629.419,372.808z M1386.138,1599.045c-66.634,5.814-134.162,8.944-202.138,8.944
		c-67.528,0-135.057-3.13-201.243-8.497c-37.118-53.218-73.342-110.013-108.224-169.939
		c-33.988-58.584-64.845-118.063-93.019-177.989c27.727-59.926,59.031-119.852,92.572-178.436
		c34.882-60.373,70.659-117.616,107.777-170.833c66.634-5.814,134.162-8.944,202.138-8.944c67.528,0,135.057,3.13,201.243,8.497
		c37.118,53.218,73.342,110.013,108.224,169.939c33.988,58.584,64.845,118.063,93.019,177.989
		c-28.174,59.926-59.031,119.852-92.572,178.436v0C1459.033,1488.585,1423.256,1545.828,1386.138,1599.045z M787.774,1479.194
		c21.019,35.776,42.485,70.659,64.398,104.646c-63.503-9.391-124.771-21.019-183.355-35.329
		c16.547-57.69,37.118-117.168,60.373-176.647C747.526,1407.641,766.756,1443.417,787.774,1479.194z M667.476,951.936
		c58.584-13.863,120.299-25.938,184.25-35.329l0,0c-21.913,34.435-43.826,69.764-64.398,105.988
		c-20.572,35.777-39.801,71.553-58.137,107.33C705.041,1069.999,684.47,1010.073,667.476,951.936z M1580.226,1477.852
		c20.572-35.777,39.802-72,58.137-107.777v0c24.149,59.926,44.721,119.852,61.715,177.989
		c-58.584,14.311-120.299,26.385-184.25,35.777C1537.741,1549.405,1559.654,1514.076,1580.226,1477.852z M1579.779,1021.253
		c-20.572-35.777-42.485-70.659-64.398-104.647c63.504,9.391,124.771,21.019,183.355,35.329l0,0
		c-16.547,57.69-37.118,117.168-60.373,176.647C1620.028,1092.807,1600.797,1057.03,1579.779,1021.253z M1306.982,796.308
		c-40.249-1.789-81.392-3.13-122.982-3.13c-42.037,0-83.628,0.894-124.323,3.13c40.249-52.323,81.839-100.175,122.982-143.106
		C1224.249,696.134,1265.839,743.985,1306.982,796.308z M684.917,386.666c13.416-8.05,30.857-11.627,51.429-11.627v-0.447
		c92.572,0,229.865,73.789,375.654,208.399c-62.609,65.739-125.218,140.423-184.697,223.156
		c-101.069,10.733-196.771,27.28-284.424,49.193c-10.286-44.721-17.888-88.1-23.255-129.69
		C598.606,554.816,624.544,421.995,684.917,386.666z M572.22,1522.126c-44.273-13.863-86.311-29.068-125.218-45.615v0
		c-158.311-67.528-260.722-156.075-260.722-226.287s102.41-159.206,260.722-226.287c38.46-16.547,80.497-31.305,123.877-45.168
		c25.491,87.653,59.031,178.883,100.622,272.349C630.357,1344.137,597.264,1434.92,572.22,1522.126z M738.134,2127.645
		c-20.124-0.447-37.118-4.472-50.534-12.074h0c-60.82-34.882-87.205-167.703-66.634-338.536
		c4.919-42.037,12.969-86.311,22.808-131.479c87.653,21.466,183.355,38.013,283.977,48.746
		c60.373,82.733,122.982,157.864,186.038,223.604C967.999,2053.408,831.154,2127.645,738.134,2127.645z M1184.895,1847.246
		c-41.59-42.932-83.181-90.783-124.324-143.106c40.249,1.789,81.392,3.13,122.982,3.13c42.037,0,83.628-0.895,124.324-3.13
		C1267.628,1756.463,1226.038,1804.314,1184.895,1847.246z M1683.084,2113.781c-13.416,8.05-30.857,11.627-51.429,11.627
		c-92.572,0-229.865-73.789-375.654-208.399c62.609-65.74,125.218-140.423,184.697-223.157
		c101.069-10.733,196.771-27.28,284.424-49.193c10.286,45.168,18.335,88.547,23.255,130.137
		C1769.395,1945.631,1743.457,2078.452,1683.084,2113.781z M1920.551,1476.51L1920.551,1476.51
		c-38.459,16.547-80.497,31.305-123.876,45.168c-25.491-87.653-59.031-178.883-100.622-272.349
		c41.143-93.019,74.236-183.802,99.28-271.008c44.274,13.863,86.311,29.068,125.665,45.615
		c158.312,67.528,260.722,156.075,260.722,226.287C2181.273,1320.435,2078.862,1409.429,1920.551,1476.51z"/>
	<circle fill="#61DAFB" cx="1183.553" cy="1250.224" r="204.374"/>
</g>
</svg>
