<?xml version="1.0" encoding="utf-8"?>
<!-- Generator: Adobe Illustrator 22.1.0, SVG Export Plug-In . SVG Version: 6.00 Build 0)  -->
<svg version="1.1" id="Layer_1" xmlns="http://www.w3.org/2000/svg" xmlns:xlink="http://www.w3.org/1999/xlink" x="0px" y="0px"
	 viewBox="0 0 431 566.932" enable-background="new 0 0 431 566.932" xml:space="preserve">
<g>
	<g>
		<polygon fill="#265AA6" points="351.153,495.802 214.943,532.478 78.731,495.802 47.3,155.277 382.59,155.277 		"/>
		<polygon fill="#449DD7" points="214.942,182.859 214.942,503.227 215.249,503.31 325.478,473.629 350.921,182.859 		"/>
		<g>
			<polygon points="137.638,105.248 137.638,84.98 167.209,84.98 167.209,62.802 115.46,62.802 115.46,125.485 167.209,125.485 
				167.209,105.248 			"/>
			<path d="M220.404,84.98h20.673V62.802h-51.753c0,0,0,11.132,0,22.178c6.923,6.924,10.535,10.238,20.548,20.252
				c-5.853,0-20.548,0.021-20.548,0.02v20.234h51.753v-20.238L220.404,84.98z"/>
			<path d="M293.757,84.98h20.673V62.802h-51.757c0,0,0,11.132,0,22.178c6.924,6.924,10.537,10.238,20.551,20.252
				c-5.852,0-20.551,0.021-20.551,0.02v20.234h51.757v-20.238L293.757,84.98z"/>
		</g>
		<g>
			<polygon fill="#FFFFFF" points="214.821,268.004 117.33,308.607 120.564,348.806 214.821,308.505 315.085,265.638 
				319.243,224.516 			"/>
			<linearGradient id="SVGID_1_" gradientUnits="userSpaceOnUse" x1="166.0757" y1="348.8057" x2="166.0757" y2="268.0044">
				<stop  offset="0.3865" style="stop-color:#DADADA;stop-opacity:0"/>
				<stop  offset="1" style="stop-color:#DADADA"/>
			</linearGradient>
			<polygon fill="url(#SVGID_1_)" points="117.33,308.607 120.564,348.806 214.821,308.505 214.821,268.004 			"/>
			<linearGradient id="SVGID_2_" gradientUnits="userSpaceOnUse" x1="267.0322" y1="308.5049" x2="267.0322" y2="224.5161">
				<stop  offset="0.3865" style="stop-color:#DADADA;stop-opacity:0"/>
				<stop  offset="1" style="stop-color:#DADADA"/>
			</linearGradient>
			<polygon fill="url(#SVGID_2_)" points="319.243,224.516 214.821,268.004 214.821,308.505 315.085,265.638 			"/>
			<linearGradient id="SVGID_3_" gradientUnits="userSpaceOnUse" x1="117.48" y1="384.8447" x2="311.5439" y2="384.8447">
				<stop  offset="0" style="stop-color:#EEEDED"/>
				<stop  offset="1" style="stop-color:#FFFFFF"/>
			</linearGradient>
			<polygon fill="url(#SVGID_3_)" points="117.48,308.607 120.714,348.806 265.339,349.268 262.104,402.864 214.515,416.264 
				168.767,404.713 165.995,371.445 123.486,371.445 129.031,435.67 214.976,461.082 300.454,436.131 311.544,308.607 			"/>
			<g opacity="0.05">
				<polygon points="214.821,308.607 117.33,308.607 120.564,348.806 214.821,349.107 				"/>
				<polygon points="214.821,416.134 214.359,416.264 168.617,404.713 165.845,371.445 123.337,371.445 128.881,435.67 
					214.821,461.082 				"/>
			</g>
			<linearGradient id="SVGID_4_" gradientUnits="userSpaceOnUse" x1="108.5513" y1="245.0769" x2="319.2432" y2="245.0769">
				<stop  offset="0" style="stop-color:#EEEDED"/>
				<stop  offset="1" style="stop-color:#FFFFFF"/>
			</linearGradient>
			<polygon fill="url(#SVGID_4_)" points="108.551,224.516 319.243,224.516 315.085,265.638 113.633,265.638 			"/>
			<polygon opacity="0.05" points="214.821,224.516 108.551,224.516 113.633,265.638 214.821,265.638 			"/>
		</g>
	</g>
</g>
</svg>
