<?xml version="1.0" encoding="utf-8"?>
<!-- Generator: Adobe Illustrator 22.1.0, SVG Export Plug-In . SVG Version: 6.00 Build 0)  -->
<svg version="1.1" id="Layer_1" xmlns="http://www.w3.org/2000/svg" xmlns:xlink="http://www.w3.org/1999/xlink" x="0px" y="0px"
	 viewBox="0 0 2699.46 2687.462" enable-background="new 0 0 2699.46 2687.462" xml:space="preserve">
<path fill="#563D7C" d="M91.37,2269.017c0,178.047,144.326,322.354,322.354,322.354h1855.283
	c178.057,0,322.363-144.326,322.363-322.354V413.733c0-178.057-144.326-322.363-322.354-322.363H413.733
	C235.677,91.37,91.37,235.696,91.37,413.724v1855.283V2269.017z"/>
<path fill="#FFFFFF" d="M1128.069,1197.21V843.177H1439.7c29.688,0,58.301,2.471,85.859,7.422
	c27.559,4.941,51.943,13.77,73.145,26.494c21.191,12.725,38.154,30.391,50.879,52.998c12.715,22.617,19.082,51.592,19.082,86.914
	c0,63.603-19.082,109.541-57.246,137.803c-38.154,28.271-86.914,42.402-146.279,42.402L1128.069,1197.21L1128.069,1197.21z
	 M795.228,584.534v1513.672h733.516c67.842,0,133.916-8.477,198.223-25.439c64.307-16.963,121.543-43.105,171.719-78.437
	c50.166-35.332,90.098-80.918,119.775-136.738c29.688-55.83,44.521-121.904,44.521-198.223c0-94.697-22.969-175.605-68.896-242.734
	c-45.937-67.139-115.547-114.131-208.828-140.986c67.842-32.5,119.082-74.199,153.711-125.078
	c34.619-50.879,51.934-114.473,51.934-190.801c0-70.664-11.66-130.02-34.98-178.076c-23.32-48.047-56.182-86.562-98.584-115.537
	c-42.393-28.975-93.271-49.824-152.637-62.539c-59.355-12.725-125.078-19.082-197.158-19.082L795.228,584.534L795.228,584.534z
	 M1128.069,1839.563v-415.518h362.51c72.08,0,130.029,16.602,173.848,49.824c43.808,33.213,65.723,88.682,65.723,166.416
	c0,39.58-6.719,72.08-20.146,97.519c-13.428,25.439-31.445,45.586-54.062,60.42c-22.607,14.844-48.76,25.439-78.438,31.807
	c-29.687,6.348-60.771,9.531-93.281,9.531H1128.069L1128.069,1839.563z"/>
</svg>
