<?xml version="1.0" encoding="utf-8"?>
<!-- Generator: Adobe Illustrator 22.1.0, SVG Export Plug-In . SVG Version: 6.00 Build 0)  -->
<svg version="1.1" xmlns="http://www.w3.org/2000/svg" xmlns:xlink="http://www.w3.org/1999/xlink" x="0px" y="0px"
	 viewBox="0 0 103 134" enable-background="new 0 0 103 134" xml:space="preserve">
<g id="Layer_1">
	<g id="code_x5F_html5">
	</g>
	<g>
		<polygon fill="#E6A329" points="91.535,32.79 51.26,32.79 51.26,32.79 10.984,32.79 18.532,114.675 51.26,123.953 51.26,123.953 
			51.26,123.953 51.26,123.953 51.26,123.953 83.976,114.675 		"/>
		<polygon fill="#F1BF22" points="51.26,39.46 51.26,117.019 51.26,117.019 77.762,109.506 84.216,39.46 		"/>
		<polygon fill="#FFFFFF" points="72.345,49.508 31.582,49.508 28.749,80.168 28.809,79.976 63.435,79.976 62.305,92.944 
			51.26,96.129 40.046,92.896 39.373,85.048 29.193,85.048 30.647,100.732 51.26,106.586 71.872,100.732 74.709,69.952 
			37.967,69.952 38.435,59.688 63.938,59.688 64.312,65.562 74.584,65.562 		"/>
		<g>
			<path fill="#EBEBEB" d="M51.26,49.508H31.582l-2.833,30.66l0.06-0.192H51.26V69.952H39.384l0.468-10.264H51.26V49.508z
				 M39.373,85.048h-10.18l1.455,15.685l20.612,5.841V96.129l-11.214-3.232L39.373,85.048z"/>
		</g>
		<g>
			<polygon points="43.421,20.711 36.258,20.711 36.258,25.855 43.421,25.855 47.256,25.855 48.554,25.855 48.554,10.567 
				43.421,10.567 			"/>
			<path d="M66.262,10.644H53.768c0,0,0,2.688,0,5.354c1.67,1.672,2.543,2.472,4.961,4.89c-1.414,0-4.961,0.005-4.961,0.005v4.884
				h12.494v-4.885l-4.99-4.894h4.99V10.644z"/>
		</g>
	</g>
</g>
<g id="Layer_2">
</g>
</svg>
