<?xml version="1.0" encoding="utf-8"?>
<!-- Generator: Adobe Illustrator 22.1.0, SVG Export Plug-In . SVG Version: 6.00 Build 0)  -->
<svg version="1.1" id="Layer_1" xmlns="http://www.w3.org/2000/svg" xmlns:xlink="http://www.w3.org/1999/xlink" x="0px" y="0px"
	 viewBox="0 0 2623.897 1702.083" enable-background="new 0 0 2623.897 1702.083" xml:space="preserve">
<g>
	<path fill="#539E43" d="M1303.266,1605.045c-8.461,0-16.36-2.256-23.698-6.205l-75.044-44.574
		c-11.288-6.21-5.644-8.466-2.256-9.593c15.232-5.078,18.054-6.21,33.853-15.232c1.694-1.133,3.955-0.566,5.644,0.561l57.556,34.419
		c2.256,1.128,5.077,1.128,6.767,0l225.141-130.344c2.255-1.128,3.388-3.388,3.388-6.205V1167.75c0-2.827-1.133-5.077-3.388-6.21
		l-225.141-129.778c-2.256-1.133-5.077-1.133-6.767,0l-225.141,129.778c-2.255,1.128-3.388,3.95-3.388,6.205v260.122
		c0,2.26,1.133,5.078,3.388,6.21l61.506,35.547c33.292,16.927,54.168-2.822,54.168-22.57v-256.739c0-3.383,2.822-6.771,6.771-6.771
		h28.776c3.388,0,6.771,2.822,6.771,6.771v256.739c0,44.574-24.264,70.533-66.583,70.533c-12.977,0-23.132,0-51.912-14.109
		l-59.245-33.853c-14.671-8.461-23.698-24.264-23.698-41.191v-260.122c0-16.926,9.027-32.73,23.698-41.191l225.136-130.344
		c14.109-7.899,33.296-7.899,47.401,0l225.136,130.344c14.671,8.461,23.703,24.264,23.703,41.191v260.122
		c0,16.927-9.032,32.73-23.703,41.191l-225.136,130.344c-7.338,3.388-15.799,5.078-23.698,5.078H1303.266z M1372.67,1426.177
		c-98.742,0-119.057-45.141-119.057-83.509c0-3.388,2.822-6.772,6.771-6.772h29.342c3.383,0,6.205,2.256,6.205,5.644
		c4.516,29.903,17.493,44.574,77.304,44.574c47.396,0,67.716-10.721,67.716-36.113c0-14.671-5.649-25.387-79.565-32.725
		c-61.505-6.21-99.875-19.748-99.875-68.839c0-45.707,38.374-72.793,102.696-72.793c72.222,0,107.774,24.831,112.29,78.993
		c0,1.699-0.566,3.388-1.694,5.082c-1.133,1.128-2.822,2.256-4.516,2.256h-29.342c-2.822,0-5.644-2.256-6.205-5.077
		c-6.771-31.031-24.264-41.191-70.533-41.191c-51.912,0-58.122,18.059-58.122,31.597c0,16.365,7.338,21.442,77.304,30.469
		c69.405,9.032,102.135,22.009,102.135,70.533C1484.96,1397.963,1444.336,1426.177,1372.67,1426.177z"/>
	<path fill="#333333" d="M604.715,587.69c0-10.155-5.644-19.753-14.671-24.831L350.799,425.182
		c-3.955-2.26-8.466-3.388-12.977-3.955h-2.26c-4.511,0-9.027,1.694-12.977,3.955L83.339,562.859
		c-9.032,5.077-14.671,14.671-14.671,24.831l0.566,370.151c0,5.077,2.822,10.155,7.333,12.415c4.516,2.822,10.155,2.822,14.109,0
		l142.193-81.254c9.027-5.077,14.671-14.671,14.671-24.826V690.948c0-10.155,5.639-19.748,14.671-24.826l60.373-34.986
		c4.516-2.822,9.593-3.955,14.671-3.955s10.155,1.133,14.109,3.955l60.373,34.986c9.032,5.077,14.671,14.666,14.671,24.826v173.229
		c0,10.155,5.644,19.748,14.671,24.826l142.193,81.254c4.516,2.822,10.155,2.822,14.671,0c4.516-2.26,7.338-7.338,7.338-12.415
		L604.715,587.69L604.715,587.69z M1754.675,78.163c-4.511-2.26-10.155-2.26-14.109,0c-4.511,2.822-7.333,7.333-7.333,12.41v366.773
		c0,3.383-1.689,6.767-5.078,9.027c-3.383,1.689-6.771,1.689-10.155,0l-59.811-34.419c-8.921-5.079-19.859-5.079-28.78,0
		l-239.246,138.243c-9.027,5.077-14.671,14.671-14.671,24.826v275.92c0,10.155,5.644,19.753,14.671,24.831l239.246,138.243
		c8.921,5.079,19.859,5.079,28.78,0l239.246-138.243c9.027-5.077,14.671-14.671,14.671-24.831V183.115
		c0-10.721-5.644-20.31-14.671-25.392l-142.755-79.56H1754.675z M1732.672,780.101c0,2.822-1.128,5.077-3.388,6.205l-81.815,47.396
		c-2.315,1.13-5.022,1.13-7.338,0l-81.815-47.396c-2.261-1.128-3.388-3.95-3.388-6.205v-94.797c0-2.822,1.128-5.077,3.388-6.205
		l81.815-47.401c2.315-1.13,5.022-1.13,7.338,0l81.815,47.401c2.26,1.123,3.388,3.95,3.388,6.205V780.101L1732.672,780.101z
		 M2550.844,683.048c9.032-5.077,14.11-14.671,14.11-24.831v-67.144c0-10.155-5.644-19.748-14.11-24.826L2313.293,428.57
		c-8.92-5.078-19.856-5.078-28.776,0l-239.245,138.239c-9.032,5.077-14.671,14.671-14.671,24.831v275.92
		c0,10.155,5.639,19.748,14.671,24.826l237.552,135.422c9.032,5.077,19.748,5.077,28.214,0l143.882-80.116
		c4.516-2.26,7.338-7.338,7.338-12.415c0-5.077-2.822-10.155-7.338-12.415l-240.373-138.243c-4.511-2.817-7.333-7.333-7.333-12.41
		v-86.331c0-5.077,2.822-10.155,7.333-12.415l75.049-42.885c4.483-2.821,10.188-2.821,14.671,0l75.044,42.885
		c4.516,2.822,7.338,7.333,7.338,12.415v67.711c0,5.077,2.822,10.155,7.333,12.411c4.516,2.822,10.155,2.822,14.671,0
		L2550.844,683.048L2550.844,683.048z"/>
	<path fill="#539E43" d="M2295.239,670.071c1.711-1.127,3.928-1.127,5.639,0l45.707,26.52c1.694,1.123,2.822,2.817,2.822,5.077
		v53.04c0,2.256-1.128,3.95-2.822,5.077l-45.707,26.52c-1.711,1.127-3.928,1.127-5.639,0l-45.707-26.52
		c-1.694-1.128-2.822-2.822-2.822-5.077v-53.04c0-2.26,1.128-3.955,2.822-5.077L2295.239,670.071z"/>
	<g transform="translate(134.068 70.501)">
		<g>
			
				<linearGradient id="a_4_" gradientUnits="userSpaceOnUse" x1="499.923" y1="1157.4244" x2="499.5193" y2="1156.7018" gradientTransform="matrix(532.1024 0 0 -606.2871 -265057.2188 702192.875)">
				<stop  offset="0" style="stop-color:#41873F"/>
				<stop  offset="0.3288" style="stop-color:#418B3D"/>
				<stop  offset="0.6352" style="stop-color:#419637"/>
				<stop  offset="0.9319" style="stop-color:#3FA92D"/>
				<stop  offset="1" style="stop-color:#3FAE2A"/>
			</linearGradient>
			<path id="a_1_" fill="url(#a_4_)" d="M870.707,359.197c-8.92-5.078-19.856-5.078-28.776,0L604.38,496.303
				c-9.032,5.077-14.109,14.671-14.109,24.826v274.798c0,10.155,5.644,19.748,14.109,24.826l237.552,137.116
				c8.92,5.078,19.856,5.078,28.775,0l237.556-137.116c9.027-5.077,14.109-14.671,14.109-24.826V521.134
				c0-10.155-5.649-19.748-14.109-24.826L870.707,359.197z"/>
		</g>
		<defs>
			<filter id="Adobe_OpacityMaskFilter" filterUnits="userSpaceOnUse" x="588.015" y="355.295" width="536.047" height="607.119">
				<feColorMatrix  type="matrix" values="1 0 0 0 0  0 1 0 0 0  0 0 1 0 0  0 0 0 1 0"/>
			</filter>
		</defs>
		<mask maskUnits="userSpaceOnUse" x="588.015" y="355.295" width="536.047" height="607.119" id="c_1_">
			<g filter="url(#Adobe_OpacityMaskFilter)">
				<path id="a_2_" fill="#FFFFFF" d="M870.707,359.197c-8.92-5.078-19.856-5.078-28.776,0L604.38,496.303
					c-9.032,5.077-14.109,14.671-14.109,24.826v274.798c0,10.155,5.644,19.748,14.109,24.826l237.552,137.116
					c8.92,5.078,19.856,5.078,28.775,0l237.556-137.116c9.027-5.077,14.109-14.671,14.109-24.826V521.134
					c0-10.155-5.649-19.748-14.109-24.826L870.707,359.197z"/>
			</g>
		</mask>
		<g mask="url(#c_1_)">
			<path fill="none" d="M841.365,359.197L603.252,496.303c-9.037,5.082-15.237,14.681-15.237,24.836v274.798
				c0,6.772,2.822,12.977,7.333,18.054l267.46-458.181c-6.772-1.128-14.671-0.566-21.442,3.383V359.197z M864.502,960.694
				c2.256-0.566,4.516-1.694,6.772-2.822l238.118-137.116c9.032-5.077,14.671-14.671,14.671-24.826V521.134
				c0-7.333-3.388-14.671-8.466-19.748l-251.09,459.309H864.502z"/>
			
				<linearGradient id="SVGID_1_" gradientUnits="userSpaceOnUse" x1="499.6486" y1="1157.0479" x2="500.8083" y2="1157.7826" gradientTransform="matrix(519.687 0 0 -606.0386 -258840.6562 701906.375)">
				<stop  offset="0.1376" style="stop-color:#41873F"/>
				<stop  offset="0.4032" style="stop-color:#54A044"/>
				<stop  offset="0.7136" style="stop-color:#66B848"/>
				<stop  offset="0.9081" style="stop-color:#6CC04A"/>
			</linearGradient>
			<path fill="url(#SVGID_1_)" d="M1108.825,496.308L870.145,359.197c-2.345-1.184-4.803-2.13-7.338-2.822l-267.46,458.181
				c2.216,2.705,4.891,4.997,7.904,6.772l238.679,137.116c6.772,3.95,14.671,5.077,22.004,2.817l251.099-459.304
				c-1.694-2.256-3.954-3.955-6.21-5.644V496.308z"/>
		</g>
		<defs>
			
				<filter id="Adobe_OpacityMaskFilter_1_" filterUnits="userSpaceOnUse" x="588.015" y="308.974" width="543.385" height="660.747">
				<feColorMatrix  type="matrix" values="1 0 0 0 0  0 1 0 0 0  0 0 1 0 0  0 0 0 1 0"/>
			</filter>
		</defs>
		<mask maskUnits="userSpaceOnUse" x="588.015" y="308.974" width="543.385" height="660.747" id="c_2_">
			<g filter="url(#Adobe_OpacityMaskFilter_1_)">
				<path id="a_3_" fill="#FFFFFF" d="M870.707,359.197c-8.92-5.078-19.856-5.078-28.776,0L604.38,496.303
					c-9.032,5.077-14.109,14.671-14.109,24.826v274.798c0,10.155,5.644,19.748,14.109,24.826l237.552,137.116
					c8.92,5.078,19.856,5.078,28.775,0l237.556-137.116c9.027-5.077,14.109-14.671,14.109-24.826V521.134
					c0-10.155-5.649-19.748-14.109-24.826L870.707,359.197z"/>
			</g>
		</mask>
		<g mask="url(#c_2_)">
			<path fill="none" d="M1124.062,795.931V521.134c0-10.155-6.205-19.748-15.232-24.826L870.135,359.197
				c-2.759-1.704-5.823-2.853-9.022-3.383l261.25,446.328c1.128-1.694,1.694-3.95,1.694-6.205L1124.062,795.931z M603.247,496.308
				c-9.022,5.077-15.232,14.676-15.232,24.831v274.798c0,10.155,6.772,19.748,15.232,24.826l238.684,137.116
				c5.644,3.383,11.849,4.516,18.621,3.383L604.941,495.741l-1.689,0.566H603.247z"/>
			
				<linearGradient id="SVGID_2_" gradientUnits="userSpaceOnUse" x1="330.4798" y1="1382.5447" x2="427.8968" y2="1382.5447" gradientTransform="matrix(4.5111 0 0 -1.6941 -859.296 2652.0061)">
				<stop  offset="0.0919" style="stop-color:#6CC04A"/>
				<stop  offset="0.2864" style="stop-color:#66B848"/>
				<stop  offset="0.5968" style="stop-color:#54A044"/>
				<stop  offset="0.8624" style="stop-color:#41873F"/>
			</linearGradient>
			<path fill="url(#SVGID_2_)" d="M834.032,308.974l-3.383,1.694h4.511L834.032,308.974z"/>
			
				<linearGradient id="SVGID_3_" gradientUnits="userSpaceOnUse" x1="499.1708" y1="1157.099" x2="500.2297" y2="1157.099" gradientTransform="matrix(519.1255 0 0 -606.527 -258550.7344 702470.25)">
				<stop  offset="0.0919" style="stop-color:#6CC04A"/>
				<stop  offset="0.2864" style="stop-color:#66B848"/>
				<stop  offset="0.5968" style="stop-color:#54A044"/>
				<stop  offset="0.8624" style="stop-color:#41873F"/>
			</linearGradient>
			<path fill="url(#SVGID_3_)" d="M1109.391,820.757c6.772-3.95,11.849-10.721,14.109-18.054L861.675,355.809
				c-6.772-1.128-14.109-0.566-20.31,3.383l-236.99,136.554l255.606,466.076c3.717-0.609,7.328-1.748,10.721-3.383l238.684-137.677
				L1109.391,820.757z"/>
			
				<linearGradient id="SVGID_4_" gradientUnits="userSpaceOnUse" x1="68.4806" y1="1253.4377" x2="165.8976" y2="1253.4377" gradientTransform="matrix(1.6941 0 0 -3.9497 849.1296 5766.0552)">
				<stop  offset="0.0919" style="stop-color:#6CC04A"/>
				<stop  offset="0.2864" style="stop-color:#66B848"/>
				<stop  offset="0.5968" style="stop-color:#54A044"/>
				<stop  offset="0.8624" style="stop-color:#41873F"/>
			</linearGradient>
			<path fill="url(#SVGID_4_)" d="M1131.4,816.246l-1.694-2.822v3.95l1.689-1.128L1131.4,816.246z"/>
			
				<linearGradient id="SVGID_5_" gradientUnits="userSpaceOnUse" x1="497.1573" y1="1158.7529" x2="499.2039" y2="1158.7529" gradientTransform="matrix(268.5875 0 0 -167.5852 -132948.625 195075.75)">
				<stop  offset="0.0919" style="stop-color:#6CC04A"/>
				<stop  offset="0.2864" style="stop-color:#66B848"/>
				<stop  offset="0.5968" style="stop-color:#54A044"/>
				<stop  offset="0.8624" style="stop-color:#41873F"/>
			</linearGradient>
			<path fill="url(#SVGID_5_)" d="M1109.391,820.757L871.273,957.873c-3.362,1.714-6.985,2.857-10.721,3.383l4.516,8.466
				l264.071-152.909v-3.388l-6.772-11.288C1121.24,810.036,1116.162,816.807,1109.391,820.757L1109.391,820.757z"/>
			
				<linearGradient id="SVGID_6_" gradientUnits="userSpaceOnUse" x1="499.5002" y1="1161.3641" x2="498.238" y2="1157.2374" gradientTransform="matrix(268.5875 0 0 -167.5852 -132948.625 195075.75)">
				<stop  offset="0" style="stop-color:#41873F"/>
				<stop  offset="0.3288" style="stop-color:#418B3D"/>
				<stop  offset="0.6352" style="stop-color:#419637"/>
				<stop  offset="0.9319" style="stop-color:#3FA92D"/>
				<stop  offset="1" style="stop-color:#3FAE2A"/>
			</linearGradient>
			<path fill="url(#SVGID_6_)" d="M1109.391,820.757L871.273,957.873c-3.362,1.714-6.985,2.857-10.721,3.383l4.516,8.466
				l264.071-152.909v-3.388l-6.772-11.288C1121.24,810.036,1116.162,816.807,1109.391,820.757L1109.391,820.757z"/>
		</g>
	</g>
</g>
</svg>
