<?xml version="1.0" encoding="utf-8"?>
<!-- Generator: Adobe Illustrator 22.1.0, SVG Export Plug-In . SVG Version: 6.00 Build 0)  -->
<svg version="1.1" id="Layer_1" xmlns="http://www.w3.org/2000/svg" xmlns:xlink="http://www.w3.org/1999/xlink" x="0px" y="0px"
	 viewBox="0 0 2721.135 2618.629" enable-background="new 0 0 2721.135 2618.629" xml:space="preserve">
<g>
	<path fill="#161614" d="M1360.531,71.381c-687.598,0-1245.166,557.471-1245.166,1245.166
		c0,550.156,356.777,1016.895,851.523,1181.543c62.227,11.523,85.078-27.012,85.078-59.902c0-29.688-1.162-127.783-1.689-231.826
		c-346.416,75.322-419.512-146.914-419.512-146.914c-56.641-143.926-138.252-182.188-138.252-182.188
		c-112.969-77.285,8.516-75.703,8.516-75.703c125.039,8.789,190.879,128.32,190.879,128.32
		c111.055,190.361,291.289,135.322,362.344,103.516c11.172-80.488,43.447-135.41,79.053-166.504
		C856.742,1835.394,566,1728.627,566,1251.517c0-135.937,48.643-247.021,128.301-334.219
		c-12.93-31.367-55.547-158.008,12.061-329.521c0,0,104.56-33.467,342.51,127.637c99.316-27.598,205.84-41.426,311.66-41.895
		c105.82,0.469,212.422,14.297,311.934,41.895c237.666-161.104,342.08-127.637,342.08-127.637
		c67.773,171.514,25.137,298.154,12.207,329.522c79.834,87.197,128.145,198.271,128.145,334.219
		c0,478.242-291.289,583.555-568.555,614.375c44.658,38.643,84.453,114.424,84.453,230.586c0,166.602-1.445,300.693-1.445,341.709
		c0,33.135,22.412,71.963,85.537,59.736c494.473-164.834,850.801-631.406,850.801-1181.377
		C2605.688,628.852,2048.197,71.381,1360.531,71.381"/>
	<path fill="#161614" d="M581.723,1845.151c-2.734,6.182-12.48,8.037-21.338,3.799c-9.033-4.062-14.111-12.5-11.182-18.711
		c2.686-6.367,12.432-8.145,21.445-3.867C579.701,1830.424,584.858,1838.94,581.723,1845.151 M642.973,1899.799
		c-5.938,5.508-17.549,2.949-25.43-5.752c-8.145-8.682-9.668-20.283-3.643-25.879c6.123-5.498,17.383-2.93,25.547,5.762
		c8.145,8.779,9.727,20.312,3.516,25.879 M684.994,1969.721c-7.637,5.303-20.117,0.332-27.822-10.742
		c-7.627-11.064-7.627-24.346,0.166-29.668c7.734-5.322,20.02-0.537,27.832,10.449c7.617,11.26,7.617,24.541-0.186,29.971
		 M756.049,2050.707c-6.826,7.52-21.357,5.508-32.002-4.766c-10.879-10.039-13.916-24.287-7.07-31.816
		c6.904-7.539,21.523-5.42,32.246,4.766c10.811,10.02,14.111,24.375,6.836,31.816 M847.885,2078.051
		c-2.998,9.746-17.002,14.18-31.104,10.039c-14.082-4.268-23.301-15.693-20.459-25.547c2.93-9.814,16.992-14.433,31.201-10
		c14.062,4.248,23.301,15.586,20.371,25.508 M952.416,2089.643c0.352,10.273-11.611,18.789-26.416,18.975
		c-14.893,0.322-26.934-7.988-27.09-18.086c0-10.371,11.689-18.809,26.572-19.053
		C940.287,2071.186,952.416,2079.438,952.416,2089.643 M1055.092,2085.707c1.777,10.02-8.516,20.312-23.213,23.047
		c-14.453,2.637-27.832-3.545-29.678-13.477c-1.797-10.273,8.691-20.557,23.115-23.223
		C1040.043,2069.496,1053.217,2075.521,1055.092,2085.707"/>
</g>
</svg>
