<?xml version="1.0" encoding="utf-8"?>
<!-- Generator: Adobe Illustrator 22.1.0, SVG Export Plug-In . SVG Version: 6.00 Build 0)  -->
<svg version="1.1" id="Layer_1" xmlns="http://www.w3.org/2000/svg" xmlns:xlink="http://www.w3.org/1999/xlink" x="0px" y="0px"
	 viewBox="0 0 192.1 115.7" style="enable-background:new 0 0 192.1 115.7;" xml:space="preserve">
<style type="text/css">
	.st0{fill-rule:evenodd;clip-rule:evenodd;fill:#006189;}
	.st1{fill-rule:evenodd;clip-rule:evenodd;fill:#E38F00;}
</style>
<g>
	<path class="st0" d="M8.2,93.2H14v-23l9.1,20c1,2.4,2.5,3.3,5.4,3.3c2.9,0,4.2-0.9,5.3-3.3l9-20v23h5.8v-23c0-2.2-0.9-3.3-2.8-3.9
		c-4.4-1.3-7.4-0.2-8.7,2.8L28.3,89l-8.6-19.8c-1.3-3-4.3-4.1-8.7-2.8c-1.8,0.6-2.7,1.7-2.7,3.9V93.2L8.2,93.2z"/>
	<path class="st0" d="M53.4,74.5h5.8v12.6c0,0.7,0.2,2.3,3.4,2.4c1.7,0,12.6,0,12.7,0V74.4h5.8c0,0,0,20.6,0,20.7
		c0,5.1-6.3,6.2-9.2,6.2H53.6v-3.9c0,0,18.4,0,18.4,0c3.7-0.4,3.3-2.3,3.3-2.9V93H62.9c-5.8,0-9.5-2.6-9.5-5.5
		C53.4,87.3,53.6,74.6,53.4,74.5L53.4,74.5z"/>
	<path class="st0" d="M178.8,59.9c-3.6-0.1-6.3,0.3-8.7,1.2c-0.7,0.3-1.7,0.3-1.8,1.1c0.4,0.4,0.4,0.9,0.7,1.4
		c0.5,0.9,1.5,2.1,2.3,2.7c0.9,0.7,1.9,1.4,2.9,2.1c1.7,1.1,3.7,1.7,5.4,2.8c1,0.6,2,1.4,2.9,2.1c0.5,0.4,0.8,0.9,1.4,1.2
		c0,0,0-0.1,0-0.1c-0.3-0.4-0.4-1-0.7-1.4c-0.4-0.4-0.9-0.8-1.3-1.3c-1.3-1.7-2.9-3.3-4.6-4.5c-1.4-1-4.6-2.3-5.1-4c0,0,0,0-0.1-0.1
		c1-0.1,2.1-0.4,3.1-0.7c1.5-0.4,2.9-0.3,4.5-0.7c0.7-0.2,1.4-0.4,2.1-0.6c0-0.1,0-0.3,0-0.4c-0.8-0.8-1.4-1.9-2.2-2.6
		c-2.3-2-4.8-3.9-7.4-5.5c-1.4-0.9-3.2-1.5-4.6-2.2c-0.5-0.3-1.4-0.4-1.7-0.8c-0.8-1-1.2-2.3-1.8-3.4c-1.3-2.5-2.5-5.2-3.7-7.8
		c-0.8-1.7-1.3-3.5-2.3-5.1c-4.6-7.6-9.6-12.2-17.3-16.7c-1.7-0.9-3.6-1.3-5.7-1.8c-1.1,0-2.2-0.1-3.3-0.2c-0.7-0.3-1.4-1.2-2.1-1.6
		c-2.5-1.6-9.1-5.1-11-0.5c-1.2,2.9,1.8,5.8,2.8,7.2c0.8,1,1.7,2.2,2.3,3.3c0.3,0.8,0.4,1.6,0.7,2.4c0.7,2,1.4,4.1,2.3,6
		c0.5,0.9,1,1.9,1.7,2.8c0.4,0.5,1,0.7,1.1,1.5c-0.6,0.9-0.7,2.2-1,3.3c-1.6,5-1,11.3,1.3,15c0.7,1.1,2.4,3.6,4.7,2.6
		c2-0.8,1.6-3.3,2.1-5.6c0.1-0.5,0-0.9,0.3-1.2c0,0,0,0.1,0,0.1c0.6,1.2,1.2,2.5,1.8,3.7c1.4,2.2,3.8,4.5,5.8,6
		c1.1,0.8,1.9,2.2,3.3,2.7c0,0,0-0.1,0-0.1c0,0,0,0-0.1,0c-0.3-0.4-0.7-0.6-1-0.9c-0.8-0.8-1.7-1.8-2.3-2.7c-1.9-2.5-3.5-5.3-5-8.1
		c-0.7-1.4-1.3-2.9-1.9-4.3c-0.3-0.5-0.3-1.3-0.7-1.6c-0.7,1-1.7,1.8-2.1,3c-0.8,1.9-0.9,4.3-1.2,6.7c-0.2,0-0.1,0-0.2,0.1
		c-1.4-0.4-1.9-1.8-2.5-3.1c-1.3-3.2-1.6-8.3-0.4-11.9c0.3-0.9,1.7-3.9,1.1-4.8c-0.3-0.8-1.2-1.3-1.7-2c-0.6-0.8-1.2-1.9-1.6-2.9
		c-1.1-2.5-1.6-5.3-2.8-7.8c-0.5-1.2-1.5-2.4-2.2-3.4c-0.8-1.2-1.8-2.1-2.5-3.5c-0.2-0.5-0.5-1.3-0.2-1.8c0.1-0.4,0.3-0.5,0.6-0.6
		c0.6-0.5,2.2,0.1,2.8,0.4c1.7,0.7,3,1.3,4.4,2.2c0.6,0.4,1.3,1.3,2.1,1.5c0.3,0,0.6,0,0.9,0c1.4,0.3,3,0.1,4.4,0.5
		c2.4,0.8,4.5,1.9,6.4,3.1c5.8,3.7,10.7,9,13.9,15.3c0.5,1,0.8,2,1.2,3c0.9,2.2,2.1,4.4,3,6.6c0.9,2.1,1.8,4.2,3.2,6
		c0.7,0.9,3.3,1.4,4.6,1.9c0.9,0.4,2.3,0.8,3.1,1.2c1.5,0.9,3,2,4.5,3C176.4,57.9,178.7,59,178.8,59.9L178.8,59.9z"/>
	<path class="st0" d="M133.3,21.1c-0.8,0-1.3,0.1-1.8,0.2c0,0,0,0,0,0.1c0,0,0,0,0.1,0c0.4,0.7,1,1.2,1.4,1.8c0.4,0.7,0.7,1.4,1,2.1
		c0,0,0.1-0.1,0.1-0.1c0.6-0.4,0.9-1.2,0.9-2.2c-0.3-0.3-0.3-0.6-0.5-0.9C134.2,21.7,133.6,21.5,133.3,21.1L133.3,21.1z"/>
	<path class="st1" d="M85.6,93.2h16.8c2,0,3.8-0.4,5.4-1.1c2.5-1.2,3.7-2.7,3.7-4.8V83c0-1.7-1.4-3.2-4.1-4.3
		c-1.4-0.5-3.2-0.8-5-0.8h-7c-2.4,0-3.5-0.7-3.8-2.3c0-0.2,0-0.4,0-0.5v-2.6c0-0.1,0-0.3,0-0.5c0.3-1.2,0.9-1.5,3-1.7
		c0.2,0,0.4,0,0.5,0h16.6v-3.9H95.4c-2.4,0-3.6,0.1-4.7,0.5c-3.4,1.1-5,2.8-5,5.8V76c0,2.6,2.9,4.9,7.9,5.4c0.5,0,1.1,0,1.7,0h6
		c0.2,0,0.4,0,0.6,0c1.8,0.2,2.6,0.5,3.2,1.2c0.4,0.4,0.4,0.7,0.4,1.1v3.4c0,0.4-0.3,0.9-0.8,1.4s-1.4,0.8-2.5,0.8
		c-0.2,0-0.4,0-0.6,0H85.6V93.2L85.6,93.2z"/>
	<path class="st1" d="M147.8,86.5c0,4,3,6.2,9,6.6c0.6,0,1.1,0.1,1.7,0.1h15.2v-3.9h-15.3c-3.4,0-4.7-0.8-4.7-2.9V66.4h-5.8V86.5
		L147.8,86.5z"/>
	<path class="st1" d="M115.2,86.7V72.8c0-3.5,2.5-5.7,7.4-6.3c0.5,0,1.1-0.1,1.6-0.1h11.1c0.6,0,1.1,0,1.7,0.1
		c4.9,0.7,7.3,2.8,7.3,6.3v13.8c0,2.9-1,4.4-3.4,5.4l5.7,5.2h-6.7l-4.6-4.2l-4.7,0.3h-6.2c-1,0-2.2-0.1-3.4-0.4
		C117,91.8,115.2,89.9,115.2,86.7L115.2,86.7z M121.5,86.3c0,0.2,0.1,0.4,0.1,0.6c0.3,1.6,1.8,2.5,4.1,2.5h5.3l-4.8-4.4h6.7l4.2,3.8
		c0.8-0.4,1.3-1.1,1.5-1.9c0-0.2,0-0.4,0-0.6V73.2c0-0.2,0-0.4,0-0.5c-0.3-1.5-1.8-2.4-4.1-2.4h-8.8c-2.6,0-4.3,1.1-4.3,2.9V86.3
		L121.5,86.3z"/>
	<path class="st1" d="M176.3,93.3h0.8V90h1.1v-0.7h-3.1V90h1.2V93.3L176.3,93.3z M182.8,93.3h0.8v-3.9h-1.2l-1,2.7l-1.1-2.7h-1.2
		v3.9h0.8v-3h0l1.1,3h0.6l1.1-3l0,0V93.3L182.8,93.3z"/>
</g>
</svg>
