<?xml version="1.0" encoding="utf-8"?>
<!-- Generator: Adobe Illustrator 22.1.0, SVG Export Plug-In . SVG Version: 6.00 Build 0)  -->
<svg version="1.1" xmlns="http://www.w3.org/2000/svg" xmlns:xlink="http://www.w3.org/1999/xlink" x="0px" y="0px"
	 viewBox="0 0 253 255" style="enable-background:new 0 0 253 255;" xml:space="preserve">
<style type="text/css">
	.st0{display:none;opacity:0.14;}
	.st1{display:inline;}
	.st2{opacity:0.65;fill:none;stroke:#2E3192;stroke-miterlimit:10;}
	.st3{fill:none;stroke:#2E3192;stroke-miterlimit:10;}
	.st4{opacity:0.69;fill:none;stroke:#2E3192;stroke-miterlimit:10;}
	.st5{opacity:0.71;fill:none;stroke:#2E3192;stroke-miterlimit:10;}
	.st6{opacity:0.76;fill:none;stroke:#2E3192;stroke-miterlimit:10;}
	.st7{opacity:0.46;}
	.st8{opacity:0.75;}
	.st9{enable-background:new    ;}
	.st10{opacity:0.4;fill:#0071BC;}
	.st11{opacity:0.2;fill:#0071BC;}
	.st12{opacity:5.882400e-02;fill:#0071BC;}
	.st13{opacity:0.1216;fill:#0071BC;}
	.st14{opacity:0.2824;fill:#0071BC;}
	.st15{opacity:0.39;}
	.st16{opacity:0.4;}
	.st17{fill:#0071BC;}
	.st18{opacity:0.2;}
	.st19{opacity:5.882400e-02;}
	.st20{opacity:0.1216;}
	.st21{opacity:0.2824;}
	.st22{opacity:0.7;}
</style>
<g id="Layer_1" class="st0">
	<g class="st1">
		<polygon class="st2" points="-6.5,158.6 -20.1,182.3 -6.4,206 21,206 34.7,182.3 21.1,158.6 		"/>
		<polygon class="st3" points="41.4,177.6 68.7,177.6 82.4,153.9 82.6,153.9 68.8,130.2 41.4,130.2 27.7,153.9 		"/>
		<polygon class="st3" points="132.8,71.9 119.1,95.7 119,95.7 132.7,119.4 159.8,119.4 173.7,95.4 160.1,71.9 		"/>
		<polygon class="st4" points="114.7,149.4 128.4,125.7 114.7,101.9 87.3,101.9 73.6,125.7 87.3,149.4 		"/>
		<polygon class="st5" points="109.9,96.3 123.6,72.6 109.9,48.8 82.4,48.8 68.7,72.6 82.4,96.3 		"/>
		<polygon class="st3" points="164.2,174.8 177.9,151 164.2,127.3 136.8,127.3 123.1,151 136.8,174.8 		"/>
		<polygon class="st6" points="-6,151.1 21.5,151.1 35.2,127.5 21.5,103.7 -5.3,103.7 -19.3,128.1 		"/>
		<polygon class="st3" points="180.5,96.6 166.9,120.2 180.6,144 208,144 221.7,120.2 208,96.6 		"/>
		<polygon class="st3" points="180.1,91.4 207.6,91.4 221.3,67.7 207.5,44 180.8,44 166.8,68.3 		"/>
		<polygon class="st3" points="226.7,117.2 254.2,117.2 267.9,93.5 254.2,69.8 227.4,69.8 213.4,94.1 		"/>
	</g>
</g>
<g id="Layer_2">
	<g id="XMLID_1015_" class="st7">
		<g id="XMLID_1508_" class="st8">
			<g id="XMLID_1511_" class="st9">
				<g id="XMLID_1526_" class="st9">
					<g id="XMLID_1529_">
						<path id="XMLID_1632_" class="st10" d="M111.6,198c0.5,0.1,2,0.3,2.9,0.3c0-0.2,0.1-0.4,0.3-0.6c-0.3-0.1-0.3-0.1-2.8-0.7
							c-6.2-1.5-12.1-3.6-17.6-6.4c-1.7-0.8-2.3-1-2.7-1c-0.7,0.7-0.9,1.5-0.9,2.2c0.2,0.2,0.5,0.6,2.7,1.4
							C99.2,195.4,105.3,197,111.6,198"/>
						<path id="XMLID_1623_" class="st11" d="M112.2,196.7c0.5,0.1,2,0.5,2.8,0.6c0.3-0.2,0.7-0.4,1.1-0.6c-0.1-0.1-0.2-0.2-2.2-1
							c-5.2-2-10.1-4.8-14.8-8.1c-1.4-1-2.3-1.4-2.8-1.3c-1.4,0.6-2.6,1.2-3.5,1.9c0,0.2,0.1,0.6,2.1,1.7
							C100.4,192.9,106.2,195.1,112.2,196.7"/>
						<path id="XMLID_1615_" class="st10" d="M114.4,195.6c0.4,0.2,1.6,0.7,2.4,0.8c0.6-0.1,1.2-0.3,1.8-0.4c0-0.1,0-0.2-1.3-1.1
							c-3.4-2.5-6.7-5.6-9.8-9.3c-1-1.1-1.7-1.6-2.5-1.6c-2.2,0.4-4.2,0.9-6,1.4c-0.4,0.3,0,0.9,1.2,1.8
							C104.8,190.7,109.5,193.5,114.4,195.6"/>
						<path id="XMLID_1607_" class="st12" d="M122.7,194.4c0.2,0.5,0.4,1.1,0.7,1.2c0.8,0,1.5,0,2.3,0.1c0.2-0.1,0.6-0.5,0.9-1.2
							c1.2-2.7,2.4-6,3.5-9.9c0.3-1.1,0-1.7-0.7-1.9c-2.6-0.1-5.2-0.2-7.9-0.2c-0.7,0.1-1,0.7-0.9,1.9
							C121.3,188.4,122,191.7,122.7,194.4"/>
						<path id="XMLID_1606_" class="st10" d="M84.7,189c0.5,0.3,1.8,1,2.4,1c0-0.9,0.3-1.7,0.9-2.4c0-0.3-0.6-0.9-2.1-1.9
							c-5.2-3.4-10-7.4-14.2-11.8c-1.3-1.2-2-1.7-2.4-1.5c-0.9,1.2-1.4,2.4-1.3,3.6c0.2,0.5,0.9,1.3,2.1,2.5
							C74.5,182.4,79.4,186,84.7,189"/>
						<path id="XMLID_1601_" class="st10" d="M86.6,184.9c1.4,0.9,2.4,1.3,2.8,1.2c1-0.7,2.3-1.4,3.9-2.1c0.3-0.3-0.1-0.9-1.3-2
							c-4.3-3.9-8.3-8.3-11.9-13.2c-1.1-1.4-2-1.9-2.8-1.8c-2.4,1-4.4,2.1-5.9,3.2c-0.3,0.5,0.1,1.3,1.2,2.6
							C76.9,177.4,81.5,181.4,86.6,184.9"/>
						<path id="XMLID_1600_" class="st13" d="M93.6,181.5c1.2,1.1,2.1,1.6,2.8,1.5c1.9-0.6,4.2-1.1,6.6-1.6c0.6-0.2,0.6-0.9-0.2-2.1
							c-2.9-4.3-5.5-9-7.9-14.2c-0.8-1.4-1.7-2.1-2.8-2.1c-3.8,0.7-7.1,1.5-10.1,2.4c-0.7,0.4-0.7,1.3,0.2,2.7
							C85.7,173,89.5,177.5,93.6,181.5"/>
						<path id="XMLID_1595_" class="st10" d="M105.2,178.9c0.8,1.2,1.6,1.8,2.4,1.8c0.1,0,0.3,0,0.4-0.1c2.7-0.3,5.4-0.6,8.2-0.7
							c0.8-0.2,1.1-0.8,0.9-2.1c-0.9-4.5-1.8-9.4-2.5-14.7c-0.3-1.5-1.1-2.3-2.4-2.4c-4.2,0.2-8.4,0.6-12.4,1.1
							c-0.2,0-0.4,0.1-0.6,0.1c-1.1,0.3-1.4,1.2-1,2.7C100.3,169.8,102.6,174.6,105.2,178.9"/>
						<path id="XMLID_1587_" class="st13" d="M63.5,171.6c0.7,0.8,1.2,1.3,1.6,1.5c0,0,0.1-0.1,0.1-0.1c-0.1-1.3,0.4-2.6,1.3-3.8
							c0.2-0.5-0.2-1.4-1.3-2.8c-3.8-4.9-7-10.2-9.6-15.8c-0.8-1.6-1.3-2.2-1.7-1.9c-1.2,1.5-1.8,3.1-1.6,4.7
							c0.1,0.6,0.5,1.7,1.3,3.2C56.3,162.1,59.6,167.1,63.5,171.6"/>
						<path id="XMLID_1584_" class="st14" d="M66.4,165.4c1.1,1.3,1.9,1.9,2.4,1.7c1.6-1.2,3.7-2.3,6.2-3.4c0.6-0.4,0.5-1.3-0.3-2.9
							c-3.1-5.2-5.8-10.8-8-16.7c-0.7-1.6-1.5-2.3-2.4-2.1c-3.1,1.3-5.7,2.7-7.6,4.1c-0.5,0.6-0.4,1.6,0.3,3.3
							C59.6,155.1,62.7,160.5,66.4,165.4"/>
						<path id="XMLID_1579_" class="st12" d="M77.2,160.1c0.9,1.4,1.8,2.1,2.8,2c3.1-0.9,6.6-1.8,10.6-2.5c1.1-0.4,1.3-1.3,0.9-2.8
							c-2.1-5.5-3.8-11.4-5.3-17.4c-0.5-1.7-1.5-2.5-2.9-2.4c-4.8,0.9-9.2,1.9-12.9,3c-1,0.5-1.3,1.6-0.8,3.3
							C71.7,149.1,74.2,154.8,77.2,160.1"/>
						<path id="XMLID_1576_" class="st10" d="M95.1,156.2c0.6,1.5,1.6,2.3,2.9,2.3c0.2,0,0.5-0.1,0.7-0.1c4.2-0.5,8.6-0.9,13-1.1
							c1.3-0.2,1.9-1.1,1.8-2.7c-0.7-5.7-1.2-11.6-1.6-17.7c-0.3-1.7-1.2-2.6-2.8-2.7c-5.4,0.3-10.7,0.7-15.9,1.3
							c-0.3,0-0.6,0.1-0.8,0.1c-1.5,0.4-2.1,1.4-1.9,3.1C91.7,144.8,93.2,150.6,95.1,156.2"/>
						<path id="XMLID_1575_" class="st14" d="M117.5,154.5c0.2,1.6,1,2.4,2.3,2.6c4.7,0,9.3,0.1,13.9,0.3c1.3-0.1,2.1-0.9,2.5-2.4
							c0.8-5.6,1.5-11.6,2.1-17.7c0-1.7-0.7-2.7-2.3-3c-5.6-0.3-11.3-0.5-17-0.4c-1.6,0.2-2.4,1.1-2.5,2.9
							C116.8,142.8,117.1,148.8,117.5,154.5"/>
						<path id="XMLID_1571_" class="st10" d="M53.5,140.4c0.6,1.6,1.2,2.3,1.8,2c2-1.5,4.6-2.9,7.8-4.2c0.8-0.5,1.1-1.6,0.7-3.4
							c-1.6-6.1-2.6-12.4-3-18.7c-0.2-1.8-0.8-2.5-1.7-2.3c-3.4,1.4-6.2,2.9-8.3,4.5c-0.6,0.6-0.8,1.8-0.8,3.6
							C50.4,128.3,51.7,134.4,53.5,140.4"/>
						<path id="XMLID_1567_" class="st10" d="M66.8,133.8c0.5,1.7,1.3,2.4,2.5,2.2c3.9-1.2,8.3-2.2,13.2-3.1c1.4-0.4,2-1.5,1.8-3.2
							c-1-6.2-1.7-12.6-1.9-19c-0.2-1.8-1-2.6-2.5-2.5c-5.3,1-10,2.1-14.1,3.3c-1.2,0.5-1.7,1.7-1.7,3.5
							C64.3,121.4,65.3,127.7,66.8,133.8"/>
						<path id="XMLID_1566_" class="st13" d="M88.7,129c0.4,1.7,1.4,2.5,3,2.5c0.3,0,0.6-0.1,0.8-0.1c5.3-0.6,10.8-1.1,16.3-1.4
							c1.6-0.3,2.4-1.2,2.5-3c-0.3-6.3-0.5-12.7-0.5-19.1c-0.2-1.8-1.1-2.7-2.9-2.8c-5.9,0.3-11.7,0.8-17.4,1.5
							c-0.3,0-0.6,0.1-0.9,0.1c-1.7,0.4-2.5,1.5-2.6,3.3C87.2,116.4,87.8,122.8,88.7,129"/>
						<path id="XMLID_1562_" class="st12" d="M116.2,126.9c0.2,1.8,1.1,2.7,2.8,2.8c5.8-0.1,11.7,0.1,17.4,0.4
							c1.6-0.1,2.5-1,2.8-2.7c0.5-6.3,0.8-12.7,1-19.1c-0.1-1.8-1-2.8-2.7-3.1c-6.1-0.3-12.3-0.5-18.6-0.4c-1.8,0.2-2.7,1.2-2.9,3
							C116,114.2,116,120.6,116.2,126.9"/>
						<path id="XMLID_1559_" class="st10" d="M143.9,127.8c0,1.8,0.7,2.8,2.3,3.1c5.5,0.5,10.8,1.2,15.8,2.1
							c1.4,0.1,2.4-0.7,2.8-2.4c1.2-6.2,2-12.5,2.4-18.9c0-1.8-0.8-2.9-2.3-3.4c-5.4-0.9-11-1.7-16.9-2.3c-1.7,0-2.6,0.9-2.8,2.7
							C144.9,115.1,144.5,121.5,143.9,127.8"/>
						<path id="XMLID_1558_" class="st10" d="M47.7,117c0.4-0.6,0.6-1.8,0.8-3.7c0.4-6.3,1.5-12.3,3.3-18c0.5-1.7,0.4-1.8,0.4-2
							c-0.7,0.9-1.2,1.6-1.4,2.4l0,0.1c-2.5,7.8-2.6,8.1-3.5,12.7c-1.2,8.4-1.2,8.5-1.3,13.1C45.9,120,46.5,118.5,47.7,117"/>
						<path id="XMLID_1554_" class="st11" d="M49.9,112c0,1.7,0.2,2.4,0.8,2.2c2.1-1.6,4.9-3.1,8.3-4.5c1-0.6,1.5-1.7,1.7-3.5
							c0.3-6.3,1.3-12.2,2.8-17.7c0.3-1.5,0.1-2.1-0.8-1.9c-3.2,1.3-5.9,2.8-7.9,4.3c-0.6,0.6-1.2,1.7-1.7,3.3
							C51.3,99.7,50.2,105.7,49.9,112"/>
						<path id="XMLID_1549_" class="st10" d="M87,100c0.1,1.7,1,2.6,2.6,2.5c0.3,0,0.6-0.1,0.9-0.1c5.7-0.7,11.5-1.2,17.4-1.5
							c1.7-0.3,2.7-1.3,2.9-3c0.1-6.2,0.4-12.1,0.8-17.4c-0.1-1.5-0.9-2.2-2.5-2.3c-5.6,0.3-11.2,0.7-16.5,1.4
							c-0.3,0-0.6,0.1-0.9,0.1c-1.6,0.4-2.6,1.2-3,2.8C87.8,87.9,87.2,93.7,87,100"/>
						<path id="XMLID_1548_" class="st11" d="M145.4,98.7c0.2,1.8,1,2.8,2.7,3.2c5.9,0.6,11.6,1.3,17,2.3c1.5,0.1,2.3-0.7,2.4-2.5
							c-0.1-6.3-0.5-12.1-1.4-17.6c-0.4-1.5-1.3-2.5-2.7-2.9c-5.1-0.9-10.5-1.6-16.1-2.1c-1.6,0-2.4,0.7-2.4,2.2
							C145.2,86.6,145.4,92.5,145.4,98.7"/>
						<path id="XMLID_1543_" class="st10" d="M171.8,102.5c0.2,1.8,0.9,2.9,2.3,3.4c4.9,1.1,9.4,2.4,13.4,3.9
							c1.1,0.2,1.7-0.5,1.8-2.2c-0.1-6.3-0.9-12.2-2.3-17.8c-0.5-1.6-1.3-2.6-2.4-3.2c-3.8-1.4-8-2.6-12.7-3.7
							c-1.3-0.2-1.8,0.5-1.7,2C171.1,90.3,171.7,96.2,171.8,102.5"/>
						<path id="XMLID_1542_" class="st10" d="M192.2,108.8c0.1,1.8,0.6,3,1.6,3.6c1,0.5,1.9,1,2.8,1.5c2,1.2,3.7,2.4,4.9,3.6
							c0.5,0.3,0.7-0.4,0.7-2.1c-0.2-6.3-1.1-12.4-2.8-18.1c-0.5-1.6-1-2.8-1.5-3.4c-1.2-1.2-2.7-2.3-4.7-3.4
							c-0.8-0.5-1.7-1-2.7-1.4c-0.8-0.3-1.1,0.3-0.8,1.8C191.3,96.5,192.1,102.5,192.2,108.8"/>
						<path id="XMLID_1538_" class="st10" d="M168.3,76.7c0.5,1.4,1.4,2.4,2.7,2.8c4.6,1,8.8,2.3,12.5,3.6c1,0.2,1.3-0.3,0.8-1.8
							c-1.9-5.1-4.4-9.8-7.4-14c-0.9-1.2-1.8-2-2.8-2.4c-3.1-1.1-6.6-2.1-10.4-3c-1-0.1-1.3,0.3-0.8,1.4
							C165.1,67.3,166.9,71.7,168.3,76.7"/>
						<path id="XMLID_1537_" class="st13" d="M187.1,82.5c0.7,1.5,1.4,2.5,2.3,3.1c0.9,0.5,1.8,0.9,2.6,1.4c1.9,1.1,3.4,2.2,4.6,3.4
							c0,0,0.1,0.1,0.1,0.1c0,0,0.1-0.1,0.1-0.1c0-0.4-0.2-0.8-0.6-1.7c-2.4-5.4-5.4-10.4-8.9-14.9c-1-1.2-1.7-2.1-2.3-2.7
							c-1-0.9-2.2-1.9-3.8-2.8c-0.7-0.4-1.4-0.8-2.2-1.2c-0.1,0-0.2-0.1-0.3-0.1c-0.1,0.3-0.1,0.4,0.6,1.4
							C182.5,72.6,185.1,77.3,187.1,82.5"/>
						<path id="XMLID_1530_" class="st10" d="M174.2,62.1c1.1,1.1,2,1.8,2.8,2.3c0.7,0.4,1.4,0.7,2.1,1.1c1.5,0.9,2.7,1.8,3.7,2.7
							c0,0,0.1,0.1,0.1,0.1c0,0,0,0,0,0l-3-3c-5.3-4.7-7.7-6.8-14.6-10.9l-3.9-2.2l-0.2-0.1c0,0-0.1,0-0.1-0.1
							c0.2,0.1,0.2,0.1,1.4,0.8C166.6,55.3,170.6,58.5,174.2,62.1"/>
					</g>
				</g>
				<g id="XMLID_1512_" class="st9">
					<g id="XMLID_1521_">
						<path id="XMLID_1525_" class="st10" d="M46.1,120c-0.1,1.4-0.1,1.9-0.2,2.2c0-0.3-0.1-0.4,0-0.6c0.5-8.7,0.5-8.7,1.3-13.1
							c1.8-8.1,1.9-8.3,3.5-12.7l0-0.1c-0.3,0.8-0.4,1.7-0.4,2.5c0,0.6-0.3,1.7-0.8,3.4C47.6,107.5,46.5,113.7,46.1,120"/>
						<path id="XMLID_1522_" class="st10" d="M165.2,54.4c5.8,3.6,8.6,5.5,14.6,10.9l3,3c-0.3-0.3-0.6-0.6-1.3-1.3
							c-4.1-4-8.7-7.6-13.7-10.5c-2.2-1.3-4.2-3-6.4-4.2L165.2,54.4"/>
					</g>
				</g>
			</g>
		</g>
		<g id="XMLID_1471_" class="st15">
			<g id="XMLID_1397_" class="st9">
				<g id="XMLID_1475_" class="st9">
					<g id="XMLID_1407_">
						<path id="XMLID_1507_" class="st10" d="M139,228c-0.7,0.1-2.9,0.3-4,0.3c-0.1-0.3-0.2-0.6-0.4-0.9c0.4-0.1,0.5-0.2,3.9-0.9
							c8.7-1.8,17.1-4.7,25-8.4c2.4-1.1,3.2-1.3,3.8-1.4c0.9,1.1,1.2,2.1,1.1,3.1c-0.3,0.3-0.8,0.8-3.8,1.9
							C156.5,224.8,147.9,226.9,139,228"/>
						<path id="XMLID_1504_" class="st11" d="M138.2,226.2c-0.7,0.2-2.8,0.6-4,0.7c-0.5-0.3-0.9-0.6-1.5-0.8
							c0.2-0.2,0.3-0.2,3.1-1.3c7.3-2.7,14.4-6.3,21.1-10.8c2-1.3,3.2-1.8,4-1.7c2,0.9,3.6,1.8,4.9,2.8c-0.1,0.3-0.1,0.8-3,2.3
							C154.9,221.2,146.7,224.2,138.2,226.2"/>
						<path id="XMLID_1503_" class="st10" d="M135.1,224.6c-0.6,0.2-2.3,0.9-3.4,1.1c-0.8-0.2-1.6-0.4-2.5-0.6c0-0.2,0-0.3,1.9-1.6
							c4.9-3.4,9.6-7.7,14.1-12.8c1.4-1.5,2.5-2.1,3.5-2.1c3.1,0.6,5.9,1.4,8.4,2.2c0.5,0.4-0.1,1.2-1.8,2.6
							C148.8,218,142.1,221.8,135.1,224.6"/>
						<path id="XMLID_1495_" class="st12" d="M123.4,222.7c-0.2,0.7-0.6,1.5-1,1.7c-1.1,0-2.1,0-3.2,0c-0.3-0.1-0.8-0.7-1.2-1.7
							c-1.6-3.8-3.2-8.5-4.6-14c-0.3-1.6,0-2.4,1-2.6c3.6-0.1,7.3-0.1,11.1,0c1,0.2,1.4,1.1,1.2,2.6
							C125.6,214.2,124.5,218.9,123.4,222.7"/>
						<path id="XMLID_1486_" class="st10" d="M177.1,216.2c-0.8,0.4-2.6,1.3-3.4,1.3c0-1.2-0.3-2.4-1.2-3.5c0-0.4,0.9-1.2,3-2.6
							c7.4-4.6,14.2-10,20.4-16.1c1.8-1.7,2.9-2.4,3.4-2.1c1.3,1.7,1.9,3.4,1.7,5.2c-0.2,0.7-1.2,1.8-3,3.4
							C191.7,207.4,184.7,212.3,177.1,216.2"/>
						<path id="XMLID_1483_" class="st10" d="M174.5,210.5c-2,1.3-3.4,1.8-4,1.6c-1.4-1.1-3.2-2.1-5.4-3.1c-0.4-0.4,0.1-1.3,1.8-2.8
							c6.2-5.3,12-11.4,17.2-18.1c1.6-1.9,2.9-2.7,4-2.4c3.4,1.5,6.1,3.1,8.2,4.7c0.4,0.7-0.2,1.8-1.8,3.7
							C188.5,200.3,181.8,205.8,174.5,210.5"/>
						<path id="XMLID_1496_" class="st13" d="M164.8,205.4c-1.7,1.5-3,2.1-4,2c-2.7-0.9-5.8-1.7-9.3-2.4c-0.9-0.4-0.8-1.3,0.3-3
							c4.2-5.9,8.1-12.5,11.6-19.7c1.1-2,2.5-2.9,4.1-2.8c5.3,1.1,10,2.3,14.1,3.7c1,0.6,0.9,1.8-0.4,3.8
							C176.3,193.8,170.8,200,164.8,205.4"/>
						<path id="XMLID_1478_" class="st10" d="M148.6,201.5c-1.1,1.6-2.3,2.4-3.5,2.4c-0.2,0-0.4-0.1-0.6-0.1
							c-3.7-0.5-7.6-1-11.5-1.2c-1.1-0.3-1.5-1.2-1.2-2.9c1.5-6.2,2.8-13.1,4.1-20.6c0.5-2.1,1.6-3.2,3.4-3.3
							c5.9,0.4,11.8,1.1,17.4,1.9c0.3,0,0.6,0.1,0.9,0.1c1.6,0.5,2,1.7,1.3,3.8C155.8,188.8,152.4,195.5,148.6,201.5"/>
						<path id="XMLID_1474_" class="st13" d="M207.5,192.6c-1,1.1-1.7,1.8-2.3,2.1c-0.1,0-0.1-0.1-0.2-0.1c0.2-1.8-0.4-3.6-1.8-5.4
							c-0.2-0.7,0.4-1.9,1.9-3.9c5.4-6.7,10.2-14.1,14-21.9c1.1-2.2,1.9-3,2.5-2.6c1.6,2.2,2.4,4.4,2.2,6.6
							c-0.2,0.9-0.8,2.3-1.9,4.5C217.9,179.4,213.1,186.3,207.5,192.6"/>
						<path id="XMLID_1470_" class="st14" d="M203.6,183.8c-1.6,1.9-2.7,2.6-3.5,2.3c-2.2-1.7-5.1-3.4-8.6-4.9
							c-0.9-0.6-0.7-1.9,0.5-4c4.6-7.3,8.6-15.1,11.8-23.2c1-2.3,2.2-3.2,3.5-2.9c4.3,1.9,7.9,3.9,10.5,6c0.6,0.8,0.5,2.3-0.5,4.6
							C213.6,169.5,208.9,177,203.6,183.8"/>
						<path id="XMLID_1492_" class="st12" d="M188.6,175.9c-1.3,2-2.7,2.9-4,2.7c-4.3-1.4-9.3-2.7-14.8-3.9c-1.5-0.5-1.8-1.8-1.1-4
							c3.1-7.7,5.8-15.8,8-24.3c0.8-2.4,2.2-3.4,4.1-3.3c6.8,1.4,12.8,3,18.1,4.7c1.4,0.7,1.7,2.2,1,4.6
							C196.8,160.7,193,168.6,188.6,175.9"/>
						<path id="XMLID_1467_" class="st10" d="M163.6,169.8c-0.9,2.1-2.3,3.1-4.1,3.1c-0.3,0-0.6-0.1-1-0.1c-6-0.9-12.1-1.5-18.3-2
							c-1.8-0.4-2.6-1.6-2.5-3.8c1.1-7.9,2.1-16.3,2.9-24.9c0.5-2.4,1.8-3.6,4-3.7c7.6,0.6,15.1,1.4,22.3,2.4
							c0.4,0.1,0.8,0.1,1.2,0.2c2.1,0.6,2.9,2,2.6,4.5C168.8,153.9,166.4,162.1,163.6,169.8"/>
						<path id="XMLID_1491_" class="st14" d="M132.2,166.7c-0.4,2.2-1.5,3.3-3.4,3.5c-6.6-0.2-13.1-0.2-19.6,0
							c-1.8-0.2-2.9-1.3-3.4-3.5c-1-7.9-1.8-16.3-2.4-24.9c0-2.5,1.1-3.8,3.3-4.1c7.9-0.3,15.9-0.3,23.9,0c2.2,0.3,3.4,1.7,3.4,4.1
							C133.6,150.3,132.9,158.7,132.2,166.7"/>
						<path id="XMLID_1457_" class="st10" d="M222.6,149c-0.9,2.2-1.7,3.2-2.6,2.8c-2.7-2.1-6.3-4.2-10.8-6.1
							c-1.2-0.8-1.5-2.3-0.9-4.8c2.4-8.5,4.1-17.3,4.9-26.2c0.3-2.5,1.2-3.5,2.5-3.2c4.7,2.1,8.6,4.3,11.5,6.6
							c0.8,0.9,1.1,2.6,1,5.1C227.3,132.1,225.4,140.7,222.6,149"/>
						<path id="XMLID_1454_" class="st10" d="M204.2,139.3c-0.8,2.3-2,3.3-3.5,3.1c-5.4-1.8-11.6-3.4-18.5-4.8
							c-1.9-0.6-2.7-2.2-2.4-4.6c1.7-8.7,2.8-17.6,3.3-26.6c0.4-2.5,1.6-3.6,3.7-3.4c7.4,1.5,14,3.3,19.8,5.2c1.6,0.8,2.4,2.4,2.3,5
							C208.1,121.9,206.5,130.8,204.2,139.3"/>
						<path id="XMLID_1450_" class="st13" d="M173.5,131.8c-0.6,2.4-2,3.5-4.2,3.5c-0.4-0.1-0.8-0.1-1.2-0.2
							c-7.4-1.1-15.1-1.9-22.8-2.5c-2.3-0.4-3.4-1.8-3.5-4.3c0.6-8.8,1.1-17.9,1.3-26.9c0.3-2.5,1.7-3.8,4.1-3.9
							c8.3,0.6,16.5,1.5,24.4,2.7c0.4,0.1,0.9,0.1,1.3,0.2c2.3,0.6,3.5,2.2,3.6,4.7C176,114.1,175,123.1,173.5,131.8"/>
						<path id="XMLID_1449_" class="st12" d="M134.9,127.9c-0.4,2.5-1.7,3.7-4,3.9c-8.2-0.3-16.4-0.3-24.4,0
							c-2.3-0.2-3.5-1.5-3.9-3.9c-0.5-8.9-0.7-17.9-0.8-26.9c0.2-2.6,1.5-4,3.9-4.3c8.6-0.3,17.4-0.3,26.2,0c2.5,0.3,3.8,1.7,4,4.3
							C135.7,110.1,135.3,119.1,134.9,127.9"/>
						<path id="XMLID_1487_" class="st10" d="M95.9,128.3c0,2.5-1.1,3.9-3.3,4.3c-7.8,0.6-15.3,1.4-22.3,2.4c-2,0.1-3.3-1.1-3.9-3.5
							c-1.4-8.8-2.4-17.7-2.7-26.7c0.1-2.6,1.2-4.1,3.3-4.7c7.6-1.1,15.6-2,23.9-2.6c2.3,0.1,3.6,1.4,3.9,3.9
							C94.9,110.4,95.3,119.4,95.9,128.3"/>
						<path id="XMLID_1441_" class="st10" d="M231.5,116.3c-0.5-0.9-0.8-2.6-0.9-5.2c-0.3-8.9-1.7-17.4-4-25.5
							c-0.7-2.4-0.6-2.6-0.4-2.8c1,1.2,1.6,2.3,2,3.5l0,0.1c3.2,11,3.4,11.4,4.4,17.9c1.4,11.8,1.4,12,1.4,18.4
							C234,120.6,233.1,118.5,231.5,116.3"/>
						<path id="XMLID_1438_" class="st11" d="M228.6,109.2c0,2.4-0.4,3.4-1.2,3c-2.9-2.3-6.8-4.5-11.5-6.6c-1.3-0.8-2.1-2.5-2.3-5
							c-0.2-8.8-1.4-17.2-3.3-25c-0.4-2.1,0-3,1.2-2.7c4.5,2,8.2,4.1,11,6.2c0.9,0.8,1.6,2.4,2.3,4.7
							C227,91.8,228.4,100.3,228.6,109.2"/>
						<path id="XMLID_1433_" class="st10" d="M176.8,91.1c-0.2,2.4-1.4,3.6-3.8,3.5c-0.4-0.1-0.8-0.1-1.3-0.2
							c-8-1.2-16.2-2-24.5-2.7c-2.5-0.4-3.8-1.9-4-4.4c0-8.8-0.2-17-0.6-24.5c0.1-2.1,1.3-3.1,3.6-3.2c7.9,0.6,15.7,1.4,23.2,2.5
							c0.4,0.1,0.8,0.1,1.2,0.2c2.3,0.6,3.6,1.8,4.1,4C176.1,74,176.7,82.3,176.8,91.1"/>
						<path id="XMLID_1429_" class="st11" d="M94.8,87.3c-0.3,2.5-1.6,3.9-3.9,4.3c-8.3,0.6-16.4,1.5-23.9,2.6
							c-2.1,0.1-3.2-1.1-3.4-3.5c0.3-8.8,1.2-17,2.6-24.7c0.6-2.2,1.9-3.4,4-4c7.2-1.1,14.8-1.9,22.7-2.5c2.2,0,3.3,1.1,3.3,3.2
							C95.5,70.3,95,78.5,94.8,87.3"/>
						<path id="XMLID_1428_" class="st10" d="M57.6,91.8c-0.3,2.5-1.4,4.1-3.3,4.7c-7,1.4-13.3,3.1-19,5c-1.6,0.3-2.4-0.8-2.4-3.2
							c0.4-8.8,1.7-17.2,3.8-25c0.7-2.2,1.9-3.7,3.4-4.4c5.3-1.8,11.4-3.4,18-4.7c1.8-0.2,2.6,0.7,2.3,2.9
							C58.9,74.7,57.9,83,57.6,91.8"/>
						<path id="XMLID_1425_" class="st10" d="M28.6,99.9c-0.2,2.6-1,4.2-2.3,5.1c-1.4,0.6-2.7,1.3-4,2c-2.9,1.6-5.2,3.2-7,4.9
							c-0.7,0.4-1-0.6-1-3c0.5-8.9,2-17.4,4.5-25.4c0.8-2.3,1.5-3.8,2.3-4.7c1.7-1.6,3.9-3.1,6.7-4.7c1.2-0.7,2.4-1.3,3.8-1.9
							c1.2-0.4,1.5,0.5,1,2.6C30.4,82.7,29,91.1,28.6,99.9"/>
						<path id="XMLID_1422_" class="st10" d="M63.3,55.6c-0.8,2-2.1,3.3-4,3.8c-6.5,1.3-12.4,2.9-17.6,4.6c-1.4,0.3-1.7-0.5-1.1-2.5
							c2.9-7.1,6.5-13.6,10.8-19.4c1.3-1.6,2.6-2.7,4-3.3c4.4-1.5,9.3-2.8,14.7-3.9c1.4-0.2,1.8,0.5,1.1,2
							C68.1,42.4,65.4,48.7,63.3,55.6"/>
						<path id="XMLID_1414_" class="st13" d="M36.7,63.1c-1,2.1-2.1,3.5-3.4,4.3c-1.3,0.6-2.5,1.2-3.7,1.9c-2.7,1.5-4.9,3-6.6,4.6
							c-0.1,0-0.1,0.1-0.2,0.1c0,0-0.1-0.1-0.1-0.2c0.1-0.6,0.3-1.1,0.9-2.4c3.5-7.5,7.9-14.4,13-20.7c1.4-1.7,2.5-2.9,3.3-3.7
							c1.4-1.3,3.2-2.6,5.5-3.8c1-0.5,2-1.1,3.1-1.6c0.1,0,0.3-0.1,0.5-0.1c0.1,0.4,0.2,0.6-0.9,2C43.5,49.3,39.7,55.9,36.7,63.1"/>
						<path id="XMLID_1410_" class="st10" d="M55.6,34.9c-1.6,1.5-2.9,2.5-4,3.1c-1,0.5-2,1-3,1.5c-2.2,1.2-3.9,2.4-5.2,3.7
							c0,0-0.1,0.1-0.1,0.1c0,0,0,0,0,0l4.3-4.1c7.6-6.4,11.1-9.3,20.9-14.9l5.6-2.9l0.3-0.1c0,0,0.1-0.1,0.2-0.1
							c-0.2,0.1-0.2,0.1-1.9,1.1C66.4,25.6,60.7,29.9,55.6,34.9"/>
					</g>
				</g>
				<g id="XMLID_1398_" class="st9">
					<g id="XMLID_1401_">
						<path id="XMLID_1406_" class="st10" d="M233.7,120.6c0.1,1.9,0.1,2.6,0.2,3.1c0.1-0.4,0.1-0.6,0.1-0.9
							c-0.4-12.2-0.4-12.2-1.4-18.4c-2.3-11.5-2.4-11.7-4.4-17.9l0-0.1c0.4,1.2,0.5,2.4,0.4,3.5c0,0.9,0.3,2.4,1,4.8
							C232,103,233.4,111.7,233.7,120.6"/>
						<path id="XMLID_1403_" class="st10" d="M68.5,24.3c-8.2,4.9-12.3,7.4-20.9,14.9l-4.3,4.1c0.4-0.4,0.8-0.8,1.9-1.8
							c5.9-5.5,12.5-10.3,19.7-14.3c3.1-1.8,6-4,9.2-5.7L68.5,24.3"/>
					</g>
				</g>
			</g>
		</g>
		<g id="XMLID_1216_">
			<g id="XMLID_1219_" class="st9">
				<g id="XMLID_1231_" class="st9">
					<g id="XMLID_1232_">
						<g id="XMLID_1385_" class="st16">
							<path id="XMLID_1388_" class="st17" d="M134.9,228.5C134.9,228.5,134.9,228.5,134.9,228.5l-0.2,0l0-0.2
								c-0.1-0.3-0.2-0.6-0.3-0.8l-0.2-0.2l0.2-0.1c0.4-0.2,0.5-0.2,3.9-0.9c8.6-1.8,17-4.6,25-8.4c2.4-1.1,3.3-1.3,3.9-1.4l0.1,0
								l0.1,0.1c0.9,1.1,1.3,2.1,1.2,3.3l0,0.1l-0.1,0c-0.3,0.3-0.8,0.8-3.9,2c-8.3,3.1-16.9,5.2-25.8,6.3h0l0-0.2l0,0.2
								C138.3,228.3,136.1,228.5,134.9,228.5z M134.8,227.5c0.1,0.2,0.2,0.4,0.2,0.6c1.2,0,3.2-0.2,3.9-0.3
								c8.8-1.1,17.4-3.2,25.7-6.2c2.8-1.1,3.3-1.5,3.7-1.8c0.1-1-0.3-1.9-1-2.8c-0.6,0.1-1.5,0.3-3.7,1.3c-8,3.8-16.5,6.6-25,8.4
								C135.8,227.3,135.2,227.4,134.8,227.5z"/>
						</g>
						<g id="XMLID_1461_" class="st18">
							<path id="XMLID_1381_" class="st17" d="M134.1,227.1L134.1,227.1c-0.5-0.3-0.9-0.6-1.5-0.8l-0.3-0.1l0.3-0.2
								c0.2-0.2,0.3-0.3,3.2-1.3c7.2-2.6,14.3-6.3,21-10.8c2.1-1.4,3.3-1.9,4.1-1.8l0,0c2,0.9,3.7,1.8,4.9,2.8l0.1,0.1l0,0.1
								c-0.1,0.4-0.2,0.9-3.1,2.4c-7.9,3.9-16.2,6.9-24.6,8.9l0,0C137.5,226.5,135.4,227,134.1,227.1L134.1,227.1z M133.1,226.1
								c0.4,0.2,0.8,0.4,1.2,0.6c1.2-0.1,3.2-0.6,3.9-0.7c8.4-2,16.6-4.9,24.5-8.8c2.4-1.3,2.8-1.8,2.9-2c-1.2-0.9-2.8-1.8-4.7-2.7
								c-0.7-0.1-1.9,0.5-3.8,1.7c-6.8,4.6-13.9,8.2-21.1,10.9C134,225.7,133.4,225.9,133.1,226.1z"/>
						</g>
						<g id="XMLID_1368_" class="st16">
							<path id="XMLID_1372_" class="st17" d="M131.6,225.9L131.6,225.9c-0.9-0.3-1.7-0.5-2.6-0.6l-0.2,0l0-0.2
								c0-0.2,0.1-0.4,1.9-1.7c4.8-3.3,9.6-7.6,14.1-12.7c1.4-1.5,2.6-2.2,3.7-2.2c3.1,0.6,5.9,1.4,8.4,2.2l0.1,0
								c0.2,0.1,0.3,0.3,0.3,0.5c0,0.3-0.2,1-2.1,2.4c-6.5,4.7-13.2,8.5-20.1,11.2l0,0C134.5,225,132.8,225.7,131.6,225.9
								L131.6,225.9z M129.4,224.9c0.8,0.2,1.6,0.4,2.2,0.6c1.1-0.2,2.7-0.9,3.3-1.1c6.9-2.8,13.6-6.5,20-11.2
								c1.7-1.3,1.9-1.8,1.9-2.1c0-0.1,0-0.1-0.1-0.2c-2.5-0.8-5.2-1.5-8.3-2.2c0,0,0,0,0,0c-0.9,0-2,0.6-3.3,2.1
								c-4.5,5.2-9.3,9.5-14.2,12.8C130,224.4,129.6,224.7,129.4,224.9z"/>
						</g>
						<g id="XMLID_1359_" class="st19">
							<path id="XMLID_1360_" class="st17" d="M119.2,224.5L119.2,224.5c-0.4-0.1-0.9-0.7-1.4-1.8c-1.6-3.7-3.2-8.4-4.7-14
								c-0.2-1-0.2-1.8,0.2-2.3c0.2-0.3,0.5-0.5,1-0.6c3.7-0.1,7.4-0.1,11.1,0c1.2,0.2,1.6,1.2,1.4,2.9c-1,5.6-2.1,10.3-3.2,14l0,0
								c-0.4,1.1-0.7,1.7-1.1,1.8l0,0l0,0C121.4,224.5,120.3,224.5,119.2,224.5L119.2,224.5z M121.9,206.1c-2.5,0-5,0-7.5,0.1
								c-0.3,0.1-0.5,0.2-0.7,0.4c-0.3,0.4-0.3,1.1-0.1,2c1.5,5.5,3,10.2,4.6,14c0.5,1,0.9,1.5,1.1,1.5c1,0,2.1,0,3.1,0
								c0.1,0,0.4-0.3,0.8-1.5c1.1-3.7,2.2-8.4,3.2-14c0.2-1.9-0.5-2.3-1.1-2.4C124.2,206.2,123,206.2,121.9,206.1z"/>
						</g>
						<g id="XMLID_1347_" class="st16">
							<path id="XMLID_1349_" class="st17" d="M173.5,217.8l0-0.2c0-1.2-0.3-2.3-1.1-3.3l0,0l0-0.1c0-0.4,0.5-1.1,3.1-2.7
								c7.3-4.6,14.2-10,20.4-16.1c1.9-1.8,3-2.5,3.7-2.1l0.1,0.1c1.3,1.7,1.9,3.5,1.7,5.3l0,0c-0.2,0.7-1.2,1.9-3.1,3.5
								c-6.4,5.6-13.5,10.4-21,14.4l0,0c-0.8,0.4-2.6,1.3-3.5,1.3L173.5,217.8z M172.7,214c0.8,1.1,1.2,2.1,1.2,3.3
								c0.8-0.1,2.5-0.9,3.1-1.3c7.5-3.9,14.6-8.8,21-14.3c2.1-1.9,2.8-2.8,2.9-3.3c0.2-1.7-0.4-3.3-1.6-5c-0.3-0.1-1.1,0.1-3.2,2.1
								c-6.2,6.1-13.1,11.5-20.5,16.1C173.3,213.2,172.8,213.8,172.7,214z"/>
						</g>
						<g id="XMLID_1443_" class="st16">
							<path id="XMLID_1343_" class="st17" d="M170.8,212.4c-0.1,0-0.2,0-0.3,0l-0.1,0c-1.4-1.1-3.2-2.1-5.4-3.1l-0.1,0
								c-0.1-0.1-0.2-0.3-0.2-0.5c0-0.6,0.6-1.4,2-2.6c6.2-5.3,12-11.4,17.2-18.1c1.7-2,3-2.7,4.2-2.5l0,0c3.4,1.5,6.2,3.1,8.3,4.7
								l0,0c0.5,0.8-0.1,2-1.9,3.9c-6.1,6.2-12.9,11.8-20.1,16.5l0,0C172.8,211.9,171.5,212.4,170.8,212.4z M170.7,212
								c0.4,0.1,1.4-0.1,3.8-1.6c7.2-4.7,13.9-10.2,20-16.5c1.5-1.7,2.2-2.8,1.8-3.4c-2.1-1.6-4.8-3.2-8.1-4.6
								c-1-0.2-2.2,0.6-3.8,2.4c-5.2,6.7-11.1,12.8-17.3,18.1c-1.3,1.1-1.9,1.9-1.9,2.4c0,0.1,0,0.1,0.1,0.2
								C167.5,209.9,169.3,210.9,170.7,212z"/>
						</g>
						<g id="XMLID_1336_" class="st20">
							<path id="XMLID_1439_" class="st17" d="M161,207.7c-0.1,0-0.1,0-0.2,0l0,0c-2.7-0.9-5.8-1.7-9.2-2.4
								c-0.4-0.2-0.6-0.4-0.7-0.7c-0.2-0.6,0.1-1.4,0.9-2.6c4.2-5.9,8-12.5,11.6-19.6c1.2-2.1,2.6-3.1,4.2-2.9
								c5.2,1.1,10,2.3,14.2,3.7c0.4,0.2,0.7,0.6,0.8,1c0.2,0.7-0.2,1.8-1.1,3.1c-5,6.8-10.5,13-16.5,18.4l0,0
								C163.3,207,162,207.7,161,207.7z M160.9,207.3c0.9,0.1,2.2-0.6,3.8-2c5.9-5.4,11.4-11.6,16.4-18.4c0.8-1.2,1.2-2.2,1-2.8
								c-0.1-0.3-0.3-0.5-0.5-0.7c-4.1-1.4-8.9-2.6-14.1-3.7c-1.5-0.1-2.7,0.8-3.8,2.7c-3.5,7.2-7.4,13.8-11.6,19.7
								c-0.7,1.1-1,1.8-0.8,2.3c0.1,0.2,0.2,0.3,0.4,0.4C155,205.6,158.1,206.4,160.9,207.3z"/>
						</g>
						<g id="XMLID_1432_" class="st16">
							<path id="XMLID_1333_" class="st17" d="M145.1,204.1l-0.6-0.1c-3.7-0.5-7.5-1-11.4-1.2c-1.2-0.3-1.7-1.3-1.4-3.2
								c1.5-6.2,2.8-13.1,4.1-20.6c0.6-2.2,1.7-3.3,3.6-3.4c6,0.4,11.9,1.1,17.5,1.9c0.3,0,0.6,0.1,0.9,0.1c0.8,0.2,1.3,0.6,1.5,1.1
								c0.4,0.7,0.3,1.7-0.1,2.9c-3.2,7.3-6.7,14-10.4,19.9l0,0C147.6,203.3,146.4,204.1,145.1,204.1z M139.4,176
								c-1.7,0.1-2.7,1.1-3.2,3.1c-1.2,7.5-2.6,14.4-4.1,20.6c-0.4,2.1,0.4,2.6,1.1,2.7c3.9,0.3,7.8,0.7,11.4,1.2l0.6,0.1
								c1.1,0,2.2-0.8,3.3-2.3c3.7-5.9,7.2-12.6,10.3-19.9c0.4-1.1,0.4-2,0.1-2.6c-0.2-0.4-0.6-0.7-1.3-0.9c-0.3,0-0.6-0.1-0.9-0.1
								C151.2,177.1,145.4,176.4,139.4,176z"/>
						</g>
						<g id="XMLID_1328_" class="st20">
							<path id="XMLID_1331_" class="st17" d="M205.2,194.9l-0.4-0.2l0-0.1c0.2-1.8-0.4-3.5-1.7-5.3l0-0.1c-0.2-0.8,0.3-2,1.9-4.1
								c5.5-6.8,10.2-14.1,14-21.8c0.9-1.8,1.6-2.6,2.2-2.8c0.2-0.1,0.4,0,0.6,0.1l0,0c1.7,2.2,2.4,4.5,2.2,6.8
								c-0.2,0.9-0.8,2.4-1.9,4.6c-3.9,7.4-8.8,14.4-14.4,20.7l0,0C206.6,193.9,205.9,194.5,205.2,194.9L205.2,194.9z M203.4,189.1
								c1.3,1.8,1.9,3.6,1.8,5.4c0.6-0.3,1.2-0.9,2.1-2c5.6-6.3,10.5-13.2,14.4-20.6c1.1-2.1,1.7-3.6,1.9-4.4
								c0.2-2.1-0.5-4.3-2.1-6.4c-0.1,0-0.2-0.1-0.2,0c-0.5,0.1-1.1,1-2,2.6c-3.8,7.7-8.5,15.1-14,21.9
								C203.8,187.3,203.2,188.5,203.4,189.1z"/>
						</g>
						<g id="XMLID_1325_" class="st21">
							<path id="XMLID_1423_" class="st17" d="M200.5,186.4c-0.1,0-0.3,0-0.4-0.1l-0.1,0c-2.2-1.7-5.1-3.4-8.6-4.9l0,0
								c-1.3-0.9-0.4-2.9,0.4-4.3c4.6-7.3,8.6-15.1,11.8-23.2c1.1-2.4,2.3-3.3,3.7-3c4.4,1.9,7.9,3.9,10.6,6.1l0,0
								c0.7,0.9,0.5,2.5-0.5,4.8c-3.8,7.8-8.4,15.3-13.8,22.2l0,0C202.3,185.6,201.3,186.4,200.5,186.4z M200.2,185.9
								c0.7,0.2,1.8-0.5,3.2-2.3c5.4-6.9,10-14.3,13.7-22.1c0.9-2.2,1.1-3.6,0.5-4.4c-2.7-2.1-6.2-4.1-10.5-6
								c-1.2-0.3-2.2,0.7-3.2,2.8c-3.2,8.1-7.2,15.9-11.8,23.2c-1.5,2.6-1,3.4-0.5,3.7C195.1,182.6,198,184.2,200.2,185.9z"/>
						</g>
						<g id="XMLID_1416_" class="st19">
							<path id="XMLID_1320_" class="st17" d="M185,178.8c-0.1,0-0.2,0-0.4,0c-4.4-1.4-9.4-2.7-14.8-3.9c-1.6-0.6-2-2-1.3-4.3
								c3.1-7.7,5.8-15.9,8-24.3c0.9-2.5,2.3-3.6,4.3-3.4c6.7,1.4,12.8,3,18.1,4.7c1.5,0.8,1.9,2.4,1.1,4.9
								c-3.1,8.2-6.9,16.1-11.3,23.5l0,0C187.5,177.9,186.2,178.8,185,178.8z M180.5,143.3c-1.7,0-2.9,1-3.6,3.2
								c-2.2,8.4-4.9,16.6-8,24.3c-0.7,2.1-0.3,3.3,1,3.8c5.4,1.1,10.4,2.4,14.8,3.9c1.2,0.2,2.5-0.7,3.8-2.6
								c4.4-7.4,8.2-15.2,11.3-23.4c0.7-2.3,0.4-3.7-0.9-4.4c-5.3-1.7-11.4-3.3-18-4.7C180.7,143.3,180.6,143.3,180.5,143.3z"/>
						</g>
						<g id="XMLID_1411_" class="st16">
							<path id="XMLID_1317_" class="st17" d="M159.6,173.1C159.6,173.1,159.5,173.1,159.6,173.1c-0.4-0.1-0.7-0.1-1.1-0.1
								c-5.8-0.9-12-1.5-18.3-2c-1.9-0.4-2.8-1.7-2.7-4c1.1-8,2.1-16.4,2.9-24.9c0.5-2.5,1.9-3.8,4.2-3.9c7.7,0.6,15.2,1.4,22.4,2.4
								c0.4,0.1,0.8,0.1,1.2,0.2c2.2,0.6,3.1,2.1,2.7,4.7c-2,8.4-4.4,16.7-7.2,24.5l0,0C162.8,172.1,161.5,173.1,159.6,173.1z
								 M144.7,138.5c-2.1,0.1-3.4,1.2-3.8,3.6c-0.8,8.5-1.8,16.9-2.9,24.9c-0.1,2.1,0.6,3.3,2.3,3.6c6.3,0.5,12.4,1.1,18.3,2
								c0.3,0,0.6,0.1,1,0.1c0,0,0,0,0.1,0c1.7,0,2.9-0.9,3.8-3c2.8-7.8,5.2-16,7.1-24.4c0.3-2.3-0.4-3.7-2.4-4.2
								c-0.4-0.1-0.8-0.1-1.1-0.2C159.9,139.9,152.4,139.1,144.7,138.5z"/>
						</g>
						<g id="XMLID_1311_" class="st21">
							<path id="XMLID_1312_" class="st17" d="M109.2,170.3c-2-0.2-3.1-1.4-3.6-3.7c-1-8-1.8-16.4-2.4-25c0-2.6,1.2-4,3.5-4.3
								c7.9-0.3,16-0.3,24,0c2.4,0.3,3.6,1.8,3.6,4.3c-0.5,8.6-1.2,17-2,25l0,0c-0.4,2.3-1.6,3.5-3.5,3.7
								C122.3,170.1,115.7,170.1,109.2,170.3z M122.9,137.6c-5.4-0.1-10.8,0-16.2,0.2c-2.1,0.3-3.1,1.6-3.1,3.9
								c0.6,8.5,1.4,16.9,2.4,24.9c0.4,2.1,1.5,3.2,3.2,3.3c6.5-0.2,13-0.2,19.6,0c1.7-0.1,2.8-1.2,3.2-3.3c0.7-8,1.4-16.4,2-24.9
								c-0.1-2.3-1.1-3.6-3.3-3.9C128.1,137.7,125.5,137.6,122.9,137.6z"/>
						</g>
						<g id="XMLID_1306_" class="st16">
							<path id="XMLID_1307_" class="st17" d="M220.4,152.1c-0.1,0-0.3,0-0.4-0.1l0,0c-2.7-2.1-6.3-4.2-10.7-6.1
								c-1.3-0.8-1.6-2.5-1-5c2.5-8.6,4.1-17.4,4.9-26.2c0.2-1.6,0.7-2.7,1.3-3.1c0.4-0.3,0.9-0.3,1.4-0.2c4.8,2.1,8.7,4.3,11.6,6.6
								c0.9,1,1.2,2.7,1,5.3c-0.8,8.7-2.7,17.4-5.6,25.8l0,0c-0.7,1.7-1.3,2.6-2,2.9C220.6,152,220.5,152.1,220.4,152.1z
								 M220.1,151.6c0.2,0.1,0.4,0.1,0.5,0c0.6-0.2,1.1-1.1,1.7-2.7c2.9-8.4,4.8-17,5.6-25.7c0.2-2.5-0.1-4.1-0.9-5
								c-2.9-2.3-6.8-4.5-11.5-6.5c-0.4-0.1-0.8,0-1.1,0.2c-0.6,0.4-1,1.3-1.2,2.8c-0.7,8.8-2.4,17.6-4.9,26.2
								c-0.5,2.3-0.3,3.8,0.8,4.6C213.7,147.4,217.3,149.5,220.1,151.6z"/>
						</g>
						<g id="XMLID_1299_" class="st16">
							<path id="XMLID_1301_" class="st17" d="M201.1,142.6c-0.2,0-0.3,0-0.5,0c-5.5-1.8-11.7-3.4-18.5-4.8c-2-0.7-2.9-2.3-2.6-4.8
								c1.7-8.8,2.8-17.8,3.3-26.6c0.4-2.6,1.7-3.8,3.9-3.6c7.3,1.5,14,3.2,19.8,5.2c1.7,0.8,2.5,2.5,2.5,5.2
								c-0.7,8.8-2.3,17.7-4.6,26.3l0,0C203.6,141.6,202.5,142.6,201.1,142.6z M186.3,103c-1.8,0-2.8,1-3.1,3.3
								c-0.5,8.8-1.6,17.8-3.3,26.6c-0.3,2.4,0.5,3.8,2.3,4.4c6.8,1.4,13,3,18.5,4.8c1.4,0.2,2.5-0.7,3.3-3
								c2.4-8.6,3.9-17.5,4.6-26.2c0-2.5-0.7-4.1-2.2-4.8c-5.8-1.9-12.5-3.6-19.7-5.1C186.5,103,186.4,103,186.3,103z"/>
						</g>
						<g id="XMLID_1294_" class="st20">
							<path id="XMLID_1295_" class="st17" d="M169.4,135.5c-0.1,0-0.1,0-0.2,0c-0.4-0.1-0.8-0.1-1.2-0.2c-7.3-1.1-15-1.9-22.8-2.5
								c-2.4-0.4-3.6-1.9-3.6-4.5c0.6-9,1.1-18,1.3-26.9c0.3-2.7,1.7-4,4.3-4.1c8.4,0.6,16.7,1.5,24.5,2.7c0.4,0.1,0.9,0.1,1.3,0.2
								c2.4,0.6,3.6,2.2,3.7,4.9c-0.5,8.9-1.5,17.8-3,26.7l0,0C173.1,134.3,171.7,135.5,169.4,135.5z M147.2,97.8
								c-2.3,0.1-3.6,1.3-3.9,3.7c-0.2,8.8-0.7,17.9-1.3,26.9c0.1,2.4,1.1,3.7,3.3,4.1c7.8,0.6,15.5,1.4,22.8,2.5
								c0.4,0.1,0.8,0.1,1.2,0.2c2.1,0.1,3.4-1,4-3.3c1.5-8.9,2.5-17.8,3-26.6c-0.1-2.5-1.2-3.9-3.4-4.5c-0.4-0.1-0.8-0.1-1.3-0.2
								C163.8,99.3,155.6,98.4,147.2,97.8z"/>
						</g>
						<g id="XMLID_1286_" class="st19">
							<path id="XMLID_1288_" class="st17" d="M106.5,132c-2.4-0.2-3.7-1.5-4.1-4.1c-0.5-9-0.7-18-0.8-26.9c0.2-2.7,1.6-4.1,4.1-4.5
								c8.7-0.3,17.5-0.3,26.2,0c2.6,0.4,3.9,1.8,4.1,4.5c-0.2,8.9-0.5,17.9-0.9,26.9l0,0c-0.4,2.6-1.7,3.9-4.2,4.1
								C122.8,131.8,114.6,131.8,106.5,132z M123.4,96.8c-5.9-0.1-11.8,0-17.7,0.2c-2.3,0.3-3.5,1.7-3.7,4.1
								c0.1,8.8,0.3,17.9,0.8,26.9c0.3,2.3,1.6,3.6,3.7,3.7c8.1-0.3,16.3-0.3,24.4,0c2.2-0.2,3.4-1.4,3.8-3.7c0.4-9,0.8-18,0.9-26.9
								c-0.2-2.4-1.4-3.8-3.8-4.1C129.1,96.9,126.2,96.8,123.4,96.8z"/>
						</g>
						<g id="XMLID_1281_" class="st16">
							<path id="XMLID_1282_" class="st17" d="M70.1,135.2c-2,0-3.3-1.2-3.9-3.7c-1.5-8.9-2.4-17.9-2.7-26.7
								c0.1-2.7,1.3-4.3,3.5-4.9c7.6-1.1,15.6-2,23.9-2.6c2.5,0.1,3.8,1.4,4.1,4.1c0.1,8.9,0.5,17.9,1.1,26.9l0,0
								c0,2.6-1.2,4.1-3.4,4.5c-7.8,0.6-15.3,1.4-22.3,2.4C70.3,135.2,70.2,135.2,70.1,135.2z M90.9,97.7
								c-8.3,0.6-16.3,1.5-23.9,2.6c-2,0.5-3,2-3.2,4.5c0.3,8.8,1.2,17.8,2.7,26.7c0.6,2.3,1.8,3.4,3.7,3.3c7-1,14.5-1.9,22.3-2.4
								c2-0.4,3.1-1.7,3.1-4.1c-0.6-9-1-18-1.1-26.9C94.3,99,93.1,97.8,90.9,97.7z"/>
						</g>
						<g id="XMLID_1277_" class="st16">
							<path id="XMLID_1278_" class="st17" d="M233.8,122.8C233.8,122.8,233.8,122.8,233.8,122.8c0-2.1-0.8-4.3-2.4-6.4l0,0
								c-0.5-0.9-0.8-2.7-1-5.3c-0.3-8.7-1.6-17.2-4-25.4c-0.7-2.5-0.6-2.7-0.4-2.9l0.1-0.2l0.2,0.2c0.9,1.2,1.6,2.3,2,3.5l0,0.1
								c3.2,11,3.4,11.4,4.4,18c1.4,11.8,1.4,12,1.4,18.4c0,0,0,0,0,0c0,0,0,0,0,0L233.8,122.8z M231.7,116.2c1,1.3,1.7,2.6,2.1,3.9
								c0-4.1-0.2-5.8-1.4-15.8c-1.1-6.5-1.2-6.9-4.4-17.9l0-0.1c-0.4-1-0.9-2-1.7-3.1c0,0.3,0.1,0.9,0.5,2.3
								c2.4,8.2,3.8,16.8,4,25.5C230.9,113.7,231.2,115.3,231.7,116.2z"/>
						</g>
						<g id="XMLID_1273_" class="st18">
							<path id="XMLID_1369_" class="st17" d="M227.7,112.5c-0.1,0-0.2,0-0.4-0.1l0,0c-2.9-2.3-6.8-4.5-11.5-6.6
								c-1.4-0.9-2.2-2.6-2.4-5.2c-0.2-8.7-1.3-17.1-3.3-25c-0.3-1.4-0.2-2.3,0.2-2.7c0.3-0.3,0.7-0.3,1.2-0.2c4.5,2,8.2,4.1,11,6.3
								c0.9,0.9,1.7,2.4,2.4,4.8c2.4,8.2,3.7,16.7,4,25.4l0,0c0,1.9-0.2,2.9-0.7,3.2C228,112.5,227.9,112.5,227.7,112.5z
								 M227.5,112.1c0.2,0.1,0.3,0.1,0.4,0c0.3-0.2,0.6-0.8,0.6-2.9c-0.3-8.7-1.6-17.2-3.9-25.3c-0.7-2.3-1.5-3.8-2.3-4.6
								c-2.7-2.2-6.4-4.3-10.9-6.2c-0.4-0.1-0.6-0.1-0.8,0.1c-0.2,0.2-0.4,0.8-0.1,2.4c2,8,3.1,16.4,3.4,25.1
								c0.2,2.5,0.9,4.1,2.2,4.9C220.7,107.5,224.6,109.8,227.5,112.1z"/>
						</g>
						<g id="XMLID_1268_" class="st16">
							<path id="XMLID_1363_" class="st17" d="M173.3,94.7c-0.1,0-0.1,0-0.2,0c-0.4-0.1-0.9-0.1-1.3-0.2c-7.8-1.1-16-2-24.5-2.7
								c-2.6-0.5-3.9-1.9-4.2-4.5c0-8.6-0.2-16.9-0.6-24.5c0.1-2.2,1.4-3.3,3.8-3.4c8,0.6,15.8,1.4,23.2,2.5
								c0.4,0.1,0.8,0.1,1.2,0.2c2.4,0.6,3.7,1.9,4.3,4.2c1.2,7.8,1.8,16.1,1.9,24.7l0,0C176.8,93.5,175.5,94.8,173.3,94.7z
								 M146.4,59.9c-2.2,0-3.3,1-3.4,3c0.4,7.6,0.6,15.9,0.6,24.5c0.2,2.4,1.5,3.8,3.8,4.2c8.4,0.6,16.6,1.5,24.5,2.7
								c0.4,0.1,0.9,0.1,1.3,0.2c2.2,0.1,3.3-1,3.5-3.3c-0.1-8.6-0.7-16.9-1.9-24.6c-0.5-2.1-1.8-3.3-4-3.9
								c-0.4-0.1-0.8-0.1-1.2-0.2C162.1,61.3,154.3,60.5,146.4,59.9z"/>
						</g>
						<g id="XMLID_1356_" class="st18">
							<path id="XMLID_1262_" class="st17" d="M66.8,94.4c-2.1,0-3.2-1.3-3.3-3.7c0.3-8.7,1.2-17,2.6-24.7c0.6-2.2,2-3.6,4.1-4.1
								c7.2-1.1,14.8-1.9,22.7-2.5c2.3,0.1,3.5,1.2,3.5,3.4c-0.7,7.7-1.2,15.9-1.3,24.5l0,0c-0.3,2.6-1.6,4.1-4.1,4.5
								c-8.4,0.6-16.4,1.5-23.9,2.6C66.9,94.4,66.9,94.4,66.8,94.4z M92.9,59.8c-7.9,0.6-15.5,1.4-22.7,2.5c-2,0.5-3.2,1.7-3.8,3.8
								c-1.4,7.7-2.3,16-2.6,24.6C64,93,65,94.1,67,94.1c7.5-1.1,15.6-2,23.9-2.6c2.2-0.4,3.5-1.8,3.7-4.2
								c0.2-8.6,0.6-16.9,1.3-24.5C96,60.8,95,59.9,92.9,59.8z"/>
						</g>
						<g id="XMLID_1256_" class="st16">
							<path id="XMLID_1257_" class="st17" d="M34.8,101.7c-0.4,0-0.8-0.1-1.1-0.4c-0.6-0.5-0.9-1.5-1-3.1c0.4-8.7,1.7-17.1,3.8-25
								c0.8-2.3,1.9-3.8,3.5-4.5c5.3-1.8,11.3-3.4,18-4.7c0.9-0.1,1.6,0.1,2,0.5c0.5,0.5,0.7,1.3,0.5,2.5c-1.6,7.7-2.5,16-2.8,24.7
								l0,0c-0.3,2.6-1.4,4.2-3.5,4.9c-7,1.4-13.4,3.1-19,5C35.2,101.7,35,101.7,34.8,101.7z M58.5,64.4c-0.1,0-0.3,0-0.4,0
								c-6.6,1.4-12.7,2.9-17.9,4.7c-1.5,0.7-2.6,2.1-3.3,4.3c-2.1,7.9-3.4,16.2-3.8,24.9c0,1.4,0.3,2.3,0.8,2.7
								c0.3,0.3,0.8,0.4,1.4,0.3c5.5-1.9,11.9-3.5,19-5c1.9-0.6,2.9-2.1,3.2-4.5c0.3-8.7,1.3-17,2.8-24.7c0.1-1.1,0-1.8-0.4-2.2
								C59.5,64.5,59.1,64.4,58.5,64.4z"/>
						</g>
						<g id="XMLID_1346_" class="st16">
							<path id="XMLID_1253_" class="st17" d="M14.9,112.2c-0.1,0-0.2,0-0.3-0.1c-0.3-0.2-0.7-0.7-0.6-3.2c0.5-8.7,2-17.3,4.5-25.4
								c0.8-2.3,1.5-3.9,2.3-4.8c1.7-1.6,4-3.2,6.7-4.7c1.2-0.7,2.5-1.3,3.8-1.9c0.5-0.2,0.9-0.1,1.2,0.1c0.4,0.4,0.5,1.3,0.1,2.7
								c-2.2,7.9-3.6,16.3-4,25l0,0c-0.3,2.6-1,4.3-2.4,5.2c-1.4,0.7-2.8,1.3-4,2c-2.8,1.6-5.2,3.2-7,4.9l0,0
								C15.2,112.2,15,112.2,14.9,112.2z M32,72.4c-0.1,0-0.3,0-0.4,0.1c-1.3,0.6-2.6,1.2-3.7,1.9c-2.7,1.5-4.9,3.1-6.6,4.6
								c-0.7,0.8-1.5,2.3-2.2,4.6c-2.6,8.1-4.1,16.6-4.5,25.3c-0.1,2.3,0.2,2.8,0.4,2.9c0,0,0.1,0.1,0.3,0c1.8-1.7,4.2-3.4,7.1-4.9
								c1.2-0.7,2.6-1.4,4-2c1.2-0.8,2-2.4,2.2-4.9c0.4-8.7,1.7-17.1,4-25.1c0.4-1.6,0.2-2.1,0-2.3C32.3,72.4,32.2,72.4,32,72.4z"/>
						</g>
						<g id="XMLID_1246_" class="st16">
							<path id="XMLID_1248_" class="st17" d="M41.2,64.3c-0.4,0-0.6-0.1-0.8-0.3c-0.4-0.4-0.4-1.2,0.1-2.5
								C43.3,54.4,47,47.9,51.3,42c1.3-1.7,2.7-2.8,4.1-3.3c4.3-1.5,9.3-2.8,14.8-3.9c0.8-0.1,1.3,0,1.5,0.4c0.3,0.4,0.2,1-0.2,1.9
								c-3.1,5.5-5.8,11.7-7.9,18.6l0,0c-0.8,2.1-2.1,3.4-4.1,3.9c-6.6,1.3-12.5,2.9-17.6,4.6C41.5,64.3,41.4,64.3,41.2,64.3z
								 M70.6,35.2c-0.1,0-0.3,0-0.4,0c-5.4,1.1-10.4,2.4-14.7,3.9c-1.3,0.6-2.6,1.6-3.9,3.2c-4.3,5.8-7.9,12.3-10.8,19.4
								c-0.5,1.4-0.3,1.9-0.1,2.1c0.2,0.2,0.5,0.2,1,0.1c5.1-1.7,11.1-3.3,17.6-4.6c1.8-0.5,3-1.8,3.8-3.7
								c2.1-6.9,4.8-13.2,7.9-18.7c0.3-0.7,0.4-1.2,0.3-1.5C71.2,35.3,70.9,35.2,70.6,35.2z"/>
						</g>
						<g id="XMLID_1239_" class="st20">
							<path id="XMLID_1240_" class="st17" d="M22.8,74.2l-0.3-0.4l0-0.1c0.1-0.6,0.3-1.1,0.9-2.5c3.5-7.4,7.9-14.4,13-20.7
								c1.4-1.7,2.5-2.9,3.3-3.7c1.4-1.3,3.3-2.6,5.5-3.9c1-0.5,2-1.1,3.1-1.6c0.1,0,0.4-0.1,0.6-0.1l0.1,0l0,0.1
								c0.1,0.5,0.1,0.7-0.9,2.1c-4.5,5.9-8.3,12.5-11.3,19.6l0,0c-1,2.1-2.1,3.6-3.5,4.3c-1.3,0.6-2.6,1.2-3.7,1.9
								c-2.6,1.5-4.8,3-6.5,4.6L22.8,74.2z M48.7,41.7c-0.1,0-0.2,0-0.3,0.1c-1.1,0.5-2.1,1-3.1,1.5c-2.2,1.2-4,2.5-5.4,3.8
								c-0.8,0.7-1.9,2-3.3,3.7c-5.2,6.3-9.5,13.2-13,20.6c-0.5,1.2-0.7,1.7-0.8,2.2l0,0c1.7-1.6,3.9-3.1,6.6-4.6
								c1.2-0.6,2.4-1.3,3.7-1.9c1.3-0.7,2.3-2.1,3.3-4.2c3-7.1,6.8-13.7,11.3-19.6C48.7,42.3,48.8,42,48.7,41.7z"/>
						</g>
						<g id="XMLID_1235_" class="st16">
							<path id="XMLID_1237_" class="st17" d="M43.4,43.4l-0.3-0.3l0,0l4.3-4.1c7.6-6.4,11.1-9.3,20.9-14.9l6.1-3.1l0.2,0.3
								c-0.2,0.1-0.2,0.1-1.9,1.1c-6.2,3.3-11.9,7.6-17,12.6l0,0c-1.6,1.5-2.9,2.5-4,3.1c-1.1,0.5-2,1-3,1.5
								c-2.1,1.2-3.9,2.4-5.2,3.6L43.4,43.4z M67.3,25.2c-8.9,5.1-12.3,8-19.6,14.2l-1.5,1.4c0.7-0.5,1.5-0.9,2.3-1.4
								c0.9-0.5,1.9-1,3-1.5c1.1-0.6,2.3-1.5,3.9-3.1C59.1,31.2,63.1,28,67.3,25.2z"/>
						</g>
					</g>
				</g>
				<g id="XMLID_1220_" class="st9">
					<g id="XMLID_1221_">
						<g id="XMLID_1227_" class="st16">
							<path id="XMLID_1323_" class="st17" d="M233.8,124.8l-0.2-1.1c-0.1-0.5-0.1-1.2-0.2-3.1v0c-0.3-8.7-1.7-17.4-4.1-25.8
								c-0.7-2.4-1-4-1-4.9c0.1-1.2,0-2.3-0.4-3.5l0.4-0.1l0,0.1c2.1,6.2,2.1,6.4,4.4,17.9c1,6.3,1,6.3,1.4,18.5
								c0,0.3,0,0.6-0.1,0.9L233.8,124.8z M228.8,89c0,0.3,0,0.6,0,0.9c0,0.8,0.3,2.4,1,4.8c1.8,6.2,3.1,12.6,3.7,19
								c-0.2-3.8-0.4-5.2-1.1-9.3C230.4,94.7,230.1,93,228.8,89z"/>
						</g>
						<g id="XMLID_1222_" class="st16">
							<path id="XMLID_1318_" class="st17" d="M43.5,43.4l-0.3-0.3c0.4-0.4,0.8-0.8,1.9-1.9c0.2-0.2,0.3-0.3,0.5-0.5l1.8-1.7
								c8.6-7.5,12.7-10,20.9-14.9l0,0l5.6-2.9c0,0,0,0,0,0h0l0.2,0.3h0c-1.7,0.9-3.4,2-5,3c-1.4,0.9-2.8,1.8-4.2,2.6
								c-6.9,3.8-13.4,8.5-19.1,13.8L43.5,43.4z M68.6,24.5c-3.6,2.2-6.4,3.8-9.2,5.7c1.8-1.1,3.6-2.2,5.4-3.2
								c1.4-0.8,2.8-1.7,4.2-2.6c0.1-0.1,0.2-0.2,0.3-0.2L68.6,24.5z"/>
						</g>
					</g>
				</g>
			</g>
		</g>
		<g id="XMLID_1230_" class="st22">
			<g id="XMLID_1149_" class="st9">
				<g id="XMLID_1151_" class="st9">
					<g id="XMLID_1152_">
						<path id="XMLID_1214_" class="st17" d="M133.7,62.3c0.3,1.3,1.2,2,2.8,2.2c7.4,0.4,14.5,1.2,21.1,2.3c1.4,0.1,1.9-0.5,1.5-1.7
							c-2.4-5.8-5.4-10.6-8.9-14c-0.8-0.7-1.8-1.2-2.8-1.4c-4.4-0.7-9.2-1.2-14.1-1.5c-1.1,0-1.5,0.3-1.5,1
							C132.6,52.2,133.2,56.7,133.7,62.3"/>
						<path id="XMLID_1213_" class="st17" d="M99.1,63.3c-0.3,1.3,0.3,1.9,1.9,1.8c7.3-0.7,14.9-1,22.5-1c1.7-0.1,2.5-0.8,2.7-2
							c0.1-5.6,0.1-10.1,0.1-13.2c-0.1-0.7-0.7-1-1.8-1.1c-5,0-10.1,0.2-15,0.7c-1.2,0.2-2.1,0.6-2.8,1.3
							C103.8,53.1,101.2,57.6,99.1,63.3"/>
						<path id="XMLID_1212_" class="st17" d="M65.3,73.9c0.8-0.5,1.7-1.5,2.8-2.9c4.4-6.3,9.9-11.6,16.2-15.6c0.5-0.3,1-0.7,1.5-1
							c-0.1,0-0.2,0.1-0.2,0.1l-2.3,1.4c-5.4,3.7-6.4,4.3-10.7,8.1c-5.3,5.1-5.8,5.6-9,9.5c-1.1,1.5-2.7,3.6-3.8,5.2
							C60.8,77,62.7,75.4,65.3,73.9"/>
						<path id="XMLID_1211_" class="st17" d="M173,100.2c0.2,2,1.1,3.2,2.6,3.8c6.8,1.6,12.8,3.6,17.6,5.9c1,0.3,1.5-0.5,1.5-2.4
							c-0.5-8.8-2.4-17-5.5-24.3c-0.8-1.6-1.6-2.7-2.6-3.3c-4.3-2-9.6-3.8-15.8-5.3c-1.3-0.2-1.8,0.4-1.5,2
							C171.4,83.5,172.7,91.5,173,100.2"/>
						<path id="XMLID_1210_" class="st17" d="M93.2,96.7c0.1,1.9,1.1,2.8,3,2.8c8.6-0.8,17.6-1.2,26.4-1.2c1.9-0.2,3-1.2,3.2-3.1
							c0.1-8.7,0.2-16.5,0.3-23.3c-0.2-1.5-1.1-2.3-2.8-2.4c-7.9,0-16,0.3-23.7,1.1c-1.7,0.3-2.8,1.2-3.4,2.7
							C94.6,80.1,93.6,87.9,93.2,96.7"/>
						<path id="XMLID_1208_" class="st17" d="M60.5,103.8c0,1.9,0.5,2.7,1.7,2.5c5.3-1.9,11.9-3.5,19.6-4.8c1.7-0.5,2.7-1.7,2.9-3.6
							c0.5-8.7,1.8-16.6,3.8-23.5c0.3-1.5-0.3-2.1-1.8-2c-6.9,1.2-12.8,2.7-17.5,4.3c-1.1,0.5-2,1.6-2.8,3.2
							C63.2,86.9,61.2,95,60.5,103.8"/>
						<path id="XMLID_1302_" class="st17" d="M46.6,114.3c-0.2,2.1-0.1,2.3,0,2.4c1.1-2.5,3.6-4.8,7.5-7c0.9-0.7,1.4-2,1.6-4
							c0.7-8.8,2.9-16.9,6.2-24.2c0.4-1,0.5-1.4,0.4-1.8c-0.1,0-0.2-0.1-0.3-0.1c-0.1,0-0.2,0.1-0.2,0.1c-3.1,1.8-5.3,3.7-6.4,5.6
							c-1.5,3.1-3.4,7.3-4.7,10.5l-1.6,4.9C48,105.1,47.1,109.7,46.6,114.3"/>
						<path id="XMLID_1207_" class="st17" d="M133.4,136.5c0,1.9,0.9,3,2.5,3.3c7.6,0.4,15,1.2,21.9,2.3c1.5,0.1,2.6-0.8,3.2-2.6
							c2.1-8.6,3.5-17.5,4.1-26.6c0-2-0.9-3.2-2.6-3.7c-7.7-1.2-16.1-2.1-24.7-2.6c-1.9,0.1-3,1.1-3.2,3.1
							C134.4,118.7,134,127.8,133.4,136.5"/>
						<path id="XMLID_1205_" class="st17" d="M95.8,137.6c0.5,1.9,1.6,2.8,3.3,2.8c7.6-0.7,15.5-1.1,23.3-1.1
							c1.7-0.2,2.6-1.2,2.9-3.1c0.1-8.7,0.3-17.8,0.4-26.9c-0.2-2-1.2-3.1-3.1-3.3c-8.8,0-17.8,0.4-26.4,1.2c-1.9,0.4-2.9,1.6-3,3.6
							C93.4,119.9,94.3,128.9,95.8,137.6"/>
						<path id="XMLID_1298_" class="st17" d="M53.7,153.6c0.6,1.1,0.9,1.7,1.4,2.1c0.1,0,0.2-0.1,0.2-0.1c0.9-2.1,3.1-4.2,6.5-6.1
							c0.7-0.6,0.7-1.8,0-3.6c-3.3-8.2-5.4-16.9-6.2-25.9c-0.3-1.9-0.8-2.7-1.6-2.5c-3.8,2.1-6.3,4.5-7.4,6.9
							c-0.2,0.7-0.2,2.1-0.1,4.1C47.5,137.3,50,145.8,53.7,153.6"/>
						<path id="XMLID_1203_" class="st17" d="M151.9,175.4c-0.9,1.4-1,2.2-0.2,2.6c3.7,0.9,7,2,9.6,3.2c0.7,0.2,1.8-0.4,3.2-1.6
							c6.4-5.7,12-12.5,16.6-19.9c0.9-1.7,1-2.8,0.2-3.4c-4-1.9-9-3.5-14.7-4.9c-1.3-0.1-2.4,0.7-3.2,2.4
							C160.2,161.7,156.3,169,151.9,175.4"/>
						<path id="XMLID_1202_" class="st17" d="M129.9,172.6c-0.1,1.5,0.4,2.3,1.4,2.5c4.7,0.3,9.2,0.8,13.4,1.4c1,0,1.9-0.7,2.8-2.1
							c3.7-6.5,7-14,9.7-22c0.5-1.8,0-2.9-1.3-3.3c-6.4-1-13.4-1.8-20.7-2.2c-1.6,0.1-2.5,1-2.9,2.8
							C131.7,158.1,130.8,165.8,129.9,172.6"/>
						<path id="XMLID_1201_" class="st17" d="M86.9,177.4c1.3,1.3,2.4,1.9,3.1,1.8c2.9-1,6.4-1.9,10.6-2.6c0.8-0.3,0.9-1.1,0.2-2.6
							c-3.6-6.6-6.8-14.1-9.4-22.2c-0.7-1.8-1.8-2.6-3.2-2.6c-6.4,1.1-11.9,2.5-16.3,4c-0.9,0.5-0.9,1.6-0.1,3.4
							C76,164.3,81.1,171.4,86.9,177.4"/>
						<path id="XMLID_1200_" class="st17" d="M79,183.5c0.6,0.4,1.9,1.3,2.7,1.4c0.7-1.4,2-2.6,4.1-3.8c0.3-0.4-0.2-1.2-1.5-2.5
							c-6.3-5.9-11.7-12.8-16.2-20.3c-1.1-1.7-1.9-2.3-2.7-2.1c-3.2,1.8-5.3,3.7-6.2,5.7c-0.1,0.6,0.4,1.7,1.5,3.3
							C65.7,172.2,71.9,178.4,79,183.5"/>
						<path id="XMLID_1198_" class="st17" d="M133.7,62.3c0.3,1.3,1.2,2,2.8,2.2c7.4,0.4,14.5,1.2,21.1,2.3c1.4,0.1,1.9-0.5,1.5-1.7
							c-2.4-5.8-5.4-10.6-8.9-14c-0.8-0.7-1.8-1.2-2.8-1.4c-4.4-0.7-9.2-1.2-14.1-1.5c-1.1,0-1.5,0.3-1.5,1
							C132.6,52.2,133.2,56.7,133.7,62.3 M133,62.3c-0.4-5.6-1-10.1-1.7-13.2c0-0.8,0.6-1.2,1.9-1.2c4.8,0.3,9.5,0.8,13.8,1.5
							c1.4,0.3,2.6,0.9,3.6,1.8c3.6,3.4,6.6,8.2,9.1,14c0.5,1.6-0.1,2.4-1.9,2.3c-6.6-1.1-13.8-1.8-21.2-2.3
							C133.8,64.8,133.1,63.2,133,62.3"/>
						<path id="XMLID_1195_" class="st17" d="M99.1,63.3c-0.3,1.3,0.3,1.9,1.9,1.8c7.3-0.7,14.9-1,22.5-1c1.7-0.1,2.5-0.8,2.7-2
							c0.1-5.6,0.1-10.1,0.1-13.2c-0.1-0.7-0.7-1-1.8-1.1c-5,0-10.1,0.2-15,0.7c-1.2,0.2-2.1,0.6-2.8,1.3
							C103.8,53.1,101.2,57.6,99.1,63.3 M98.4,63.4c2.2-5.7,4.8-10.3,7.8-13.5c0.9-0.9,2.1-1.4,3.6-1.6c4.8-0.5,9.8-0.7,14.8-0.7
							c1.4,0.1,2.1,0.5,2.3,1.4c0.1,3.1,0.1,7.6,0.1,13.2c-0.2,1.6-1.4,2.5-3.5,2.6c-7.6,0-15.2,0.3-22.6,1
							C98.1,65.8,98.1,64.3,98.4,63.4"/>
						<path id="XMLID_1191_" class="st17" d="M65.3,73.9c0.8-0.5,1.7-1.5,2.8-2.9c4.4-6.3,9.9-11.6,16.2-15.6c0.5-0.3,1-0.7,1.5-1
							c0,0,0,0,0,0l-0.2,0.1l-2.3,1.4c-5.4,3.7-6.4,4.3-10.7,8.1c-5.3,5.1-5.8,5.6-9,9.5c-1.1,1.5-2.7,3.6-3.8,5.2
							C60.8,77,62.7,75.4,65.3,73.9 M64.9,74.6c-2.7,1.5-4.6,3.1-5.7,4.8c1.3-1.8,3-4.2,4.3-5.9c4.9-5.6,5.3-6.1,9-9.5
							c5.2-4.3,6-5,10.7-8.1l3.2-1.9l0.1,0c-0.7,0.4-1.3,0.9-2,1.3c-6.2,4-11.6,9.3-16.1,15.6C66.5,73.3,65.4,74.3,64.9,74.6"/>
						<path id="XMLID_1187_" class="st17" d="M173,100.2c0.2,2,1.1,3.2,2.6,3.8c6.8,1.6,12.8,3.6,17.6,5.9c1,0.3,1.5-0.5,1.5-2.4
							c-0.5-8.8-2.4-17-5.5-24.3c-0.8-1.6-1.6-2.7-2.6-3.3c-4.3-2-9.6-3.8-15.8-5.3c-1.3-0.2-1.8,0.4-1.5,2
							C171.4,83.5,172.7,91.5,173,100.2 M172.2,100.1c-0.3-8.7-1.5-16.7-3.6-23.7c-0.4-1.9,0.2-2.7,1.9-2.5
							c6.1,1.5,11.4,3.2,15.7,5.3c1.3,0.8,2.4,2.2,3.4,4.3c3.1,7.4,5,15.6,5.5,24.4c0,2.4-0.6,3.4-2,3c-4.8-2.3-10.8-4.2-17.6-5.9
							C172.9,103.9,172.3,101.4,172.2,100.1"/>
						<path id="XMLID_1184_" class="st17" d="M93.2,96.7c0.1,1.9,1.1,2.8,3,2.8c8.6-0.8,17.6-1.2,26.4-1.2c1.9-0.2,3-1.2,3.2-3.1
							c0.1-8.7,0.2-16.5,0.3-23.3c-0.2-1.5-1.1-2.3-2.8-2.4c-7.9,0-16,0.3-23.7,1.1c-1.7,0.3-2.8,1.2-3.4,2.7
							C94.6,80.1,93.6,87.9,93.2,96.7 M92.3,96.8c0.4-8.7,1.5-16.6,3.1-23.4c0.7-1.9,2.1-3,4.3-3.4c7.7-0.8,15.7-1.1,23.6-1.1
							c2.2,0.2,3.4,1.2,3.6,3.1c0,6.8-0.1,14.6-0.2,23.3c-0.3,2.5-1.6,3.8-4.1,4c-8.9,0-17.8,0.4-26.4,1.2
							C92.8,100.4,92.3,98.1,92.3,96.8"/>
						<path id="XMLID_1181_" class="st17" d="M60.5,103.8c0,1.9,0.5,2.7,1.7,2.5c5.3-1.9,11.9-3.5,19.6-4.8c1.7-0.5,2.7-1.7,2.9-3.6
							c0.5-8.7,1.8-16.6,3.8-23.5c0.3-1.5-0.3-2.1-1.8-2c-6.9,1.2-12.8,2.7-17.5,4.3c-1.1,0.5-2,1.6-2.8,3.2
							C63.2,86.9,61.2,95,60.5,103.8 M60,104c0.7-8.8,2.7-16.9,5.8-24c1-2,2.2-3.4,3.6-4c4.7-1.7,10.6-3.2,17.4-4.3
							c1.9-0.1,2.6,0.7,2.3,2.6c-1.9,6.9-3.2,14.8-3.7,23.5c-0.4,2.5-1.6,4-3.8,4.6c-7.7,1.3-14.2,3-19.6,4.8
							C60.1,107.5,59.9,105.3,60,104"/>
						<path id="XMLID_1177_" class="st17" d="M46.6,114.3c-0.2,2.1-0.1,2.3,0,2.4c0,0,0-0.1,0.1-0.1c1.1-2.4,3.6-4.7,7.4-6.9
							c0.9-0.7,1.4-2,1.6-4c0.7-8.8,2.9-16.9,6.2-24.2c0.4-1,0.5-1.4,0.4-1.8c-0.1,0-0.2-0.1-0.3-0.1c-0.1,0-0.2,0.1-0.2,0.1
							c-3.1,1.8-5.3,3.7-6.4,5.6c-1.5,3.1-3.4,7.3-4.7,10.5l-1.6,4.9C48,105.1,47.1,109.7,46.6,114.3 M46.6,114.6
							c0.3-3.8,1-7.4,1.9-11c0.7-2.3,1.6-5.4,2.4-7.7c3.1-7.6,3.1-7.6,5.2-11.3c1.1-1.9,3.2-3.8,6.3-5.5c1.1-0.4,0.6,1.1,0.1,2.4
							c-3.3,7.3-5.4,15.4-6.1,24.2c-0.3,2.6-1,4.2-2.1,5.1c-3.8,2.1-6.3,4.5-7.4,6.9c-0.1,0-0.1-0.1-0.2-0.1
							C46.5,117.1,46.4,116.5,46.6,114.6"/>
						<path id="XMLID_1175_" class="st17" d="M133.4,136.5c0,1.9,0.9,3,2.5,3.3c7.6,0.4,15,1.2,21.9,2.3c1.5,0.1,2.6-0.8,3.2-2.6
							c2.1-8.6,3.5-17.5,4.1-26.6c0-2-0.9-3.2-2.6-3.7c-7.7-1.2-16.1-2.1-24.7-2.6c-1.9,0.1-3,1.1-3.2,3.1
							C134.4,118.7,134,127.8,133.4,136.5 M132.6,136.5c0.5-8.7,0.9-17.8,1.2-26.9c0.3-2.6,1.6-3.9,4.1-4c8.6,0.5,17,1.4,24.7,2.6
							c2.2,0.6,3.2,2.2,3.3,4.8c-0.6,9-2.1,18-4.2,26.6c-0.8,2.3-2.1,3.4-4.1,3.4c-6.8-1.1-14.1-1.9-21.7-2.3
							C133,140.1,132.6,137.8,132.6,136.5"/>
						<path id="XMLID_1171_" class="st17" d="M95.8,137.6c0.5,1.9,1.6,2.8,3.3,2.8c7.6-0.7,15.5-1.1,23.3-1.1
							c1.7-0.2,2.6-1.2,2.9-3.1c0.1-8.7,0.3-17.8,0.4-26.9c-0.2-2-1.2-3.1-3.1-3.3c-8.8,0-17.8,0.4-26.4,1.2c-1.9,0.4-2.9,1.6-3,3.6
							C93.4,119.9,94.3,128.9,95.8,137.6 M95,137.7c-1.5-8.6-2.5-17.7-2.8-26.7c0.2-2.6,1.4-4.1,3.9-4.6c8.6-0.8,17.5-1.2,26.4-1.2
							c2.5,0.3,3.8,1.7,4,4.2c-0.1,9.1-0.3,18.2-0.5,26.9c-0.3,2.4-1.5,3.7-3.7,3.9c-7.8,0-15.6,0.3-23.2,1.1
							C96.2,141.2,95.3,139,95,137.7"/>
						<path id="XMLID_1167_" class="st17" d="M53.7,153.6c0.6,1.1,0.9,1.7,1.4,2.1c0.1,0,0.2-0.1,0.2-0.1c0.9-2.1,3.1-4.2,6.5-6.1
							c0.7-0.6,0.7-1.8,0-3.6c-3.3-8.2-5.4-16.9-6.2-25.9c-0.3-1.9-0.8-2.7-1.6-2.5c-3.8,2.1-6.3,4.5-7.4,6.9
							c-0.2,0.7-0.2,2.1-0.1,4.1C47.5,137.3,50,145.8,53.7,153.6 M53.7,153.8 M53.7,153.8c-3.7-7.8-6.2-16.2-7.1-25.1
							c-0.2-2.6-0.2-4.3,0.1-5.2c1.1-2.4,3.6-4.7,7.4-6.9c1.1-0.3,1.8,0.7,2.1,3.2c0.7,9,2.9,17.7,6.2,25.9c0.8,2.4,0.8,3.8,0,4.6"
							/>
						<path id="XMLID_1247_" class="st17" d="M151.9,175.4c-0.9,1.4-1,2.2-0.2,2.6c3.7,0.9,7,2,9.6,3.2c0.7,0.2,1.8-0.4,3.2-1.6
							c6.4-5.7,12-12.5,16.6-19.9c0.9-1.7,1-2.8,0.2-3.4c-4-1.9-9-3.5-14.7-4.9c-1.3-0.1-2.4,0.7-3.2,2.4
							C160.2,161.7,156.3,169,151.9,175.4 M151.5,175.3c4.3-6.4,8.2-13.7,11.3-21.7c1.1-2.2,2.4-3.2,4.1-3.1c5.8,1.4,10.8,3,14.8,5
							c1,0.8,0.9,2.2-0.3,4.4c-4.6,7.4-10.3,14.2-16.7,19.9c-1.8,1.5-3.2,2.2-4.1,2c-2.5-1.2-5.7-2.3-9.4-3.1
							C150,178,150.8,176.3,151.5,175.3"/>
						<path id="XMLID_1160_" class="st17" d="M129.9,172.6c-0.1,1.5,0.4,2.3,1.4,2.5c4.7,0.3,9.2,0.8,13.4,1.4c1,0,1.9-0.7,2.8-2.1
							c3.7-6.5,7-14,9.7-22c0.5-1.8,0-2.9-1.3-3.3c-6.4-1-13.4-1.8-20.7-2.2c-1.6,0.1-2.5,1-2.9,2.8
							C131.7,158.1,130.8,165.8,129.9,172.6 M129.4,172.6c0.9-6.8,1.6-14.5,2.3-22.8c0.4-2.3,1.6-3.5,3.7-3.7
							c7.3,0.4,14.3,1.2,20.8,2.2c1.8,0.5,2.3,1.9,1.7,4.2c-2.8,8-6.1,15.4-9.9,22c-1.2,1.8-2.4,2.6-3.6,2.6
							c-4.1-0.7-8.6-1.1-13.2-1.4C129.4,175.4,129.3,173.6,129.4,172.6"/>
						<path id="XMLID_1157_" class="st17" d="M86.9,177.4c1.3,1.3,2.4,1.9,3.1,1.8c2.9-1,6.4-1.9,10.6-2.6c0.8-0.3,0.9-1.1,0.2-2.6
							c-3.6-6.6-6.8-14.1-9.4-22.2c-0.7-1.8-1.8-2.6-3.2-2.6c-6.4,1.1-11.9,2.5-16.3,4c-0.9,0.5-0.9,1.6-0.1,3.4
							C76,164.3,81.1,171.4,86.9,177.4 M86.7,177.5c-5.9-6.1-11-13.1-15.2-20.8c-1.1-2.2-1-3.6,0.1-4.3c4.5-1.6,10-3,16.4-4.1
							c1.9-0.1,3.2,1,4.1,3.3c2.5,8.1,5.6,15.6,9.2,22.2c1.1,2.5,0.4,3.1-0.3,3.3c-4.1,0.7-7.6,1.6-10.4,2.6
							C89.2,180,87.2,178.1,86.7,177.5"/>
						<path id="XMLID_1153_" class="st17" d="M79,183.5c1.5,1,2.5,1.5,2.8,1.3c0.6-1.3,1.9-2.6,4-3.7c0.3-0.4-0.2-1.2-1.5-2.5
							c-6.3-5.9-11.7-12.8-16.2-20.3c-1.1-1.7-1.9-2.3-2.7-2.1c-3.2,1.8-5.3,3.7-6.2,5.7c-0.1,0.6,0.4,1.7,1.5,3.3
							C65.7,172.2,71.9,178.4,79,183.5 M78.9,183.7c-7.1-5.1-13.3-11.3-18.3-18.3c-1.4-2-2-3.4-1.9-4.2c0.9-2,3-4,6.2-5.8
							c1-0.3,2.1,0.6,3.5,2.7c4.4,7.6,9.8,14.5,16.1,20.4c2.2,2.2,2.2,2.9,1.9,3.2c-2,1.1-3.4,2.4-3.9,3.7
							C82.2,185.4,81.5,185.5,78.9,183.7"/>
					</g>
				</g>
			</g>
		</g>
		<g id="XMLID_1018_" class="st22">
			<g id="XMLID_1019_" class="st9">
				<g id="XMLID_1022_" class="st9">
					<g id="XMLID_1023_">
						<g id="XMLID_1143_">
							<path id="XMLID_1145_" class="st17" d="M157.9,67c-0.1,0-0.2,0-0.3,0c-6.6-1.1-13.7-1.8-21.1-2.3c-1.7-0.2-2.7-1-3-2.4l0,0
								c-0.5-5.6-1.1-10.1-1.9-13.2c0-0.3,0-0.6,0.2-0.8c0.3-0.3,0.7-0.4,1.5-0.4c5,0.3,9.7,0.8,14.1,1.5c1.1,0.2,2.1,0.7,2.9,1.5
								c3.5,3.5,6.5,8.2,9,14.1c0.2,0.7,0.2,1.2-0.1,1.6C159,66.9,158.5,67,157.9,67z M133.9,62.3c0.3,1.2,1.1,1.8,2.7,2
								c7.4,0.4,14.5,1.2,21.1,2.3c0.6,0,1.1-0.1,1.3-0.3c0.2-0.2,0.2-0.6,0-1.2c-2.4-5.8-5.4-10.5-8.9-13.9
								c-0.8-0.7-1.7-1.2-2.7-1.4c-4.4-0.7-9.1-1.2-14-1.5c-0.6,0-1,0.1-1.2,0.3c-0.1,0.1-0.1,0.3-0.1,0.5
								C132.8,52.2,133.4,56.7,133.9,62.3z"/>
						</g>
						<g id="XMLID_1134_">
							<path id="XMLID_1137_" class="st17" d="M100.9,65.4c-0.8,0-1.4-0.2-1.7-0.6c-0.3-0.3-0.3-0.8-0.2-1.5l0,0
								c2.1-5.7,4.7-10.3,7.6-13.6c0.8-0.7,1.7-1.2,2.9-1.4c4.8-0.5,9.9-0.7,15-0.7c1.2,0.1,1.9,0.5,2,1.2c0,3.1-0.1,7.6-0.1,13.2
								c-0.2,1.4-1.2,2.1-2.9,2.2c-7.7,0-15.3,0.3-22.5,1C101,65.4,100.9,65.4,100.9,65.4z M99.3,63.4c-0.1,0.5-0.1,0.9,0.1,1.1
								c0.3,0.3,0.8,0.5,1.6,0.5c7.2-0.7,14.8-1,22.5-1c1.6-0.1,2.4-0.7,2.5-1.9c0.1-5.6,0.1-10,0.1-13.2c-0.1-0.4-0.3-0.8-1.6-0.9
								c-5.1,0-10.2,0.2-15,0.7c-1.1,0.2-2,0.6-2.7,1.2C104,53.2,101.4,57.7,99.3,63.4z"/>
						</g>
						<g id="XMLID_1129_">
							<path id="XMLID_1215_" class="st17" d="M59.8,78.7l-0.3-0.2l0,0l0,0c0,0,0,0,0,0c0.8-1.1,1.8-2.5,2.7-3.7
								c0.4-0.5,0.8-1,1.1-1.4c3.2-3.9,3.7-4.4,9-9.5c4.4-3.8,5.4-4.4,10.8-8.1l2.5-1.5l0.2,0.3c-0.3,0.2-0.7,0.4-1,0.6l-0.5,0.3
								c-6.3,4.1-11.7,9.3-16.1,15.6c-1.1,1.5-2,2.4-2.8,3l0,0C62.8,75.5,60.9,77.1,59.8,78.7C59.8,78.7,59.8,78.7,59.8,78.7z
								 M78.5,59.3c-1.9,1.3-3.3,2.5-5.9,4.7c-5.3,5.1-5.8,5.5-9,9.5c-0.3,0.4-0.7,0.9-1.1,1.4c-0.3,0.4-0.6,0.8-0.9,1.1
								c1-0.8,2.1-1.6,3.5-2.4c0.8-0.5,1.6-1.4,2.7-2.9C71,66.5,74.5,62.7,78.5,59.3z"/>
						</g>
						<g id="XMLID_1209_">
							<path id="XMLID_1125_" class="st17" d="M193.5,110.1c-0.1,0-0.3,0-0.4-0.1c-4.7-2.2-10.6-4.2-17.6-5.9
								c-1.6-0.6-2.5-1.9-2.7-3.9l0,0c-0.3-8.6-1.5-16.5-3.6-23.7c-0.2-0.9-0.1-1.5,0.2-1.9c0.3-0.3,0.8-0.4,1.5-0.3
								c6.3,1.5,11.6,3.3,15.8,5.3c1.1,0.6,2,1.8,2.7,3.4c3.2,7.5,5,15.8,5.5,24.4c0,1.3-0.2,2.1-0.7,2.4
								C194,110.1,193.7,110.1,193.5,110.1z M173.1,100.2c0.2,1.9,1,3.1,2.4,3.6c7,1.7,12.9,3.7,17.6,5.9c0.3,0.1,0.5,0.1,0.7-0.1
								c0.4-0.3,0.5-1,0.5-2.1c-0.5-8.6-2.3-16.8-5.5-24.3c-0.7-1.6-1.6-2.7-2.6-3.3c-4.2-2-9.5-3.8-15.7-5.3
								c-0.5-0.1-0.9,0-1.1,0.2c-0.2,0.3-0.3,0.8-0.1,1.5C171.6,83.6,172.9,91.6,173.1,100.2z"/>
						</g>
						<g id="XMLID_1123_">
							<path id="XMLID_1204_" class="st17" d="M96.1,99.7c-2,0-3-1-3.1-3l0,0l0,0c0.4-8.6,1.4-16.5,3-23.5c0.5-1.6,1.7-2.5,3.5-2.9
								c7.6-0.7,15.6-1.1,23.7-1.1c1.8,0.2,2.8,1,3,2.6c-0.1,6.8-0.2,14.6-0.3,23.3c-0.2,2-1.3,3.1-3.4,3.3
								C113.5,98.5,104.6,98.9,96.1,99.7C96.2,99.7,96.1,99.7,96.1,99.7z M93.4,96.7c0.1,1.8,1,2.6,2.7,2.7c0,0,0,0,0,0
								c8.5-0.8,17.3-1.2,26.4-1.2c1.8-0.2,2.8-1.1,3-3c0.1-8.7,0.2-16.5,0.3-23.3c-0.1-1.4-1-2.1-2.6-2.2c-8.1,0-16.1,0.3-23.7,1.1
								c-1.7,0.3-2.7,1.1-3.2,2.6C94.8,80.3,93.8,88.1,93.4,96.7z"/>
						</g>
						<g id="XMLID_1118_">
							<path id="XMLID_1119_" class="st17" d="M61.8,106.5c-0.3,0-0.6-0.1-0.8-0.3c-0.5-0.4-0.7-1.2-0.7-2.4l0,0
								c0.7-8.6,2.6-16.7,5.8-24.1c0.8-1.6,1.8-2.7,2.9-3.3c4.9-1.7,10.8-3.2,17.6-4.4c0.8-0.1,1.4,0.1,1.7,0.5
								c0.3,0.4,0.4,1,0.3,1.8c-2,7.1-3.3,15-3.8,23.5c-0.3,2.1-1.3,3.3-3.1,3.8c-7.6,1.3-14.1,2.9-19.5,4.8
								C62,106.5,61.9,106.5,61.8,106.5z M60.7,103.8c0,1.1,0.2,1.8,0.5,2.1c0.2,0.2,0.5,0.2,0.9,0.2c5.4-1.9,12-3.6,19.6-4.8
								c1.6-0.5,2.5-1.6,2.8-3.5c0.5-8.6,1.7-16.5,3.8-23.6c0.1-0.7,0.1-1.1-0.2-1.4c-0.3-0.3-0.7-0.4-1.4-0.3
								C79.9,73.6,74,75,69.1,76.8c-1.1,0.5-2,1.5-2.7,3.1C63.3,87.1,61.4,95.2,60.7,103.8z"/>
						</g>
						<g id="XMLID_1116_">
							<path id="XMLID_1194_" class="st17" d="M46.7,117.2l-0.2-0.3c-0.1-0.2-0.2-0.4,0-2.6l0,0c0.4-4.6,1.3-9.2,2.6-13.6l1.6-4.9
								c1.2-3,3.1-7.2,4.7-10.5c1.1-2,3.3-3.9,6.4-5.7l0.3-0.1l0.4,0.2l0,0.1c0.1,0.5,0,0.9-0.4,1.9c-3.4,7.4-5.4,15.5-6.2,24.1
								c-0.3,2.1-0.8,3.4-1.7,4.1c-3.8,2.1-6.3,4.5-7.4,6.9L46.7,117.2z M46.8,114.4c-0.1,1-0.1,1.5-0.1,1.8
								c1.2-2.3,3.7-4.5,7.3-6.6c0.8-0.6,1.3-1.9,1.5-3.8c0.7-8.6,2.8-16.8,6.2-24.3c0.4-0.9,0.5-1.3,0.4-1.6l-0.1-0.1L62,79.9
								c-3.1,1.7-5.2,3.6-6.3,5.5C54.1,88.8,52.2,93,51,96l-1.6,4.8C48.1,105.2,47.3,109.8,46.8,114.4z"/>
						</g>
						<g id="XMLID_1113_">
							<path id="XMLID_1188_" class="st17" d="M157.9,142.3c0,0-0.1,0-0.1,0c-6.9-1.1-14.2-1.9-21.9-2.3c-1.8-0.3-2.7-1.5-2.7-3.4
								l0,0l0,0c0.6-8.9,1-17.9,1.2-26.9c0.3-2.1,1.4-3.2,3.4-3.3c8.7,0.5,17,1.4,24.8,2.6c1.8,0.5,2.7,1.8,2.7,3.9
								c-0.6,8.9-2,17.9-4.1,26.6C160.6,141.4,159.5,142.3,157.9,142.3z M133.6,136.5c0,1.8,0.8,2.8,2.4,3.1
								c7.6,0.4,15,1.2,21.9,2.3c0,0,0.1,0,0.1,0c1.4,0,2.3-0.8,2.9-2.5c2.1-8.7,3.5-17.6,4.1-26.5c0-1.9-0.8-3.1-2.4-3.5
								c-7.7-1.2-16-2.1-24.7-2.6c-1.8,0.1-2.8,1-3,2.9C134.6,118.6,134.2,127.6,133.6,136.5z"/>
						</g>
						<g id="XMLID_1182_">
							<path id="XMLID_1109_" class="st17" d="M99.1,140.6c-1.8,0-3-1-3.5-3l0,0c-1.5-8.9-2.4-17.9-2.7-26.8
								c0.1-2.1,1.2-3.4,3.2-3.8c8.5-0.8,17.4-1.2,26.4-1.2c2,0.2,3.1,1.4,3.3,3.5c-0.1,9.1-0.3,18.2-0.4,26.9c-0.2,2-1.2,3.1-3,3.3
								C114.4,139.5,106.5,139.9,99.1,140.6z M95.9,137.5c0.5,1.8,1.5,2.6,3.1,2.7c7.5-0.7,15.3-1.1,23.3-1.1
								c1.6-0.2,2.5-1.1,2.7-2.9c0.1-8.7,0.3-17.8,0.4-26.9c-0.2-1.9-1.1-2.9-3-3.1c-9,0-17.9,0.4-26.3,1.2
								c-1.8,0.4-2.7,1.5-2.8,3.4C93.6,119.7,94.5,128.7,95.9,137.5z"/>
						</g>
						<g id="XMLID_1106_">
							<path id="XMLID_1178_" class="st17" d="M55.1,155.9L55.1,155.9c-0.6-0.4-1-1.1-1.6-2.2l0,0c-3.8-8-6.2-16.4-7.1-25.2
								c-0.2-2-0.1-3.4,0.1-4.1c1.1-2.5,3.6-4.8,7.5-7l0,0c0.3-0.1,0.6-0.1,0.9,0.1c0.5,0.3,0.8,1.1,1,2.5
								c0.7,8.8,2.8,17.5,6.2,25.8c0.7,1.9,0.6,3.2-0.1,3.8l0,0c-3.4,1.9-5.5,3.9-6.4,6l0,0.1L55.1,155.9z M53.9,153.5
								c0.5,1,0.9,1.6,1.3,2l0.1,0c1-2.1,3.2-4.2,6.5-6.1c0.6-0.5,0.6-1.6,0-3.4c-3.4-8.4-5.5-17.1-6.2-25.9c-0.2-1.2-0.4-2-0.8-2.3
								c-0.2-0.1-0.3-0.1-0.5-0.1c-3.8,2.1-6.2,4.4-7.3,6.8c-0.2,0.7-0.2,2-0.1,4C47.7,137.1,50.1,145.5,53.9,153.5z"/>
						</g>
						<g id="XMLID_1103_">
							<path id="XMLID_1172_" class="st17" d="M161.4,181.4c-0.1,0-0.2,0-0.3,0l0,0c-2.5-1.2-5.7-2.3-9.5-3.2
								c-0.3-0.1-0.5-0.3-0.6-0.6c-0.2-0.5,0.1-1.2,0.7-2.2l0,0c4.4-6.4,8.3-13.7,11.5-21.6c0.9-1.8,2-2.6,3.4-2.5
								c5.9,1.4,10.8,3.1,14.7,4.9l0,0c0.9,0.7,0.8,1.9-0.2,3.6c-4.6,7.5-10.2,14.2-16.6,20C163.2,180.8,162.2,181.4,161.4,181.4z
								 M161.3,181c0.5,0.1,1.4-0.1,3-1.5c6.4-5.7,11.9-12.4,16.5-19.9c0.9-1.6,1-2.6,0.3-3.1c-3.9-1.8-8.8-3.5-14.6-4.9
								c-1.2-0.1-2.2,0.6-3,2.3c-3.2,8-7.1,15.2-11.5,21.7c-0.6,0.9-0.8,1.5-0.7,1.9c0,0.2,0.2,0.3,0.3,0.4
								C155.5,178.7,158.7,179.7,161.3,181z"/>
						</g>
						<g id="XMLID_1166_">
							<path id="XMLID_1099_" class="st17" d="M144.7,176.8c-4.2-0.7-8.7-1.2-13.5-1.4c-1.1-0.2-1.6-1.1-1.5-2.7l0,0
								c0.9-6.8,1.8-14.5,2.5-22.8c0.3-1.9,1.4-2.9,3-3c7.3,0.4,14.2,1.2,20.7,2.2c1.5,0.4,2,1.6,1.5,3.5c-2.7,8.1-6,15.5-9.7,22
								C146.8,176.1,145.8,176.8,144.7,176.8z M130.1,172.6c-0.1,1.8,0.6,2.2,1.2,2.3c4.7,0.3,9.2,0.8,13.4,1.4c0.9,0,1.8-0.6,2.7-2
								c3.7-6.5,7-13.9,9.7-22c0.4-1.7,0-2.7-1.2-3c-6.4-1-13.4-1.8-20.6-2.2c-1.5,0.1-2.3,0.9-2.7,2.7
								C131.9,158.1,131,165.8,130.1,172.6z"/>
						</g>
						<g id="XMLID_1096_">
							<path id="XMLID_1097_" class="st17" d="M89.9,179.4c-0.8,0-1.8-0.6-3.1-1.8l0,0c-5.9-6.1-10.9-13.1-15.1-20.8
								c-0.9-1.9-0.8-3,0.2-3.6c4.6-1.6,10.1-3,16.4-4.1c1.6-0.1,2.7,0.8,3.4,2.7c2.6,8.1,5.7,15.6,9.3,22.2c0.5,1,0.6,1.7,0.4,2.2
								c-0.1,0.3-0.4,0.5-0.7,0.6c-4.1,0.7-7.7,1.6-10.6,2.6l0,0C90,179.4,90,179.4,89.9,179.4z M87.1,177.3c1.2,1.2,2.3,1.8,3,1.7
								c3-1.1,6.5-1.9,10.6-2.6c0.2-0.1,0.4-0.2,0.4-0.4c0.2-0.4,0-1-0.4-1.9c-3.6-6.6-6.8-14.1-9.4-22.2c-0.7-1.7-1.7-2.5-3-2.4
								c-6.3,1.1-11.7,2.4-16.2,4c-0.8,0.4-0.8,1.5,0,3.1C76.2,164.2,81.3,171.2,87.1,177.3z"/>
						</g>
						<g id="XMLID_1154_">
							<path id="XMLID_1156_" class="st17" d="M81.7,185.1l-0.1,0c-0.7-0.1-1.8-0.7-2.8-1.4l0,0c-7.1-5.1-13.3-11.3-18.4-18.4
								c-1.1-1.7-1.6-2.7-1.5-3.4l0-0.1c0.9-2,3-4,6.2-5.8l0,0c0.9-0.2,1.8,0.5,3,2.2c4.4,7.6,9.9,14.4,16.1,20.3
								c1.5,1.4,1.9,2.3,1.5,2.7l-0.1,0c-2,1.1-3.4,2.4-4,3.7L81.7,185.1z M79.1,183.4L79.1,183.4c0.5,0.3,1.7,1.2,2.4,1.3
								c0.7-1.3,2.1-2.6,4.1-3.7c0.1-0.2,0-0.7-1.5-2.2c-6.3-5.9-11.7-12.8-16.2-20.4c-1-1.5-1.8-2.2-2.5-2c-3.1,1.8-5.2,3.6-6,5.6
								c-0.1,0.6,0.4,1.6,1.5,3.1C65.8,172.1,72,178.3,79.1,183.4z"/>
						</g>
						<g id="XMLID_1090_">
							<path id="XMLID_1091_" class="st17" d="M158.2,67.6c-0.1,0-0.2,0-0.3,0c-6.6-1.1-13.8-1.8-21.2-2.3c-3-0.4-3.7-2.1-3.8-3l0,0
								c-0.4-5.6-1-10.1-1.7-13.2c0-0.4,0.1-0.7,0.3-1c0.3-0.3,0.9-0.5,1.8-0.5c4.9,0.3,9.5,0.8,13.9,1.5c1.4,0.3,2.6,0.9,3.7,1.9
								c3.6,3.5,6.7,8.2,9.1,14.1c0.3,0.9,0.2,1.5-0.1,2C159.5,67.4,159,67.6,158.2,67.6z M133.2,62.3c0.1,0.8,0.7,2.3,3.5,2.7
								c7.4,0.4,14.6,1.2,21.2,2.3c0.8,0.1,1.4-0.1,1.7-0.4c0.3-0.3,0.3-0.9,0-1.6c-1.4-3.4-3.1-6.5-4.9-9.1
								c1.7,2.6,3.3,5.5,4.7,8.8c0.2,0.7,0.2,1.2-0.1,1.6c-0.3,0.4-0.8,0.5-1.6,0.5c-6.6-1.1-13.7-1.8-21.1-2.3
								c-1.7-0.2-2.7-1-3-2.4l0,0c-0.5-5.6-1.1-10.1-1.9-13.2c0-0.3,0-0.6,0.2-0.8c0-0.1,0.1-0.1,0.2-0.1c-0.1,0.1-0.3,0.1-0.4,0.2
								c-0.1,0.2-0.2,0.4-0.2,0.6C132.2,52.2,132.8,56.6,133.2,62.3z M133.9,62.3c0.3,1.2,1.1,1.8,2.7,2c7.4,0.4,14.5,1.2,21.1,2.3
								c0.6,0,1.1-0.1,1.3-0.3c0.2-0.2,0.2-0.6,0-1.2c-2.4-5.8-5.4-10.5-8.9-13.9c-0.8-0.7-1.7-1.2-2.7-1.4c-4.4-0.7-9.1-1.2-14-1.5
								c-0.6,0-1,0.1-1.2,0.3c-0.1,0.1-0.1,0.3-0.1,0.5C132.8,52.2,133.4,56.7,133.9,62.3z"/>
						</g>
						<g id="XMLID_1140_">
							<path id="XMLID_1088_" class="st17" d="M100.6,66c-1.1,0-1.9-0.3-2.2-0.8c-0.3-0.4-0.4-1.1-0.2-1.8l0,0
								c2.2-5.7,4.8-10.3,7.8-13.6c1-0.9,2.2-1.5,3.7-1.7c4.7-0.5,9.7-0.7,14.8-0.7c1.5,0.1,2.3,0.6,2.5,1.5
								c0.1,3.2,0.1,7.6,0.1,13.2c-0.2,1.7-1.4,2.7-3.7,2.8c-7.8,0-15.4,0.3-22.6,1C100.8,66,100.7,66,100.6,66z M98.6,63.5
								c-0.1,0.4-0.2,1,0.1,1.4c0.3,0.4,1,0.7,2.1,0.6c7.2-0.7,14.9-1.1,22.6-1c2-0.1,3.1-1,3.3-2.5c0-5.6,0-10-0.1-13.2
								c0-0.2-0.2-0.5-0.5-0.8c0.2,0.2,0.3,0.4,0.4,0.7c0,3.1-0.1,7.6-0.1,13.2c-0.2,1.4-1.2,2.1-2.9,2.2c-7.7,0-15.3,0.3-22.5,1
								c-1,0-1.6-0.2-1.9-0.6c-0.3-0.3-0.3-0.8-0.2-1.5l0,0c1.8-4.9,4-9,6.4-12.1C102.8,54.3,100.5,58.4,98.6,63.5z M99.3,63.4
								c-0.1,0.5-0.1,0.9,0.1,1.1c0.3,0.3,0.8,0.5,1.6,0.5c7.2-0.7,14.8-1,22.5-1c1.6-0.1,2.4-0.7,2.5-1.9c0.1-5.6,0.1-10,0.1-13.2
								c-0.1-0.4-0.3-0.8-1.6-0.9c-5.1,0-10.2,0.2-15,0.7c-1.1,0.2-2,0.6-2.7,1.2C104,53.2,101.4,57.7,99.3,63.4z"/>
						</g>
						<g id="XMLID_1083_">
							<path id="XMLID_1085_" class="st17" d="M59.3,79.5L59,79.2c0.1-0.2,0.2-0.3,0.3-0.5c0.1-0.1,0.1-0.2,0.2-0.3l0,0
								c0.6-0.9,1.4-2,2.2-3c0.6-0.8,1.1-1.5,1.7-2.2c0,0,0,0,0,0c1.9-2.3,2.8-3.4,4.3-5c1.5-1.6,2.5-2.6,4.7-4.5c0,0,0,0,0,0
								c2.3-2,3.6-3.1,5.2-4.2c1.6-1.2,3-2.2,5.6-3.9l0,0l3.2-1.9l0.2,0.3l0,0l0,0l0,0c-0.4,0.3-0.9,0.6-1.3,0.9
								c-0.2,0.1-0.5,0.3-0.7,0.4c-6.2,4-11.6,9.3-16,15.5c-1.9,2.6-3.1,3.5-3.6,3.8l0,0c-2.4,1.3-4.2,2.8-5.3,4.2
								C59.5,79.2,59.4,79.3,59.3,79.5z M62,75.7c-0.1,0.1-0.2,0.2-0.3,0.4c1-0.8,2.1-1.6,3.5-2.3c0.8-0.5,1.6-1.4,2.7-2.9
								c3.1-4.3,6.6-8.2,10.6-11.5c-0.2,0.2-0.5,0.3-0.7,0.5c-1.3,1-2.8,2.2-5.2,4.2c-2.2,2.1-3.6,3.4-4.6,4.5
								c-1,1.1-2.3,2.6-4.3,4.9c-0.3,0.4-0.7,0.9-1.1,1.4C62.4,75.2,62.2,75.5,62,75.7z"/>
						</g>
						<g id="XMLID_1077_">
							<path id="XMLID_1078_" class="st17" d="M193.6,111c-0.2,0-0.4,0-0.6-0.1c-4.7-2.2-10.6-4.2-17.6-5.9c-2.7-1-3.3-3.6-3.4-5
								l0,0c-0.3-8.6-1.5-16.5-3.6-23.7c-0.2-1.1-0.1-1.9,0.3-2.3c0.4-0.4,1-0.5,1.8-0.4c6.3,1.5,11.6,3.3,15.8,5.3
								c1.3,0.8,2.5,2.2,3.5,4.4c3.2,7.5,5,15.8,5.5,24.4c0,1.6-0.3,2.6-0.9,3.1C194.2,111,193.9,111,193.6,111z M172.4,100.1
								c0.1,1.3,0.6,3.7,3.2,4.6c7,1.7,12.9,3.7,17.6,5.9c0.4,0.1,0.7,0.1,1-0.1c0.5-0.4,0.7-1.3,0.7-2.7c-0.2-3.3-0.6-6.6-1.2-9.8
								c0.6,3.1,0.9,6.3,1.1,9.5c0,1.3-0.2,2.1-0.7,2.4c-0.3,0.2-0.7,0.3-1.1,0.1c-4.7-2.2-10.6-4.2-17.6-5.9
								c-1.6-0.6-2.5-1.9-2.7-3.9l0,0c-0.3-8.6-1.5-16.5-3.6-23.7c-0.2-0.9-0.1-1.5,0.2-1.9c0.3-0.3,0.8-0.4,1.5-0.3
								c6.3,1.5,11.6,3.3,15.8,5.3c0,0,0.1,0,0.1,0.1c-0.2-0.2-0.4-0.3-0.6-0.4c-4.1-2-9.4-3.7-15.6-5.2c-0.7-0.1-1.2,0-1.5,0.3
								c-0.3,0.3-0.4,1-0.2,2C170.9,83.5,172.1,91.5,172.4,100.1z M173.1,100.2c0.2,1.9,1,3.1,2.4,3.6c7,1.7,12.9,3.7,17.6,5.9
								c0.3,0.1,0.5,0.1,0.7-0.1c0.4-0.3,0.5-1,0.5-2.1c-0.5-8.6-2.3-16.8-5.5-24.3c-0.7-1.6-1.6-2.7-2.6-3.3
								c-4.2-2-9.5-3.8-15.7-5.3c-0.5-0.1-0.9,0-1.1,0.2c-0.2,0.3-0.3,0.8-0.1,1.5C171.6,83.6,172.9,91.6,173.1,100.2z"/>
						</g>
						<g id="XMLID_1071_">
							<path id="XMLID_1072_" class="st17" d="M96.1,100.6c-3.4,0-4-2.4-4-3.8l0,0c0.4-8.6,1.5-16.5,3.1-23.5c0.7-2,2.2-3.2,4.5-3.6
								c7.6-0.7,15.5-1.1,23.6-1.1c2.3,0.2,3.6,1.3,3.8,3.3c0,7-0.1,14.8-0.2,23.3c-0.3,2.6-1.7,4-4.3,4.2
								C113.5,99.4,104.6,99.8,96.1,100.6C96.1,100.6,96.1,100.6,96.1,100.6z M92.5,96.8c0,1.6,0.6,3.4,3.6,3.4c0,0,0,0,0,0
								c8.5-0.8,17.4-1.2,26.4-1.2c2.4-0.2,3.7-1.5,3.9-3.8c0.1-8.5,0.2-16.3,0.2-23.3c-0.2-1.8-1.3-2.7-3.4-2.9
								c-8.1,0-16,0.3-23.5,1.1c-2.1,0.4-3.5,1.5-4.1,3.3C94,80.4,92.9,88.2,92.5,96.8z M96.1,99.7c-2,0-3-1-3.1-3l0,0l0,0
								c0.4-8.6,1.4-16.5,3-23.5c0.5-1.6,1.7-2.5,3.5-2.9c7.6-0.7,15.6-1.1,23.7-1.1c1.8,0.2,2.8,1,3,2.6
								c-0.1,6.8-0.2,14.6-0.3,23.3c-0.2,2-1.3,3.1-3.4,3.3C113.5,98.5,104.6,98.9,96.1,99.7C96.2,99.7,96.1,99.7,96.1,99.7z
								 M93.4,96.7c0.1,1.8,1,2.6,2.7,2.7c0,0,0,0,0,0c8.5-0.8,17.3-1.2,26.4-1.2c1.8-0.2,2.8-1.1,3-3c0.1-8.7,0.2-16.5,0.3-23.3
								c-0.1-1.4-1-2.1-2.6-2.2c-8.1,0-16.1,0.3-23.7,1.1c-1.7,0.3-2.7,1.1-3.2,2.6C94.8,80.3,93.8,88.1,93.4,96.7z"/>
						</g>
						<g id="XMLID_1065_">
							<path id="XMLID_1066_" class="st17" d="M61.6,107.4c-0.4,0-0.8-0.1-1.1-0.4c-0.8-0.7-0.9-2-0.8-3.1l0,0
								c0.7-8.6,2.7-16.7,5.8-24.1c1-2.1,2.2-3.4,3.7-4.1c4.9-1.7,10.7-3.2,17.5-4.3c1-0.1,1.7,0.1,2.1,0.6c0.4,0.5,0.5,1.2,0.4,2.2
								c-2,7.1-3.2,15-3.7,23.5c-0.4,2.6-1.6,4.2-3.9,4.8c-7.6,1.3-14.1,2.9-19.5,4.8C62,107.4,61.8,107.4,61.6,107.4z M60.2,104
								c0,0.8,0,2.2,0.7,2.7c0.3,0.3,0.7,0.3,1.2,0.2c5.4-1.9,12-3.6,19.6-4.8c2.1-0.6,3.3-2.1,3.6-4.5c0.5-8.6,1.7-16.5,3.7-23.5
								c0.2-0.9,0.1-1.5-0.3-1.9c-0.3-0.4-0.9-0.5-1.8-0.5c-6.7,1.1-12.6,2.6-17.4,4.3c-0.4,0.2-0.7,0.4-1.1,0.7
								c0.2-0.1,0.4-0.2,0.6-0.3c4.9-1.7,10.8-3.2,17.6-4.4c0.8-0.1,1.4,0.1,1.7,0.5c0.3,0.4,0.4,1,0.3,1.8c-2,7.1-3.3,15-3.8,23.5
								c-0.3,2.1-1.3,3.3-3.1,3.8c-7.6,1.3-14.1,2.9-19.5,4.8c-0.5,0.1-0.9,0-1.3-0.2c-0.5-0.4-0.7-1.2-0.7-2.4l0,0
								c0.5-6.6,1.8-12.8,3.7-18.6C62,91,60.7,97.3,60.2,104z M60.7,103.8c0,1.1,0.2,1.8,0.5,2.1c0.2,0.2,0.5,0.2,0.9,0.2
								c5.4-1.9,12-3.6,19.6-4.8c1.6-0.5,2.5-1.6,2.8-3.5c0.5-8.6,1.7-16.5,3.8-23.6c0.1-0.7,0.1-1.1-0.2-1.4
								c-0.3-0.3-0.7-0.4-1.4-0.3C79.9,73.6,74,75,69.1,76.8c-1.1,0.5-2,1.5-2.7,3.1C63.3,87.1,61.4,95.2,60.7,103.8z"/>
						</g>
						<g id="XMLID_1059_">
							<path id="XMLID_1060_" class="st17" d="M46.8,117.8l-0.5-0.2l0-0.1c0-0.4-0.1-1,0.1-2.9v0c0.3-3.7,1-7.4,1.9-11l0-0.1
								c0.2-0.9,0.5-1.8,0.7-2.7l0.8-2.4c0.3-0.9,0.5-1.7,0.8-2.5c0,0,0,0,0,0c0.1-0.2,0.2-0.5,0.3-0.8c2.8-6.8,2.9-7,4.8-10.5
								c1.1-2,3.2-3.9,6.4-5.6c0.4-0.1,0.6-0.1,0.8,0c0.2,0.2,0.4,0.7-0.5,2.6c-3.3,7.4-5.4,15.5-6.1,24.1c-0.3,2.6-1,4.3-2.2,5.2
								c-3.8,2.1-6.3,4.4-7.3,6.8L46.8,117.8z M55.6,107.5c-0.3,1.2-0.8,2-1.4,2.5c-3.7,2.1-6.2,4.3-7.3,6.7c1.3-2.1,3.6-4.2,7-6.1
								C54.7,110,55.3,109,55.6,107.5z M46.8,114.4c-0.1,1-0.1,1.5-0.1,1.9c1.1-2.3,3.6-4.5,7.3-6.6c0.8-0.6,1.3-1.9,1.5-3.8
								c0.7-8.6,2.8-16.8,6.2-24.3c0.4-0.9,0.5-1.3,0.4-1.6l-0.1-0.1L62,79.9c-3.1,1.7-5.2,3.6-6.3,5.5c-1.5,3-3.2,6.7-4.4,9.6
								c-0.1,0.3-0.2,0.5-0.3,0.8l-0.8,2.4c-0.4,1.4-0.8,2.8-1.2,4.1l-0.3,1C47.8,107.1,47.2,110.7,46.8,114.4z M56.3,102.3
								c-0.2,1.2-0.3,2.4-0.4,3.6c0,0,0,0.1,0,0.1c0-0.1,0-0.2,0.1-0.4C56.1,104.5,56.2,103.4,56.3,102.3z M62.6,79.2
								c-0.1,0-0.2,0-0.3,0.1c-0.7,0.4-1.4,0.8-2,1.3c0.5-0.3,1-0.6,1.5-0.9l0.3-0.1l0.4,0.2l0,0.1c0,0.1,0,0.3,0,0.4
								C62.8,79.4,62.7,79.2,62.6,79.2C62.7,79.2,62.6,79.2,62.6,79.2z"/>
						</g>
						<g id="XMLID_1055_">
							<path id="XMLID_1056_" class="st17" d="M157.7,143.1c0,0-0.1,0-0.1,0c-6.8-1.1-14.1-1.9-21.7-2.3c-3-0.5-3.5-3-3.4-4.4l0,0
								c0.5-8.9,0.9-17.9,1.2-26.9c0.3-2.7,1.7-4,4.3-4.2c8.7,0.5,17,1.4,24.8,2.6c2.3,0.6,3.4,2.3,3.4,5c-0.6,8.9-2,17.9-4.2,26.6
								C161.1,142,159.7,143.2,157.7,143.1z M132.8,136.5c0,1.3,0.4,3.5,3.1,4c7.6,0.4,14.9,1.2,21.7,2.3c1.8,0.1,3.1-1,3.9-3.2
								c2.1-8.7,3.5-17.6,4.2-26.5c0-2.5-1.1-4-3.1-4.6c-7.7-1.2-16-2.1-24.7-2.6c-2.3,0.1-3.6,1.4-3.9,3.8
								C133.7,118.5,133.3,127.6,132.8,136.5z M157.9,142.3c0,0-0.1,0-0.1,0c-6.9-1.1-14.2-1.9-21.9-2.3c-1.8-0.3-2.7-1.5-2.7-3.4
								l0,0l0,0c0.6-8.9,1-17.9,1.2-26.9c0.3-2.1,1.4-3.2,3.4-3.3c8.7,0.5,17,1.4,24.8,2.6c1.8,0.5,2.7,1.8,2.7,3.9
								c-0.6,8.9-2,17.9-4.1,26.6C160.6,141.4,159.5,142.3,157.9,142.3z M133.6,136.5c0,1.8,0.8,2.8,2.4,3.1
								c7.6,0.4,15,1.2,21.9,2.3c0,0,0.1,0,0.1,0c1.4,0,2.3-0.8,2.9-2.5c2.1-8.7,3.5-17.6,4.1-26.5c0-1.9-0.8-3.1-2.4-3.5
								c-7.7-1.2-16-2.1-24.7-2.6c-1.8,0.1-2.8,1-3,2.9C134.6,118.6,134.2,127.6,133.6,136.5z"/>
						</g>
						<g id="XMLID_1050_">
							<path id="XMLID_1084_" class="st17" d="M99.2,141.5c-3.1,0-4.1-2.4-4.4-3.7l0,0c-1.5-8.8-2.5-17.9-2.8-26.8
								c0.2-2.7,1.5-4.3,4-4.8c8.5-0.8,17.4-1.2,26.4-1.2c2.6,0.3,4,1.7,4.2,4.4c-0.1,8.9-0.3,18-0.5,26.9c-0.3,2.5-1.5,3.9-3.8,4.1
								C114.4,140.4,106.6,140.7,99.2,141.5z M95.2,137.6c0.3,1.3,1.2,3.4,4,3.4c7.4-0.7,15.2-1.1,23.2-1.1c2.1-0.2,3.2-1.5,3.5-3.8
								c0.2-8.9,0.3-18,0.5-26.9c-0.2-2.4-1.5-3.8-3.8-4c-9,0-17.9,0.4-26.4,1.2c-2.3,0.5-3.5,1.9-3.7,4.4
								C92.7,119.8,93.6,128.8,95.2,137.6z M99.1,140.6c-1.8,0-3-1-3.5-3l0,0c-1.5-8.9-2.4-17.9-2.7-26.8c0.1-2.1,1.2-3.4,3.2-3.8
								c8.5-0.8,17.4-1.2,26.4-1.2c2,0.2,3.1,1.4,3.3,3.5c-0.1,9.1-0.3,18.2-0.4,26.9c-0.2,2-1.2,3.1-3,3.3
								C114.4,139.5,106.5,139.9,99.1,140.6z M95.9,137.5c0.5,1.8,1.5,2.6,3.1,2.7c7.5-0.7,15.3-1.1,23.3-1.1
								c1.6-0.2,2.5-1.1,2.7-2.9c0.1-8.7,0.3-17.8,0.4-26.9c-0.2-1.9-1.1-2.9-3-3.1c-9,0-17.9,0.4-26.3,1.2
								c-1.8,0.4-2.7,1.5-2.8,3.4C93.6,119.7,94.5,128.7,95.9,137.5z"/>
						</g>
						<g id="XMLID_1047_">
							<path id="XMLID_1048_" class="st17" d="M55.1,155.9L55.1,155.9c-0.6-0.4-1-1-1.5-2.1l-0.1,0.1c-3.8-8-6.2-16.4-7.1-25.1
								c-0.2-2.6-0.2-4.3,0.1-5.3c1.1-2.5,3.6-4.8,7.5-7l0,0c0.4-0.1,0.8-0.1,1.1,0.1c0.6,0.4,1,1.5,1.3,3.2
								c0.7,8.8,2.8,17.5,6.1,25.9c0.9,2.5,0.8,4-0.1,4.8l-0.3-0.3c0.8-0.7,0.8-2.1,0-4.4c-3.4-8.4-5.4-17.1-6.2-26
								c-0.2-1.6-0.6-2.6-1.1-2.9c-0.2-0.1-0.5-0.2-0.7-0.1c-3.8,2.1-6.2,4.4-7.3,6.8c0,0.1,0,0.1-0.1,0.2c1.2-2.3,3.6-4.4,7.2-6.4
								l0,0c0.3-0.1,0.6-0.1,0.9,0.1c0.5,0.3,0.8,1.1,1,2.5c0.7,8.8,2.8,17.5,6.2,25.8c0.7,1.9,0.6,3.2-0.1,3.8l0,0
								c-3.4,1.9-5.5,3.9-6.4,6l0,0.1L55.1,155.9z M53.9,153.5c0.5,1,0.9,1.6,1.3,2l0.1,0c1-2.1,3.2-4.2,6.5-6.1
								c0.6-0.5,0.6-1.6,0-3.4c-3.4-8.4-5.5-17.1-6.2-25.9c-0.2-1.2-0.4-2-0.8-2.3c-0.2-0.1-0.3-0.1-0.5-0.1
								c-3.8,2.1-6.2,4.4-7.3,6.8c-0.2,0.7-0.2,2-0.1,4C47.7,137.1,50.1,145.5,53.9,153.5z"/>
						</g>
						<g id="XMLID_1070_">
							<path id="XMLID_1043_" class="st17" d="M160.8,181.9c-0.1,0-0.2,0-0.3,0l0,0c-2.5-1.2-5.6-2.2-9.4-3.1
								c-0.4-0.2-0.6-0.4-0.7-0.7c-0.2-0.8,0.3-2,0.9-2.8l0,0c4.3-6.4,8.1-13.7,11.3-21.6c1.1-2.3,2.5-3.4,4.3-3.2
								c5.9,1.4,10.9,3.1,14.8,5l0,0c1.1,0.8,1,2.3-0.2,4.6c-4.7,7.5-10.3,14.2-16.7,19.9C163.1,181.2,161.8,181.9,160.8,181.9z
								 M160.6,181.5c0.3,0.1,0.7,0,1.2-0.2c-0.2,0-0.5,0.1-0.7,0l0,0c-2.5-1.2-5.7-2.3-9.5-3.2c-0.3-0.1-0.5-0.3-0.6-0.6
								c-0.2-0.5,0.1-1.2,0.7-2.2l0,0c4.4-6.4,8.3-13.7,11.5-21.6c0.9-1.8,2-2.6,3.4-2.5c5.9,1.4,10.8,3.1,14.7,4.9l0,0
								c0.9,0.7,0.8,1.9-0.2,3.6c-0.8,1.4-1.7,2.7-2.6,4c0.9-1.3,1.8-2.7,2.7-4c1.1-2.1,1.3-3.4,0.4-4.1c-3.9-1.9-8.9-3.5-14.7-4.9
								c-1.6-0.1-2.9,0.8-3.9,3c-3.2,8-7,15.3-11.3,21.7c-0.7,1.1-1,2-0.8,2.5c0.1,0.2,0.2,0.4,0.4,0.5
								C154.9,179.3,158.1,180.3,160.6,181.5z M161.3,181c0.5,0.1,1.4-0.1,3-1.5c6.4-5.7,11.9-12.4,16.5-19.9c0.9-1.6,1-2.6,0.3-3.1
								c-3.9-1.8-8.8-3.5-14.6-4.9c-1.2-0.1-2.2,0.6-3,2.3c-3.2,8-7.1,15.2-11.5,21.7c-0.6,0.9-0.8,1.5-0.7,1.9
								c0,0.2,0.2,0.3,0.3,0.4C155.5,178.7,158.7,179.7,161.3,181z"/>
						</g>
						<g id="XMLID_1037_">
							<path id="XMLID_1038_" class="st17" d="M144.3,177.4c-4.2-0.7-8.6-1.1-13.2-1.4c-1.9-0.4-2-2.3-1.9-3.4l0,0
								c0.9-6.8,1.6-14.5,2.3-22.8c0.4-2.5,1.7-3.7,3.8-3.8c7.3,0.4,14.3,1.2,20.8,2.2c1.9,0.6,2.5,2.1,1.9,4.5
								c-2.8,8.1-6.1,15.5-9.9,22C146.9,176.5,145.7,177.4,144.3,177.4z M129.6,172.6c-0.1,1,0,2.7,1.6,3c4.6,0.3,9.1,0.7,13.2,1.4
								c1.2,0,2.3-0.8,3.4-2.5c3.8-6.5,7.1-13.9,9.9-21.9c0.6-2.2,0.1-3.5-1.6-4c-6.5-1-13.5-1.8-20.8-2.2c-1.9,0.1-3.1,1.3-3.5,3.5
								C131.2,158.1,130.4,165.8,129.6,172.6z M144.7,176.8c-4.2-0.7-8.7-1.2-13.5-1.4c-1.1-0.2-1.6-1.1-1.5-2.7l0,0
								c0.9-6.8,1.8-14.5,2.5-22.8c0.3-1.9,1.4-2.9,3-3c7.3,0.4,14.2,1.2,20.7,2.2c1.5,0.4,2,1.6,1.5,3.5c-2.7,8.1-6,15.5-9.7,22
								C146.8,176.1,145.8,176.8,144.7,176.8z M130.1,172.6c-0.1,1.8,0.6,2.2,1.2,2.3c4.7,0.3,9.2,0.8,13.4,1.4c0.9,0,1.8-0.6,2.7-2
								c3.7-6.5,7-13.9,9.7-22c0.4-1.7,0-2.7-1.2-3c-6.4-1-13.4-1.8-20.6-2.2c-1.5,0.1-2.3,0.9-2.7,2.7
								C131.9,158.1,131,165.8,130.1,172.6z"/>
						</g>
						<g id="XMLID_1032_">
							<path id="XMLID_1033_" class="st17" d="M90.4,180c-1.4,0-3.2-1.6-3.9-2.3l0,0c-5.9-6.1-11-13.1-15.2-20.8
								c-1.1-2.3-1-3.8,0.2-4.6c4.6-1.6,10.1-3,16.5-4.1c2-0.1,3.4,1,4.4,3.4c2.5,8.1,5.6,15.6,9.2,22.2c0.6,1.3,0.8,2.2,0.5,2.8
								c-0.1,0.4-0.4,0.6-0.9,0.8c-4,0.7-7.5,1.6-10.4,2.6l0,0C90.6,180,90.5,180,90.4,180z M89.4,179.3c0.5,0.2,0.9,0.3,1.3,0.3
								c2.9-1,6.4-1.9,10.4-2.6c0.3-0.1,0.5-0.3,0.6-0.5c0.2-0.5,0-1.3-0.5-2.5c-3.6-6.6-6.7-14.1-9.2-22.3
								c-0.9-2.2-2.2-3.2-3.9-3.1c-6.3,1.1-11.8,2.4-16.4,4.1c-1,0.6-1,1.9,0,4.1c1.5,2.7,3,5.3,4.7,7.8c-1.6-2.5-3.2-5.1-4.6-7.8
								c-0.9-1.9-0.8-3,0.2-3.6c4.6-1.6,10.1-3,16.4-4.1c1.6-0.1,2.7,0.8,3.4,2.7c2.6,8.1,5.7,15.6,9.3,22.2c0.5,1,0.6,1.7,0.4,2.2
								c-0.1,0.3-0.4,0.5-0.7,0.6c-4.1,0.7-7.7,1.6-10.6,2.6l0,0C89.9,179.4,89.6,179.4,89.4,179.3z M87.1,177.3
								c1.2,1.2,2.3,1.8,3,1.7c3-1.1,6.5-1.9,10.6-2.6c0.2-0.1,0.4-0.2,0.4-0.4c0.2-0.4,0-1-0.4-1.9c-3.6-6.6-6.8-14.1-9.4-22.2
								c-0.7-1.7-1.7-2.5-3-2.4c-6.3,1.1-11.7,2.4-16.2,4c-0.8,0.4-0.8,1.5,0,3.1C76.2,164.2,81.3,171.2,87.1,177.3z"/>
						</g>
						<g id="XMLID_1026_">
							<path id="XMLID_1027_" class="st17" d="M82.2,185.5c-0.4,0-1.3-0.2-3.4-1.7l0,0c-7.1-5.1-13.3-11.3-18.4-18.3
								c-1.4-2.1-2.1-3.5-1.9-4.3l0-0.1c0.9-2.1,3-4,6.3-5.9l0,0c1.1-0.3,2.3,0.6,3.7,2.8c4.4,7.6,9.8,14.4,16,20.3
								c2.3,2.3,2.3,3,1.9,3.4l-0.1,0c-2,1.1-3.3,2.3-3.9,3.6l0,0.1l-0.1,0C82.4,185.5,82.3,185.6,82.2,185.5z M81.7,185.1
								c0.3,0.1,0.5,0.1,0.6,0.1c0.6-1.3,1.9-2.5,3.9-3.6c0.1-0.2,0.1-0.5-0.3-1c0.1,0.3,0.1,0.6-0.1,0.8l-0.1,0
								c-2,1.1-3.4,2.4-3.9,3.6l0,0.1L81.7,185.1C81.8,185,81.8,185,81.7,185.1z M79.1,183.4c1.8,1.3,2.4,1.3,2.5,1.3
								c0.6-1.3,2-2.6,4-3.7c0.1-0.2,0-0.7-1.5-2.2c-6.3-5.9-11.7-12.8-16.2-20.4c-1-1.5-1.8-2.2-2.5-2c-3.1,1.8-5.2,3.6-6,5.6
								c-0.1,0.6,0.4,1.6,1.5,3.1C65.8,172.1,72,178.3,79.1,183.4z M58.9,161.3c0,0.2,0,0.4,0.1,0.7c0,0,0,0,0-0.1l0-0.1
								c0.9-2,3-4,6.2-5.8l0,0c0.8-0.2,1.6,0.3,2.5,1.5c-1.1-1.5-2-2.1-2.8-1.9C61.8,157.4,59.8,159.3,58.9,161.3z"/>
						</g>
					</g>
				</g>
			</g>
		</g>
	</g>
</g>
</svg>
