<?xml version="1.0" encoding="utf-8"?>
<!-- Generator: Adobe Illustrator 22.1.0, SVG Export Plug-In . SVG Version: 6.00 Build 0)  -->
<svg version="1.1" id="Layer_1" xmlns="http://www.w3.org/2000/svg" xmlns:xlink="http://www.w3.org/1999/xlink" x="0px" y="0px"
	 viewBox="0 0 381 449" enable-background="new 0 0 381 449" xml:space="preserve">
<g>
	<path fill="#07B2F8" d="M358.926,197.781H249.046l-4.23,1.752l-20.408,20.408H195.43c-2.456-6.758-8.923-11.607-16.519-11.607
		c-9.699,0-17.589,7.89-17.589,17.589s7.89,17.589,17.589,17.589c7.596,0,14.064-4.849,16.519-11.607h31.456l4.23-1.752
		l20.408-20.408h107.402c3.304,0,5.982-2.678,5.982-5.982C364.908,200.459,362.23,197.781,358.926,197.781z M178.911,231.548
		c-3.102,0-5.625-2.524-5.625-5.625s2.524-5.625,5.625-5.625s5.625,2.524,5.625,5.625S182.012,231.548,178.911,231.548z"/>
	<path fill="#07B2F8" d="M137.881,162.261l14.076,14.076l4.23,1.752h45.374l4.23-1.752l13.549-13.549h34.982H355.84
		c3.304,0,5.982-2.678,5.982-5.982c0-3.304-2.678-5.982-5.982-5.982h-99.01l-28.843-29.341l-4.266-1.788H187.48
		c-2.456-6.758-8.923-11.607-16.519-11.607c-9.699,0-17.589,7.89-17.589,17.589s7.89,17.589,17.589,17.589
		c7.596,0,14.064-4.849,16.519-11.607h33.733l18.84,19.165h-23.19l-4.23,1.752l-13.549,13.549h-40.417l-14.076-14.076l-4.23-1.752
		h-35.186c-2.456-6.758-8.923-11.607-16.519-11.607c-9.699,0-17.589,7.89-17.589,17.589c0,9.699,7.89,17.589,17.589,17.589
		c7.596,0,14.064-4.849,16.519-11.607H137.881z M170.961,131.303c-3.102,0-5.625-2.524-5.625-5.625c0-3.102,2.524-5.625,5.625-5.625
		s5.625,2.524,5.625,5.625C176.586,128.779,174.062,131.303,170.961,131.303z M88.654,161.904c-3.102,0-5.625-2.524-5.625-5.625
		s2.524-5.625,5.625-5.625s5.625,2.524,5.625,5.625S91.756,161.904,88.654,161.904z"/>
	<path fill="#07B2F8" d="M270.15,148.543c7.596,0,14.064-4.849,16.519-11.607h60.312c3.304,0,5.982-2.678,5.982-5.982
		c0-3.304-2.678-5.982-5.982-5.982h-60.312c-2.456-6.758-8.923-11.607-16.519-11.607c-9.699,0-17.589,7.89-17.589,17.589
		S260.451,148.543,270.15,148.543z M270.15,125.328c3.102,0,5.625,2.524,5.625,5.625c0,3.102-2.524,5.625-5.625,5.625
		c-3.102,0-5.625-2.524-5.625-5.625C264.525,127.852,267.048,125.328,270.15,125.328z"/>
	<path fill="#07B2F8" d="M135.775,204.469h78.449l4.23-1.752l16.187-16.187h125.345c3.304,0,5.982-2.678,5.982-5.982
		c0-3.304-2.678-5.982-5.982-5.982H232.163l-4.23,1.752l-16.187,16.187h-75.971c-2.456-6.758-8.923-11.607-16.519-11.607
		c-9.699,0-17.589,7.89-17.589,17.589s7.89,17.589,17.589,17.589C126.852,216.076,133.319,211.227,135.775,204.469z
		 M119.255,204.112c-3.102,0-5.625-2.524-5.625-5.625s2.524-5.625,5.625-5.625s5.625,2.524,5.625,5.625
		S122.357,204.112,119.255,204.112z"/>
	<path fill="#07B2F8" d="M350.686,220.996h-88.178l-4.23,1.752l-27.794,27.794h-73.189c-2.456-6.758-8.923-11.607-16.519-11.607
		c-9.699,0-17.589,7.89-17.589,17.589c0,9.699,7.89,17.589,17.589,17.589c7.596,0,14.064-4.849,16.519-11.607h75.667l4.23-1.752
		l27.794-27.794h85.699c3.304,0,5.982-2.678,5.982-5.982S353.989,220.996,350.686,220.996z M140.776,262.149
		c-3.102,0-5.625-2.524-5.625-5.625c0-3.102,2.524-5.625,5.625-5.625s5.625,2.524,5.625,5.625
		C146.401,259.625,143.878,262.149,140.776,262.149z"/>
</g>
<path fill="#333333" d="M366.935,152.422C347.859,85.676,303.157,40.38,234.072,17.795c-47.386-15.493-91.235-9.629-130.329,17.432
	c-34.434,23.833-56.007,57.303-64.121,99.479c-3.277,17.034-4.719,34.677-6.112,51.737c-0.515,6.296-1.047,12.806-1.663,19.181
	c-0.801,8.283-1.063,16.732-1.318,24.904l-0.076,2.429c-0.527,16.601-5.973,30.632-16.188,41.701l-2.315,2.509H28.83l0.449-0.566
	c7.928-9.993,13.43-25.536,14.358-40.565c0.498-8.069,0.895-16.278,1.28-24.217c0.735-15.186,1.495-30.891,2.993-46.245
	c5.946-60.989,31.615-102.897,78.474-128.118c28.09-15.121,58.507-18.66,90.413-10.514c54.99,14.038,93.96,41.993,119.134,85.462
	c11.655,20.122,19.048,41.276,21.978,62.874c3.888,28.667-4.761,53.174-25.704,72.838c-8.965,8.417-12.578,17.596-11.343,29.052
	c3.919,17.662,7.725,36.223,7.511,52.101c0.314,3.199-0.27,8.256-2.165,9.416c-1.205,0.538-7.155-1.41-11.494-2.83
	c-4.704-1.54-10.037-3.283-14.142-3.833c-4.635-0.631-9.003,0.534-12.296,3.258c-3.074,2.541-4.895,6.234-5.127,10.402
	c-0.315,5.655,0.086,10.762,1.193,15.179c0.504,2.009,0.504,3.407,0.001,4.042c-0.48,0.608-1.73,0.911-3.693,0.872
	c-0.992-0.012-1.987-0.047-2.98-0.085c-2.251-0.078-4.577-0.161-6.889,0.006c-3.219,0.237-5.412,1.309-6.519,3.188
	c-1.117,1.894-0.985,4.367,0.39,7.345c0.309,0.668,0.666,1.319,1.023,1.97c0.573,1.043,1.115,2.03,1.407,3.036
	c0.836,2.881,0.807,5.012-0.086,6.333c-0.78,1.154-2.358,1.857-4.69,2.09c-10.852,1.086-17.493,7.079-20.9,18.866
	c-0.702,2.428-1.559,4.542-2.547,6.286c-3.496,6.162-6.845,9.482-10.541,10.447c-3.275,0.853-7.058-0.052-11.566-2.778
	c-10.593-6.403-21.936-13.184-36.779-21.986c-1.373-0.814-2.853-1.36-4.286-1.89l-0.719-0.266
	c-23.096-8.66-40.206-3.685-57.205,16.628l-2.055,2.457h16.708l0.446-0.509c7.952-9.033,18.018-12.048,28.356-8.489
	c9.408,3.242,18.518,8.048,27.327,12.693l3.979,2.094c3.312,1.733,6.538,3.848,9.658,5.892c3.304,2.166,6.719,4.404,10.308,6.249
	c4.925,2.527,9.576,3.79,13.94,3.79c7.923,0,14.899-4.163,20.838-12.465c1.738-2.432,3.67-5.284,4.579-8.367
	c2.766-9.367,6.574-15.439,16.997-16.758c7.741-0.981,12.573-8.163,12.023-17.873c-0.075-1.34-0.191-2.677-0.298-3.928l-0.03-0.361
	c0.917-0.286,1.82-0.573,2.711-0.855c2.796-0.886,5.437-1.723,8.115-2.455c3.883-1.061,8.237-3.949,6.932-11.663
	c-0.411-2.432-0.959-4.862-1.49-7.211c-0.413-1.832-0.827-3.662-1.179-5.503c-0.326-1.704-0.48-3.978,0.632-5.132
	c1.12-1.169,3.425-1.105,5.163-0.837c3.198,0.48,6.408,1.366,9.511,2.222c4.687,1.292,9.533,2.628,14.574,2.671
	c0.057,0,0.111,0,0.167,0c11.064,0,13.254-9.087,13.936-15.937c0.965-9.693,0.493-14.416-0.29-22.244
	c-0.156-1.564-0.326-3.262-0.5-5.156c-0.406-4.417-1.351-10.61-2.264-16.599c-0.982-6.434-1.997-13.088-2.382-17.725
	c-0.42-5.071,1.171-9.106,5.009-12.701C369.844,231.554,379.181,195.269,366.935,152.422z"/>
<g>
</g>
<g>
</g>
<g>
</g>
<g>
</g>
<g>
</g>
<g>
</g>
<g>
</g>
<g>
</g>
<g>
</g>
<g>
</g>
<g>
</g>
<g>
</g>
<g>
</g>
<g>
</g>
<g>
</g>
</svg>
