<?xml version="1.0" encoding="utf-8"?>
<!-- Generator: Adobe Illustrator 22.1.0, SVG Export Plug-In . SVG Version: 6.00 Build 0)  -->
<svg version="1.1" xmlns="http://www.w3.org/2000/svg" xmlns:xlink="http://www.w3.org/1999/xlink" x="0px" y="0px"
	 viewBox="0 0 381 449" style="enable-background:new 0 0 381 449;" xml:space="preserve">
<style type="text/css">
	.st0{fill:#07B2F8;}
	.st1{fill:#30323F;}
	.st2{display:none;}
	.st3{display:inline;fill:none;}
	.st4{display:inline;}
	.st5{font-family:'Impact';}
	.st6{font-size:111px;}
</style>
<g id="Layer_1">
	<g>
		<path class="st0" d="M358.9,197.8H249l-4.2,1.8l-20.4,20.4h-29c-2.5-6.8-8.9-11.6-16.5-11.6c-9.7,0-17.6,7.9-17.6,17.6
			s7.9,17.6,17.6,17.6c7.6,0,14.1-4.8,16.5-11.6h31.5l4.2-1.8l20.4-20.4h107.4c3.3,0,6-2.7,6-6C364.9,200.5,362.2,197.8,358.9,197.8
			z M178.9,231.5c-3.1,0-5.6-2.5-5.6-5.6s2.5-5.6,5.6-5.6s5.6,2.5,5.6,5.6S182,231.5,178.9,231.5z"/>
		<path class="st0" d="M137.9,162.3l14.1,14.1l4.2,1.8h45.4l4.2-1.8l13.5-13.5h35h101.5c3.3,0,6-2.7,6-6s-2.7-6-6-6h-99L228,121.5
			l-4.3-1.8h-36.2c-2.5-6.8-8.9-11.6-16.5-11.6c-9.7,0-17.6,7.9-17.6,17.6s7.9,17.6,17.6,17.6c7.6,0,14.1-4.8,16.5-11.6h33.7
			l18.8,19.2h-23.2l-4.2,1.8l-13.5,13.5h-40.4L144.6,152l-4.2-1.8h-35.2c-2.5-6.8-8.9-11.6-16.5-11.6c-9.7,0-17.6,7.9-17.6,17.6
			s7.9,17.6,17.6,17.6c7.6,0,14.1-4.8,16.5-11.6L137.9,162.3L137.9,162.3z M171,131.3c-3.1,0-5.6-2.5-5.6-5.6c0-3.1,2.5-5.6,5.6-5.6
			s5.6,2.5,5.6,5.6C176.6,128.8,174.1,131.3,171,131.3z M88.7,161.9c-3.1,0-5.6-2.5-5.6-5.6s2.5-5.6,5.6-5.6s5.6,2.5,5.6,5.6
			S91.8,161.9,88.7,161.9z"/>
		<path class="st0" d="M270.1,148.5c7.6,0,14.1-4.8,16.5-11.6H347c3.3,0,6-2.7,6-6s-2.7-6-6-6h-60.3c-2.5-6.8-8.9-11.6-16.5-11.6
			c-9.7,0-17.6,7.9-17.6,17.6S260.5,148.5,270.1,148.5z M270.1,125.3c3.1,0,5.6,2.5,5.6,5.6c0,3.1-2.5,5.6-5.6,5.6
			c-3.1,0-5.6-2.5-5.6-5.6C264.5,127.9,267,125.3,270.1,125.3z"/>
		<path class="st0" d="M135.8,204.5h78.4l4.2-1.8l16.2-16.2H360c3.3,0,6-2.7,6-6s-2.7-6-6-6H232.2l-4.2,1.8l-16.2,16.2h-76
			c-2.5-6.8-8.9-11.6-16.5-11.6c-9.7,0-17.6,7.9-17.6,17.6s7.9,17.6,17.6,17.6C126.9,216.1,133.3,211.2,135.8,204.5z M119.3,204.1
			c-3.1,0-5.6-2.5-5.6-5.6s2.5-5.6,5.6-5.6s5.6,2.5,5.6,5.6S122.4,204.1,119.3,204.1z"/>
		<path class="st0" d="M350.7,221h-88.2l-4.2,1.8l-27.8,27.8h-73.2c-2.5-6.8-8.9-11.6-16.5-11.6c-9.7,0-17.6,7.9-17.6,17.6
			s7.9,17.6,17.6,17.6c7.6,0,14.1-4.8,16.5-11.6H233l4.2-1.8L265,233h85.7c3.3,0,6-2.7,6-6S354,221,350.7,221z M140.8,262.1
			c-3.1,0-5.6-2.5-5.6-5.6c0-3.1,2.5-5.6,5.6-5.6s5.6,2.5,5.6,5.6C146.4,259.6,143.9,262.1,140.8,262.1z"/>
	</g>
	<path class="st1" d="M366.9,152.4c-19.1-66.7-63.8-112-132.9-134.6c-47.4-15.5-91.2-9.6-130.3,17.4c-34.4,23.8-56,57.3-64.1,99.5
		c-3.3,17-4.7,34.7-6.1,51.7c-0.5,6.3-1,12.8-1.7,19.2c-0.8,8.3-1.1,16.7-1.3,24.9l-0.1,2.4c-0.5,16.6-6,30.6-16.2,41.7l-2.3,2.5
		h16.9l0.4-0.6c7.9-10,13.4-25.5,14.4-40.6c0.5-8.1,0.9-16.3,1.3-24.2c0.7-15.2,1.5-30.9,3-46.2c5.9-61,31.6-102.9,78.5-128.1
		c28.1-15.1,58.5-18.7,90.4-10.5c55,14,94,42,119.1,85.5c11.7,20.1,19,41.3,22,62.9c3.9,28.7-4.8,53.2-25.7,72.8
		c-9,8.4-12.6,17.6-11.3,29.1c3.9,17.7,7.7,36.2,7.5,52.1c0.3,3.2-0.3,8.3-2.2,9.4c-1.2,0.5-7.2-1.4-11.5-2.8
		c-4.7-1.5-10-3.3-14.1-3.8c-4.6-0.6-9,0.5-12.3,3.3c-3.1,2.5-4.9,6.2-5.1,10.4c-0.3,5.7,0.1,10.8,1.2,15.2c0.5,2,0.5,3.4,0,4
		c-0.5,0.6-1.7,0.9-3.7,0.9c-1,0-2,0-3-0.1c-2.3-0.1-4.6-0.2-6.9,0c-3.2,0.2-5.4,1.3-6.5,3.2c-1.1,1.9-1,4.4,0.4,7.3
		c0.3,0.7,0.7,1.3,1,2c0.6,1,1.1,2,1.4,3c0.8,2.9,0.8,5-0.1,6.3c-0.8,1.2-2.4,1.9-4.7,2.1c-10.9,1.1-17.5,7.1-20.9,18.9
		c-0.7,2.4-1.6,4.5-2.5,6.3c-3.5,6.2-6.8,9.5-10.5,10.4c-3.3,0.9-7.1-0.1-11.6-2.8c-10.6-6.4-21.9-13.2-36.8-22
		c-1.4-0.8-2.9-1.4-4.3-1.9l-0.7-0.3c-23.1-8.7-40.2-3.7-57.2,16.6l-2.1,2.5h16.7l0.4-0.5c8-9,18-12,28.4-8.5
		c9.4,3.2,18.5,8,27.3,12.7l4,2.1c3.3,1.7,6.5,3.8,9.7,5.9c3.3,2.2,6.7,4.4,10.3,6.2c4.9,2.5,9.6,3.8,13.9,3.8
		c7.9,0,14.9-4.2,20.8-12.5c1.7-2.4,3.7-5.3,4.6-8.4c2.8-9.4,6.6-15.4,17-16.8c7.7-1,12.6-8.2,12-17.9c-0.1-1.3-0.2-2.7-0.3-3.9
		l0-0.4c0.9-0.3,1.8-0.6,2.7-0.9c2.8-0.9,5.4-1.7,8.1-2.5c3.9-1.1,8.2-3.9,6.9-11.7c-0.4-2.4-1-4.9-1.5-7.2
		c-0.4-1.8-0.8-3.7-1.2-5.5c-0.3-1.7-0.5-4,0.6-5.1c1.1-1.2,3.4-1.1,5.2-0.8c3.2,0.5,6.4,1.4,9.5,2.2c4.7,1.3,9.5,2.6,14.6,2.7
		c0.1,0,0.1,0,0.2,0c11.1,0,13.3-9.1,13.9-15.9c1-9.7,0.5-14.4-0.3-22.2c-0.2-1.6-0.3-3.3-0.5-5.2c-0.4-4.4-1.4-10.6-2.3-16.6
		c-1-6.4-2-13.1-2.4-17.7c-0.4-5.1,1.2-9.1,5-12.7C369.8,231.6,379.2,195.3,366.9,152.4z"/>
</g>
<g id="Layer_2" class="st2">
	<rect x="10" y="310" class="st3" width="168.9" height="139"/>
	<text transform="matrix(1 0 0 1 10 397.7998)" class="st4 st5 st6">FB</text>
</g>
</svg>
