<?xml version="1.0" encoding="utf-8"?>
<!-- Generator: Adobe Illustrator 22.1.0, SVG Export Plug-In . SVG Version: 6.00 Build 0)  -->
<svg version="1.1" id="Layer_1" xmlns="http://www.w3.org/2000/svg" xmlns:xlink="http://www.w3.org/1999/xlink" x="0px" y="0px"
	 viewBox="0 0 381 449" style="enable-background:new 0 0 381 449;" xml:space="preserve">
<style type="text/css">
	.st0{fill:#07B2F8;}
	.st1{fill:#8B8D9B;}
</style>
<g>
	<path class="st0" d="M358.9,197.8H249l-4.2,1.8l-20.4,20.4h-29c-2.5-6.8-8.9-11.6-16.5-11.6c-9.7,0-17.6,7.9-17.6,17.6
		s7.9,17.6,17.6,17.6c7.6,0,14.1-4.8,16.5-11.6h31.5l4.2-1.8l20.4-20.4h107.4c3.3,0,6-2.7,6-6C364.9,200.5,362.2,197.8,358.9,197.8z
		 M178.9,231.5c-3.1,0-5.6-2.5-5.6-5.6s2.5-5.6,5.6-5.6s5.6,2.5,5.6,5.6S182,231.5,178.9,231.5z"/>
	<path class="st0" d="M137.9,162.3l14.1,14.1l4.2,1.8h45.4l4.2-1.8l13.5-13.5h35h101.5c3.3,0,6-2.7,6-6s-2.7-6-6-6h-99L228,121.5
		l-4.3-1.8h-36.2c-2.5-6.8-8.9-11.6-16.5-11.6c-9.7,0-17.6,7.9-17.6,17.6s7.9,17.6,17.6,17.6c7.6,0,14.1-4.8,16.5-11.6h33.7
		l18.8,19.2h-23.2l-4.2,1.8l-13.5,13.5h-40.4L144.6,152l-4.2-1.8h-35.2c-2.5-6.8-8.9-11.6-16.5-11.6c-9.7,0-17.6,7.9-17.6,17.6
		s7.9,17.6,17.6,17.6c7.6,0,14.1-4.8,16.5-11.6L137.9,162.3L137.9,162.3z M171,131.3c-3.1,0-5.6-2.5-5.6-5.6c0-3.1,2.5-5.6,5.6-5.6
		s5.6,2.5,5.6,5.6C176.6,128.8,174.1,131.3,171,131.3z M88.7,161.9c-3.1,0-5.6-2.5-5.6-5.6s2.5-5.6,5.6-5.6s5.6,2.5,5.6,5.6
		S91.8,161.9,88.7,161.9z"/>
	<path class="st0" d="M270.1,148.5c7.6,0,14.1-4.8,16.5-11.6H347c3.3,0,6-2.7,6-6s-2.7-6-6-6h-60.3c-2.5-6.8-8.9-11.6-16.5-11.6
		c-9.7,0-17.6,7.9-17.6,17.6S260.5,148.5,270.1,148.5z M270.1,125.3c3.1,0,5.6,2.5,5.6,5.6c0,3.1-2.5,5.6-5.6,5.6
		c-3.1,0-5.6-2.5-5.6-5.6C264.5,127.9,267,125.3,270.1,125.3z"/>
	<path class="st0" d="M135.8,204.5h78.4l4.2-1.8l16.2-16.2H360c3.3,0,6-2.7,6-6s-2.7-6-6-6H232.2l-4.2,1.8l-16.2,16.2h-76
		c-2.5-6.8-8.9-11.6-16.5-11.6c-9.7,0-17.6,7.9-17.6,17.6s7.9,17.6,17.6,17.6C126.9,216.1,133.3,211.2,135.8,204.5z M119.3,204.1
		c-3.1,0-5.6-2.5-5.6-5.6s2.5-5.6,5.6-5.6s5.6,2.5,5.6,5.6S122.4,204.1,119.3,204.1z"/>
	<path class="st0" d="M350.7,221h-88.2l-4.2,1.8l-27.8,27.8h-73.2c-2.5-6.8-8.9-11.6-16.5-11.6c-9.7,0-17.6,7.9-17.6,17.6
		s7.9,17.6,17.6,17.6c7.6,0,14.1-4.8,16.5-11.6H233l4.2-1.8L265,233h85.7c3.3,0,6-2.7,6-6S354,221,350.7,221z M140.8,262.1
		c-3.1,0-5.6-2.5-5.6-5.6c0-3.1,2.5-5.6,5.6-5.6s5.6,2.5,5.6,5.6C146.4,259.6,143.9,262.1,140.8,262.1z"/>
</g>
<path class="st1" d="M367.4,152.3C348.3,85.4,303.5,40,234.2,17.3c-47.5-15.5-91.5-9.7-130.8,17.5c-34.5,23.9-56.2,57.5-64.3,99.8
	c-3.3,17.1-4.7,34.7-6.1,51.8c-0.5,6.3-1,12.8-1.7,19.2c-0.8,8.3-1.1,16.7-1.3,24.8l-0.1,2.5c-0.5,16.5-5.9,30.4-16.1,41.4l-3.1,3.3
	h18.3l0.6-0.8c8-10.1,13.5-25.7,14.5-40.8c0.5-8,0.9-16.2,1.3-24.2c0.7-15.2,1.5-30.9,3-46.2C54.3,104.8,79.9,63,126.6,37.9
	c28-15.1,58.3-18.6,90.1-10.5c54.9,14,93.7,41.9,118.8,85.2c11.6,20.1,19,41.2,21.9,62.7c3.9,28.5-4.7,52.9-25.6,72.4
	c-9.1,8.5-12.7,17.9-11.5,29.5c3.9,17.6,7.7,36.2,7.5,52c0.3,3.5-0.4,8-1.9,8.9c-1,0.5-7.6-1.7-11.1-2.8c-4.7-1.5-10.1-3.3-14.2-3.9
	c-4.8-0.7-9.3,0.5-12.7,3.4c-3.2,2.6-5.1,6.5-5.3,10.8c-0.3,5.7,0.1,10.9,1.2,15.3c0.6,2.6,0.3,3.4,0.1,3.6
	c-0.2,0.2-0.9,0.7-3.3,0.7c-1,0-2,0-3-0.1c-2.2-0.1-4.6-0.2-6.9,0c-3.4,0.2-5.7,1.4-6.9,3.4c-1.2,2-1.1,4.7,0.4,7.8
	c0.3,0.7,0.7,1.3,1,2c0.6,1,1.1,2,1.4,2.9c0.8,2.7,0.8,4.7,0,5.9c-0.7,1-2.1,1.7-4.3,1.9c-11.1,1.1-17.9,7.2-21.3,19.2
	c-0.7,2.4-1.5,4.5-2.5,6.2c-3.4,6-6.7,9.3-10.2,10.2c-3.1,0.8-6.8-0.1-11.2-2.7c-10.7-6.4-22-13.2-36.8-22c-1.4-0.8-2.9-1.4-4.4-1.9
	l-0.7-0.3c-23.3-8.7-40.6-3.7-57.8,16.8l-2.7,3.3h18l0.6-0.7c7.8-8.9,17.7-11.8,27.8-8.3c9.4,3.2,18.4,8,27.3,12.7l4,2.1
	c3.3,1.7,6.5,3.8,9.6,5.9c3.3,2.2,6.7,4.4,10.4,6.3c5,2.6,9.7,3.8,14.2,3.8c8.1,0,15.2-4.3,21.2-12.7c1.8-2.5,3.7-5.4,4.7-8.5
	c2.7-9.2,6.4-15.1,16.6-16.4c8-1,13-8.4,12.5-18.4c-0.1-1.3-0.2-2.5-0.3-3.7l0-0.2c0.8-0.2,1.6-0.5,2.4-0.8c2.8-0.9,5.4-1.7,8-2.4
	c4.1-1.1,8.7-4.1,7.3-12.2c-0.4-2.5-1-5-1.5-7.2l0-0.2c-0.4-1.7-0.8-3.5-1.1-5.3c-0.4-2.2-0.3-3.9,0.5-4.7c0.8-0.8,2.4-1,4.7-0.7
	c3.2,0.5,6.4,1.4,9.5,2.2c4.7,1.3,9.6,2.6,14.7,2.7h0.2c11.5,0,13.7-9.4,14.4-16.4c1-9.7,0.5-14.5-0.3-22.4
	c-0.2-1.5-0.3-3.2-0.5-5.1c-0.4-4.4-1.3-10.6-2.3-16.6l0-0.1c-1-6.4-2-13-2.4-17.7c-0.4-4.9,1.1-8.8,4.9-12.3
	C370.3,231.8,379.7,195.3,367.4,152.3z"/>
</svg>
